<svg xmlns="http://www.w3.org/2000/svg" width="1200" height="630" viewBox="0 0 1200 630">
  <defs>
    <linearGradient id="bg" x1="0%" y1="0%" x2="100%" y2="100%">
      <stop offset="0%" stop-color="#0c1a4a"/>
      <stop offset="50%" stop-color="#1641B4"/>
      <stop offset="100%" stop-color="#0f2d7a"/>
    </linearGradient>
  </defs>
  <rect width="1200" height="630" fill="url(#bg)"/>
  <g transform="translate(80,180)">
    <rect width="100" height="100" rx="18" fill="rgba(255,255,255,0.15)"/>
    <g transform="translate(15,14)">
      <path d="M0 5 Q0 0 5 0 L22 0 L35 25 L48 0 L65 0 Q70 0 70 5 L70 45 Q70 50 65 50 L52 50 L52 20 L40 42 Q38 46 35 46 Q32 46 30 42 L18 20 L18 50 L5 50 Q0 50 0 45 Z" fill="#ffffff"/>
    </g>
    <text x="50" y="86" text-anchor="middle" font-family="Inter,sans-serif" font-weight="800" font-size="17" letter-spacing="1" fill="rgba(255,255,255,0.85)">WINS</text>
  </g>
  <text x="210" y="225" font-family="Inter,sans-serif" font-weight="800" font-size="52" fill="#ffffff">MzansiWins</text>
  <text x="210" y="268" font-family="Inter,sans-serif" font-weight="400" font-size="22" fill="rgba(255,255,255,0.8)">South Africa's Independent Betting Reviews</text>
  <rect x="80" y="450" width="1040" height="1" fill="rgba(255,255,255,0.2)"/>
  <text x="80" y="490" font-family="Inter,sans-serif" font-weight="600" font-size="18" fill="rgba(255,255,255,0.7)">Honest reviews from real SA punters - mzansiwins.co.za</text>
</svg>