<svg width="42" height="42" viewBox="0 0 42 42" fill="none" xmlns="http://www.w3.org/2000/svg">
<rect width="42" height="42" rx="6" fill="#FF5F00"/>
<path d="M18.4897 15.9099C18.4897 16.1261 18.3721 16.3164 18.1983 16.4436C18.0191 16.5749 17.6935 16.7938 17.5074 16.8992C17.2913 17.0223 17.0299 17.0346 16.8219 16.8992L11.2931 14.2052C10.9046 13.9575 10.9018 13.3912 11.2877 13.1381L17.5074 8.4753C17.9302 8.19893 18.4911 8.5013 18.4911 9.00615V15.9072L18.4897 15.9099ZM28.6033 35.0603C28.6033 35.8088 27.7687 36.2561 27.1462 35.8416L20.5269 31.4387C20.2656 31.265 20.1083 30.9654 20.1083 30.6507C20.1083 24.721 20.1083 6.94021 20.1083 6.94021C20.1083 6.19182 20.9402 5.74442 21.564 6.1576L27.5443 10.1184C28.2051 10.5563 28.6033 11.2965 28.6033 12.0886V35.0603Z" fill="white"/>
</svg>
