<svg width="42" height="42" viewBox="0 0 42 42" fill="none" xmlns="http://www.w3.org/2000/svg">
<rect width="42" height="42" rx="6" fill="black"/>
<path fill-rule="evenodd" clip-rule="evenodd" d="M24.9363 10.8752C25.428 9.98822 25.6833 9.03488 25.5577 8.00329H25.5585C25.5206 8.00329 25.4851 8.00239 25.4512 8.00153C25.3845 7.99985 25.3241 7.99832 25.2644 8.00408C22.9063 8.22542 20.6621 10.7305 20.6906 13.0885C20.6945 13.4324 20.81 13.5573 21.1554 13.517C22.8937 13.3138 24.1111 12.3637 24.9363 10.8752ZM30.6089 25.6613C26.6391 23.7879 26.2146 18.5603 29.9552 16.1477V16.147C29.3512 15.2814 28.5892 14.6561 27.6469 14.2585C26.0596 13.5889 24.4858 13.6775 22.8905 14.2869C22.6347 14.3846 22.4167 14.4722 22.2263 14.5488C20.9666 15.0551 20.9132 15.0765 19.1128 14.3178C16.0346 13.0206 13.1793 14.7533 11.996 16.9145C11.2695 18.2418 10.9572 19.6662 11.0047 21.1579C11.124 24.8795 12.4995 28.104 15.0141 30.8367C16.1777 32.1023 17.3081 32.2888 18.9001 31.6209C19.3942 31.4138 19.9041 31.2209 20.4258 31.1102C21.4787 30.8873 22.4771 31.1134 23.4518 31.5553C25.1901 32.3434 26.5387 32.0738 27.7347 30.5798C28.526 29.5917 29.1924 28.4976 29.8508 27.4123C30.076 27.0409 30.233 26.6283 30.3897 26.2168C30.4607 26.0301 30.5317 25.8436 30.6089 25.6613Z" fill="white"/>
</svg>
