<svg width="42" height="42" viewBox="0 0 42 42" fill="none" xmlns="http://www.w3.org/2000/svg">
<rect width="42" height="42" rx="6" fill="#00B33C"/>
<path d="M25.8024 12.0541L21.3796 5L16.9567 12.0541H19.5021V16.768H23.257V12.0541H25.8024Z" fill="white"/>
<path d="M31.7592 17.3668L28.6413 12.3929L25.5233 17.3668H27.3173V20.6923H29.9652V17.3668H31.7592Z" fill="white"/>
<path d="M17.2383 17.3668L14.1179 12.3929L11 17.3668H12.7963V20.6923H15.4419V17.3668H17.2383Z" fill="white"/>
<path d="M20.2154 26.4772C20.1128 26.6061 20.0627 26.7564 20.0627 26.9257C20.0627 27.1285 20.1224 27.2979 20.2417 27.4291C20.3609 27.5603 20.5327 27.6653 20.7569 27.744C20.8023 27.7607 20.8595 27.775 20.9096 27.7893V26.1099C20.8261 26.1266 20.7426 26.1433 20.6711 26.1695C20.4707 26.2435 20.3204 26.346 20.2178 26.4749L20.2154 26.4772Z" fill="white"/>
<path d="M22.1287 29.3232V30.912C22.3195 30.8357 22.477 30.7403 22.5962 30.6162C22.7251 30.485 22.7895 30.3323 22.7895 30.163C22.7895 29.9602 22.7274 29.786 22.6058 29.6429C22.4984 29.5189 22.3338 29.4139 22.1263 29.3232H22.1287Z" fill="white"/>
<path d="M21.3796 20.3535C16.7826 20.3535 13.0563 24.0798 13.0563 28.6768C13.0563 33.2737 16.7826 37 21.3796 37C25.9766 37 29.7028 33.2737 29.7028 28.6768C29.7028 24.0798 25.9766 20.3535 21.3796 20.3535ZM23.6435 31.2317C23.4002 31.5514 23.0781 31.7947 22.6821 31.9641C22.5032 32.0404 22.3171 32.0929 22.1263 32.1358V32.768C22.1263 32.9445 22.0666 33.0924 21.9473 33.2117C21.8281 33.331 21.6802 33.3906 21.5036 33.3906C21.3271 33.3906 21.1911 33.331 21.0766 33.2117C20.9621 33.0924 20.9025 32.9445 20.9025 32.768V32.1859C20.621 32.1573 20.3514 32.1167 20.1081 32.0404C19.7288 31.9211 19.3662 31.7136 19.0203 31.413C18.932 31.3391 18.8652 31.2532 18.8175 31.1578C18.7698 31.0623 18.7459 30.9669 18.7459 30.8739C18.7459 30.7188 18.8008 30.5804 18.9129 30.4612C19.025 30.3419 19.1658 30.2822 19.3351 30.2822C19.464 30.2822 19.5785 30.3228 19.6811 30.4039C19.9387 30.6138 20.194 30.7737 20.4492 30.8834C20.5828 30.9407 20.7355 30.9812 20.9025 31.0075V29.0155C20.6138 28.963 20.3466 28.8938 20.12 28.8032C19.8409 28.6911 19.6095 28.5479 19.4234 28.3762C19.2373 28.2044 19.0966 27.9993 19.0012 27.7655C18.9057 27.5317 18.858 27.2693 18.858 26.9759C18.858 26.5345 18.9725 26.1576 19.1992 25.8451C19.4258 25.5326 19.7335 25.2964 20.12 25.1318C20.3633 25.0292 20.6281 24.972 20.9025 24.9338V24.5831C20.9025 24.4066 20.9621 24.2587 21.0814 24.1394C21.2007 24.0201 21.3486 23.9605 21.5251 23.9605C21.7016 23.9605 21.8448 24.0201 21.9569 24.1394C22.069 24.2587 22.1239 24.4066 22.1239 24.5831V24.96C22.2956 24.9934 22.4674 25.0316 22.6272 25.0865C23.0042 25.2201 23.3095 25.3871 23.5481 25.5898C23.7437 25.7449 23.8439 25.9262 23.8439 26.129C23.8439 26.2793 23.7866 26.4129 23.6697 26.5369C23.5552 26.6586 23.4192 26.7206 23.2618 26.7206C23.1592 26.7206 23.0686 26.6896 22.9875 26.6299C22.8801 26.5345 22.7322 26.4439 22.5485 26.3604C22.4125 26.2984 22.267 26.2506 22.1215 26.2029V28.0756C22.3028 28.1209 22.4698 28.1686 22.6248 28.2187C22.9326 28.3213 23.1902 28.4525 23.393 28.61C23.5958 28.7698 23.7484 28.9702 23.851 29.2111C23.9536 29.4521 24.0037 29.7455 24.0037 30.0914C24.0037 30.5327 23.882 30.912 23.6363 31.2317H23.6435Z" fill="white"/>
</svg>
