<svg width="42" height="42" viewBox="0 0 42 42" fill="none" xmlns="http://www.w3.org/2000/svg">
<rect width="42" height="42" rx="6" fill="#FECB00"/>
<path d="M20.7501 27.2533C18.0817 27.2422 15.2044 26.9577 12.3834 26.2154C10.7087 25.7744 9.09004 25.1897 7.61185 24.2658C6.916 23.8309 6.27877 23.3248 5.77091 22.6729C5.26198 22.0192 4.95355 21.2934 5.00572 20.446C5.04575 19.7959 5.29736 19.2244 5.67727 18.7055C6.26161 17.9067 7.03287 17.3234 7.87454 16.827C9.32699 15.971 10.901 15.4181 12.525 15C14.6071 14.4639 16.7269 14.1787 18.8716 14.06C20.8076 13.9528 22.74 13.9878 24.6689 14.1762C27.1953 14.4228 29.6728 14.8978 32.0462 15.8274C33.2821 16.3113 34.4562 16.9099 35.4676 17.7873C35.8561 18.1243 36.2049 18.4985 36.4769 18.9378C37.1749 20.0646 37.1749 21.1947 36.474 22.3187C36.0773 22.9549 35.5358 23.4552 34.9343 23.8923C33.7521 24.7515 32.4301 25.3269 31.0534 25.7872C29.1949 26.408 27.2829 26.7804 25.3397 27.0063C23.8951 27.1743 22.4455 27.2511 20.7497 27.2536L20.7501 27.2533ZM15.0199 21.1543C15.0081 21.1508 14.9963 21.1475 14.9846 21.144C14.9846 21.1218 14.9846 21.0996 14.9846 21.0775C14.9846 19.8984 14.9824 18.719 14.9878 17.54C14.9885 17.4027 14.9567 17.3581 14.8119 17.3595C14.0378 17.367 13.2637 17.3656 12.4892 17.3602C12.3731 17.3595 12.3245 17.3927 12.2966 17.5071C11.7816 19.6161 11.2641 21.7244 10.7416 23.8312C10.709 23.9624 10.7305 23.9949 10.8649 23.9935C11.3709 23.9874 11.8774 23.9863 12.3834 23.9942C12.5092 23.9963 12.5557 23.9563 12.5868 23.8366C12.9167 22.5582 13.2526 21.2812 13.5871 20.0042C13.6007 19.9531 13.6172 19.9027 13.6325 19.852L13.6597 19.8584C13.6597 19.9235 13.6597 19.9889 13.6597 20.0539C13.6597 21.3105 13.6618 22.5671 13.6565 23.8237C13.6561 23.9556 13.6861 23.9981 13.823 23.9945C14.1861 23.9849 14.5496 23.9853 14.9127 23.9945C15.0442 23.9978 15.1107 23.9574 15.1679 23.8362C15.6586 22.7923 16.1572 21.7522 16.6532 20.7108C16.7751 20.4553 16.8973 20.1997 17.026 19.9299C17.0689 20.0139 17.0353 20.0732 17.021 20.1332C16.7286 21.3659 16.4384 22.5989 16.1411 23.8301C16.1107 23.9559 16.1214 23.996 16.2612 23.9938C16.7376 23.9867 17.214 23.9874 17.6904 23.9938C17.8069 23.9953 17.8509 23.9609 17.8795 23.8441C18.3948 21.7358 18.9155 19.6286 19.4373 17.5218C19.4659 17.406 19.4616 17.3584 19.3176 17.3599C18.5017 17.367 17.6857 17.3663 16.8698 17.3599C16.7465 17.3588 16.6947 17.4035 16.6479 17.5107C16.3913 18.0993 16.1264 18.6844 15.8641 19.2701C15.5828 19.8981 15.3012 20.526 15.0199 21.154V21.1543ZM28.642 20.8048C28.6174 20.7144 28.6038 20.669 28.5931 20.6232C28.3511 19.5929 28.1085 18.5629 27.8701 17.5318C27.8426 17.4124 27.8032 17.3563 27.6628 17.3588C27.121 17.3692 26.5792 17.367 26.0374 17.3599C25.9183 17.3584 25.8737 17.3981 25.8465 17.5089C25.3301 19.6232 24.8118 21.7369 24.2875 23.8494C24.2525 23.9903 24.3029 23.9935 24.4108 23.9928C24.8873 23.9892 25.3637 23.9878 25.8401 23.9938C25.9559 23.9953 26.0045 23.9624 26.0331 23.8462C26.1775 23.2572 26.3315 22.6708 26.483 22.0832C26.6185 21.5571 26.7546 21.0314 26.8908 20.5035C26.9526 20.5221 26.9401 20.565 26.9484 20.5964C27.2243 21.6675 27.502 22.7383 27.7714 23.8108C27.8065 23.9506 27.8601 23.9985 28.0095 23.9953C28.5095 23.9838 29.0098 23.9874 29.5098 23.9935C29.6267 23.9949 29.6721 23.9592 29.7003 23.8437C30.2135 21.7408 30.73 19.6386 31.2517 17.5378C31.2893 17.3874 31.2553 17.3574 31.1091 17.3599C30.6506 17.3677 30.1921 17.3681 29.7339 17.3599C29.597 17.3574 29.5427 17.3949 29.5069 17.5336C29.2292 18.61 28.9405 19.6833 28.6424 20.8048H28.642ZM22.7279 17.3627C21.8648 17.3627 21.0013 17.3656 20.1382 17.3595C20.0127 17.3584 19.9641 17.3956 19.9363 17.5171C19.8348 17.9571 19.7265 18.396 19.6085 18.832C19.5724 18.9656 19.5864 19.0046 19.7347 19.0017C20.2286 18.9928 20.7229 19.0053 21.2168 18.9946C21.3766 18.991 21.3994 19.0275 21.3598 19.1783C21.0781 20.2476 20.8072 21.3194 20.5274 22.3891C20.4931 22.5203 20.4952 22.5728 20.6582 22.5696C21.1879 22.5589 21.7179 22.5596 22.2475 22.5696C22.388 22.5721 22.4409 22.5274 22.4738 22.3959C22.7457 21.318 23.0259 20.2423 23.2983 19.1643C23.329 19.0432 23.3701 18.9914 23.5077 18.9942C23.9777 19.0046 24.4484 18.9924 24.9183 19.0021C25.0481 19.0046 25.0906 18.9588 25.1181 18.842C25.2211 18.4024 25.3294 17.9635 25.4462 17.5271C25.482 17.3938 25.4634 17.3577 25.3176 17.3591C24.4544 17.3659 23.591 17.3624 22.7279 17.3624V17.3627ZM21.0939 23.8905C21.3612 23.8905 21.6282 23.888 21.8955 23.892C21.9766 23.893 22.0274 23.8795 22.0456 23.7869C22.0921 23.5482 22.1428 23.3101 22.2014 23.0743C22.2243 22.9828 22.2014 22.9635 22.1135 22.9642C21.5731 22.967 21.0328 22.9667 20.4924 22.9642C20.4155 22.9642 20.3773 22.9828 20.3608 23.0664C20.314 23.3048 20.2583 23.5417 20.2007 23.7783C20.1796 23.8648 20.2011 23.8934 20.2922 23.892C20.5592 23.8873 20.8265 23.8905 21.0939 23.8905Z" fill="#01678E"/>
<path d="M15.0203 21.1547C15.3016 20.5267 15.5832 19.8988 15.8644 19.2709C16.1268 18.6847 16.3916 18.0997 16.6482 17.5114C16.695 17.4042 16.7469 17.3595 16.8702 17.3606C17.6861 17.367 18.502 17.3674 19.318 17.3606C19.462 17.3595 19.4663 17.4067 19.4377 17.5225C18.9155 19.6293 18.3952 21.7365 17.8798 23.8448C17.8512 23.9617 17.8069 23.996 17.6907 23.9945C17.2143 23.9885 16.7379 23.9874 16.2615 23.9945C16.1218 23.9967 16.1111 23.9567 16.1414 23.8309C16.4388 22.5996 16.729 21.3666 17.0213 20.134C17.0356 20.0739 17.0692 20.015 17.0263 19.9306C16.8977 20.2001 16.7754 20.4556 16.6536 20.7115C16.1575 21.7526 15.6589 22.793 15.1682 23.8369C15.1111 23.9584 15.0446 23.9988 14.9131 23.9953C14.5499 23.986 14.1865 23.9856 13.8234 23.9953C13.6865 23.9988 13.6561 23.9563 13.6568 23.8244C13.6618 22.5678 13.66 21.3112 13.66 20.0546C13.66 19.9896 13.66 19.9242 13.66 19.8591L13.6329 19.8527C13.6179 19.9034 13.6011 19.9538 13.5875 20.0049C13.253 21.2823 12.917 22.5589 12.5871 23.8373C12.556 23.9574 12.5099 23.997 12.3838 23.9949C11.8777 23.987 11.3713 23.9878 10.8652 23.9942C10.7308 23.996 10.7094 23.9631 10.7419 23.8319C11.2644 21.7247 11.7819 19.6165 12.2969 17.5078C12.3248 17.3935 12.3738 17.3602 12.4896 17.3609C13.2637 17.3663 14.0382 17.3677 14.8123 17.3602C14.957 17.3588 14.9888 17.4035 14.9881 17.5407C14.9828 18.7198 14.9849 19.8992 14.9849 21.0782C14.9849 21.1004 14.9849 21.1225 14.9849 21.1447C14.9967 21.1483 15.0085 21.1515 15.0203 21.155V21.1547Z" fill="#FCFDFD"/>
<path d="M28.6424 20.8051C28.9401 19.6836 29.2289 18.6104 29.507 17.5339C29.5427 17.3949 29.5974 17.3577 29.7339 17.3602C30.1921 17.3688 30.651 17.3684 31.1092 17.3602C31.2553 17.3577 31.2889 17.3877 31.2518 17.5382C30.73 19.639 30.2135 21.7412 29.7003 23.8441C29.6721 23.9595 29.6267 23.9953 29.5098 23.9938C29.0098 23.9874 28.5095 23.9842 28.0095 23.9956C27.8601 23.9992 27.8065 23.9513 27.7714 23.8112C27.502 22.7383 27.2243 21.6679 26.9484 20.5968C26.9401 20.5653 26.9527 20.5224 26.8908 20.5039C26.7547 21.0314 26.6185 21.5575 26.483 22.0836C26.3319 22.6708 26.1775 23.2576 26.0331 23.8466C26.0045 23.9627 25.9559 23.9956 25.8401 23.9942C25.3637 23.9878 24.8873 23.9895 24.4109 23.9931C24.3029 23.9938 24.2529 23.9906 24.2876 23.8498C24.8119 21.7376 25.3301 19.6236 25.8465 17.5093C25.8737 17.3985 25.9183 17.3588 26.0374 17.3602C26.5792 17.3674 27.1213 17.3695 27.6628 17.3591C27.8033 17.3566 27.8426 17.4128 27.8701 17.5321C28.1085 18.5632 28.3515 19.5932 28.5931 20.6236C28.6038 20.6693 28.6174 20.7147 28.6421 20.8051H28.6424Z" fill="#FCFDFD"/>
<path d="M22.7282 17.3631C23.5913 17.3631 24.4548 17.3667 25.3179 17.3599C25.4641 17.3588 25.4823 17.3945 25.4466 17.5278C25.3297 17.9642 25.2218 18.4027 25.1185 18.8427C25.0909 18.9596 25.0488 19.0053 24.9187 19.0028C24.4487 18.9932 23.978 19.0053 23.508 18.9949C23.3708 18.9921 23.3293 19.0439 23.2986 19.1651C23.0263 20.243 22.7461 21.3187 22.4741 22.3966C22.4409 22.5282 22.3883 22.5728 22.2479 22.5703C21.7182 22.5603 21.1882 22.5596 20.6585 22.5703C20.4956 22.5735 20.4934 22.521 20.5277 22.3898C20.8072 21.3202 21.0785 20.2483 21.3601 19.179C21.3998 19.0278 21.3769 18.9917 21.2171 18.9953C20.7232 19.006 20.2289 18.9935 19.735 19.0024C19.5863 19.005 19.5724 18.9664 19.6089 18.8327C19.7268 18.3967 19.8351 17.9578 19.9366 17.5178C19.9645 17.3963 20.0131 17.3595 20.1385 17.3602C21.0016 17.3663 21.8651 17.3634 22.7282 17.3634V17.3631Z" fill="#FBCA01"/>
<path d="M21.0939 23.8909C20.8265 23.8909 20.5595 23.888 20.2922 23.8923C20.2014 23.8938 20.1796 23.8652 20.2007 23.7787C20.2583 23.5424 20.3137 23.3055 20.3608 23.0667C20.3773 22.9831 20.4155 22.9642 20.4924 22.9645C21.0327 22.967 21.5731 22.967 22.1135 22.9645C22.2014 22.9642 22.2243 22.9831 22.2014 23.0746C22.1428 23.3105 22.0921 23.5485 22.0456 23.7873C22.0274 23.8798 21.9766 23.8934 21.8955 23.8923C21.6282 23.8888 21.3612 23.8909 21.0939 23.8909Z" fill="#FA0102"/>
</svg>
