<svg width="42" height="42" viewBox="0 0 42 42" fill="none" xmlns="http://www.w3.org/2000/svg">
<rect width="42" height="42" rx="6" fill="url(#paint0_linear_1138_166)"/>
<path fill-rule="evenodd" clip-rule="evenodd" d="M33.6323 14.7863C34.3041 16.1002 34.722 17.4962 34.9513 18.9506L34.9504 18.9514C34.966 19.0504 34.9753 19.1498 34.9829 19.2325V19.2325C34.9861 19.2664 34.989 19.2975 34.9919 19.3245C34.9919 20.0209 34.5156 20.5649 33.9039 20.6165C33.2786 20.6689 32.7075 20.2129 32.6085 19.5369C32.3691 17.9015 31.8962 16.338 30.9816 14.9597C28.3013 10.9206 24.5515 9.02121 19.6858 9.539C17.1713 9.80636 15.002 10.8834 13.1525 12.606C13.12 12.6363 13.0877 12.667 13.0553 12.6979C12.8237 12.9187 12.59 13.1415 12.2455 13.1898C11.7057 13.2651 11.199 13.0214 10.9629 12.5696C10.7294 12.1229 10.8242 11.5162 11.2142 11.1313C12.3978 9.96372 13.7363 9.01106 15.2474 8.31813C18.3059 6.91621 21.4811 6.61163 24.7224 7.50507C28.7488 8.6151 31.727 11.0568 33.6323 14.7863ZM30.182 28.2268C30.6558 27.7344 31.3386 27.6853 31.8555 28.1033V28.1067C32.3412 28.4992 32.4275 29.1905 32.0188 29.7396C31.5383 30.3851 30.9756 30.9621 30.3732 31.4951C23.8687 37.2517 13.7109 35.7271 9.18193 28.3156C8.77582 27.6523 8.83082 27.1532 9.40529 26.5719C10.4967 25.4695 11.5932 24.373 12.6948 23.2816C13.4935 22.4897 14.3861 22.6513 14.8472 23.6835C15.5545 25.2673 16.6747 26.4416 18.2466 27.176C21.2806 28.594 24.7655 27.6371 26.7445 24.8493C28.5644 22.2858 28.2513 18.6155 26.0152 16.2956C25.4424 15.7009 25.3163 15.1112 25.6539 14.6027C26.0956 13.9377 26.9281 13.8387 27.5127 14.3962C28.8664 15.6865 29.7421 17.2483 30.1169 19.0817C30.9655 23.23 29.0652 27.2631 25.3502 29.2175C21.3652 31.3141 16.2711 30.0991 13.6593 26.4298C13.4602 26.15 13.2399 26.1311 12.9985 26.3731C12.8861 26.4855 12.7754 26.5997 12.6646 26.714L12.6645 26.7141C12.4219 26.9644 12.1792 27.2147 11.9189 27.4459C11.6812 27.6566 11.7024 27.7987 11.8859 28.0331C13.6872 30.3293 16.0037 31.7913 18.8643 32.3894C19.5851 32.54 20.3127 32.6069 21.0505 32.6043C24.5743 32.54 27.5356 31.2396 29.8749 28.5762C29.908 28.5385 29.9406 28.5002 29.9732 28.462L29.9733 28.4619L29.9735 28.4617L29.9735 28.4616L29.9736 28.4616C30.0416 28.3819 30.1095 28.3022 30.182 28.2268ZM18.2526 14.8108C19.5919 14.2279 20.9811 14.0612 22.4228 14.3353C23.202 14.4834 23.8196 14.095 23.9669 13.3903C24.1048 12.7287 23.6555 12.1516 22.8974 11.9833C22.3027 11.8504 21.7003 11.8149 21.0919 11.7938C18.5351 11.8547 16.3041 12.7354 14.4766 14.5325C13.4758 15.5166 12.487 16.5129 11.4982 17.5092L11.4982 17.5092L11.4982 17.5093C10.2743 18.7425 9.05038 19.9757 7.8037 21.1859C6.93733 22.0252 6.85949 22.9508 7.15731 24.0033C7.27999 24.4365 7.73855 24.5693 8.10151 24.2926C8.1983 24.2193 8.28429 24.132 8.36993 24.045L8.36998 24.045L8.40948 24.005C9.41055 22.9995 10.4115 21.9939 11.4125 20.9883C12.9156 19.4781 14.4187 17.968 15.9225 16.4581C16.6036 15.7736 17.3642 15.1966 18.2526 14.81V14.8108ZM21.0978 25.4534C18.6426 25.4475 16.6755 23.4702 16.6806 21.0141C16.6856 18.5648 18.668 16.5748 21.1046 16.5723C23.5506 16.5698 25.5744 18.6012 25.5557 21.0412C25.5363 23.4906 23.5472 25.4593 21.0978 25.4534ZM21.0369 23.0328C22.218 23.0464 23.1318 22.1724 23.1385 21.0226C23.1445 19.9092 22.2629 19.0132 21.141 18.9937C20.02 18.9751 19.0741 19.8965 19.0758 21.0065C19.0774 22.1039 19.9641 23.0201 21.0369 23.0328Z" fill="#FCFEFD"/>
<defs>
<linearGradient id="paint0_linear_1138_166" x1="21" y1="0" x2="21" y2="42" gradientUnits="userSpaceOnUse">
<stop stop-color="#00D991"/>
<stop offset="1" stop-color="#00BBAA"/>
</linearGradient>
</defs>
</svg>
