<svg width="42" height="42" viewBox="0 0 42 42" fill="none" xmlns="http://www.w3.org/2000/svg">
<path d="M36 0H6C2.68629 0 0 2.68629 0 6V36C0 39.3137 2.68629 42 6 42H36C39.3137 42 42 39.3137 42 36V6C42 2.68629 39.3137 0 36 0Z" fill="#862065"/>
<path d="M12 16.0297C12.0702 15.6335 12.1171 15.2314 12.2166 14.8351C12.8955 12.1661 14.663 10.5227 17.2148 9.64274C18.9999 9.02502 20.8553 8.95509 22.7282 9.0192C25.04 9.10078 27.2992 9.45043 29.4823 10.2255C29.6579 10.2896 29.7457 10.3595 29.7457 10.5693C29.734 12.1952 29.7398 13.8269 29.7398 15.4528C29.7398 15.5111 29.734 15.5694 29.7281 15.6743C29.5876 15.6218 29.4647 15.5752 29.3477 15.5286C26.9831 14.602 24.5367 14.0425 21.979 14.0542C21.3059 14.06 20.6387 14.1416 20.0066 14.398C19.1053 14.7652 18.6897 15.5402 18.8946 16.4493C19.0233 17.0088 19.4038 17.3409 19.9188 17.5507C20.6095 17.8363 21.3469 17.8188 22.0727 17.8887C23.9631 18.0869 25.7658 18.5356 27.4104 19.5321C31.6186 22.0846 31.6068 27.7839 28.1888 30.6685C26.8134 31.8282 25.198 32.4518 23.4422 32.7665C21.7683 33.0695 20.0827 33.0229 18.403 32.9296C16.4949 32.8247 14.6045 32.5858 12.7433 32.1313C12.5209 32.0788 12.4507 31.9914 12.4507 31.7641C12.4624 30.1266 12.4565 28.489 12.4565 26.8515C12.4565 26.7583 12.4682 26.665 12.4682 26.566C13.1471 26.7757 13.7968 27.0088 14.464 27.1837C16.3545 27.6907 18.28 27.9646 20.2407 27.8305C20.9548 27.7839 21.6513 27.644 22.2892 27.3061C23.1554 26.8515 23.5358 26.0997 23.3544 25.2256C23.2257 24.6021 22.816 24.1941 22.2307 24.0484C21.6161 23.8911 20.9723 23.827 20.3344 23.7571C18.4673 23.5531 16.6647 23.1627 15.061 22.1312C13.2818 20.989 12.2751 19.3573 12.0585 17.2594C12.0527 17.1952 12.0234 17.1311 12.0059 17.067C12 16.729 12 16.3794 12 16.0297Z" fill="white"/>
</svg>
