<svg width="42" height="42" viewBox="0 0 42 42" fill="none" xmlns="http://www.w3.org/2000/svg">
<rect width="42" height="42" rx="6" fill="#016FCE"/>
<path fill-rule="evenodd" clip-rule="evenodd" d="M37.0157 36.0843H41.9578C41.9578 35.4929 41.9578 34.9016 42 34.2962C40.592 34.2962 39.1981 34.2962 37.8042 34.3102C37.5648 34.3102 37.4381 34.1835 37.2973 34.0286C37.102 33.8143 36.9066 33.6005 36.7115 33.3869L36.7114 33.3868C35.8939 32.492 35.0799 31.601 34.2842 30.6917C34.0026 30.3679 33.8618 30.4101 33.5943 30.7058C32.9797 31.4082 32.3487 32.0996 31.7183 32.7904C31.3378 33.2073 30.9575 33.624 30.5812 34.0427C30.3982 34.2539 30.2011 34.3243 29.9335 34.3243C25.2731 34.3102 20.6127 34.3102 15.9522 34.3243C15.5861 34.3243 15.4876 34.2398 15.4876 33.8738C15.5017 30.0299 15.5017 26.2002 15.4876 22.3564C15.4876 22.0326 15.558 21.934 15.8959 21.934C19.0597 21.9434 22.2172 21.9403 25.3727 21.9371C26.9496 21.9356 28.5261 21.934 30.1025 21.934C30.3419 21.934 30.5108 22.0044 30.6657 22.1875C31.0779 22.6455 31.4948 23.1035 31.9125 23.5625L31.9141 23.5642L31.9147 23.5648C32.5236 24.2338 33.1343 24.9048 33.7351 25.5807C33.9604 25.8201 34.0589 25.8623 34.2983 25.5948C34.9129 24.8924 35.5439 24.2009 36.1743 23.5102C36.5548 23.0932 36.9351 22.6765 37.3114 22.2579C37.5226 22.0185 37.7338 21.9199 38.0576 21.9199C39.0397 21.9411 40.0218 21.9384 41.0038 21.9358C41.3312 21.9349 41.6586 21.934 41.9859 21.934V20.174C41.7395 20.174 41.4931 20.1732 41.2467 20.1723C40.5075 20.1696 39.7683 20.167 39.0291 20.1881C38.6912 20.1881 38.6208 20.0896 38.6208 19.7657C38.6349 17.1187 38.6349 14.4717 38.6349 11.7965C38.5268 11.8505 38.5017 11.9295 38.4768 12.0078C38.4692 12.0315 38.4617 12.0552 38.4519 12.0781C38.1374 12.937 37.8214 13.7959 37.5054 14.6548L37.5053 14.655L37.5053 14.6551C36.8733 16.3727 36.2413 18.0903 35.6218 19.808C35.5233 20.0896 35.3965 20.1881 35.0868 20.174C34.3405 20.1459 33.6084 20.1459 32.8762 20.174C32.5665 20.1881 32.4538 20.0755 32.3553 19.7939C31.426 17.2454 30.4967 14.697 29.5534 12.1485C29.5111 12.0499 29.4689 11.9514 29.3422 11.8528V12.3034V12.3044C29.3422 14.7962 29.3422 17.2739 29.3563 19.7657C29.3563 20.0896 29.2859 20.1881 28.948 20.1881C26.8219 20.174 24.6817 20.174 22.5557 20.1881C22.3022 20.1881 22.1755 20.1036 22.077 19.8643C21.9573 19.5545 21.8271 19.2518 21.6968 18.9491C21.5666 18.6464 21.4363 18.3436 21.3167 18.0339C21.2322 17.7945 21.1055 17.7101 20.8379 17.7101C19.1765 17.7241 17.5151 17.7241 15.8537 17.7101C15.6002 17.7101 15.4735 17.7945 15.3749 18.0339C15.2296 18.4186 15.0739 18.7929 14.9172 19.1695L14.9172 19.1695L14.9172 19.1695C14.8159 19.4131 14.7142 19.6576 14.6146 19.9065C14.5442 20.0896 14.4598 20.1881 14.2345 20.1881H10.8271C10.8053 20.0355 10.868 19.9166 10.93 19.7988C10.9481 19.7645 10.9661 19.7303 10.982 19.6953L16.0508 8.16389C16.1775 7.8823 16.3183 7.8119 16.614 7.8119C17.8108 7.82598 18.9935 7.82598 20.1903 7.8119C20.4859 7.8119 20.6267 7.91046 20.7394 8.17797L25.7659 19.5827C25.7788 19.6084 25.7894 19.6356 25.8004 19.6636C25.8375 19.7582 25.8781 19.8618 26.0193 19.9488V19.456C26.0193 15.7248 26.0193 11.9795 26.0053 8.24837C26.0053 7.91046 26.0897 7.8119 26.4417 7.8119C27.9483 7.82598 29.4407 7.82598 30.9473 7.8119C31.2289 7.8119 31.3415 7.89638 31.4401 8.16389C31.9751 9.69395 32.5227 11.224 33.0703 12.7541C33.344 13.519 33.6178 14.284 33.89 15.049C33.9322 15.1475 33.9745 15.2602 34.0167 15.3728C34.1408 15.2938 34.1745 15.1696 34.2048 15.0582L34.2048 15.0581C34.2122 15.0305 34.2195 15.0037 34.2279 14.9786L34.228 14.9784L34.228 14.9782L34.2281 14.9781C35.0447 12.7114 35.8612 10.4447 36.6637 8.17797C36.7623 7.89638 36.8749 7.79782 37.1847 7.79782C38.7757 7.8119 40.3808 7.8119 41.9859 7.8119H41.9859V6.05191H36.9172C36.7783 6.05191 36.6312 6.03888 36.4843 6.02588C36.1249 5.99405 35.7672 5.96238 35.5373 6.12231C35.3168 6.28271 35.2247 6.63582 35.1341 6.98345L35.1341 6.98348C35.0974 7.12409 35.061 7.2638 35.0164 7.3895C34.8853 7.75432 34.7542 8.11683 34.6212 8.4845C34.4257 9.025 34.2262 9.57666 34.0167 10.1632C33.919 9.89019 33.8224 9.62125 33.7271 9.35558L33.7269 9.35511L33.7266 9.35439C33.3549 8.31904 33.0011 7.33331 32.665 6.34759C32.5806 6.10823 32.4679 6.03783 32.2286 6.03783C29.666 6.05191 27.1176 6.05191 24.555 6.03783C24.2312 6.03783 24.1608 6.12231 24.1608 6.43207C24.1702 7.43591 24.1671 8.4335 24.1639 9.43317V9.43344V9.4337C24.1624 9.93414 24.1608 10.4351 24.1608 10.9376C24.1608 11.0032 24.1532 11.065 24.144 11.1407L24.144 11.1407C24.1354 11.2112 24.1253 11.2936 24.1186 11.4023L24.1185 11.4022L24.1184 11.4019L24.1183 11.4018C24.0058 11.1768 23.9355 11.0361 23.8792 10.9095L23.5651 10.2099L23.565 10.2098L23.565 10.2097C22.9945 8.9398 22.4271 7.67688 21.8799 6.40391C21.7672 6.12231 21.6264 6.05191 21.3307 6.05191C19.3596 6.06599 17.3884 6.06599 15.4172 6.05191C15.0793 6.05191 14.9103 6.15047 14.7695 6.47431C13.6572 9.0017 12.5448 11.5256 11.4325 14.0494C10.3202 16.5732 9.20794 19.097 8.09565 21.6243C8.08595 21.6469 8.07255 21.6695 8.05884 21.6926L8.05883 21.6927C8.01282 21.7703 7.9634 21.8537 8.03933 21.9622C8.46525 21.9622 8.89118 21.9631 9.3171 21.9639C10.5948 21.9666 11.8726 21.9692 13.1503 21.9481C13.5446 21.9481 13.629 22.0607 13.629 22.4409C13.622 24.6373 13.622 26.8373 13.622 29.0373C13.622 31.2373 13.622 33.4373 13.615 35.6337C13.615 35.9998 13.6854 36.0984 14.0655 36.0984C19.6271 36.0843 25.1745 36.0843 30.7361 36.0984C31.0177 36.0984 31.2148 36.028 31.4119 35.8027C31.778 35.3803 32.1546 34.9685 32.5313 34.5566C32.9079 34.1448 33.2846 33.733 33.6506 33.3106C33.8477 33.0853 33.9604 33.0994 34.1434 33.3106C34.3922 33.5875 34.6425 33.8628 34.8928 34.1381L34.8929 34.1383C35.3935 34.6889 35.8941 35.2395 36.3821 35.8027C36.5652 36.0139 36.7341 36.0843 37.0157 36.0843ZM40.5879 32.8617C41.0206 33.3407 41.4546 33.8213 41.9578 34.2257C41.9578 33.3669 41.9578 32.5221 41.9437 31.6632C41.4837 31.2877 41.0864 30.8497 40.689 30.4117C40.4903 30.1926 40.2916 29.9736 40.0851 29.7624C39.7754 29.4527 39.4781 29.1304 39.1809 28.8081C39.0323 28.647 38.8837 28.4859 38.7335 28.3263C38.7181 28.3083 38.7008 28.2913 38.6838 28.2746C38.6075 28.1993 38.5364 28.1291 38.6631 28.0024C39.0402 27.6156 39.409 27.2189 39.7781 26.8219L39.7781 26.8218L39.7781 26.8218C40.4838 26.0627 41.1904 25.3025 41.9578 24.6092V22.0466C41.8874 22.0889 41.817 22.1452 41.7606 22.2015C41.0488 22.9414 40.3391 23.6836 39.6291 24.4261L39.6287 24.4265L39.6283 24.4269C38.555 25.5494 37.4807 26.6729 36.3962 27.7912C36.1287 28.0728 36.1991 28.2136 36.4244 28.453C37.0298 29.0795 37.6282 29.7167 38.2266 30.3538C38.825 30.9909 39.4234 31.628 40.0288 32.2546C40.2184 32.4526 40.403 32.657 40.5879 32.8616L40.5879 32.8617ZM18.3036 10.9376C18.619 11.7059 18.9251 12.437 19.2245 13.1523C19.4465 13.6823 19.6648 14.2037 19.8805 14.7251C19.9368 14.88 19.8946 14.9504 19.7397 14.9504H16.8815C16.6291 14.9504 16.6934 14.8146 16.75 14.6952C16.7566 14.6814 16.763 14.6678 16.7689 14.6547C16.9752 14.143 17.1864 13.6361 17.3967 13.1312L17.3969 13.1309C17.5453 12.7746 17.6933 12.4193 17.8389 12.064C17.9797 11.712 18.1205 11.3741 18.3036 10.9376ZM31.0036 27.3266C29.3703 25.5807 27.723 23.8348 25.9912 22.0044C25.9912 22.228 25.9893 22.4441 25.9875 22.6551C25.9823 23.2677 25.9774 23.836 26.0193 24.4121C26.0334 24.7641 25.9489 24.8767 25.5688 24.8767C24.2486 24.8556 22.9363 24.8582 21.626 24.8609C21.1895 24.8618 20.7532 24.8626 20.317 24.8626C20.1766 24.8626 20.0241 24.8481 19.8719 24.8336C19.5051 24.7987 19.1403 24.7639 18.9512 24.933C18.7633 25.1031 18.7972 25.4266 18.8324 25.7628C18.8526 25.9556 18.8732 26.1525 18.8527 26.327C18.8104 26.6789 18.9512 26.7634 19.2892 26.7634C20.317 26.7564 21.3448 26.7564 22.3726 26.7564C23.4005 26.7564 24.4283 26.7564 25.4561 26.7493C25.7377 26.7493 25.8504 26.8197 25.8363 27.1154C25.8081 27.7913 25.8081 28.4671 25.8363 29.1429C25.8504 29.4949 25.7377 29.5653 25.3998 29.5653C24.372 29.5583 23.3441 29.5583 22.3162 29.5583C21.2884 29.5583 20.2606 29.5583 19.2328 29.5512C18.9512 29.5512 18.8245 29.5935 18.8527 29.9032C18.8808 30.2693 18.8808 30.6354 18.8527 31.0015C18.8104 31.3675 18.9231 31.4661 19.3032 31.4661C20.3311 31.4591 21.3589 31.4591 22.3867 31.4591C23.4146 31.4591 24.4424 31.4591 25.4702 31.452C25.8785 31.452 26.0334 31.5224 26.0053 31.973C25.9751 32.5055 25.9808 33.0309 25.9866 33.5593C25.9889 33.7713 25.9912 33.9839 25.9912 34.1976C26.0123 34.2117 26.0334 34.2222 26.0545 34.2328C26.0757 34.2434 26.0968 34.2539 26.1179 34.268C26.1543 34.2195 26.1855 34.1709 26.2159 34.1235C26.2561 34.0609 26.2951 34.0003 26.3432 33.9442C27.9056 32.2973 29.454 30.6504 31.0024 29.0035L31.0036 29.0021C31.0779 28.9191 31.1699 28.8374 31.2622 28.7554C31.4672 28.5732 31.6741 28.3894 31.6935 28.1855C31.7138 27.9323 31.479 27.7373 31.2513 27.5483C31.1625 27.4745 31.0747 27.4017 31.0036 27.3266Z" fill="#FCFDFE"/>
</svg>
