<svg width="42" height="42" viewBox="0 0 42 42" fill="none" xmlns="http://www.w3.org/2000/svg">
<rect width="42" height="42" rx="6" fill="#033564"/>
<path fill-rule="evenodd" clip-rule="evenodd" d="M17.3743 16.2195C17.7692 16.2195 18.0852 16.1405 18.3221 15.9667C18.5907 15.793 18.7329 15.5244 18.7329 15.1769C18.7329 14.5292 18.5275 13.9446 18.101 13.4075C17.6744 12.8704 17.1373 12.4597 16.4896 12.1753C16.0315 11.9857 15.526 11.891 14.9573 11.891C13.8198 11.891 12.8878 12.2543 12.1611 12.9968C11.4344 13.7393 11.071 14.6239 11.071 15.6508C11.071 16.6934 11.4502 17.5781 12.2085 18.289C12.9668 18.9999 13.9146 19.3632 15.0678 19.3632C15.6839 19.3632 16.2685 19.2842 16.8214 19.1105C17.4849 18.9051 17.9746 18.6207 18.2747 18.2416C18.4485 18.0362 18.5275 17.8309 18.5275 17.6255C18.5275 17.0884 18.2274 16.804 17.6112 16.804C17.4849 16.804 17.1373 16.9146 16.5844 17.1516C16.0315 17.3885 15.5576 17.4991 15.1784 17.4991C14.7045 17.4991 14.3096 17.3885 13.9936 17.1674C13.6776 16.9462 13.4881 16.646 13.4407 16.2353H17.3743V16.2195ZM13.9462 13.9446C14.2148 13.7235 14.5623 13.5971 14.9731 13.5971C15.368 13.5971 15.7155 13.7077 15.9999 13.9446C16.2843 14.1816 16.4422 14.4818 16.458 14.8451H13.4091C13.4881 14.4818 13.6619 14.1816 13.9462 13.9446ZM20.0125 18.2732C20.7234 18.9841 21.6554 19.3474 22.8087 19.3474C23.5038 19.3474 24.0883 19.2369 24.5464 19.0315C25.1941 18.7313 25.5101 18.3838 25.5101 17.9572C25.5101 17.7045 25.4311 17.4991 25.2573 17.3095C25.0835 17.1358 24.8781 17.041 24.6096 17.041C24.4358 17.041 24.1989 17.0884 23.9303 17.199C23.6617 17.3095 23.3616 17.3569 23.0298 17.3569C22.4769 17.3569 22.0504 17.1832 21.7502 16.8356C21.4817 16.5197 21.3553 16.1089 21.3553 15.5876C21.3553 15.0979 21.4817 14.6871 21.7344 14.3554C22.0188 13.9921 22.4295 13.8183 22.9508 13.8183C23.2668 13.8183 23.5827 13.8657 23.8671 13.9763C24.1515 14.0868 24.3884 14.1342 24.578 14.1342C24.8466 14.1342 25.0835 14.0552 25.2573 13.8815C25.4311 13.7077 25.5259 13.5023 25.5259 13.2496C25.5259 12.7598 25.2099 12.3965 24.578 12.1595C24.1041 11.9858 23.5669 11.9068 22.935 11.9068C21.7344 11.9068 20.7708 12.2543 20.0599 12.9494C19.3332 13.6445 18.9698 14.545 18.9698 15.635C18.9856 16.7092 19.3174 17.5781 20.0125 18.2732ZM29.5068 19.3948C28.3536 19.3948 27.4057 19.0315 26.6633 18.289C25.9366 17.5781 25.589 16.6934 25.6048 15.6666C25.6048 14.5924 25.9682 13.7077 26.6949 12.981C27.4215 12.2543 28.3536 11.891 29.5068 11.891C30.6758 11.891 31.6237 12.2543 32.3346 12.9652C33.0455 13.6761 33.4088 14.5766 33.4088 15.6508C33.4088 16.7092 33.0613 17.5939 32.3504 18.3048C31.6079 19.0315 30.66 19.3948 29.5068 19.3948ZM29.491 13.8657C28.9855 13.8657 28.5906 14.0394 28.322 14.4186C28.085 14.7503 27.9745 15.1453 27.9587 15.635C27.9587 16.1089 28.0692 16.5039 28.322 16.8356C28.5906 17.2148 28.9855 17.4043 29.4752 17.4043C29.9808 17.4043 30.3757 17.2148 30.6443 16.8356C30.8812 16.5197 31.0076 16.1247 31.0076 15.635C31.0076 15.1611 30.897 14.7661 30.6443 14.4344C30.3757 14.0552 29.9808 13.8657 29.491 13.8657Z" fill="white"/>
<path fill-rule="evenodd" clip-rule="evenodd" d="M18.2116 9C12.9036 9 8.62241 11.5118 8.62241 14.6239C8.62241 15.9509 9.3965 17.1516 10.7077 18.131C10.06 17.3253 9.69665 16.4407 9.69665 15.4928C9.69665 12.2701 13.8988 9.6477 19.0646 9.6477C22.3979 9.6477 25.3363 10.7377 26.995 12.3807C25.51 10.3902 22.1294 9 18.2116 9ZM8.36964 21.7329H9.39648C10.4865 21.7329 11.0236 22.1436 11.0236 22.9651C11.0236 23.8023 10.4865 24.2289 9.39648 24.2289H8.36964V21.7329ZM8.36964 27.7991V26.1878H9.9652C11.0868 26.1878 11.9715 25.9034 12.6192 25.3505C13.2669 24.7818 13.5828 23.9919 13.5828 22.9809C13.5828 21.954 13.2195 21.1484 12.5086 20.5796C11.8293 20.0425 10.9131 19.7582 9.77562 19.7582H7.64295C7.02684 19.7582 6.60031 19.8687 6.36334 20.0899C6.12638 20.3111 6 20.706 6 21.2747V27.7991C6 28.826 6.39494 29.3315 7.18482 29.3315C7.9747 29.3315 8.36964 28.826 8.36964 27.7991ZM17.5954 23.9603C17.1215 23.9603 16.7424 24.1499 16.4738 24.4974C16.221 24.8292 16.1105 25.2083 16.1105 25.6507C16.1105 26.1088 16.221 26.5037 16.458 26.8197C16.7266 27.183 17.1057 27.3568 17.5954 27.3568C18.0852 27.3568 18.4485 27.183 18.7171 26.8197C18.954 26.5037 19.0646 26.1088 19.0646 25.6507C19.0646 25.1925 18.9382 24.8134 18.7171 24.4974C18.4485 24.1341 18.0852 23.9603 17.5954 23.9603ZM21.3869 27.7991C21.3869 28.826 21.0077 29.3315 20.2494 29.3315C19.7597 29.3315 19.3806 29.0787 19.1752 28.589C18.7013 29.1103 18.0536 29.3789 17.2321 29.3789C16.1894 29.3789 15.3364 28.984 14.6571 28.2099C14.041 27.499 13.725 26.6459 13.725 25.6823C13.725 24.7028 14.041 23.8497 14.6887 23.123C15.368 22.349 16.2368 21.954 17.2953 21.954C18.0536 21.954 18.6697 22.2068 19.1436 22.7123C19.4122 22.27 19.7755 22.0488 20.2494 22.0488C21.0077 22.0488 21.3869 22.5543 21.3869 23.5654V27.7991ZM26.7422 22.8861L25.3362 26.2352L24.025 23.0757C23.8829 22.7281 23.7565 22.4911 23.6459 22.3648C23.4563 22.1594 23.1878 22.0646 22.856 22.0646C22.5401 22.0646 22.2715 22.1594 22.0503 22.3648C21.8292 22.5701 21.7344 22.8071 21.7344 23.1073C21.7344 23.3126 21.7818 23.5022 21.8608 23.6918L24.183 28.6364L23.2352 30.5163C23.1088 30.7849 23.0456 31.0218 23.0456 31.2272C23.0456 31.5432 23.1562 31.7801 23.3615 31.9697C23.5669 32.1435 23.8513 32.2383 24.183 32.2383C24.5938 32.2383 24.9255 31.9539 25.1941 31.401L28.7169 23.8181C28.8433 23.5496 28.9065 23.3126 28.9065 23.0915C28.9065 22.428 28.5274 22.0962 27.7691 22.0962C27.3267 22.0488 26.9792 22.3332 26.7422 22.8861ZM32.303 27.2778H34.5779C35.5257 27.2778 36.0154 27.6096 35.9996 28.2731C35.9996 28.9208 35.5099 29.2367 34.5463 29.2367H30.3441C29.5384 29.2367 29.1277 29.0156 29.1277 28.589C29.1277 28.3205 29.2541 28.0519 29.4752 27.7833L32.6505 24.0551H30.66C29.6964 24.0551 29.2067 23.7392 29.2067 23.0915C29.2067 22.4595 29.6964 22.1436 30.6758 22.1436H34.3725C34.878 22.1436 35.2414 22.1752 35.4783 22.2542C35.7153 22.3174 35.8417 22.4911 35.8417 22.7755C35.8417 23.0283 35.6837 23.3284 35.3677 23.6918L32.303 27.2778Z" fill="#8CC23C"/>
</svg>
