<svg width="42" height="42" viewBox="0 0 42 42" fill="none" xmlns="http://www.w3.org/2000/svg">
<rect width="42" height="42" rx="6" fill="#79C711"/>
<path d="M25.9291 5C25.3331 5 24.8504 5.48266 24.8504 6.07869V7.85815C24.682 7.82467 24.5082 7.8074 24.3289 7.8074H16.5513C15.0721 7.8074 13.8724 9.00702 13.8724 10.4863V34.3211C13.8724 35.8004 15.0721 37 16.5513 37H24.3289C25.8082 37 27.0078 35.8004 27.0078 34.3211V6.07869C27.0078 5.48266 26.5252 5 25.9291 5Z" fill="#CDE37B"/>
<path d="M22.9425 10.956H17.9378C16.4583 10.956 15.2589 12.1554 15.2589 13.6349V22.0679C15.2589 23.5474 16.4583 24.7468 17.9378 24.7468H22.9425C24.422 24.7468 25.6214 23.5474 25.6214 22.0679V13.6349C25.6214 12.1554 24.422 10.956 22.9425 10.956Z" fill="white"/>
<path d="M19.3307 18.1267C19.1514 18.117 17.8654 17.9896 17.4163 16.4337C17.4163 16.4337 16.4898 18.7811 13 19.5132C13 19.5132 13.9642 19.7971 15.4381 20.0358C16.9897 19.7237 18.2833 18.9916 19.3318 18.1267H19.3307Z" fill="#911A1E"/>
<path opacity="0.4" d="M15.4381 20.0358C18.9582 20.6059 25.3849 20.919 28.5508 16.5071C25.3936 20.9082 15.4932 20.0412 15.4381 20.0358Z" fill="white"/>
<path d="M22.8 13.5798L28.5508 16.506C25.3849 20.919 15.437 20.0347 15.437 20.0347C20.472 19.0229 22.8 13.5787 22.8 13.5787V13.5798Z" fill="#FF000C"/>
</svg>
