<svg width="42" height="42" viewBox="0 0 42 42" fill="none" xmlns="http://www.w3.org/2000/svg">
<rect width="42" height="42" rx="6" fill="black"/>
<path d="M29.1746 13.1612C24.6716 8.36608 16.9512 8.68276 12.8906 13.1612C13.0297 13.1612 13.1409 13.1612 13.2515 13.1612C15.8393 13.1612 18.4278 13.1656 21.0156 13.1548C21.3095 13.1536 21.3569 13.2105 21.2911 13.5031C19.8986 19.68 18.5181 25.8593 17.1358 32.0387C16.9891 32.6936 16.8311 33.3459 16.7066 34.0052C16.6566 34.2706 16.5643 34.2909 16.3343 34.2036C12.0012 32.5589 9.04429 29.5678 7.64799 25.1489C5.24034 17.5283 9.76488 9.47098 17.527 7.44828C25.1842 5.45275 33.074 10.3205 34.7244 18.058C36.3698 25.7734 31.3775 33.2865 23.616 34.7599C22.087 35.05 20.5465 35.0715 19.0023 34.8553C18.7944 34.8262 18.7463 34.7877 18.7975 34.569C19.4341 31.8541 20.0586 29.1361 20.6856 26.4187C21.6812 22.1078 22.6792 17.7976 23.6685 13.4854C23.7241 13.2433 23.8031 13.1504 24.0749 13.1529C25.7569 13.1687 27.4389 13.1612 29.1746 13.1612ZM29.2416 17.0049C28.5577 17.0049 27.8738 17.0226 27.1911 16.9967C26.8909 16.9853 26.7803 17.0789 26.7139 17.369C25.6153 22.1818 24.5066 26.992 23.3941 31.8017C23.341 32.0324 23.36 32.1101 23.6204 32.0469C30.2239 30.4566 33.971 23.6009 31.7296 17.2325C31.6638 17.046 31.5697 16.9999 31.387 17.0018C30.6721 17.0106 29.9565 17.0056 29.2416 17.0056V17.0049ZM13.469 17.0049C12.5429 17.0049 11.6176 17.0113 10.6915 16.9999C10.4823 16.9973 10.3717 17.0479 10.3009 17.2578C9.92796 18.3589 9.70546 19.4878 9.6707 20.6483C9.61634 22.4624 9.97853 24.195 10.7503 25.8385C11.4109 27.2449 12.3362 28.4566 13.4923 29.4951C13.6618 29.6469 13.7408 29.6601 13.7755 29.4016C13.8065 29.174 13.8754 28.9515 13.926 28.7265C14.7812 24.9112 15.6339 21.0946 16.4973 17.2812C16.5504 17.0473 16.5119 16.9973 16.278 16.9999C15.3419 17.0113 14.4057 17.0043 13.469 17.0043V17.0049Z" fill="#46FF6D"/>
</svg>
