<svg width="42" height="42" viewBox="0 0 42 42" fill="none" xmlns="http://www.w3.org/2000/svg">
<rect width="42" height="42" rx="6" fill="#EBEBEB"/>
<path d="M15.1609 31.8933C14.5605 31.8933 13.9526 31.8933 13.3523 31.8933C12.1815 31.8933 11.0108 31.8933 9.84007 31.8933C9.75752 31.8933 9.67497 31.8933 9.59992 31.8783C9.20217 31.7882 8.95452 31.4205 9.01455 31.0227C9.14964 30.1672 9.28472 29.3192 9.41981 28.4636C9.55489 27.6156 9.68998 26.7676 9.82506 25.9195C9.96765 25.019 10.1102 24.1184 10.2528 23.2179C10.4179 22.1897 10.5755 21.1691 10.7406 20.1409C10.9057 19.0903 11.0783 18.0321 11.2434 16.9815C11.4085 15.9308 11.5737 14.8727 11.7463 13.822C11.9114 12.7939 12.069 11.7732 12.2341 10.7451C12.3691 9.87453 12.5117 8.99648 12.6468 8.12594C12.7369 7.57059 13.0896 7.17285 13.6074 7.04527C13.6975 7.01525 13.7875 7.00024 13.8851 7.00024C16.9095 7.00024 19.9339 6.99273 22.9508 7.00024C24.0314 7.00024 25.0971 7.1053 26.1478 7.36046C26.8532 7.53307 27.5436 7.77322 28.1665 8.14845C29.3748 8.87641 30.1703 9.92707 30.5155 11.2929C30.6356 11.7732 30.6656 12.261 30.6581 12.7488C30.6506 13.1841 30.6055 13.6194 30.5455 14.0546C30.5455 14.0697 30.538 14.0847 30.5305 14.0997H30.523C30.4254 14.0546 30.3204 14.0171 30.2228 13.9646C29.8776 13.792 29.5024 13.6869 29.1346 13.5818C28.857 13.4993 28.5643 13.4543 28.2791 13.4017C28.0089 13.3567 27.7313 13.3267 27.4611 13.2892C27.2585 13.2667 27.0558 13.2591 26.8532 13.2441C26.6131 13.2291 26.3654 13.2216 26.1252 13.2216C23.7913 13.2141 21.4573 13.2141 19.1234 13.2141C19.0183 13.2141 18.9207 13.2216 18.8232 13.2516C18.3579 13.3717 18.0352 13.7019 17.9676 14.1897C17.9376 14.3773 17.9076 14.565 17.8776 14.7526C17.8476 14.9177 17.8251 15.0828 17.795 15.2404C17.765 15.428 17.7425 15.6156 17.7125 15.8032C17.69 15.9233 17.6675 16.0434 17.6525 16.1635C17.6224 16.3586 17.5924 16.5537 17.5624 16.7488C17.5399 16.9139 17.5099 17.079 17.4798 17.2366C17.4423 17.4768 17.4048 17.7244 17.3673 17.9646C17.3448 18.1297 17.3147 18.2948 17.2847 18.4524C17.2547 18.6475 17.2247 18.8426 17.1947 19.0378C17.1571 19.2554 17.1196 19.4805 17.0896 19.6982C17.0521 19.9308 17.0221 20.171 16.9845 20.4036C16.9395 20.6813 16.887 20.959 16.8419 21.2441C16.8044 21.4768 16.7744 21.7094 16.7369 21.9421C16.6693 22.3698 16.5943 22.7976 16.5267 23.2254C16.5192 23.2554 16.5192 23.2929 16.5493 23.3154C16.4967 23.473 16.4592 23.6381 16.4367 23.8032C16.3917 24.1259 16.3316 24.4561 16.2791 24.7788C16.2266 25.1165 16.174 25.4618 16.1215 25.7995C16.0765 26.0771 16.0314 26.3623 15.9864 26.64C15.9414 26.9327 15.8888 27.2254 15.8438 27.518C15.7913 27.8332 15.7388 28.1484 15.6937 28.4711C15.6337 28.8614 15.5737 29.2516 15.5136 29.6419C15.4536 30.0246 15.386 30.4149 15.326 30.7976C15.2735 31.1653 15.2209 31.5331 15.1609 31.8933Z" fill="#25336D"/>
<path d="M30.5384 14.0994H30.5459C30.591 14.1295 30.6435 14.1595 30.6885 14.1895C31.8067 14.8199 32.4821 15.773 32.7598 17.0188C32.8874 17.5966 32.9249 18.1895 32.8874 18.7824C32.8123 20.0807 32.5272 21.3265 32.0168 22.5272C31.6266 23.4503 31.0863 24.2833 30.3658 24.9888C29.6679 25.6717 28.8574 26.1745 27.9493 26.5272C27.2814 26.7899 26.5834 26.9625 25.8705 27.0676C25.1425 27.1801 24.3996 27.2176 23.6641 27.2176C23.4915 27.2176 23.3114 27.2176 23.1388 27.2176C22.5835 27.2252 22.1407 27.5854 22.0431 28.1332C21.9531 28.6435 21.8705 29.1539 21.788 29.6642C21.6904 30.2495 21.6003 30.8424 21.5103 31.4278C21.4127 32.0207 21.3227 32.621 21.2251 33.2139C21.1801 33.5141 21.135 33.8143 21.075 34.1145C20.9699 34.6323 20.5272 34.9925 19.9868 34.9925C18.591 34.9925 17.1876 34.9925 15.7917 34.9925C15.6791 34.9925 15.5666 34.9925 15.4465 34.9925C15.0037 34.9925 14.726 34.6173 14.7861 34.242C14.8386 33.8968 14.8912 33.5516 14.9512 33.2064C15.0187 32.7711 15.0863 32.3283 15.1538 31.8931C15.2139 31.5253 15.2739 31.1651 15.3264 30.7974C15.3865 30.4146 15.454 30.0244 15.514 29.6417C15.5741 29.2514 15.6341 28.8612 15.6942 28.4709C15.7467 28.1557 15.7917 27.8405 15.8442 27.5178C15.8893 27.2252 15.9343 26.9325 15.9868 26.6398C16.0319 26.3621 16.0769 26.0769 16.1219 25.7993C16.1745 25.4616 16.227 25.1163 16.2795 24.7786C16.332 24.4559 16.3846 24.1332 16.4371 23.803C16.4596 23.6379 16.4972 23.4728 16.5497 23.3152C16.6172 23.1726 16.6998 23.045 16.8048 22.9325C17.0675 22.6548 17.3977 22.5422 17.7729 22.5422C18.5835 22.5422 19.394 22.5422 20.2045 22.5422C20.7823 22.5422 21.3527 22.5272 21.923 22.4672C22.3658 22.4221 22.8011 22.3621 23.2364 22.2721C24.287 22.0619 25.2851 21.7167 26.2157 21.1764C27.1238 20.651 27.9043 19.9681 28.5422 19.1276C29.1651 18.3096 29.6228 17.394 29.9606 16.4259C30.1707 15.8255 30.3208 15.2176 30.4484 14.5948C30.4934 14.4447 30.5384 14.272 30.5384 14.0994Z" fill="#0091C7"/>
<path d="M30.5385 14.0994C30.5385 14.272 30.4934 14.4371 30.4634 14.6023C30.3433 15.2251 30.1857 15.833 29.9756 16.4334C29.6379 17.409 29.1801 18.3171 28.5572 19.1351C27.9193 19.9681 27.1463 20.651 26.2308 21.1839C25.3002 21.7242 24.3021 22.0619 23.2514 22.2796C22.8161 22.3696 22.3809 22.4296 21.9381 22.4747C21.3677 22.5347 20.7899 22.5497 20.2195 22.5497C19.409 22.5497 18.5985 22.5497 17.788 22.5497C17.4128 22.5497 17.0826 22.6623 16.8199 22.94C16.7148 23.0525 16.6323 23.1876 16.5647 23.3227C16.5347 23.3002 16.5422 23.2627 16.5422 23.2326C16.6098 22.8049 16.6848 22.3771 16.7523 21.9493C16.7899 21.7167 16.8199 21.4841 16.8574 21.2514C16.9024 20.9737 16.955 20.6961 17 20.4109C17.0375 20.1782 17.0675 19.9381 17.1051 19.7054C17.1426 19.4878 17.1726 19.2627 17.2101 19.045C17.2402 18.8499 17.2702 18.6548 17.3002 18.4597C17.3227 18.2946 17.3527 18.1295 17.3827 17.9719C17.4203 17.7317 17.4578 17.4841 17.4953 17.2439C17.5178 17.0788 17.5478 16.9137 17.5779 16.7561C17.6079 16.561 17.6379 16.3659 17.6679 16.1707C17.6904 16.0507 17.7129 15.9306 17.728 15.8105C17.758 15.6229 17.7805 15.4353 17.8105 15.2477C17.833 15.0826 17.863 14.9174 17.8931 14.7599C17.9231 14.5722 17.9606 14.3846 17.9831 14.197C18.0507 13.7092 18.3734 13.379 18.8387 13.2589C18.9362 13.2364 19.0338 13.2214 19.1388 13.2214C21.4728 13.2214 23.8068 13.2214 26.1407 13.2289C26.3809 13.2289 26.6285 13.2364 26.8687 13.2514C27.0713 13.2664 27.2739 13.2739 27.4765 13.2964C27.7467 13.334 28.0244 13.364 28.2946 13.409C28.5797 13.4615 28.8724 13.5066 29.1501 13.5891C29.5178 13.6942 29.8931 13.7993 30.2383 13.9719C30.3358 14.0169 30.4334 14.0619 30.5385 14.0994Z" fill="#1E2553"/>
</svg>
