<svg width="42" height="42" viewBox="0 0 42 42" fill="none" xmlns="http://www.w3.org/2000/svg">
<path d="M0 6C0 2.68629 2.68629 0 6 0H36C39.3137 0 42 2.68629 42 6V36C42 39.3137 39.3137 42 36 42H6C2.68629 42 0 39.3137 0 36V6Z" fill="#018AC9"/>
<path fill-rule="evenodd" clip-rule="evenodd" d="M17.121 10.2376C14.4369 11.8934 13.3389 14.438 13.4086 17.5578C13.5132 17.5752 13.5655 17.523 13.6003 17.4881C14.0535 17.1395 14.5589 16.8607 15.1167 16.7038C15.4304 16.6166 15.5698 16.4598 15.657 16.1461C16.4761 13.2877 19.3694 11.4751 22.2974 12.0677C24.6504 12.5382 26.1841 13.9674 26.8639 16.2855C26.9162 16.4946 26.9859 16.5992 27.2125 16.6515C27.8225 16.7909 28.3976 17.0698 28.8856 17.4707C28.8953 17.4755 28.905 17.4843 28.9154 17.4939C28.9425 17.5187 28.9747 17.5482 29.0251 17.523C29.1994 14.8389 28.0839 11.9282 25.3824 10.2725C22.6635 8.59927 19.8399 8.56441 17.121 10.2376ZM25.6613 17.4707H21.2517C19.6831 17.4707 18.1319 17.4707 16.5633 17.4881C16.1798 17.4881 15.7964 17.523 15.4304 17.645C14.1406 18.0458 13.3563 18.8999 13.1298 20.2593C13.06 20.7473 13.0077 21.2179 13.0077 21.7059V26.1155C13.0077 26.4415 13.0058 26.7655 13.0039 27.0889C13 27.7338 12.9961 28.3761 13.0077 29.0262C13.0252 29.7408 13.1297 30.4553 13.4086 31.1177C13.5655 31.4837 13.7572 31.8497 14.0884 32.1111C14.8029 32.6688 15.6047 33 16.5284 33H25.731C26.0447 33 26.341 32.9826 26.6547 32.9303C27.9619 32.7211 28.8334 31.9891 29.2342 30.7168C29.426 30.1242 29.4782 29.4967 29.4782 28.8867V21.5665C29.4782 21.0262 29.4434 20.4859 29.3039 19.963C28.9902 18.7081 28.2233 17.889 26.951 17.5927C26.5153 17.4881 26.097 17.4707 25.6613 17.4707Z" fill="white"/>
</svg>
