<svg width="42" height="42" viewBox="0 0 42 42" fill="none" xmlns="http://www.w3.org/2000/svg">
<rect width="42" height="42" rx="6" fill="#EC5228"/>
<path d="M30.227 12.0163V23.7224C30.2266 24.11 30.0707 24.4816 29.7934 24.7556C29.5162 25.0296 29.1403 25.1838 28.7483 25.1842H18.0902V29.9829H13.5301C13.1382 29.9825 12.7624 29.8284 12.4852 29.5546C12.208 29.2807 12.052 28.9094 12.0514 28.522V13.4788C12.0516 13.0911 12.2074 12.7193 12.4847 12.4451C12.7619 12.1709 13.1379 12.0167 13.5301 12.0163H30.227ZM33.2784 9H13.5301C12.9351 9 12.346 9.11585 11.7963 9.34094C11.2466 9.56603 10.7472 9.89595 10.3266 10.3118C9.90589 10.7278 9.57222 11.2215 9.34461 11.7649C9.11699 12.3083 8.9999 12.8907 9 13.4788V28.522C9 29.7096 9.47728 30.8486 10.3268 31.6884C11.1764 32.5282 12.3286 33 13.5301 33H20.4586C20.6391 33 20.8122 32.9291 20.9399 32.803C21.0675 32.6768 21.1392 32.5057 21.1392 32.3273V28.2013H28.7483C29.3433 28.2013 29.9324 28.0854 30.4821 27.8603C31.0317 27.6352 31.5311 27.3053 31.9518 26.8893C32.3725 26.4735 32.7061 25.9798 32.9338 25.4363C33.1614 24.8929 33.2785 24.3105 33.2784 23.7224V9Z" fill="white"/>
</svg>
