<svg width="42" height="42" viewBox="0 0 42 42" fill="none" xmlns="http://www.w3.org/2000/svg">
<rect width="42" height="42" rx="6" fill="#ED3124"/>
<path d="M26.3555 9.15593C22.9645 9.07782 20.021 10.1781 17.5143 12.371C15.4763 14.154 14.2409 16.4318 13.8948 19.1265C13.5797 21.5812 14.1274 23.8356 15.7834 25.7394C17.0066 27.1458 18.5549 27.9973 20.4183 28.2065C23.8735 28.5939 27.0796 26.3651 27.9128 22.993C28.3801 21.1013 28.1718 19.2846 27.1101 17.6182C26.3658 16.4497 25.2665 15.7068 24.0055 15.1816C23.5575 14.9948 23.101 14.8283 22.626 14.7268C22.4105 14.6806 22.3401 14.5917 22.3477 14.3709C22.411 12.5833 23.2055 11.1886 24.6232 10.131C25.1542 9.73457 25.7513 9.46612 26.3955 9.29913C26.5301 9.26412 26.6356 9.27399 26.7559 9.33594C30.3889 11.2025 32.7892 14.093 33.6753 18.0739C34.7294 22.8103 33.4688 26.9595 30.0091 30.3788C28.0236 32.3409 25.5937 33.4762 22.8222 33.8699C16.0971 34.8261 9.75996 30.4165 8.30192 23.7651C6.81515 16.9839 10.9572 10.2118 17.6948 8.44217C20.5637 7.68846 23.3775 7.90394 26.1176 9.0455C26.1908 9.07603 26.2612 9.11194 26.3555 9.15593V9.15593Z" fill="white"/>
</svg>
