<svg width="42" height="42" viewBox="0 0 42 42" fill="none" xmlns="http://www.w3.org/2000/svg">
<rect width="42" height="42" rx="6" fill="#015CB8"/>
<path fill-rule="evenodd" clip-rule="evenodd" d="M20.3988 26.488C20.175 26.5013 19.9359 26.5155 19.6648 26.3563L19.6632 26.3579C19.7275 26.2883 19.7858 26.2239 19.8406 26.1634C19.9492 26.0435 20.044 25.9388 20.1437 25.8391C20.8584 25.1248 21.5729 24.4104 22.2875 23.6961C25.1456 20.8387 28.0037 17.9814 30.8658 15.1281C31.2267 14.7689 31.5715 14.4017 31.7822 13.934C32.3219 12.735 31.9068 11.3077 30.8052 10.5446C29.5727 9.69046 28.0847 9.85011 26.9752 10.9597C21.654 16.2792 16.3345 21.6004 11.0149 26.9215C10.0219 27.9129 9.73455 29.0943 10.255 30.2582C10.7978 31.4731 11.7605 32.0048 13.0936 32C16.3166 31.9893 19.5397 31.9904 22.7627 31.9915C24.8576 31.9922 26.9525 31.9929 29.0474 31.9904C30.7844 31.9888 31.9994 30.8425 32.001 29.238C32.0026 27.6287 30.794 26.4936 29.041 26.4888C27.6321 26.4849 26.2228 26.4849 24.8135 26.4849C23.4042 26.4849 21.9949 26.4849 20.586 26.4809C20.5246 26.4805 20.4623 26.4842 20.3988 26.488ZM23.0283 10.9074C23.2549 10.683 23.4812 10.4588 23.7072 10.2349L23.7056 10.2333C23.5807 10.0288 23.4558 10.0355 23.3451 10.0414C23.327 10.0423 23.3093 10.0433 23.2921 10.0433C22.3939 10.0429 21.4957 10.0416 20.5976 10.0403C18.0154 10.0367 15.4332 10.0331 12.8509 10.0497C11.3103 10.0608 10.0938 11.2774 10.0571 12.7573C10.0188 14.266 11.2241 15.5496 12.7999 15.5895C13.9736 15.6198 15.1481 15.6131 16.3224 15.6064C16.822 15.6035 17.3215 15.6007 17.8209 15.6007C17.833 15.6007 17.8452 15.6007 17.8573 15.6008C18.0822 15.6013 18.2987 15.6018 18.485 15.4155C20.0007 13.9067 21.52 12.4016 23.0283 10.9074Z" fill="#F8F9FB"/>
</svg>
