<svg id="Capa_1" enable-background="new 0 0 512 512" height="512" viewBox="0 0 512 512" width="512" xmlns="http://www.w3.org/2000/svg"><g><path d="m437.019 74.981c-48.352-48.353-112.639-74.981-181.019-74.981s-132.667 26.628-181.019 74.981c-48.353 48.352-74.981 112.639-74.981 181.019s26.628 132.667 74.981 181.019c48.352 48.353 112.639 74.981 181.019 74.981s132.667-26.628 181.019-74.981c48.353-48.352 74.981-112.639 74.981-181.019s-26.628-132.667-74.981-181.019zm44.479 166.019h-65.498c-96.495 0-175 78.505-175 175v65.498c-49.749-3.239-96.377-22.553-133.845-55.44l318.902-318.902c32.888 37.467 52.202 84.095 55.441 133.844zm-385.304-144.806c39.13-39.13 90.086-62.13 144.806-65.692v65.498c0 79.953-65.047 145-145 145h-65.498c3.562-54.72 26.562-105.676 65.692-144.806zm-65.692 174.806h65.498c96.495 0 175-78.505 175-175v-65.498c49.749 3.239 96.377 22.553 133.845 55.44l-318.903 318.903c-32.887-37.468-52.201-84.096-55.44-133.845zm385.304 144.806c-39.131 39.13-90.086 62.13-144.806 65.692v-65.498c0-79.953 65.047-145 145-145h65.498c-3.562 54.72-26.562 105.676-65.692 144.806z"/></g></svg>