<svg id="Capa_1" enable-background="new 0 0 512.045 512.045" height="512" viewBox="0 0 512.045 512.045" width="512" xmlns="http://www.w3.org/2000/svg"><g><path d="m360.542 257.569 151.502-151.502-106.065-106.067-149.957 149.956-149.956-149.956-106.065 106.066 151.474 151.475c-11.835 17.496-18.695 37.824-19.833 59.222l-131.642 131.642 63.64 63.639 131.643-131.642c22.038-1.172 42.943-8.413 60.786-20.908 17.868 12.44 38.874 19.716 60.691 20.904l131.646 131.647 63.639-63.64-131.647-131.647c-1.155-21.2-8.049-41.653-19.856-59.189zm5.03 86.79 21.213 21.213-21.213 21.213-21.214-21.214zm-15.227-27.199-33.185 33.185c-13.373-.918-26.308-4.891-37.829-11.565l59.451-59.451c6.674 11.521 10.645 24.46 11.563 37.831zm119.274-211.094-218.899 218.899c-15.092 15.092-34.736 23.963-55.833 25.381l-33.189-33.188c1.419-21.096 10.289-40.74 25.381-55.832l218.9-218.899zm-363.553-63.639 128.744 128.742-63.64 63.64-128.743-128.743zm40.407 301.932 21.214 21.213-21.214 21.214-21.213-21.214zm-104.047 104.046 61.621-61.621 21.213 21.214-61.62 61.62zm405.979 21.213-61.62-61.62 21.213-21.213 61.62 61.62z"/></g></svg>