<svg width="250" height="83" viewBox="0 0 250 83" fill="none" xmlns="http://www.w3.org/2000/svg">
<path d="M43.9259 44.2063V70.0867L31.6052 44.2063H22.0165L10.0708 70.0867V44.2063H0V82.1963H15.2669L27.1055 56.4767L39.1048 82.1963H53.9431V44.2063H43.9259Z" fill="#1641B4"/>
<path d="M43.9259 38.8475V12.9671L31.6052 38.8475H22.0165L10.0708 12.9671V38.8475H0V0.857422H15.2669L27.1055 26.577L39.1048 0.857422H53.9431V38.8475H43.9259Z" fill="#111111"/>
<path d="M59.0322 38.8475V30.5422L81.9058 9.2163H59.8893V0.857422H97.0121V7.9839L74.192 30.1671H97.387V38.8475H59.0322Z" fill="#111111"/>
<path d="M129.849 38.8473V26.7912H112.493V38.8473H101.565V16.3426C101.565 2.41112 106.708 0.267822 122.403 0.267822C136.813 0.267822 140.884 3.00053 140.884 16.3426V38.8473H129.849ZM129.849 13.2348C129.849 9.8591 127.385 8.9482 121.439 8.9482C115.493 8.9482 112.493 9.96627 112.493 13.2348V18.8074H129.849V13.2348Z" fill="#111111"/>
<path d="M183.897 38.8475L157.434 12.4313V38.8475H146.988V0.857422H160.648L178.808 19.5042V0.857422H189.361V38.8475H183.897Z" fill="#111111"/>
<path d="M222.895 12.2168C222.252 8.41246 217.484 8.3053 214.27 8.3053C211.056 8.3053 205.86 8.3053 205.86 11.5202C205.86 13.9315 208.056 14.253 209.771 14.5209C215.235 15.3782 221.288 14.4673 226.698 16.1283C231.466 17.6287 233.555 21.2187 233.555 25.9875C233.555 37.8293 224.448 39.6511 213.895 39.6511C205.11 39.6511 194.986 37.8293 194.396 26.4698H204.949C205.539 30.6492 210.735 31.0243 214.217 31.0243C218.341 31.0243 222.359 31.0243 222.359 27.2199C222.359 25.0231 220.806 24.0586 218.984 23.8442C212.663 22.9333 203.878 24.0586 198.414 20.0399C195.682 18.1109 195.039 15.4854 195.039 12.324C195.039 1.01807 205.86 0 214.324 0C223.43 0 232.216 1.44673 232.966 12.2168H222.895Z" fill="#111111"/>
<path d="M239.126 38.8475V0.857422H250V38.8475H239.126Z" fill="#111111"/>
<path d="M59.0322 82.1963V44.2063H69.9066V82.1963H59.0322Z" fill="#1641B4"/>
<path d="M112.919 82.1963L86.4565 55.7801V82.1963H76.0107V44.2063H89.6706L107.83 62.853V44.2063H118.383V82.1963H112.919Z" fill="#1641B4"/>
<path d="M151.916 55.5657C151.273 51.7613 146.506 51.6542 143.292 51.6542C140.078 51.6542 134.882 51.6542 134.882 54.8691C134.882 57.2803 137.078 57.6018 138.792 57.8697C144.256 58.7271 150.309 57.8162 155.72 59.4772C160.487 60.9775 162.576 64.5676 162.576 69.3364C162.576 81.1782 153.47 83 142.917 83C134.132 83 124.007 81.1782 123.418 69.8187H133.971C134.56 73.9981 139.756 74.3732 143.238 74.3732C147.363 74.3732 151.381 74.3732 151.381 70.5688C151.381 68.3719 149.827 67.4074 148.006 67.1931C141.685 66.2822 132.9 67.4074 127.436 63.3888C124.704 61.4598 124.061 58.8342 124.061 55.6729C124.061 44.3669 134.882 43.3489 143.345 43.3489C152.452 43.3489 161.237 44.7956 161.987 55.5657H151.916Z" fill="#1641B4"/>
</svg>
