<svg xmlns="http://www.w3.org/2000/svg" viewBox="0 0 800 300" fill="none" stroke="#8ba4d4" stroke-width="1.5" stroke-linecap="round" stroke-linejoin="round">
  <rect width="800" height="300" fill="#0f1a3d"/>
  <g transform="translate(340,60)" opacity="0.6">
    <circle cx="60" cy="60" r="55" stroke-width="2"/>
    <path d="M60 5 L45 30 L15 30 L8 55 L25 75 L20 100 L45 115 L60 100 L75 115 L100 100 L95 75 L112 55 L105 30 L75 30 Z" stroke-width="1.5"/>
    <line x1="60" y1="5" x2="45" y2="30"/>
    <line x1="60" y1="5" x2="75" y2="30"/>
    <line x1="45" y1="30" x2="15" y2="30"/>
    <line x1="75" y1="30" x2="105" y2="30"/>
    <path d="M-20 130 L0 150 L20 135" stroke-width="1" opacity="0.3"/>
    <path d="M100 130 L120 145 L140 128" stroke-width="1" opacity="0.3"/>
  </g>
  <text x="400" y="270" text-anchor="middle" fill="#8ba4d4" font-family="Inter,sans-serif" font-size="11" letter-spacing="2" opacity="0.5">SPORTS</text>
</svg>
