<svg xmlns="http://www.w3.org/2000/svg" viewBox="0 0 800 300" fill="none" stroke="#8ba4d4" stroke-width="1.5" stroke-linecap="round" stroke-linejoin="round">
  <rect width="800" height="300" fill="#0f1a3d"/>
  <g transform="translate(330,50)" opacity="0.6">
    <path d="M70 10 L70 170" stroke-width="2"/>
    <path d="M70 10 C50 10 10 15 10 30 L10 160 C10 150 50 145 70 170" stroke-width="2"/>
    <path d="M70 10 C90 10 130 15 130 30 L130 160 C130 150 90 145 70 170" stroke-width="2"/>
    <line x1="25" y1="50" x2="60" y2="50" opacity="0.4"/>
    <line x1="25" y1="70" x2="55" y2="70" opacity="0.4"/>
    <line x1="25" y1="90" x2="60" y2="90" opacity="0.4"/>
    <line x1="80" y1="50" x2="115" y2="50" opacity="0.4"/>
    <line x1="80" y1="70" x2="110" y2="70" opacity="0.4"/>
    <line x1="80" y1="90" x2="115" y2="90" opacity="0.4"/>
  </g>
  <text x="400" y="270" text-anchor="middle" fill="#8ba4d4" font-family="Inter,sans-serif" font-size="11" letter-spacing="2" opacity="0.5">GUIDE</text>
</svg>
