<svg xmlns="http://www.w3.org/2000/svg" viewBox="0 0 800 300" fill="none" stroke="#8ba4d4" stroke-width="1.5" stroke-linecap="round" stroke-linejoin="round">
  <rect width="800" height="300" fill="#0f1a3d"/>
  <g transform="translate(340,40)" opacity="0.6">
    <path d="M30 20 L90 20 L85 90 C85 120 60 130 60 130 C60 130 35 120 35 90 Z" stroke-width="2"/>
    <path d="M30 30 C10 30 5 50 15 70 L35 60" stroke-width="1.5"/>
    <path d="M90 30 C110 30 115 50 105 70 L85 60" stroke-width="1.5"/>
    <line x1="60" y1="130" x2="60" y2="160" stroke-width="2"/>
    <rect x="40" y="160" width="40" height="12" rx="3" stroke-width="2"/>
    <path d="M50 5 L55 15 L65 15 L70 5" stroke-width="1" opacity="0.4"/>
    <path d="M20 180 L40 190 L60 178 L80 192 L100 180" stroke-width="1" opacity="0.3"/>
  </g>
  <text x="400" y="270" text-anchor="middle" fill="#8ba4d4" font-family="Inter,sans-serif" font-size="11" letter-spacing="2" opacity="0.5">WINNERS</text>
</svg>
