<svg id="Capa_1" enable-background="new 0 0 512 512" height="512" viewBox="0 0 512 512" width="512" xmlns="http://www.w3.org/2000/svg"><g><path d="m492.951 28.173-2.389-6.736-6.736-2.389c-2.225-.789-54.559-19.048-126.799-19.048-1.123 0-2.264.004-3.397.013-43.583.347-85.124 7.401-123.469 20.968-48.089 17.015-91.156 44.326-128.005 81.175-36.85 36.849-64.16 79.916-81.175 128.005-13.567 38.345-20.622 79.886-20.967 123.47-.588 73.983 18.233 127.936 19.035 130.196l2.389 6.736 6.736 2.389c2.225.789 54.559 19.048 126.799 19.048 1.123 0 2.264-.004 3.397-.013 43.583-.347 85.124-7.401 123.469-20.968 48.089-17.015 91.156-44.326 128.005-81.175 36.85-36.849 64.16-79.916 81.175-128.005 13.567-38.345 20.622-79.885 20.968-123.469.587-73.984-18.234-127.936-19.036-130.197zm-11.062 135.368c-.292 13.409-1.259 26.593-2.921 39.505l-170.014-170.014c12.912-1.663 26.096-2.63 39.505-2.922zm-1.463-43.889-88.079-88.079c35.329 3.105 62.383 10.034 74.5 13.579 3.546 12.117 10.475 39.186 13.579 74.5zm-450.315 228.807c.292-13.409 1.259-26.594 2.921-39.505l170.014 170.014c-12.912 1.663-26.097 2.63-39.505 2.922zm1.463 43.889 88.08 88.08c-35.323-3.105-62.396-10.038-74.501-13.58-3.545-12.114-10.474-39.183-13.579-74.5zm357.057-3.717c-33.511 33.51-72.608 58.373-116.209 73.896-10.881 3.874-22.056 7.174-33.492 9.899l-199.356-199.356c2.725-11.436 6.024-22.611 9.899-33.492 15.523-43.6 40.387-82.699 73.896-116.209 33.511-33.51 72.608-58.373 116.209-73.896 10.881-3.874 22.056-7.174 33.492-9.899l199.356 199.356c-2.725 11.436-6.024 22.611-9.899 33.492-15.523 43.6-40.386 82.699-73.896 116.209z"/><path d="m340.928 149.859-21.289 21.288-21.213-21.213-21.213 21.213 21.213 21.213-21.213 21.214-21.213-21.214-21.213 21.213 21.213 21.214-21.213 21.213-21.214-21.213-21.213 21.213 21.214 21.213-21.213 21.214-21.214-21.214-21.212 21.213 21.213 21.214-21.289 21.288 21.213 21.213 21.289-21.288 21.213 21.213 21.213-21.213-21.213-21.213 21.213-21.214 21.213 21.214 21.213-21.213-21.213-21.214 21.213-21.213 21.214 21.213 21.213-21.213-21.214-21.213 21.213-21.214 21.214 21.214 21.212-21.213-21.213-21.214 21.289-21.288z"/></g></svg>