<svg width="350" height="78" viewBox="0 0 350 78" fill="none" xmlns="http://www.w3.org/2000/svg">
<path d="M107.959 22.1406H107.21H95.7284C94.3889 22.1406 93.1138 22.1656 91.9032 22.2155C77.5509 22.7958 72.6649 26.9954 70.1813 38.4398C70.1376 38.6395 70.1002 38.8392 70.0565 39.0639L66.0316 58.5955C65.988 58.7951 65.9505 58.9948 65.9131 59.2195C65.7498 60.1001 65.6415 60.99 65.5886 61.884C64.9646 71.6623 72.3591 74.4953 80.983 75.2691C82.7801 75.4376 84.6335 75.5062 86.4806 75.5374H114.561L117.375 61.884H91.3603C84.44 61.884 83.8035 61.884 84.7458 57.0105C84.7895 56.7921 84.8332 56.5674 84.8831 56.3303C84.933 56.0932 85.0079 55.7063 85.0765 55.3756H100.371C112.502 55.3132 118.854 54.4458 121.382 42.5895L121.438 42.3337L122.105 39.1075C122.162 38.8517 122.205 38.6021 122.255 38.3525C124.327 27.0578 119.778 22.1406 107.959 22.1406ZM103.953 38.0904C103.956 38.109 103.956 38.128 103.953 38.1466C103.903 38.4149 103.841 38.7206 103.772 39.0576L103.104 42.315H87.8159L88.4836 39.0701C88.8892 37.1045 90.1747 35.8065 94.1434 35.8065H101.969C104.071 35.8439 104.284 36.1622 103.922 38.0904H103.953Z" fill="white"/>
<path d="M47.6172 22.2897C46.4441 22.1899 45.1961 22.1399 43.8732 22.1399H32.4974L36.5473 2.46484L17.3526 6.43356L14.1202 22.1399L11.3059 35.7996L5.93942 61.8458L3.12512 75.4743H33.8952C34.8624 75.4743 35.7672 75.4181 36.6845 75.3557H36.8218C54.4502 74.1077 57.2894 64.3107 58.9556 56.4731C59.0055 56.2173 59.0616 55.9676 59.1116 55.718C59.1116 55.587 59.1677 55.4497 59.1927 55.3187L61.8884 42.2706C64.3907 30.0899 60.4282 23.3381 47.6172 22.2897ZM44.3599 38.0897C44.3599 38.1812 44.3412 38.2811 44.3037 38.3892C44.2601 38.5952 44.2164 38.8136 44.1665 39.0569L40.8093 55.3374C39.4676 61.8458 37.2337 61.8458 31.8921 61.8458H24.3416L29.7018 35.7996H42.3568C44.5097 35.8433 44.7218 36.1615 44.3599 38.0897Z" fill="white"/>
<path d="M155.384 56.9719C154.442 61.8329 155.079 61.8454 161.999 61.8454H168.651L165.805 75.4738H151.572H149.144C149.084 75.4801 149.023 75.4801 148.963 75.4738C141.475 75.349 135.378 74.0823 136.321 61.8267C136.484 59.8609 136.764 57.9064 137.157 55.9734L137.288 55.312L141.313 35.7928H130.212L133.026 22.127H144.152H162.536H176.807L174.03 35.7928H159.709L155.684 55.312L155.54 56.0046L155.478 56.3354L155.384 56.9719Z" fill="white"/>
<path d="M163.346 18.14L166.573 2.46484H166.566L147.378 6.42108L144.963 18.14H163.346Z" fill="#FA434E"/>
<path d="M217.785 22.296C216.612 22.1961 215.364 22.1462 214.041 22.1462H202.684L206.74 2.46484L187.546 6.42732L184.307 22.1399L181.499 35.7996L176.132 61.8458L173.318 75.4743H203.059C204.4 75.4743 205.667 75.4306 206.871 75.3495H207.021C224.344 74.1014 227.383 64.6352 229.067 56.8662C229.117 56.6166 229.173 56.3733 229.223 56.1236L229.298 55.7492C229.298 55.7118 229.33 55.5995 229.392 55.3187L232.088 42.2706C234.577 30.0961 230.621 23.3443 217.785 22.296ZM214.54 38.1583L214.428 38.7075L214.353 39.0569L211.002 55.3374C211.002 55.3374 211.002 55.3811 211.002 55.3998C209.661 61.8521 207.414 61.8521 202.098 61.8521H194.51L199.87 35.8058H211.252C211.838 35.8058 212.331 35.8058 212.743 35.8058C214.734 35.862 214.909 36.2052 214.54 38.1583Z" fill="#FA434E"/>
<path d="M295.656 22.1406L287.475 61.8403L284.661 75.475H251.158L251.12 75.4251V75.475H248.942C241.317 75.3814 234.964 74.2769 235.925 61.8216C236.087 59.881 236.362 57.9516 236.749 56.0432V55.9683L236.886 55.3443L243.751 22.1531H262.09L255.226 55.3443C255.176 55.5939 255.126 55.8311 255.076 56.0557C253.903 61.8403 254.172 61.8528 261.51 61.8528H269.061L277.241 22.1531L295.656 22.1406Z" fill="#FA434E"/>
<path d="M318.701 35.8054L317.359 42.3076H327.512C329.642 42.2631 331.771 42.4726 333.852 42.9316C335.02 43.1937 336.138 43.647 337.159 44.2732C341.296 46.9003 340.747 52.0359 339.374 58.7066L338.75 61.8267C336.666 71.9731 331.318 74.5753 323.524 75.2429C321.652 75.399 319.687 75.4489 317.565 75.4676C317.24 75.4676 316.91 75.4676 316.573 75.4676H292.143L294.957 61.8142H320.354L321.696 55.2995H314.676C312.891 55.2995 311.285 55.2392 309.858 55.1185C308.543 55.0197 307.234 54.8426 305.94 54.5881C305.484 54.4945 305.054 54.3885 304.648 54.2824C299.575 52.947 298.283 50.3324 298.283 47.2872C298.283 47.1125 298.283 46.9377 298.283 46.763C298.283 46.5883 298.283 46.5009 298.283 46.3699C298.283 46.2388 298.283 46.1452 298.283 46.0392C298.327 45.5649 298.395 45.0907 298.476 44.6039C298.539 44.242 298.607 43.8676 298.676 43.4994L298.788 42.9441L298.919 42.32L300.261 35.8054C303.075 22.1457 310.208 22.1582 321.478 22.1582H346.875L340.853 35.8178H325.683L318.701 35.8054Z" fill="#FA434E"/>
</svg>
