<svg width="250" height="86" viewBox="0 0 250 86" fill="none" xmlns="http://www.w3.org/2000/svg"><path d="M27.66 8.61C28.04 8.77 28.48 8.77 28.87 8.61H29.88C30.15 8.74 30.41 8.74 30.68 8.61C31.01 8.63 31.36 8.58 31.69 8.61C31.77 8.61 32.15 8.77 32.5 8.81C32.67 8.86 32.67 8.93 32.5 9C32.64 9.05 32.63 9.11 32.5 9.2L32.29 9.35C32.73 11.3 32.99 13.21 33.09 15.1C28.66 14.97 24.49 15.92 20.5 17.74L20.12 17.67C18.67 15.67 17.29 13.65 15.96 11.59C16.33 11.34 16.5 11.33 16.76 11.19C17.09 11.41 17.59 10.94 17.77 10.59C20.24 9.7 22.95 9.45 25.43 8.61H27.66Z" fill="#42311D"/><path d="M28.86 8.61C28.66 8.93 27.85 8.93 27.65 8.61H28.86Z" fill="#9D9389"/><path d="M30.68 8.61C30.43 8.88 30.13 8.88 29.88 8.61H30.68Z" fill="#E6E4E2"/><path d="M15.35 51.55C14.24 52.21 13.16 52.8 12.12 53.34C11.83 53.53 11.57 53.59 11.32 53.54C11.22 53.78 10.95 53.84 10.71 53.73C10.72 53.98 10.35 54.24 10.11 54.13C10.14 54.38 9.71 54.44 9.5 54.33C9.59 55.4 10.15 56.2 10.88 57.06L10.71 57.51C10.81 57.67 10.88 57.61 10.91 57.31L11.41 57.53C14.45 61.7 18.01 65.18 22.09 67.97C23.04 66.28 23.94 64.53 24.79 62.71L25.23 62.88C25.53 62.55 25.66 62.55 25.64 62.88C24.95 64.86 24.06 67.35 22.81 69.04C23.1 69.66 20.38 71.82 20.16 71.85L19.38 71.62C12.87 67.49 9.55 63.49 5.87 56.91C6.38 55.77 8.04 54.08 9.3 53.93C11.22 52.93 13.17 51.95 15.13 51.01L15.35 51.14C15.89 51.22 15.84 51.33 15.35 51.54L15.35 51.55Z" fill="#0B0601"/><path d="M48.83 14.97C53.76 18.2 57.6 22.19 60.53 27.3L60.34 27.75C59.9 28.03 55.62 30.04 55.35 30.04C54.78 30.02 54.34 29.64 54.05 29.19C52.26 25.86 49.3 22.75 46.2 20.6C44.99 20.6 44.82 19.81 45.81 19.55C46.04 19.21 46.24 18.88 46.41 18.56C46.06 18.28 46.16 17.97 46.62 17.96C46.77 17.61 46.97 17.34 47.22 17.16C46.72 16.91 46.89 16.49 47.42 16.37C47.62 16.04 47.82 15.78 48.03 15.57C48.06 14.92 48.12 14.57 48.84 14.98L48.83 14.97Z" fill="#231B11"/><path d="M66.18 43.8C66.21 43.26 66.41 43.29 66.58 43.8C67.25 49.27 67.11 52.83 65.37 58.11C64.98 58.28 64.51 58.26 63.99 58.08C62.12 56.53 60.15 55.26 58.05 54.27L58.02 53.81C59.06 50.41 59.53 46.91 59.44 43.31L59.92 43.21C60.18 43.3 60.14 43.45 59.92 43.6C60.31 45.02 60.19 46.75 59.92 48.18C59.98 48.39 60.05 48.38 60.13 48.18C60.12 46.63 60.12 45.1 60.13 43.6C60.01 43.4 60.08 43.21 60.33 43.01C60.37 42.86 60.44 42.87 60.53 43.01C62.41 43.27 64.29 43.54 66.18 43.8V43.8Z" fill="#19130A"/><path d="M54.48 31.07L55.12 31.35C56.62 34.05 57.58 37.01 58.37 39.98L58.11 40.62C58.12 41 58.05 41.13 57.79 40.9C57.16 38.5 56.26 36.22 55.09 34.05C54.47 34.04 54.12 33.36 54.48 32.86C52.04 28.05 46.41 22.83 41.44 20.46C29.01 14.51 13.24 20.25 12.16 34.87L11.92 35.05C12.76 35.12 11.86 38.2 11.51 38.25C9.3 37.97 7.08 37.76 4.86 37.63C3.84 37.56 3.2 37.89 2.94 38.64L0.88 40.52L0.42 40.41C-0.53 36.64 0.24 32.01 1.63 28.38C2.51 26.09 3.8 24.38 5.06 22.32C5.36 22 5.49 22 5.47 22.32C6.1 22.1 6.9 22.31 6.07 22.72C6 22.88 5.86 23.01 5.67 23.12C5.55 23.43 5.48 23.76 5.47 24.11C5.91 24.43 5.75 24.63 5.26 24.71C5.1 24.87 4.97 25.07 4.86 25.3C4.75 25.69 4.69 26.08 4.66 26.49C5.1 26.82 4.99 26.95 4.46 26.89C4.4 27.26 4.26 27.59 4.05 27.89C4.06 28.47 4 29.06 3.85 29.67C4.25 29.72 4.23 29.92 3.85 30.07C3.56 30.34 3.59 30.63 3.65 31.06C4.12 31.37 3.68 32.27 3.24 32.46C3.42 33.48 3.42 34.41 3.24 35.24C3.27 35.84 3.5 36.09 3.9 36.41L10.42 36.8L10.51 33.9C10.43 32.61 10.7 31.53 11.31 30.67L11.55 30.68C11.96 28.28 13.45 26.13 14.96 24.29C18.72 19.72 22.41 17.72 28.58 16.99C39.03 15.76 49.41 22.39 54.48 31.07L54.48 31.07Z" fill="#100B04"/><path d="M60.94 28.29C61.11 28.57 61.17 28.3 61.54 29.28C61.8 29.84 62.13 30.3 62.55 30.67C62.74 31.02 62.81 31.37 62.95 31.67C62.89 32.03 63.05 32.29 63.36 32.46C63.5 32.79 63.62 33.13 63.76 33.46C63.77 33.84 63.9 34.11 64.16 34.25C64.19 34.31 64.14 34.39 64.16 34.45C64.34 34.71 64.4 34.98 64.37 35.24C64.64 35.49 64.72 35.88 64.77 36.24C64.81 36.34 64.91 36.48 64.97 36.64C65.1 37.19 65.25 37.75 65.58 38.23C65.6 38.35 65.56 38.5 65.58 38.62C65.64 39.06 65.78 39.39 65.98 39.62C66.01 39.87 65.97 40.15 65.98 40.41L66.18 41.41C66.32 41.78 66.37 42.22 66.39 42.6C66.65 43.12 66.51 43.28 66 43.39C65.75 43.44 61.11 42.65 60.92 42.48C60.84 42.41 60.79 42.31 60.74 42.2L60.33 42C60.23 41.93 60.12 41.85 60.04 41.75C59.87 41.53 58.72 37.11 58.56 36.39C58.54 36.29 58.62 36.17 58.72 36.04C57.85 34.19 57.07 32.33 56.38 30.47C56.45 30.24 60.2 28.43 60.71 28.21C60.77 28.19 60.85 28.22 60.94 28.28L60.94 28.29Z" fill="#C67B04"/><path d="M46.21 17.36C46.23 17.03 47.39 14.59 47.55 14.54C48.21 14.3 48.6 15.12 47.83 15.37C47.91 15.72 47.67 16.09 47.42 16.36C47.33 16.61 47.32 16.91 47.22 17.16C46.96 17.37 46.76 17.63 46.61 17.95C46.55 18.15 46.47 18.35 46.41 18.55C46.24 18.88 46.04 19.22 45.8 19.54C45.77 19.63 45.31 20.06 45.4 20.14C45.75 20.12 46.07 20.11 46.4 20.25C47.98 20.88 52.34 25.7 53.44 27.23C54.09 28.15 54.44 29.94 55.69 29.59C57.16 29.19 58.94 27.65 60.53 27.3C60.65 27.5 60.66 27.75 60.73 27.89C60.81 28.17 60.8 28.24 60.53 28.09C58.91 28.78 57.32 29.56 55.79 30.42C55.75 31.05 55.06 31.28 54.48 31.07C54.46 31.05 54.1 31.05 53.99 30.87C46.68 19.81 34.27 13.67 21.2 19.44C18.77 20.51 15.22 24.22 13.77 26.43C12.6 28.21 11.65 30.32 11.51 32.46L11.31 30.68C10.74 29.91 11.39 27.42 12.32 27.1C12.37 26.87 12.44 26.68 12.52 26.5C12.57 26.33 12.64 26.34 12.73 26.5C12.87 26.14 12.97 25.96 13.09 26.26C14.63 22.99 17.31 20.64 19.99 18.35L20.49 17.71C24.65 15.89 28.51 14.98 33.07 15.18C33.43 15.2 33.22 15.73 33.1 15.97C37.09 16.61 40.65 17.99 44.15 19.95C45.11 19.58 45.75 18.74 46.07 17.44L46.21 17.36H46.21Z" fill="#030100"/><path d="M4.86 37.64C5.04 37.69 5.03 37.76 4.86 37.83C4.71 38.12 3.71 38.25 3.65 37.83C3.27 41.72 4.96 45.67 6.48 49.1C6.58 49.56 8.46 53.42 8.73 53.3C10.65 52.27 12.61 51.34 14.61 50.51C12.71 46.97 11.18 43 10.75 38.96L11.11 38.24C11.47 37.96 11.71 38.01 11.86 38.43C12.32 42.25 13.54 45.93 15.51 49.48L15.35 50.17C15.84 50.23 15.83 50.43 15.35 50.56L15.21 50.97C13.22 51.95 11.25 52.94 9.3 53.94C8.1 54.86 7.09 56.04 5.87 56.93C3.29 52.31 1.29 48.22 0.48 42.85C0.38 42.19 0.06 40.93 0.42 40.42C0.6 40.17 3.06 37.94 3.33 37.82C3.95 37.56 4.26 37.67 4.86 37.64L4.86 37.64Z" fill="#6C2C00"/><path d="M37.33 9.8C41.02 10.56 44.23 12.07 47.42 13.98C47.52 14.04 47.51 14.11 47.42 14.18L47.09 14.46L44.43 13.25L44.17 13.73L41.62 14.67C41.03 15.43 40.01 15.9 39.58 14.79L38.45 15.27C38.51 15.15 42.73 16.82 41.27 17.05C41.18 17.06 41.07 17.02 40.96 16.96L40.64 17.15C38.34 16.28 36 15.73 33.61 15.5C33.52 15.39 33.29 13 33.5 12.78C33.55 12.61 33.62 12.61 33.7 12.78C33.61 11.61 33.41 10.4 33.09 9.17C33.32 8.86 36.81 9.61 37.33 9.8H37.33Z" fill="#E9A30F"/><path d="M39.76 66.86L40.2 67.09C40.53 69.43 40.85 71.76 41.18 74.1C46.19 73.96 52.29 72.96 56.03 69.47L56.5 69.45C57.12 69.49 57.08 69.6 56.7 70.04C50.13 75.46 46.29 77.51 37.34 77.4C37.26 77.33 37.19 77.26 37.16 77.17C36.96 76.68 39.39 75.01 39.97 74.83C40.2 74.44 40.25 74.05 40.16 73.62C40.03 73.49 40.02 73.35 40.16 73.22C39.77 71.49 39.46 69.65 39.35 67.85L39.56 67.65C39.44 67.27 39.28 66.62 39.76 66.86L39.76 66.86Z" fill="#060300"/><path d="M37.33 77.39C32.04 77.33 28.08 76.47 23.41 74.01C23.6 73.42 24.21 73.28 25.23 73.58C27.16 74.31 28.8 74.39 30.78 73.72L33.7 74.21L34.09 73.97C35.87 74.23 37.66 74.4 39.47 74.5C39.78 74.22 39.97 74.02 40.16 73.61C40.16 73.66 40.37 73.84 40.38 74.1C40.43 75.36 37.91 76.24 37.33 77.39V77.39Z" fill="#421701"/><path d="M22.82 69.05C22.91 69.13 22.94 69.26 22.9 69.43C22.99 69.61 25.96 71.2 26.37 71.36C28.68 72.25 30.75 72.93 33.1 73.68C33.38 73.77 33.58 73.95 33.71 74.22C33.08 74.17 31.89 73.99 31.41 74.02C30.36 74.1 29.3 74.66 27.95 74.62C26.37 74.58 24.9 73.46 23.42 74.02C22.03 73.28 20.71 72.47 19.39 71.63C19.85 71.71 20 71.48 20.3 71.24C20.86 70.8 22.47 69.5 22.82 69.04V69.05Z" fill="#4D1C01"/><path d="M32.49 9.2C33.07 11.24 33.41 13.29 33.5 15.37C33.7 15.98 33.57 16.18 33.1 15.96C33.05 15.84 33.22 15.54 32.98 15.56C28.33 15.16 24.16 16.56 19.99 18.35C19.76 18.36 19.54 18.12 19.31 17.62L17.37 14.97C17.28 15.02 17.19 15.05 17.1 15.06C16.83 15.07 15.3 12.81 15.15 12.38C15.18 12.33 15.09 12.17 15.19 12.03C15.24 11.96 15.78 11.7 15.96 11.59C16.48 11.51 16.55 11.68 16.81 12.04C17.94 13.57 18.89 15.61 20.1 17.15C20.19 17.3 20.32 17.35 20.49 17.35C20.92 17.36 23.21 16.18 23.92 15.95C25.86 15.32 28.35 14.85 30.39 14.77C31.31 14.74 33.08 15.34 33.03 14.37C32.94 12.9 32.24 11.05 32.1 9.5C32.05 8.99 32.01 8.87 32.5 9.2H32.49Z" fill="#0F0702"/><path d="M58.72 42.8C59.09 42.39 60.56 42.24 60.74 42.8C60.89 42.91 60.83 42.98 60.53 43C60.47 42.99 60.4 43 60.33 43C60.26 43.23 60.12 43.4 59.93 43.2C59.52 43.64 59.78 47.45 59.7 48.44C59.54 50.39 58.92 52.28 58.31 54.13C58.64 54.11 58.97 54.14 59.27 54.28C60.73 54.94 63 57.29 64.38 57.81C65.01 58.05 65.47 57.39 65.37 58.11C65.24 58.51 65.04 58.71 64.97 58.9C64.77 59.23 64.65 59.3 64.57 58.9C64.44 58.94 64.31 58.97 64.19 58.98C63.84 59 60.26 56.44 59.64 55.95C59.63 55.69 59.53 55.48 59.33 55.33C58.99 55.52 58.57 55.32 58.52 54.93C58.18 55.33 57.54 55.13 57.11 54.93L56.94 54.26C58.09 50.7 58.98 46.53 57.94 42.92C58.27 42.28 58.53 42.24 58.72 42.8Z" fill="#0E0803"/><path d="M64.16 61.09C62.11 65.26 60.16 67.19 56.7 70.04C56.68 69.82 56.59 69.64 56.5 69.45L56.22 69.5C54.87 67.28 53.34 65.16 51.63 63.15L51.66 62.69C51.51 62.63 51.52 62.56 51.66 62.49C52.16 62.16 52.57 61.99 52.67 62.69H52.87C53.46 63.27 53.93 63.99 54.28 64.87C54.56 65.03 54.77 65.36 54.89 65.67L56.5 67.85C56.88 67.81 57.1 68.08 57.16 68.65C59.89 66.7 61.79 63.59 63.48 60.76L63.96 60.7C64.2 60.49 64.26 60.62 64.16 61.1V61.09Z" fill="#672E03"/><path d="M15.15 12.39C15.29 12.49 15.4 12.65 15.34 12.82C11.76 15.19 9.33 18.43 6.86 21.82L6.48 21.33L6.34 21.16C7.12 19.63 8.11 18.23 9.3 16.96C10.27 15.99 13.5 12.65 14.56 12.29C14.89 12.18 14.91 12.31 15.15 12.39V12.39Z" fill="#E6C131"/><path d="M60.73 42.21C62.41 42.27 64.28 43.02 65.89 43.02C66.27 43.02 66.46 43.06 66.38 42.6C66.44 42.43 66.5 42.43 66.58 42.6C66.64 42.97 66.54 43.42 66.58 43.8C66.46 43.82 66.28 43.77 66.18 43.8C64.32 43.66 62.51 43.33 60.73 42.8C60.17 42.76 59.27 42.75 58.72 42.8C58.54 42.75 58.54 42.68 58.72 42.61C58.63 41.81 59.3 41.68 60.73 42.21V42.21Z" fill="#5F2302"/><path d="M60.94 28.29C60.52 28.79 56.74 30.38 56.69 30.61C56.51 31.35 57.49 32.71 57.8 33.47C58.16 34.32 58.41 35.18 58.72 36.04C58.8 36.38 58.65 36.53 58.37 36.34C57.61 34.34 56.79 32.39 55.89 30.48C57.3 29.55 58.85 28.75 60.53 28.09C60.61 28.03 60.66 27.95 60.74 27.89C60.81 28.03 60.89 28.21 60.94 28.29H60.94Z" fill="#F0B710"/><path d="M37.33 9.8C36.79 9.69 33.72 9.17 33.5 9.3C33.25 9.45 33.42 9.59 33.43 9.76C33.51 11.4 34.11 13.22 34.31 14.87C34.31 15.05 33.92 15.06 33.9 14.87C33.83 14.22 33.82 13.42 33.7 12.79C33.36 11.55 33.02 10.29 32.69 9.01C32.64 9.18 32.57 9.18 32.49 9.01V8.81C34.11 9 35.82 9.17 37.33 9.81L37.33 9.8Z" fill="#EEB81A"/><path d="M6.48 21.33C7.18 21.56 7.38 21.88 7.08 22.33C6.86 22.78 6.34 22.56 6.28 22.13C6.02 22.11 5.78 22.06 5.54 22C5.48 21.84 6.92 19.36 7.29 19.15C7.95 18.05 8.45 17.81 9.3 16.96C8.89 17.97 6.53 20.39 6.48 21.33H6.48Z" fill="#B36710"/><path d="M7.28 19.14C6.87 19.82 6.33 20.82 5.97 21.54C5.73 22.02 5.98 21.89 6.27 22.13C6.2 22.25 5.93 22.32 5.47 22.32C5.36 22.36 5.19 22.3 5.06 22.32C5.61 21.45 6.06 20.51 6.68 19.63C6.85 19.39 6.83 19.04 7.28 19.14Z" fill="#8A521B"/><path d="M48.83 14.97C48.43 14.96 48.24 15.3 48.03 15.57C47.76 15.83 47.77 15.73 47.82 15.37C47.98 15.01 48.16 14.42 47.62 14.87C47.29 15.15 46.47 16.85 46.21 17.36C46.15 17.49 46.08 17.48 46.01 17.36C45.87 16.24 46.49 14.81 47.42 14.18V13.98C47.86 14.25 48.35 14.66 48.83 14.97H48.83Z" fill="#50300F"/><path d="M64.97 58.91C64.65 59.74 64.65 60.11 64.16 61.09L63.96 60.69C63.55 60.31 64.12 59.14 64.57 58.91C64.63 58.94 64.85 58.88 64.97 58.91Z" fill="#794318"/><path d="M17.77 10.6L18.07 10.99C17.93 10.89 16.16 12.18 16.76 11.19C17.09 11.02 17.35 10.76 17.77 10.6V10.6Z" fill="#65513B"/><path d="M62.55 30.68C61.83 30.65 61.74 29.81 61.54 29.29C61.95 29.59 62.31 30.23 62.55 30.68Z" fill="#915615"/><path d="M66.58 42.61H66.38C66.05 42.4 66.17 41.79 66.18 41.41C66.08 41.26 66.03 41.13 66.18 41.02C66.36 41.6 66.48 41.98 66.58 42.61H66.58Z" fill="#8D5822"/><path d="M65.58 38.23C65.02 37.95 64.98 37.18 64.97 36.64C65.2 37.19 65.46 37.58 65.58 38.23Z" fill="#8F5F30"/><path d="M65.98 39.62C65.32 39.77 65.63 39.15 65.57 38.63C65.84 38.87 65.94 39.29 65.98 39.62Z" fill="#976632"/><path d="M63.36 32.47C62.9 32.58 62.83 32.16 62.79 31.79L62.95 31.67C63.09 31.94 63.24 32.19 63.36 32.47Z" fill="#965B18"/><path d="M64.77 36.24C64.65 35.92 64.5 35.58 64.37 35.25C64.43 35.08 64.49 35.08 64.57 35.25C64.69 35.58 64.85 35.86 64.77 36.24H64.77Z" fill="#814506"/><path d="M66.18 41.01C66.18 41.14 66.18 41.28 66.18 41.41C65.85 41.24 65.99 40.73 65.98 40.42C66.25 40.55 66.13 40.84 66.18 41.01Z" fill="#82480E"/><path d="M64.16 34.26C63.56 34.38 63.78 33.96 63.76 33.46C63.86 33.7 64.05 33.96 64.16 34.26Z" fill="#97642D"/><path d="M64.57 35.25H64.36C64.23 34.9 64.22 34.6 64.16 34.45C64.38 34.67 64.47 34.97 64.56 35.25H64.57Z" fill="#98642D"/><path d="M33.5 12.79C33.64 13.56 33.66 14.57 33.71 15.37C34.08 15.28 34.31 15.2 34.71 15.25C36.76 15.5 38.97 16.44 40.97 16.96L41.32 16.73C42.7 17.37 43.99 18.11 45.2 18.94C45.58 19.21 44.8 20 44.42 19.86C41.01 17.83 37.27 16.6 33.35 16.01C33.35 15.8 33.4 15.59 33.51 15.37C33.31 13.38 32.53 11.17 32.5 9.21C32.5 9.14 32.5 9.07 32.5 9.01H32.7C33.12 10.26 33.39 11.52 33.51 12.79H33.5Z" fill="#682702"/><path d="M15.35 50.16C15.44 48.99 16.81 50.39 17.23 50.94L20.9 55.63C21.31 55.61 21.66 55.7 21.94 55.92C28 62.73 38.69 66.04 47.16 61.64C48.45 61.7 48.68 61.65 49.68 60.89L52.22 58.65C53.42 57.79 54.19 58.77 53.18 59.85L51.36 61.97C51.43 62.13 51.53 62.37 51.66 62.69C52.72 63.25 55.86 68.14 56.5 69.45C56.06 70.42 54.95 70.97 54.01 71.47C51.07 73.03 47.22 74.09 43.89 74.41C43.2 74.48 42.04 74.27 41.5 74.41C41.35 74.45 41.35 75.15 40.97 74.82C40.67 74.55 40.02 67.85 39.76 66.86C40.79 66.79 41.8 66.79 42.78 66.86C43.33 66.63 44.01 66.43 44.6 66.46C44.69 66.39 44.7 66.33 44.6 66.27C44.12 66.54 43.35 66.75 42.78 66.66C41.83 66.83 40.82 66.89 39.76 66.86C39.44 67.15 39.58 67.32 39.55 67.66C39.31 67.64 39.17 67.31 39.15 66.66C39.09 66.83 39.03 66.83 38.95 66.66C37.91 66.48 36.86 66.37 35.8 66.32C35.56 66.72 34.75 66.61 34.71 66.07C34.43 66.23 33.96 66.22 33.91 65.87C33.41 65.74 32.94 65.61 32.5 65.47C30.9 65.26 29.02 64.37 27.58 63.58C27.5 63.54 27.47 63.42 27.45 63.28C26.76 62.78 26.36 62.6 25.64 62.89C25.54 62.92 25.36 62.86 25.24 62.89L25.05 62.53C21 59.83 17.61 56.09 15.15 52.08C15.39 51.94 15.44 51.77 15.35 51.55C15.33 51.44 15.37 51.28 15.35 51.16C15.07 51.16 15.07 50.95 15.35 50.56C15.32 50.44 15.39 50.26 15.35 50.16V50.16Z" fill="#19130A"/><path d="M25.23 62.88C25.2 62.94 24.99 63 24.88 63.22C24.5 63.98 22.76 68.3 22.28 68.44C21.8 68.57 18.37 65.71 17.77 65.17C15.17 62.83 13.01 60.09 10.91 57.32C10.92 57.5 10.91 57.58 10.71 57.51C10.19 56.76 8.49 54.97 9.5 54.33C9.78 54.35 10.05 54.35 10.3 54.33C10.29 54.09 10.65 53.85 10.91 53.94C10.89 53.71 11.31 53.63 11.52 53.74C11.55 53.57 11.75 53.43 12.12 53.34C13.23 52.8 14.31 52.2 15.35 51.55C15.43 51.94 16.85 53.92 17.2 54.4C19.43 57.46 22.21 60.12 25.34 62.28L25.42 62.57C25.36 62.68 25.3 62.78 25.23 62.88Z" fill="#221A10"/><path d="M27.45 63.28C27.32 63.6 26.84 63.4 26.85 63.08L26.03 63.49L23.56 68.81L23.21 69.05C23.27 69.4 23.59 69.4 23.81 69.1C28.69 71.58 33.88 73.91 39.54 73.8C39.55 73.51 39.64 73.35 39.95 73.22C40.01 73.04 40.08 73.05 40.16 73.22C40.17 73.35 40.15 73.48 40.16 73.62L39.83 74.82C37.77 74.76 35.75 74.36 33.7 74.21C31.24 73.45 28.72 72.89 26.37 71.8C25.52 71.4 23.72 70.48 23.06 69.91C22.69 69.59 22.78 69.49 22.81 69.05C23.95 67.51 24.47 64.54 25.63 62.88C25.83 62.81 26 62.5 26.3 62.52C26.61 62.54 27.3 62.96 27.45 63.28Z" fill="#7C3501"/><path d="M15.35 51.16L9.3 53.94C9.43 53.85 9.5 53.67 9.75 53.5C11.47 52.4 13.91 51.96 15.35 50.56C15.47 51.1 15.34 51.12 15.35 51.16H15.35Z" fill="#1F1509"/><path d="M15.35 51.55C15.44 51.99 15.13 52 14.85 52.16C14.07 52.59 12.97 53 12.12 53.34C12.14 53.32 12.06 53.09 12.16 52.99L15.35 51.55H15.35Z" fill="#5F4D36"/><path d="M10.1 54.14C10.41 53.96 10.5 54.02 10.31 54.34C10.05 54.44 9.66 54.73 9.5 54.34C9.7 54.21 9.97 54.21 10.11 54.14H10.1Z" fill="#715B41"/><path d="M10.92 53.94C10.75 54.02 10.59 54.22 10.31 54.34L10.11 54.14C10.29 54.04 10.43 53.86 10.71 53.74C10.94 53.7 11.01 53.72 10.92 53.94Z" fill="#574631"/><path d="M11.31 53.53C11.53 53.5 11.6 53.52 11.52 53.73C11.31 53.85 11.07 53.85 10.91 53.93L10.71 53.73C10.92 53.64 11.12 53.6 11.31 53.53Z" fill="#6B563D"/><path d="M12.12 53.34C11.88 53.55 11.77 53.59 11.52 53.74L11.31 53.54C11.73 53.39 12.08 53.36 12.12 53.34L12.12 53.34Z" fill="#574631"/><path d="M10.91 57.32L11.11 58.11C10.73 58.1 10.8 57.65 10.71 57.52L10.91 57.32V57.32Z" fill="#1A130B"/><path d="M46.41 18.55C46.29 18.94 46.46 19.63 45.81 19.54C45.98 19.1 45.82 18.4 46.41 18.55Z" fill="#614D35"/><path d="M48.03 15.56C47.85 15.79 47.83 16.24 47.42 16.36C47.55 16.01 47.68 15.71 47.83 15.37L48.03 15.56Z" fill="#775E41"/><path d="M47.22 17.16C47.1 17.48 46.95 17.8 46.61 17.95C46.74 17.56 46.67 17.04 47.22 17.16Z" fill="#665038"/><path d="M66.18 43.8C64.87 44.22 62.02 43.13 60.53 43L60.73 42.81C62.49 42.95 64.43 43.51 66.18 43.8Z" fill="#120A03"/><path d="M60.13 48.17C60.07 48.35 60 48.34 59.93 48.17C60.06 46.48 59.91 45.22 59.93 43.6C59.98 43.43 60.05 43.43 60.13 43.6C60.13 43.72 60.32 44 60.33 44.29C60.36 45.7 60.26 46.81 60.13 48.17Z" fill="#4D3D28"/><path d="M59.93 50.56C59.66 51.22 59.75 52.32 59.12 52.74C59.26 52.18 59.38 51.6 59.52 51.04C59.6 50.71 59.32 50.46 59.93 50.56L59.93 50.56Z" fill="#5C4831"/><path d="M60.13 48.17C60.07 48.82 60.3 49.6 59.83 50.16C59.74 49.52 59.87 48.82 59.93 48.17H60.13Z" fill="#5A472F"/><path d="M60.13 43.6H59.92C59.92 43.47 59.92 43.33 59.92 43.2C59.96 43.17 60.28 43.01 60.33 43C60.43 43.21 60.12 43.57 60.12 43.6H60.13Z" fill="#56442D"/><path d="M54.48 32.86C54.75 33.34 54.86 33.56 55.09 34.06C55.81 35.38 58.5 41.56 58.32 42.58C58.31 42.63 57.97 43.09 57.87 43.2C57.8 46.91 57.27 50.55 56.3 54.13C56.92 54.38 57.12 54.78 56.9 55.33C56.95 55.47 56.99 55.61 57 55.76C57.08 56.78 53.4 61.28 52.44 62.27L51.66 62.48V62.68C51.13 62.4 50.7 62.69 50.89 62.03C51.09 61.31 52.93 59.78 53.27 59C53.38 58.74 53.22 58.66 52.96 58.7C52.15 58.85 49.9 61.65 48.63 62.01C48.13 62.15 47.82 61.89 47.41 61.98C46.97 62.07 46.1 62.68 45.51 62.89C37.69 65.53 29.93 63.38 23.72 58.31C23.08 57.78 22.04 56.41 21.5 56.1C21.19 55.92 20.94 56.17 20.83 56.1C20.21 55.71 17.56 51.97 16.87 51.14C16.69 50.94 15.67 49.72 15.35 50.16C14.1 46.99 12.63 44.82 11.82 41.22C11.62 40.35 11.66 39.21 11.48 38.56C11.42 38.36 11.29 38.29 11.11 38.23C11.06 38.41 10.99 38.4 10.91 38.23C10.81 38.34 10.71 38.42 10.61 38.42C8.9 38.36 6.84 38.23 5.13 38.06C5.04 38.05 4.95 37.95 4.86 37.84V37.64C6.87 37.56 9.16 37.91 11.19 38.02C11.67 37.88 11.86 35.6 11.92 35.06C12.65 31.65 13.31 28.62 15.44 25.63C21.55 17.04 34.56 16.21 43.13 21.4C47.52 24.06 52.19 28.32 54.48 32.87L54.48 32.86Z" fill="#1F1509"/><path d="M7.28 23.32C7.53 23.3 7.76 23.5 7.89 23.71C8.45 23.97 8.99 24.3 9.5 24.71L10.71 25.5C11.89 25.92 12.43 26.45 12.33 27.09C11.74 28.42 11.57 29.3 11.32 30.67C10.91 32.92 10.81 34.93 10.92 37.23L3.8 36.8C3.14 36.61 3.22 35.79 3.25 35.25L3.44 35.19L3.25 32.46C3.31 31.43 3.41 31.73 3.65 31.07C3.57 30.73 3.51 30.24 3.86 30.08C3.86 29.95 3.84 29.81 3.86 29.68C3.91 29.04 4.04 28.44 4.26 27.89C4.24 27.6 4.31 27.27 4.46 26.9C4.51 26.76 4.61 26.64 4.67 26.5C4.53 26.16 4.75 25.65 5.07 25.51C4.96 25.22 4.95 24.81 5.27 24.71C5.37 24.32 5.11 24.81 5.47 24.12C5.33 23.81 5.54 23.39 5.88 23.32C5.7 22.99 5.94 22.81 6.28 22.73C6.58 22.28 7.53 22.77 7.29 23.32L7.28 23.32Z" fill="#312618"/><path d="M54.49 32.86C51.33 27.27 42.58 19.69 35.98 18.8C35.19 18.69 34 18.6 33.22 18.54C23.86 17.78 15.71 21.98 13.19 31.23C12.88 32.38 12.79 33.45 12.54 34.57C12.42 35.08 12.72 35.11 11.92 35.05C11.94 34.9 11.74 34.6 11.76 34.36C13.52 19.11 30.99 13.81 43.38 21.25C46.72 23.26 51.83 27.9 53.88 31.17C54.18 31.65 54.45 32.29 54.49 32.86V32.86Z" fill="#19130A"/><path d="M55.08 34.06C56.65 35.93 57.07 38.52 57.88 40.74L58.11 40.62C58.73 40.72 59.09 42.15 58.71 42.61V42.8C58.58 42.82 58.3 42.74 58.29 42.92C58.52 43.46 58.67 43.88 58.72 44.49C58.99 47.85 58.3 51.98 57.1 54.93C57.45 55.17 57.33 55.35 56.9 55.33C56.79 54.61 56.02 54.61 55.92 54.51C55.6 54.18 57.2 48.7 57.28 47.65C57.37 46.27 57.19 44.31 57.51 42.95C57.54 42.8 57.87 42.82 57.9 42.67C58.19 41.52 55.73 35.46 55.09 34.06L55.08 34.06Z" fill="#19130A"/><path d="M60.53 28.09C59.3 29.13 56.78 29.65 55.89 30.48C56.94 32.77 58.44 36.27 59.46 39.36C59.52 40.52 59.81 41.4 60.33 42.01C60.5 42.03 60.68 42.01 60.73 42.21C60.07 42.18 59.15 42.05 58.71 42.6C58.39 42 58.27 41.27 58.11 40.61C57.38 37.64 56.11 33.68 54.48 31.07C56.39 29.96 58.39 28.71 60.53 28.09H60.53Z" fill="#7F3601"/><path d="M6.27 22.13C6.46 22.13 6.89 22.26 7.08 22.33C7.13 22.24 7.19 22.16 7.26 22.11C7.65 21.87 11.7 24.68 12.32 25.21V25.71L12.82 25.81C13.39 25.48 13.28 26.44 12.73 26.5C12.66 26.5 12.58 26.52 12.53 26.5C11.98 26.32 11.44 25.99 10.91 25.51L9.5 24.72C8.92 24.36 8.38 23.97 7.89 23.52C7.64 23.4 7.44 23.33 7.28 23.33C7.06 23.19 6.43 22.78 6.27 22.73C6.21 22.82 6.14 22.82 6.07 22.73C6.16 22.2 5.94 22.32 5.46 22.33C5.77 22.24 5.78 22.11 6.27 22.13L6.27 22.13Z" fill="#551E02"/><path d="M3.25 32.47C3.47 33.38 3.61 34.6 3.66 35.54C3.67 35.7 3.72 36.27 3.45 35.94C3.56 35.68 3.26 35.35 3.25 35.25C3.16 34.47 3.2 33.27 3.25 32.46V32.47Z" fill="#4E3B26"/><path d="M3.85 29.68C3.91 29.05 3.79 28.78 4.05 27.89C4.11 27.72 4.18 27.72 4.26 27.89C4.14 28.49 4.11 29.11 3.85 29.68H3.85Z" fill="#5E4A31"/><path d="M5.06 25.51C4.96 25.84 4.78 26.17 4.66 26.5C4.15 26.17 4.75 25.61 4.86 25.31C5.01 25.1 5.08 25.17 5.07 25.5L5.06 25.51Z" fill="#604B32"/><path d="M3.85 30.08C3.83 30.53 3.8 30.66 3.65 31.07C3.3 30.74 3.27 29.89 3.85 30.08Z" fill="#5F4B32"/><path d="M5.87 23.32C5.72 23.58 5.61 23.85 5.47 24.12C4.95 23.79 5.5 23.39 5.67 23.12C5.95 22.86 6.06 22.97 5.87 23.32H5.87Z" fill="#624D33"/><path d="M4.26 27.89H4.05C4.2 27.4 4.35 27.2 4.46 26.9C4.46 27.25 4.32 27.56 4.25 27.89H4.26Z" fill="#745B3D"/><path d="M5.26 24.71C5.19 24.98 5.14 25.25 5.06 25.51L4.86 25.31C4.96 25.04 4.6 24.59 5.26 24.72L5.26 24.71Z" fill="#654F35"/><path d="M6.07 22.72C6.14 22.72 6.22 22.71 6.28 22.72C6.15 22.93 5.99 23.11 5.87 23.32L5.67 23.12C5.77 22.96 5.42 22.7 6.07 22.72Z" fill="#6E573A"/><path d="M55.9 30.47C57.06 32.22 57.81 34.19 58.49 36.17L58.72 36.04C59.4 37.97 60.18 39.93 60.33 42C60.03 41.96 59.67 42.09 59.56 41.67C59.15 39.13 58.38 36.63 57.4 34.25C57.16 33.66 55.63 30.84 55.7 30.6C55.73 30.5 55.85 30.51 55.89 30.48L55.9 30.47Z" fill="#F1B60F"/><path d="M33.5 15.37L33.52 15.74C37.44 16.11 41.18 17.51 44.53 19.49C45.27 19.51 45.08 19.2 45.2 18.94C45.03 18.18 45.28 17.68 46.01 17.35H46.21C45.8 18.17 45.36 20.41 44.11 20.34C43.59 20.31 41.15 18.8 40.36 18.45C39.36 18.02 38.18 17.57 37.13 17.25C36.32 17.02 33.57 16.59 33.22 16.38C32.99 16.25 33.15 16.08 33.1 15.96L33.51 15.37H33.5Z" fill="#401301"/><path d="M19.99 18.35C20.19 19.19 18.53 19.93 17.97 20.44C16.06 22.16 14.4 24.13 13.29 26.47C13.17 26.55 12.89 26.52 12.73 26.5L12.93 25.91C12.68 25.94 12.51 25.85 12.32 25.71C12.59 25.44 12.89 25.16 13.22 24.85C14.59 22.17 16.58 20.17 19.03 18.34L17.17 15.42L17.36 14.97C17.88 15.62 19.83 17.67 19.99 18.35H19.99Z" fill="#6C2D01"/><path d="M12.52 26.5C12.62 26.8 12.4 26.93 12.32 27.1C12.32 26.92 12.39 26.68 12.29 26.54C12.23 26.47 11.07 25.77 10.71 25.51H10.91C11.35 25.74 12.24 26.41 12.53 26.5H12.52Z" fill="#1F1308"/><path d="M4.46 43.4C4.6 43.79 4.67 43.66 4.66 43C4.24 42.73 3.64 38.04 3.95 38.02L7.96 38.19C9.42 38.49 10.4 38.5 10.91 38.23C10.98 38.24 11.06 38.22 11.12 38.23C11.29 42.65 13.27 46.64 14.93 50.64C12.98 51.72 10.83 52.66 8.8 53.67C8.49 53.64 8.3 53.45 8.12 53.21C7.03 51.8 5.38 47.54 4.81 45.74C4.41 44.45 3.02 39.19 3.34 38.22C3.39 38.06 3.5 37.88 3.66 37.83L3.94 38.16C3.98 39.91 4.16 41.66 4.46 43.4L4.46 43.4Z" fill="#EDA60E"/><path d="M47.42 14.18C46.97 15.23 46.52 16.34 46.01 17.36C45.75 17.88 45.47 18.41 45.2 18.95C44.86 19.24 44.72 18.93 44.46 18.8C43.97 18.55 41.06 17.15 40.97 16.96C40.95 16.94 41.38 16.97 40.96 16.67C39.84 15.89 35.01 15.03 34.81 14.77C34.66 14.57 34.9 14.52 35.02 14.37C35.8 14.72 36.62 14.51 37.43 14.58C37.72 14.61 37.95 14.97 38.2 14.93C38.45 14.9 40.06 14.09 40.16 14.18L39.96 14.97C41 15.25 40.88 14.64 41.42 14.33C41.8 14.11 43.81 13.55 43.99 13.38C44.41 12.97 43.01 12.85 43.49 12.39L47.42 14.18H47.42Z" fill="#E29A0C"/><path d="M33.71 12.79H33.5C33.3 11.59 32.8 10.26 32.7 9.01C33.27 10.03 33.48 11.58 33.71 12.79Z" fill="#EFB616"/><path d="M39.56 67.66C39.43 69.35 39.97 71.49 40.16 73.22H39.96L39.52 72.82L38.82 68.59C38.58 67.75 38.69 67.11 39.15 66.66C39.49 67 39.22 67.4 39.55 67.66H39.56Z" fill="#421701"/><path d="M17.37 14.97L19.56 18.42C18.17 19.62 16.65 20.72 15.45 22.13C14.62 23.1 13.98 24.64 13.31 25.39C12.98 25.75 12.8 25.76 12.32 25.71C11.25 24.92 8.17 22.73 7.08 22.33C6.91 21.99 6.45 21.77 6.48 21.33C7.02 21.71 6.78 21.47 6.99 21.16C8.88 18.48 10.02 16.59 12.63 14.38C13.37 13.75 14.84 12.99 15.15 12.39C15.33 12.45 15.44 12.4 15.64 12.59C16.06 12.97 16.85 14.34 17.37 14.97H17.37Z" fill="#F4B413"/><path d="M64.57 58.91C64.66 59.58 64.25 60.13 63.96 60.7C62.88 62.86 59.61 67.56 57.62 68.86C56.65 69.49 56.76 68.4 56.5 67.85C55.84 67.15 55.32 66.32 54.88 65.46C54.67 65.34 54.5 65.11 54.48 64.87C54.41 64.85 54.35 64.82 54.31 64.76C53.87 64.2 52.78 62.79 53.47 62.29L53.39 62.07C55.16 59.88 56.87 57.7 58.52 55.53C58.41 54.94 59.48 55.59 59.34 55.66C59.32 55.67 59.02 55.45 59.32 55.33C61.25 56.33 62.84 57.87 64.57 58.91V58.91Z" fill="#B76A02"/><path d="M58.51 54.93C57.05 57.69 54.95 60.51 52.66 62.69C52.38 62.69 51.99 62.45 51.66 62.49C53.84 60.34 55.66 58.16 56.9 55.33C56.96 55.2 57.04 55.07 57.1 54.93C57.7 54.52 58.03 54.79 58.51 54.93Z" fill="#D7790C"/><path d="M59.32 55.33L59.52 55.73L58.52 55.53C58.33 55.44 58.33 55.24 58.52 54.93C58.99 55.07 59 55.17 59.32 55.33Z" fill="#B4770D"/><path d="M58.52 54.93C58.48 55.11 58.56 55.38 58.52 55.53C58.33 56.13 56.29 59.01 55.78 59.68C55.26 60.35 54.09 61.78 53.47 62.28C53.31 62.93 53.11 63.06 52.87 62.68C52.81 62.69 52.73 62.68 52.67 62.68L58.52 54.93V54.93Z" fill="#F7DA38"/><path d="M54.48 64.87C54.42 64.98 54.36 64.97 54.28 64.87C53.8 64.15 53.27 63.46 52.87 62.69C52.97 62.66 53.36 62.38 53.47 62.29C53.32 62.65 53.34 62.8 53.5 63.14C53.66 63.48 54.26 64.51 54.48 64.87Z" fill="#C98A0B"/><path d="M56.5 67.85C55.74 67.62 55.32 66.32 54.89 65.67V65.47C55.4 66.31 56 66.8 56.5 67.86V67.85Z" fill="#BF7F09"/><path d="M54.89 65.46V65.66C54.72 65.41 54.48 65.15 54.28 64.87H54.48C54.59 65.04 54.74 65.22 54.89 65.46V65.46Z" fill="#C3840A"/><path d="M26.65 63.48C26.84 63.3 26.99 63.34 27.2 63.43C28.97 64.23 30.54 64.88 32.34 65.54C32.4 65.56 32.45 65.61 32.5 65.67C32.76 65.58 33.36 65.57 33.5 65.87C33.92 66.12 34.32 66.19 34.72 66.07C35.9 66.22 37.97 66.25 38.95 66.66C38.32 67.02 37.3 66.79 36.73 66.46C36.42 66.54 36.36 66.61 36.53 66.66C37.4 66.84 38.21 66.84 38.95 66.66C39.01 66.69 39.12 66.63 39.15 66.66C38.99 68.8 39.83 71.15 39.96 73.22C40 74.04 39.92 74.24 39.05 74.23C35.67 74.2 31.22 72.99 28.12 71.67C26.74 71.08 25.18 69.98 23.87 69.49C23.61 69.39 23.29 69.45 23.01 69.44C22.9 69.08 23.2 69.09 23.21 69.05C23.33 68.9 23.52 68.73 23.53 68.88L26.05 63.43C26.23 63.08 26.55 63.09 26.64 63.48L26.65 63.48Z" fill="#CB7E05"/><path d="M27.45 63.28C29.1 63.93 30.8 65.04 32.49 65.47C32.67 65.52 32.67 65.59 32.49 65.66C32.18 65.59 31.75 65.58 31.23 65.41C29.63 64.92 28.23 63.98 26.64 63.48C26.28 63.13 26.34 63 26.85 63.08C27.02 63.13 27.28 63.22 27.45 63.28V63.28Z" fill="#C5880C"/><path d="M50.65 64.28C49.28 65.09 47.81 65.81 46.21 66.07L50.45 64.08C50.77 63.94 50.84 63.96 50.65 64.28Z" fill="#4A3B28"/><path d="M42.78 66.66C42.96 66.72 42.95 66.78 42.78 66.86C41.83 66.97 40.61 67.17 39.75 66.86C40.21 66.43 42.02 66.74 42.78 66.66Z" fill="#52412C"/><path d="M50.65 64.28L50.45 64.08L52.06 63.09C52.06 63.82 51.15 63.98 50.65 64.28V64.28Z" fill="#51402C"/><path d="M44.6 66.26C44.77 66.32 44.77 66.38 44.6 66.46C43.99 66.61 43.42 66.78 42.78 66.86V66.66C43.29 66.6 44.04 66.35 44.6 66.26Z" fill="#4C3D29"/><path d="M33.91 65.87C33.85 66.02 33.72 66.02 33.5 65.87C33.16 65.74 32.82 65.74 32.5 65.67V65.47C32.92 65.58 33.55 65.42 33.91 65.87V65.87Z" fill="#C2840B"/><path d="M33.9 65.87C34.24 65.97 34.29 66.01 34.71 66.06C34.17 66.76 33.59 65.9 33.5 65.87C33.63 65.89 33.8 65.84 33.9 65.87H33.9Z" fill="#DEA510"/><path d="M44.6 66.26C44.89 66.22 45.13 66.22 45.4 66.07C45.55 66.74 44.99 66.37 44.6 66.46V66.27V66.26Z" fill="#4F3F2B"/><path d="M26.84 63.08C26.77 63.18 26.71 63.43 26.64 63.48C26.6 63.51 26.37 63.41 26.22 63.61C25.41 64.73 24.75 67.41 23.86 68.79C23.65 69.11 23.63 69.39 23.21 69.05C23.99 67.01 25.18 65.13 25.94 63.08C26.24 62.66 26.54 63 26.84 63.08H26.84Z" fill="#F1C013"/><path d="M28.86 61.1C28.37 60.82 28.52 60.59 29.07 60.7C29.44 60.59 30 60.83 30.28 61.1C30.63 61.13 31.14 61.4 31.29 61.69C33.32 62.17 35.34 62.64 37.34 63.08C38.23 62.93 39.27 62.97 40.16 63.08C40.44 62.86 40.71 62.79 40.97 62.89C42.01 62.6 43.09 62.4 44.19 62.29C44.23 62.03 44.72 61.87 45 61.89C45.53 61.47 46.34 61.21 47.02 61.1C48.09 60.33 49.16 59.6 50.24 58.91C52.5 56.53 53.97 53.8 55.08 50.76C55.18 49.53 55.35 48.13 55.69 46.98C55.88 46 55.88 44.98 55.69 44C55.53 43.85 55.54 43.56 55.69 43.4C55.36 43.32 55.4 42.96 55.69 42.81C55.74 42.32 55.87 42.19 56.09 42.41C58.1 59.03 43.94 68.85 28.86 61.1L28.86 61.1Z" fill="#C37405"/><path d="M28.66 19.54C28.69 19.79 28.36 19.99 27.66 20.14L27.03 20.68C12.98 23.94 12.54 41.01 19.36 51.01L19.39 51.75C19.66 52.23 19.4 52.3 18.58 51.95C16.73 49.43 16.24 48.58 15.15 45.59C15.02 45.11 14.95 44.64 14.95 44.2C13.48 39.99 13.27 35.24 14.75 31.07C14.68 30.78 14.85 30.34 15.15 30.28C15.98 26.94 18.62 23.37 21.81 21.93C23.52 20.43 26.37 19.46 28.66 19.54V19.54Z" fill="#E59C0B"/><path d="M36.53 19.74C37.46 19.85 38.62 20.34 39.49 20.7C48.17 24.32 54.98 33.16 56.1 42.41L55.69 42.8L55.45 42.6C54.94 38.97 53.7 35.34 51.66 32.27L51.01 32.12C46.26 24.63 37.64 19.07 28.41 20.41L27.66 20.14L28.67 19.54C28.87 19.28 29.27 19.26 29.47 19.54C31.04 19.21 32.61 19.11 34.25 19.39L36.53 19.74Z" fill="#D78B08"/><path d="M19.38 51.75L20.19 52.17C22.26 54.87 24.85 57.13 27.63 59.12L28.06 59.9C28.56 60.08 28.9 60.34 29.06 60.7L28.86 61.1C24.01 58.61 21.75 56.28 18.58 51.95L18.78 51.56L19.28 51.95L19.38 51.76V51.75Z" fill="#D38407"/><path d="M14.74 31.07C14.25 32.92 13.83 36.65 13.93 38.54C14.03 40.43 14.59 42.36 14.95 44.2C15.08 44.32 15.08 44.53 14.92 44.58C14.54 44.69 13.76 40.49 13.74 39.82C13.26 36.53 13.61 34.19 14.54 31.07C14.6 30.9 14.67 30.9 14.75 31.07L14.74 31.07Z" fill="#EAAF0F"/><path d="M21.81 21.93C18.73 23.84 16.38 26.92 15.15 30.28C14.95 30.46 14.88 30.33 14.95 29.88C16.3 26.31 18.12 23.82 21.4 21.73C21.83 21.58 21.96 21.64 21.8 21.93H21.81Z" fill="#EEBD1B"/><path d="M4.86 37.83C6.73 37.9 9.07 38.02 10.91 38.23C11.01 38.86 10.66 38.61 10.27 38.57C8.2 38.4 6.13 38.28 4.06 38.23C3.8 38.48 4.52 42.34 4.66 43.01C4.7 43.3 4.63 43.43 4.46 43.4C4.02 41.63 3.71 39.65 3.65 37.84C3.85 37.77 4.57 37.83 4.86 37.84L4.86 37.83Z" fill="#F4C917"/><path d="M29.67 19.15C31.96 18.93 31.18 19.44 29.47 19.54C29.2 19.56 28.93 19.52 28.66 19.54C26.21 19.8 23.9 20.63 21.81 21.93L21.4 21.73C23.84 20.18 26.74 19.21 29.67 19.15V19.15Z" fill="#E5AE16"/><path d="M36.53 19.74C34.37 19.5 31.72 19.4 29.47 19.55C29.71 19.12 30.58 19.48 30.88 19.35V19.15H29.67C31.86 18.63 34.39 19.22 36.53 19.75V19.74Z" fill="#DA940A"/><path d="M13.74 39.82C13.96 41.35 14.49 42.87 14.75 44.4C14.83 44.37 14.91 44.2 14.95 44.2C15.04 44.19 15.1 44.21 15.14 44.3C15.17 44.7 15.59 45.31 15.14 45.59C15.11 45.5 14.87 45.32 14.78 45.06C14.23 43.42 13.77 41.56 13.73 39.82H13.74Z" fill="#E4A30E"/><path d="M15.15 30.28C15.05 30.54 14.81 30.82 14.74 31.07H14.54C14.69 30.59 14.77 30.35 14.94 29.88L15.15 30.28Z" fill="#E3B217"/><path d="M9.5 24.71C8.88 24.37 8.42 24.03 7.88 23.72C7.79 23.66 7.79 23.59 7.88 23.52C8.47 23.89 8.95 24.32 9.5 24.72V24.71Z" fill="#1E1208"/><path d="M10.91 25.51H10.71C10.39 25.28 9.93 25.03 9.5 24.72C9.94 24.96 10.47 25.28 10.91 25.51H10.91Z" fill="#211206"/><path d="M7.89 23.52V23.72C7.62 23.56 7.48 23.44 7.28 23.32L7.38 23.12C7.53 23.28 7.71 23.4 7.89 23.52Z" fill="#1D1107"/><path d="M4.66 43C4.92 44.2 5.52 45.35 5.67 46.58C5.37 46.63 5.4 46.25 5.32 46.04C4.99 45.21 4.67 44.26 4.46 43.4L4.66 43Z" fill="#F4C316"/><path d="M38.95 66.66C38.57 67.38 37.19 66.77 36.53 66.66C36.41 66.56 36.48 66.5 36.74 66.46C37.46 66.51 38.18 66.79 38.96 66.66H38.95Z" fill="#C98B0B"/><path d="M36.73 66.47L36.52 66.66C36.28 66.62 35.98 66.69 35.72 66.66V66.47C36.05 66.48 36.39 66.44 36.73 66.47V66.47Z" fill="#E6AD10"/><path d="M55.69 42.8C55.71 43 55.68 43.2 55.69 43.4C55.64 43.57 55.57 43.57 55.49 43.4C55.43 43.57 55.37 43.57 55.29 43.4C55 42.85 54.83 42.19 54.8 41.42L53.88 37.43C53.2 36.76 52.71 35.85 52.42 34.7C51.88 33.87 51.63 33.06 51.66 32.26C53.79 34.67 55.43 39.39 55.69 42.8L55.69 42.8Z" fill="#E0990B"/><path d="M55.09 50.76C54.22 54.1 52.86 56.61 50.25 58.91C49.96 59.17 49.86 59.06 50.04 58.71C49.96 58.5 50 58.34 50.13 58.18C52.42 55.39 53.11 53.99 54.43 50.69C54.51 50.5 54.69 50.41 54.89 50.36C55.05 50.22 55.12 50.36 55.09 50.76H55.09Z" fill="#EEBD1D"/><path d="M55.69 44C55.88 44.98 55.88 46 55.69 46.98C55.61 48.56 55.48 49.25 55.08 50.76L54.88 50.36C54.47 49.87 54.79 48.05 55.28 47.77C55.28 47.1 55.35 46.44 55.49 45.79C55.06 45.56 55.06 45.01 55.49 44.79C55.33 44.33 55.33 43.87 55.49 43.4H55.69C55.7 43.6 55.68 43.8 55.69 44Z" fill="#E6B018"/><path d="M37.13 62.68C37.26 62.71 37.35 62.74 37.34 62.88C37.51 62.94 37.51 63 37.34 63.08C35.47 62.94 33.05 62.33 31.29 61.69C31.02 61.43 31.13 61.42 31.49 61.49L32.02 61.25C33.55 61.75 35.14 62.11 36.75 62.26L37.13 62.68Z" fill="#D0890B"/><path d="M50.05 58.71L50.25 58.91C49.12 59.9 48.35 60.41 47.02 61.09C46.85 61.04 46.85 60.97 47.02 60.9C46.98 60.76 46.95 60.65 46.99 60.61C47.29 60.35 49.62 58.55 49.78 58.59C49.88 58.6 49.96 58.65 50.05 58.71H50.05Z" fill="#E9B71C"/><path d="M43.79 62.09C44.11 62.04 44.25 62.1 44.2 62.28C42.8 62.72 42.4 62.74 40.97 62.88C40.75 62.9 40.68 62.91 40.77 62.68C41.31 62.08 43.07 61.69 43.79 62.09Z" fill="#D28D0D"/><path d="M30.28 60.9C30.4 60.96 30.4 61.02 30.28 61.09C29.97 60.96 29.55 60.96 29.06 60.7C28.69 60.49 28.34 60.1 28.06 59.9C28.54 59.31 30.27 60.2 30.28 60.89V60.9Z" fill="#D0890B"/><path d="M47.02 60.9V61.09C46.21 61.51 45.79 61.59 45 61.89C44.83 61.83 44.83 61.77 45 61.69C44.9 61.11 45.3 60.96 45.81 61.29C46.31 60.85 46.71 60.72 47.02 60.9Z" fill="#E3AB18"/><path d="M55.69 46.98C55.74 46.03 55.72 44.96 55.69 44C56.03 44.74 56.03 46.2 55.69 46.98Z" fill="#E0990B"/><path d="M40.16 62.88C40.34 62.94 40.33 63 40.16 63.08C39.31 63.13 38.18 63.14 37.34 63.08V62.88C38.24 62.73 39.25 62.77 40.16 62.88Z" fill="#DB920C"/><path d="M45 61.89C44.79 61.97 44.62 62.16 44.2 62.29L43.79 62.09C43.9 61.47 44.54 61.26 45 61.69V61.89H45Z" fill="#EDB71B"/><path d="M31.49 61.49L31.28 61.69C30.87 61.54 30.56 61.23 30.28 61.1V60.9C30.65 60.38 31.47 60.93 31.49 61.49Z" fill="#CD880C"/><path d="M40.97 62.88C40.84 62.89 40.59 63.06 40.16 63.08V62.88C40.23 62.8 40.37 62.74 40.56 62.69C40.59 62.5 40.66 62.51 40.77 62.69L40.97 62.88H40.97Z" fill="#D18C0D"/><path d="M51.66 32.26C52.65 34 53.24 35.57 53.88 37.43C56.74 46.32 54.79 56.72 45.81 61.29C45.54 61.4 45.32 61.57 45 61.69C44.59 61.84 44.22 61.96 43.79 62.08C42.71 62.4 41.89 62.61 40.76 62.68C40.7 62.68 40.63 62.68 40.56 62.68C39.46 62.89 38.23 62.86 37.13 62.68C35.41 62.6 33.12 62.08 31.48 61.49C31.13 61.36 30.65 61.06 30.27 60.89C29.53 60.57 28.85 60.08 28.05 59.9C24.83 57.68 21.64 54.94 19.38 51.75C11.8 41.05 12.48 23.1 27.65 20.14C35.85 18.53 44.16 22.8 49.23 28.99C50.09 30.05 50.74 31.23 51.65 32.27L51.66 32.26Z" fill="#1D170E"/><path d="M55.29 43.4C55.34 43.83 55.41 44.3 55.49 44.79C55.49 45.13 55.5 45.46 55.49 45.79C55.35 46.44 55.29 47.1 55.29 47.78C55.19 48.49 55.04 49.73 54.88 50.36C54.16 53.14 52.2 56.76 50.04 58.71C49.34 59.35 47.93 60.4 47.02 60.9C46.73 61.06 46.14 61.15 45.81 61.3C46.69 60.29 48 59.77 49.03 58.81C53.69 54.51 55.66 47.94 54.62 41.77C54.37 40.32 53.75 38.94 53.87 37.44C54.59 39.55 55.12 41.12 55.28 43.41L55.29 43.4Z" fill="#36220C"/><path d="M55.49 44.79C55.12 44.51 55.32 43.84 55.29 43.4H55.49C55.49 43.87 55.49 44.33 55.49 44.79Z" fill="#D49B12"/><path d="M55.29 47.78C55.37 47.15 55.06 46.26 55.49 45.79C55.46 46.59 55.39 47.05 55.29 47.78Z" fill="#D49B12"/><path d="M40.56 62.69C40.51 62.88 40.33 62.88 40.16 62.88C39.23 62.93 38.27 62.85 37.34 62.88L37.13 62.69C38.2 62.74 39.49 62.74 40.56 62.69Z" fill="#C37405"/><path d="M42.78 29.28C42.53 27.95 42.34 26.61 41.98 25.31C42.47 25.65 43.13 25.58 43.62 25.77C46.25 26.77 50.4 32.69 51.6 35.2C55.57 43.45 54.98 53.06 47.52 58.91C42.56 62.79 36.3 63.27 30.61 60.47C28.61 59.49 24.04 56.05 22.71 54.34C22.18 53.66 21.95 52.7 21.5 52.15C21.21 51.81 20.63 51.63 20.49 51.35C20.37 51.12 20.62 50.12 20.35 49.81C20.24 49.69 19.67 49.75 19.47 49.37C19.31 49.05 19.59 48.7 19.51 48.37C19.44 48.12 18.92 47.67 18.98 47.58C19.02 47.53 19.69 47.53 19.59 47.09C19.55 46.94 18.98 46.58 18.99 46.49C19 46.33 19.51 46.25 19.57 46.16C19.62 46.08 19.36 44.58 19.59 44.2C20.4 44.01 19.73 44.95 19.79 45C19.88 45.07 20.52 44.82 20.4 45.4L21.2 44.4C20.93 45.15 22.38 45.75 22.42 45.94C22.53 46.39 22.02 47.03 22.41 47.29C22.45 47.32 23.36 47.34 23.42 47.3C23.56 47.2 23.67 46.79 23.82 46.59C24.28 46.73 24.42 47.06 24.03 47.39C24.21 47.41 24.2 47.48 24.03 47.58C26.15 54.42 31.78 61.36 39.81 59.74C44.19 58.85 46.38 55.65 45.81 51.36L45.64 51.08C46.33 49.33 46.41 47.44 46.21 45.6L45.86 45.07C44.68 40.03 43.6 34.99 42.63 29.92L42.78 29.3V29.28Z" fill="#19130B"/><path d="M36.12 24.31C36.47 24.23 36.9 24.22 37.13 24.51C37.39 24.39 37.71 24.34 37.94 24.51C38.38 24.41 38.65 24.48 38.74 24.71C39.63 24.69 40.5 24.69 41.37 24.71C41.92 24.95 42.22 28.59 42.78 29.28C43.79 34.65 45.49 40.25 46.21 45.58C47.59 53.21 40.3 57.11 33.82 53.66C33.75 53.62 33.72 53.49 33.7 53.34C33.3 53.17 33.1 52.97 33.1 52.74C32.21 52.18 28.4 49.05 28.32 48.34C28.16 46.88 29.69 48.16 30.15 48.76C32.14 48.77 31.97 47.71 29.67 45.59C29.41 44.97 29.88 44.32 30.46 44.68C30.97 45.47 31.51 45.97 32.09 46.18L32.33 46.14C33.05 46.88 33.85 47.58 34.92 47.77C35.11 47.79 35.33 47.78 35.52 47.77C35.75 47.26 36.16 47.09 36.53 47.58C37.03 47.57 37.16 47.7 36.93 47.97C36.66 48.43 35.6 48.38 35.12 48.17C34.7 48.13 34.7 48.19 35.12 48.37C36.86 48.43 38.02 47.8 38.95 46.38C38.99 45.56 38.93 44.75 38.78 43.95L38.95 43.79L38.71 43.59C38.43 41.73 38.04 40.14 37.54 38.82C37.31 38.73 37.32 38.52 37.54 38.43C37.54 37.88 37.37 37.3 37.14 36.83C37.08 37.01 37.01 37.01 36.93 36.83C36.63 36.58 36.73 36.16 36.93 35.84C36.52 35.77 36.3 34.49 36.73 34.25C36.35 33.17 36.04 32.04 35.8 30.87L35.52 30.67C35.31 30.45 35.18 30.11 35.12 29.68C35.04 29.78 34.96 29.85 34.89 29.85C33.17 29.76 31.08 29.59 29.38 29.37C29.24 29.35 29.14 29.22 29.07 29.08C29.12 28.21 30.04 24.73 30.63 24.19C30.75 24.07 30.92 24.07 31.08 24.11C31.1 23.98 31.11 23.88 31.17 23.87C31.41 23.78 31.74 23.78 32 23.8C33.38 23.87 34.77 24 36.13 24.31L36.12 24.31Z" fill="#E39C0D"/><path d="M38.14 46.38C38.41 46.56 38.25 46.77 37.94 46.78C37.87 47.08 37.66 47.4 37.34 47.38C37.15 47.74 36.87 47.81 36.53 47.57C36.12 47.69 35.99 47.74 35.52 47.77C35.56 47.51 35.7 47.23 35.72 46.98C34.94 43.14 34.02 39.34 32.97 35.56L33.3 35.24C33.66 33.95 33.97 32.64 34.26 31.31L34.72 31.07C34.85 31.02 34.97 30.99 35.01 31.03C35.41 31.4 37.41 40.16 37.64 41.31C37.97 42.97 38.26 44.68 38.14 46.38V46.38Z" fill="#5D2300"/><path d="M38.95 23.32C37.66 23.46 36.48 22.91 35.22 22.73C33.84 22.53 31.33 22.28 29.98 22.53C29.69 22.59 28.3 23.49 27.81 23.73C26.61 24.32 25.09 24.82 23.84 25.42C23.22 25.71 22.94 26.82 22.01 25.9L22.21 26.7C21.88 26.7 21.02 26.7 20.84 26.95C20.57 27.34 21.21 27.49 20 27.49C19.84 27.22 20.79 25.52 20.9 25.51C21.12 25.49 21.26 26 21 26.2C21.25 26.71 21.73 25.55 21.73 25.4C21.72 24.88 21.11 25.11 22.23 24.23C24.85 22.15 28.62 21.13 32 21.32C33.36 21.4 36.5 21.76 37.68 22.29C37.85 22.36 39.28 23.05 38.95 23.32L38.95 23.32Z" fill="#19130B"/><path d="M26.44 31.08C26.89 30.85 27.58 31.15 27.66 31.67C28.69 31.33 30.62 31.56 31.77 31.82C33.3 31.78 33.65 34.1 33.3 35.25C33.88 37.61 35.89 45.06 35.73 46.98C34.17 44.15 34.31 38.92 32.46 36.38C31.44 34.98 28.88 35.73 27.36 34.26C26.73 33.65 26.14 32.05 26.05 31.2C26.04 31.06 26.24 30.92 26.24 30.88C26.42 30.8 26.48 30.87 26.45 31.08H26.44Z" fill="#010100"/><path d="M30.88 44.99C31.31 45.07 32.12 45.76 32.09 46.18C31.93 46.65 31.54 46.14 31.38 45.99C31.15 45.76 30.44 44.63 30.08 44.99C29.41 45.67 32.26 46.65 31.9 48.47C31.79 49.01 30.47 49.25 30.02 49.14C29.51 49 29.1 47.83 28.46 48.07C29.13 48.59 29.52 49.27 29.97 49.97L33.1 52.75C31.87 52.71 30.56 51.53 29.65 50.66C28.6 49.66 27.45 48.33 27.05 46.98C26.76 47.23 26.66 47.12 26.85 46.78C26.32 46.85 26.14 46.16 26.44 45.79C26.63 45.23 26.96 44.73 27.44 44.27L27.25 44C27.14 43.94 27.14 43.87 27.25 43.8C28.09 43.25 28.65 42.3 29.76 43.22C30.24 43.62 30.57 44.57 30.88 45V44.99Z" fill="#EBA50F"/><path d="M29.87 24.11C30.08 24.25 29.91 24.49 29.67 24.51C29.74 24.59 29.73 24.66 29.7 24.75C29.39 25.71 28.92 27.13 28.53 28.04C28.51 28.08 28.4 28.09 28.26 28.09C28.39 28.68 27.13 29.01 26.85 28.49C27.43 26.92 27.99 24.47 29.88 24.11H29.87Z" fill="#9C540A"/><path d="M25.44 45.19C26.39 44.52 26.23 45.4 26.04 46.18C26.43 46.3 26.43 46.48 26.04 46.58C26.16 47.2 24.41 47.87 24.02 47.37C24.02 47.3 23.66 46.87 23.82 46.58C23.96 46.39 24.01 46.22 24.22 45.98C24.42 46 24.99 45.73 25.03 45.39C25.17 45.26 25.37 45.24 25.43 45.19L25.44 45.19Z" fill="#864002"/><path d="M28.26 28.09C28.59 28.19 28.81 29.23 28.26 29.28L27.54 29.78C26.73 30.73 26.29 30.83 26.24 30.08C26.4 29.45 26.64 29.05 26.85 28.49L28.26 28.09Z" fill="#B0610C"/><path d="M35.52 23.92C35.37 24.1 35.11 24.02 34.92 23.92C33.63 23.97 32.35 23.91 31.08 23.72C30.8 24.01 30.55 24.34 30.34 24.73L29.88 24.72C29.61 24.98 29.58 24.87 29.67 24.52C29.74 24.39 29.79 24.23 29.88 24.12C30.2 23.68 30.35 23.34 30.98 23.31L35.52 23.92L35.52 23.92Z" fill="#E39C0D"/><path d="M28.26 29.28C28.9 29.87 27.19 31.53 26.45 31.07C26.38 31.01 26.31 30.94 26.24 30.87C26.25 30.53 26.12 30.59 26.24 30.08C26.22 30.26 26.36 30.33 26.52 30.25C27.22 29.9 27.08 29.22 28.26 29.28Z" fill="#713102"/><path d="M34.92 47.77C33.6 47.68 33.05 47.05 32.09 46.18C31.62 45.75 31.3 45.54 30.88 44.99C31.26 44.68 31.34 44.97 31.59 45.18C32.68 46.11 33.43 47.27 34.92 47.77V47.77Z" fill="#5D2300"/><path d="M27.25 43.8V44C27.67 44.27 26.82 45.27 26.45 44.99L26.29 44.95C26.5 45.84 26.42 46.26 26.04 46.18C25.96 45.51 26.38 45.04 25.44 45.19C26.13 44.62 26.48 44.3 27.25 43.8Z" fill="#E6A217"/><path d="M39.55 24.32C39.08 24.54 38.75 24.54 38.55 24.32C38.09 24.45 37.69 24.45 37.33 24.32C37.07 24.43 36.66 24.36 36.53 24.12C36.3 24.23 36.1 24.23 35.92 24.12C35.75 24.06 35.75 24 35.92 23.92C37.09 23.98 38.42 23.95 39.55 24.32V24.32Z" fill="#BD7D14"/><path d="M40.97 24.71C41.08 24.74 41.28 24.67 41.37 24.71L41.27 25.11C40.45 24.84 39.59 24.81 38.75 24.71C38.92 24.18 40.43 24.31 40.97 24.71Z" fill="#E1AF1F"/><path d="M39.56 24.31C40.06 24.34 40.77 24.13 40.97 24.71C40.32 24.54 39.32 24.27 38.75 24.71C38.39 24.67 38.01 24.52 37.94 24.52C38 24.38 38.21 24.31 38.55 24.32C38.88 24.34 39.22 24.3 39.56 24.32V24.31Z" fill="#E2AE1D"/><path d="M24.23 45.98C24.48 45.71 24.79 45.6 25.03 45.39L25.23 45.49C24.95 45.75 24.73 46.14 24.33 46.19L24.22 45.98H24.23Z" fill="#C26904"/><path d="M35.52 23.92C35.65 23.92 35.79 23.91 35.92 23.92V24.11C35.65 24.26 34.96 24.26 34.91 23.92C35.12 23.92 35.32 23.91 35.52 23.92Z" fill="#E3AA1D"/><path d="M26.44 51.55L27.05 51.65C28.22 53.09 29.74 54.21 31.44 54.98L31.69 55.53L32.13 55.38C35.24 56.89 38.9 56.68 41.77 54.73L41.86 54.31C43.48 53.72 44.4 52.71 45.41 51.42C45.51 51.3 45.65 51.3 45.81 51.35C46.45 51.24 46.16 51.67 46.2 52.05C46.92 58.88 39.89 61.56 34.06 59.85C29.19 58.41 24.52 52.35 24.02 47.58C24.26 47.66 24.5 47.76 24.66 47.96C25.32 48.82 26.22 50.55 26.44 51.56V51.55Z" fill="#060301"/><path d="M26.04 46.58C26.45 46.34 26.74 46.86 26.44 47.18L26.7 47.25C27.6 48.89 28.65 50.39 29.87 51.75C29.1 52.6 27.5 51.83 26.94 51.43L26.44 51.55C25.46 50.33 24.7 48.97 24.02 47.57C24.02 47.51 24.03 47.44 24.02 47.38L26.04 46.58V46.58Z" fill="#551E00"/><path d="M45.81 51.35C45.2 52.7 43.15 54.22 41.77 54.73C41.06 55.27 40.38 55.58 39.49 55.7C38.77 55.8 37.22 55.83 36.93 55.13C36.57 54.94 36.16 54.88 35.72 54.93C35.67 55.1 35.6 55.1 35.51 54.93C34.95 54.55 34.35 54.22 33.7 53.94C33.21 53.82 32.81 53.63 32.49 53.34C32.25 53.37 32.02 53.11 32.28 52.94C32.54 52.64 33.01 52.77 33.7 53.34C36.42 54.28 38.5 55.1 41.42 54.09C45.4 52.72 46.43 49.5 46.2 45.59C46.45 47.4 46.6 49.59 45.8 51.36L45.81 51.35Z" fill="#803601"/><path d="M35.12 29.68C35.23 29.9 35.35 30.15 35.12 30.28C35.17 30.81 35.09 30.87 34.72 30.47C33.25 30.46 31.75 30.32 30.27 30.17C30.17 30.16 30.07 30.08 29.96 29.99C29.86 29.91 29.76 29.79 29.68 29.68C28.91 29.93 27.85 30.17 28.67 29.28C28.61 28.78 28.66 28.78 29.07 29.08C30.19 28.95 33.13 29.34 34.42 29.48C34.67 29.5 34.91 29.54 35.12 29.68L35.12 29.68Z" fill="#893B02"/><path d="M31.08 23.72C31.62 23.76 31.62 23.89 31.08 24.12C30.59 24.72 29.4 28.95 29.07 29.09C28.75 29.26 28.64 29.18 28.86 28.89C28.71 28.55 28.76 28.24 28.86 27.9C28.73 27.85 28.63 27.81 28.62 27.75C28.57 27.42 29.52 25.02 29.87 24.72C29.92 24.61 30.43 23.85 30.48 23.82C30.67 23.68 30.88 23.74 31.08 23.72L31.08 23.72Z" fill="#F6E25F"/><path d="M38.95 46.38C38.52 48.15 36.86 48.66 35.12 48.37C34.94 48.31 34.95 48.25 35.12 48.17C35.74 48.19 36.35 48.19 36.93 47.98C36.74 47.7 37.05 47.55 37.34 47.58C37.46 47.37 37.71 47.13 37.94 47.18C38.13 46.68 38.4 46.28 38.75 45.99V45.79C38.93 45.73 39 45.93 38.95 46.38V46.38Z" fill="#F8DC30"/><path d="M37.54 38.83C38.15 38.73 37.86 38.99 37.95 39.31C38.32 40.69 38.74 42.4 38.95 43.8C38.94 44.28 38.93 44.37 38.55 44C38.3 43.61 38.25 42.88 38.35 42.4C38.17 42.23 38.04 41.96 37.94 41.61C37.47 41.54 37.51 40.99 37.94 40.81C37.54 40.38 37.43 39.42 37.54 38.82L37.54 38.83Z" fill="#EFC017"/><path d="M34.92 23.92C35.09 24.24 35.6 24.11 35.93 24.11C36.13 24.12 36.33 24.1 36.53 24.11C36.66 24.26 36.52 24.33 36.13 24.31C34.83 24.17 33.46 24.03 32.16 23.93C31.78 23.9 31.42 23.88 31.09 24.11V23.72C32.21 23.6 33.71 23.87 34.92 23.91V23.92Z" fill="#F9E22E"/><path d="M35.52 30.68C36.06 30.56 35.92 30.94 36.02 31.27C36.31 32.24 36.56 33.26 36.73 34.26C36.67 34.78 36.48 34.76 36.33 34.26C35.97 33.29 35.76 32.12 35.72 31.08C35.48 31.09 35.38 30.87 35.52 30.68H35.52Z" fill="#F0C118"/><path d="M38.95 46.38L38.75 45.79C38.58 45.41 38.61 44.82 38.75 44.4C38.46 44.49 38.39 44.22 38.55 44L38.95 43.8C39.11 44.91 39.22 45.27 38.95 46.39L38.95 46.38Z" fill="#F3CA20"/><path d="M37.54 38.43C37.58 38.61 37.65 38.57 37.54 38.83C37.51 39.01 37.45 39.14 37.34 39.22C36.84 38.75 36.6 37.72 36.73 37.04C36.72 36.86 36.74 36.79 36.93 36.84C36.98 36.81 37.08 36.87 37.14 36.84C37.36 37.28 37.56 37.89 37.54 38.43V38.43Z" fill="#C36704"/><path d="M36.73 34.26C36.78 34.55 36.89 35.45 36.93 35.85C36.87 36.28 36.73 36.41 36.53 36.24C36.13 35.74 35.96 35.08 36.13 34.46C36.13 34.23 36.2 34.17 36.33 34.26C36.43 34.23 36.61 34.28 36.73 34.26L36.73 34.26Z" fill="#C26304"/><path d="M37.54 38.43C37.44 38 37 37.43 37.14 36.84C37.15 36.83 37.14 36.6 37.34 36.64C37.4 37.23 37.88 37.85 37.54 38.43Z" fill="#F0C218"/><path d="M35.52 30.68C35.57 30.81 35.68 30.94 35.72 31.08C35.77 31.38 35.7 31.51 35.52 31.47C35.06 31.54 34.77 30.61 35.12 30.28C35.08 30.1 35.14 29.87 35.12 29.68C35.44 29.93 35.41 30.35 35.52 30.68Z" fill="#C36504"/><path d="M37.33 24.32C37.45 24.41 37.38 24.48 37.13 24.51C36.73 24.47 36.34 24.34 36.12 24.32L36.53 24.12C36.92 24.15 37.29 24.32 37.33 24.32H37.33Z" fill="#F1CA24"/><path d="M36.93 36.84C36.87 36.88 36.81 36.99 36.73 37.04C36.41 36.89 36.32 36.52 36.53 36.24L36.93 35.84C36.96 36.17 36.91 36.51 36.93 36.84L36.93 36.84Z" fill="#C36404"/><path d="M37.33 47.38C37.48 47.43 37.48 47.5 37.33 47.58C37.26 47.62 37.18 47.88 36.93 47.97L36.53 47.58C36.75 47.52 37.19 47.46 37.33 47.38Z" fill="#ECB919"/><path d="M33.1 52.75C33.32 52.89 33.56 53.12 33.71 53.34C33.29 53.2 32.38 52.98 32.29 52.95C31.9 53.17 31.03 52.55 30.88 52.15C29.85 52.06 26.6 47.81 26.68 47.25C26.72 47.02 26.82 46.9 27.05 46.98C28.61 49.7 30.48 51.14 33.1 52.75H33.1Z" fill="#984201"/><path d="M38.55 24.31L37.94 24.51C37.68 24.48 37.4 24.54 37.13 24.51L37.34 24.31C37.74 24.34 38.15 24.29 38.55 24.31H38.55Z" fill="#F9E12E"/><path d="M35.12 48.17V48.37C34.88 48.33 34.46 48.26 34.31 48.07C34.48 47.76 34.98 48.16 35.12 48.17V48.17Z" fill="#F2C323"/><path d="M29.67 29.68C31.08 29.92 32.56 29.98 34.01 30.08C34.4 30.11 34.83 29.86 34.71 30.48C35.08 30.61 35.12 30.96 34.71 31.07C34.42 32.5 34.29 34.08 33.3 35.25C33.2 34.82 32.63 32.44 32.51 32.35C30.93 32.01 29.21 32.04 27.65 31.67C27.29 30.63 28.61 29.54 29.67 29.68Z" fill="#340D00"/><path d="M35.52 31.47C36 32.33 36.14 33.46 36.13 34.45C36.27 35.04 36.39 35.65 36.53 36.24C36.59 36.51 36.67 36.77 36.73 37.04C36.91 37.77 37.16 38.5 37.34 39.22C37.48 39.76 37.68 40.29 37.95 40.81C37.98 41.07 37.91 41.35 37.95 41.61C38.17 41.96 38.24 42.29 38.15 42.6C38.38 43.14 38.6 44.12 38.35 44.59C38.64 45.53 38.58 46.12 38.15 46.38C37.66 41.94 36.44 37.45 35.39 33.1C35.23 32.43 35.12 31.63 34.72 31.07C34.76 30.89 34.67 30.62 34.72 30.48C34.73 30.43 35.03 30.35 35.12 30.28C35.19 30.65 35.46 31.15 35.53 31.47L35.52 31.47Z" fill="#EF9905"/><path d="M38.75 45.99C38.62 46.67 38.33 46.78 37.94 47.18C37.74 47.22 37.74 47.08 37.94 46.78C38.02 46.69 38.09 46.5 38.15 46.38C38.43 45.72 38.37 45.32 38.35 44.59C38.41 44.42 38.47 44.42 38.55 44.59C38.63 45.02 38.69 45.48 38.76 45.99H38.75Z" fill="#E4960F"/><path d="M37.94 47.18C37.61 47.52 37.61 47.41 37.34 47.57V47.38C37.37 47.36 37.91 46.82 37.94 46.78V47.18V47.18Z" fill="#EBB917"/><path d="M28.66 29.28C28.68 29.3 28.57 29.62 28.8 29.68C29.06 29.76 29.41 29.64 29.67 29.68C28.61 29.96 28.25 30.84 27.65 31.67C27 31.52 26.97 31.56 26.44 31.08C27.11 30.69 28.04 29.99 28.26 29.29C28.44 28.78 28.48 28.75 28.66 29.29L28.66 29.28Z" fill="#4E1B01"/><path d="M27.05 46.98C26.66 47.09 27.04 47.59 27.14 47.78C28.01 49.36 29.42 51.07 30.88 52.15C31.15 52.43 31.04 52.53 30.68 52.35C30.26 52.75 29.56 52.26 29.87 51.75C28.62 50.62 27.15 48.71 26.44 47.18C26.18 46.68 26.34 46.52 26.85 46.78C26.88 46.85 27 46.9 27.05 46.98V46.98Z" fill="#CF6E03"/><path d="M27.25 44C27.74 44.03 29.17 42.43 29.27 43.59L27.76 44.4L26.45 45.78C26.29 45.58 26.3 45.2 26.45 44.99C26.62 44.97 27.07 44.19 27.25 44Z" fill="#FAE445"/><path d="M26.44 44.99C26.48 45.24 26.39 45.56 26.44 45.79C26.47 45.89 26.78 46.66 26.85 46.78L26.44 47.18C26.34 46.96 26.05 46.61 26.04 46.58C26.01 46.47 26.06 46.31 26.04 46.18C26.43 45.9 26.19 45.23 26.25 44.79C26.35 44.79 26.43 44.99 26.44 44.99Z" fill="#DD7A05"/><path d="M29.87 24.71C29.57 25.37 29.05 27.14 28.86 27.89C28.76 28.24 28.72 28.54 28.86 28.89C28.89 28.92 28.89 29.16 29.07 29.08C29.01 29.09 28.82 29.3 28.66 29.28C28.63 29.25 28.38 29.29 28.26 29.28C28.48 28.58 28.23 28.29 28.26 28.09C28.35 27.45 29.33 25.16 29.67 24.51L29.88 24.71L29.87 24.71Z" fill="#D78D13"/><path d="M26.44 51.55C27 50.1 27.52 51.44 27.8 51.55C28.28 51.72 29.32 51.71 29.87 51.75C30.1 51.96 30.42 52.15 30.68 52.34C31.29 52.55 32.11 52.98 32.49 53.54C32.84 53.56 33.21 53.73 33.5 53.94C33.99 54.05 34.25 54.25 34.3 54.53C34.24 55.25 32.42 55.51 31.68 55.52C29.41 54.5 28.02 53.5 26.44 51.55L26.44 51.55Z" fill="#441600"/><path d="M34.31 54.54C34.63 54.21 35.27 54.59 35.52 54.93C35.59 54.94 35.66 54.92 35.73 54.93C36.17 54.88 36.58 54.94 36.94 55.13C38.85 55.46 39.94 55.43 41.78 54.73C39.65 57.22 35.68 57.1 32.8 56.13C32.29 55.96 32.03 55.68 31.69 55.53C31.74 55.34 31.85 55.24 32.04 55.18C32.38 55.07 34.13 54.54 34.32 54.54H34.31Z" fill="#360F00"/><path d="M32.29 52.94L32.5 53.34C32.62 53.4 32.61 53.47 32.5 53.54C31.81 53.16 31.3 52.83 30.68 52.35L30.89 52.15C31.36 52.5 31.74 52.73 32.3 52.94H32.29Z" fill="#B35603"/><path d="M33.71 53.94C34.23 54.21 35.6 54.28 35.52 54.93C35.19 54.88 34.89 54.51 34.31 54.53C34.06 54.37 33.74 54.06 33.5 53.94H33.71Z" fill="#B65703"/><path d="M33.71 53.94H33.5C33.23 53.8 32.85 53.73 32.5 53.54V53.34L33.71 53.94Z" fill="#B45503"/><path d="M36.93 55.13C36.54 55.06 36.11 55.1 35.72 54.93C35.79 54.94 36.55 54.53 36.93 55.13Z" fill="#B75803"/><path d="M28.86 28.89C28.42 28.24 28.77 28.29 28.86 27.89V28.89Z" fill="#E9B51D"/><path d="M38.75 45.79C38.74 45.85 38.76 45.92 38.75 45.98C38.44 45.75 38.5 44.97 38.55 44.59C38.36 44.31 38.45 44.2 38.75 44.39C38.79 44.77 38.79 45.41 38.75 45.79Z" fill="#B95703"/><path d="M37.94 40.82C37.3 40.99 37.47 39.75 37.34 39.23C37.24 38.94 37.53 38.85 37.54 38.83C37.6 39.51 37.86 40.13 37.94 40.82Z" fill="#C26504"/><path d="M38.55 44C38.56 44.11 38.74 44.28 38.75 44.39C38.7 44.46 38.55 44.54 38.55 44.59H38.34C38.33 43.88 38.21 43.29 38.14 42.6C38.14 42.43 38.15 42.35 38.34 42.41C38.45 42.87 38.48 43.51 38.55 44Z" fill="#BA5802"/><path d="M38.34 42.4L38.14 42.6C38.12 42.41 37.99 41.98 37.94 41.61C38.13 41.81 38.28 42.14 38.34 42.4H38.34Z" fill="#C26203"/><path d="M36.33 34.25C36.3 34.26 36.25 34.46 36.12 34.45C35.89 33.46 35.73 32.46 35.52 31.47L35.72 31.07C36.01 32.02 36.23 33.25 36.33 34.25V34.25Z" fill="#C16304"/><path d="M75.59 85.73V50.45H93.8C94.4 50.45 97.08 51.18 97.83 51.42C105.35 53.95 106.89 62.92 100.33 67.43C104.87 70.17 107.08 74.3 104.83 79.46C103.18 83.23 98.2 85.73 94.14 85.73H75.59ZM82.94 64.96H92.8C93.28 64.96 95.34 64.02 95.81 63.64C97.37 62.37 97.41 59.75 96.26 58.25C95.92 57.8 94.23 56.71 93.81 56.71H82.95V64.96H82.94ZM82.94 79.46H94.81C95.27 79.46 97.12 77.98 97.46 77.47C99.35 74.67 97.21 70.56 94.14 70.56H82.94V79.46Z" fill="#FEA905"/><path d="M137.75 50.44L136.74 57.04H118.03V64.95H131.06V70.89H118.03V79.13H138.08V85.72H110.84C110.81 85.72 110.34 85.26 110.34 85.23V50.94C110.34 50.9 110.81 50.44 110.84 50.44H137.75V50.44Z" fill="#FEA905"/><path d="M185.8 50.21C191.79 49.57 198.58 51.07 203.21 54.94C203.31 55.47 199.74 60.25 199.41 60.28C195.46 57.43 188.69 54.6 183.97 56.98C181.45 58.24 180.81 61.44 183.41 62.93C189.46 66.38 203.58 62.76 204.25 74.36C204.9 85.52 190.9 87.43 182.61 85.16C180.98 84.71 173.96 81.63 173.53 80.25C173.3 79.52 176.94 75.64 177.68 74.87C181.7 78.69 187.28 80.79 192.91 79.65C196.4 78.94 198.8 74.87 195.34 72.6C190 69.09 175.96 72.18 174.84 62.49C173.99 55.13 178.74 50.97 185.8 50.22V50.21Z" fill="#FEA905"/><path d="M172.17 57.04H160.14V85.73H152.78V57.04H140.75L141.76 50.45H171.67C171.7 50.45 172.17 50.91 172.17 50.94V57.05V57.04Z" fill="#FEA905"/><path d="M149.44 0V13.19C150.59 12.84 151.51 12.04 152.69 11.62C162.6 8.04 172.84 16.12 172.51 26.23C172.13 37.86 158.97 44.55 149.1 38.25C149.03 38.53 149.2 40.23 149.1 40.23H141.41V1.32L149.44 0ZM154.03 17.56C153.01 17.71 149.81 19.01 149.5 20.01C149.29 20.69 149.29 30.71 149.5 31.42C149.97 32.99 154.76 34.33 156.27 34.3C168.1 34.1 167.76 15.44 154.03 17.56H154.03Z" fill="white"/><path d="M109 0V26.54C109 27.19 108.39 29.55 108.17 30.34C103.76 45.57 79.56 44.68 75.59 29.53L83.6 26.38C84.7 32.58 91.86 35.87 97.14 31.98C98.29 31.13 100.31 28.25 100.31 26.87V8.24H88.28L91.96 0H109Z" fill="white"/><path d="M138.41 40.23H130.72C130.63 40.23 130.92 38.58 130.55 38.58C123.62 43.09 110.81 40.93 111.68 30.83C112.41 22.31 124.46 22.03 130.72 24.07C131.49 18.19 127.94 16.55 122.57 17.18C121.12 17.35 116.12 19.52 115.4 19.07C115.14 18.91 112.84 13.78 113.02 13.53C119.45 10.9 129.94 8.44 135.58 13.84C136.57 14.78 138.41 18.03 138.41 19.29V40.23H138.41ZM130.68 29.06C129.99 28.01 119.64 26.62 119.04 31.19C118.25 37.17 129.98 35.4 130.67 33.42C130.81 33.03 130.8 29.24 130.68 29.06Z" fill="white"/><path d="M245.68 40.89H238C237.9 40.89 238.21 39.13 237.83 38.91C231.09 43.86 217.8 41.32 218.99 31.19C219.98 22.73 231.79 22.86 238 24.56C239.17 14.62 228.66 17.68 222.83 19.81C222.45 18.94 219.92 14.74 220.3 14.21C226.79 11.07 239.21 8.83 243.96 15.72C244.35 16.28 245.68 19.1 245.68 19.62V40.89ZM237.94 34.24C238.21 33.82 238.21 29.81 237.43 29.41C235.15 28.25 227.1 27.98 226.37 31.23C225.5 35.04 229.74 36.14 232.77 35.9C233.59 35.84 237.63 34.72 237.94 34.24H237.94Z" fill="white"/><path d="M184.19 11.87V30.17C184.19 30.53 185.32 32.59 185.68 32.99C187.43 34.89 191 35.08 193.31 34.22C193.98 33.98 196.22 32.44 196.22 31.82V11.87H203.91V40.89H196.72C196.13 40.89 196.16 39.04 196.21 38.58C191.08 42.71 182.12 42.3 178.37 36.57C177.86 35.8 176.5 32.9 176.5 32.15V11.87H184.19L184.19 11.87Z" fill="white"/><path d="M215.6 0.66V40.89H207.58V1.65L215.6 0.66Z" fill="white"/></svg> 