<?xml version="1.0" encoding="UTF-8"?>
<svg id="Layer_1" data-name="Layer 1" xmlns="http://www.w3.org/2000/svg" xmlns:xlink="http://www.w3.org/1999/xlink" viewBox="0 0 124.5 30">
  <defs>
    <style>
      .cls-1 {
        fill: none;
      }

      .cls-2 {
        fill: #fff;
      }

      .cls-3 {
        clip-path: url(#clippath);
      }
    </style>
    <clipPath id="clippath">
      <rect class="cls-1" x="4.18" y=".74" width="115.58" height="27.83"/>
    </clipPath>
  </defs>
  <g class="cls-3">
    <path class="cls-2" d="M94.26,9.54c.13-.15.11-.37-.04-.5-.15-.13-.37-.11-.5.04-.13.15-.11.37.04.5.15.13.37.11.5-.04M95.69,9.67c-.29-.31-.7-.51-1.16-.59.15.23.14.54-.04.77-.23.27-.64.31-.91.08-.23-.19-.29-.52-.16-.78-.8.26-1.12,1.02-1.12,1.02-.21.44-.25,1.1-.07,1.76h0c-.08-.06-.16-.12-.24-.17-.54-.31-1.02-.09-1.32.26l.04.05v.02s.19.2.19.2c.06.05.12.1.18.15.26.22.57.36.86.34.03,0,.17-.04.18-.03.02.01,0,.02,0,.02-.11.37-.06.65.2,1.05.04.06.09.12.13.19l.18.2.07.06c.45-.29.7-.89.28-1.51l.06.06c.15-.02.56.19,1.04.12,1.25-.06,1.79-1.06,1.87-1.53.16-.49.19-1.06-.26-1.76"/>
    <path class="cls-2" d="M4.18,26.07h9.39v-3.2h-5.72v-11.03h-3.67v14.23ZM28.25,20.29v-8.45h-3.73v8.34c0,1.69-.9,2.9-2.86,2.9s-2.88-1.22-2.88-2.9v-8.34h-3.73v8.47c0,3.5,2.05,6.02,6.61,6.02s6.59-2.5,6.59-6.04M32.96,18.97c0-2.33,1.64-4.12,3.86-4.12,1.47,0,2.69.94,3.16,2.07l3.16-1.49c-.94-1.88-2.77-3.82-6.32-3.82-4.27,0-7.6,2.97-7.6,7.36s3.33,7.36,7.6,7.36c3.54,0,5.4-1.98,6.32-3.82l-3.16-1.49c-.47,1.13-1.69,2.07-3.16,2.07-2.22,0-3.86-1.79-3.86-4.12M57.16,26.07l-5.82-7.57,5.53-6.66h-4.52l-4.37,5.85v-5.85h-3.67v14.23h3.67v-4.16l.96-1.19,3.73,5.36h4.5ZM72.03,11.84h-4.16l-3.05,5.25-3.09-5.25h-4.14l5.4,8.49v5.74h3.67v-5.74l5.38-8.49ZM100.32,2.85s.15-.38.02-.74c-.02-.03-.14-.36-.5-.36-.36.14-.01-.04-1.07.54-1.15.48-2.91.6-4.29.54-4.07-.2-6.98-1.55-11.25-1.84-7.85-.86-10.93.67-12.66,3.94-.98,1.74-.52,4.13.97,5.23.41.31,1.52.8,2,.27.36-.39-.2-.79-.35-1.15-.57-1.35.16-3.01,1.38-3.97,1.91-1.51,5.23-1.48,7.38-1.35.2.01.4,0,.6,0l-.02.17-2.99,7.44c-.08.09-.49.04-.63.05-.52.03-1.17-.01-1.64.05-.27.04-.32.17-.43.39-.17.36-.46,1.12-.55,1.47-.03.11-.07.23,0,.33.15.24,1.78.01,2.18.07.07,0,.08-.03.06.07-.84,2.05-2.35,5.66-3.24,7.7-.74,1.7-1.96,4.51-4.02,4.9-.82.16-1.52,0-2.06-.54-.16-.16-.47-.72-.58-.77-.47.03-.72.85-.76,1.28.1,1.54,2.17,2.06,3.6,2.02,3.86-.12,6.03-3.07,7.47-6.39.97-2.24,2.48-6.09,3.52-8.31.26-.04.56-.08.83-.1,1.33-.06,2.67,0,4-.09.21-.01.69.06.83-.1l.64-1.81c.03-.12.06-.26-.05-.33l-5.35.12,2.91-7.34c.18-.11,5.35.87,6.24.92,2.69.15,6.26.59,7.8-2.3M103.16,14.26c0-1.15-2.42-.57-4.13.14-1.54.66-2.68,2.07-3.38,3.29-1.13,1.99-3.73,6.49-6.04,7.44-.45.19-1.26.37-1.52-.1-.33-.6.42-2.3.7-2.96,1.07-2.08,2.18-4.67,2.9-6.29.08-.17.4-.81.39-.93-.01-.38-.77-.68-1.14-.78-.48-.12-1.08-.27-1.5.06-.22.17-.74,1.02-.87,1.32-.84,1.57-2.26,4.17-2.85,5.53-.84,1.95-2.98,6.57,1.41,6.3,3.81-.24,6.88-5.32,8.69-7.82.06-.09.87-1.31.92-1.31.09-.02.02.27.87,2.23.13.45.84,1.78.23,3.47-.37.62-1.59,2.58-3.42,1.6-.55-.45-1-1.07-1.6-.65-.69.47-.55,1.22.08,1.68,1.37.99,4.49.93,6.03.17,2.4-1.17,3.04-3.52,2.19-5.7-.64-1.57-2.65-3.71-.45-5.15.43-.28,2.5-.76,2.46-1.53M110,13.03c1.11-2.35,1.58-3.35,2.85-5.63.48-.87,2.1-3.57,3.01-3.86,1.04-.33.72.89.54,1.47-.9,2.83-3.63,5.3-5.77,7.47-.06.06-.6.59-.63.55M119.49,21.29c-.26-.04-.32.06-.49.23-1.1,1.08-1.76,2.3-3.13,3.29-.92.66-2.72,1.48-2.4-.37.31-1.84,1.75-4.28,2.46-6.12.48-1.24,1.42-3.58.04-4.36-1.42-.81-3.27.75-4.33,1.76-1.59,1.53-2.89,3.36-4.59,4.77-.03-.09.06-.24.09-.34.36-.93,1.64-4.46,2.3-5.12.54-.54,1.15-1.04,1.69-1.58,2.3-2.32,6.04-5.99,6.59-9.1.4-2.25-1.08-3.33-3.18-2.28-3,1.5-5.77,7.31-7.12,10.25-2.18,4.73-4.04,9.58-5.94,14.4-.11.2-.01.54.17.63.25.12,1.87.11,2.23.08.26-.03.45-.1.58-.35.24-.45.42-1.21.64-1.72.67-1.56,1.53-2.52,2.61-3.8,1.06-1.27,3.57-4.39,4.85-5.14.24-.14.73-.36.89-.06.21.39-.48,1.91-.68,2.38-.92,2.08-4.79,8.68-.57,8.89,2.65.13,5.4-2.63,6.86-4.71.22-.32,1.16-1.5.42-1.62"/>
  </g>
</svg>