<svg width="256" height="114" viewBox="0 0 256 114" fill="none" xmlns="http://www.w3.org/2000/svg"><path d="M238.99 54.12H229.6C228.93 54.12 228.38 53.57 228.38 52.9V32.5L213.59 4.47C213.39 4.08 213.4 3.63 213.62 3.26C213.84 2.89 214.24 2.67 214.67 2.67H225.34C225.8 2.67 226.21 2.91 226.43 3.33L234.17 17.98C234.17 17.98 234.24 18.05 234.29 18.05L242.15 3.33C242.36 2.93 242.78 2.67 243.24 2.67H253.93C254.35 2.67 254.75 2.89 254.97 3.26C255.19 3.63 255.21 4.08 255 4.47L240.23 32.44L240.2 52.9C240.2 53.57 239.65 54.12 238.98 54.12H238.99ZM230.83 51.66H237.77V32.48C237.77 32.04 237.88 31.62 238.1 31.25L251.91 5.11H243.99L236.6 19.12C236.16 19.96 235.28 20.5 234.32 20.5C233.36 20.5 232.49 19.97 232.02 19.13L224.62 5.11H216.72L230.54 31.29C230.73 31.67 230.83 32.08 230.83 32.48V51.66ZM212.83 54.12H201.85C201.41 54.12 201.01 53.89 200.79 53.51L190.67 36.36C190.67 36.36 190.49 36.36 190.45 36.36L186.32 42.39L186.29 52.9C186.29 53.57 185.74 54.12 185.07 54.12H175.68C175.01 54.12 174.46 53.57 174.46 52.9V3.89C174.46 3.22 175.01 2.67 175.68 2.67H185.07C185.74 2.67 186.29 3.22 186.29 3.89V20.87C186.29 20.87 186.34 20.98 186.4 20.99L186.55 20.94L198.67 3.19C198.91 2.86 199.28 2.65 199.69 2.65H211.15C211.6 2.65 212.03 2.9 212.24 3.31C212.44 3.71 212.41 4.21 212.17 4.58L198.04 25.24C198.04 25.24 198.01 25.33 198.04 25.38L213.88 52.26C214.1 52.65 214.12 53.12 213.88 53.5C213.66 53.89 213.25 54.12 212.81 54.12H212.83ZM202.56 51.66H210.68L195.94 26.63C195.43 25.79 195.46 24.7 196 23.86L208.83 5.1H200.33L188.58 22.31C187.95 23.23 186.78 23.68 185.66 23.31C184.59 22.98 183.86 21.99 183.86 20.85V5.13H176.92V51.67H183.86V42.48C183.86 41.94 184.02 41.43 184.32 40.99L188.45 34.96C188.91 34.26 189.71 33.84 190.58 33.84C191.57 33.87 192.38 34.35 192.82 35.14L202.56 51.67V51.66ZM153.76 54.12C146.86 54.12 140.83 51.22 136.78 45.97C133.19 41.32 131.31 35.16 131.31 28.12C131.31 21.09 133.2 14.93 136.79 10.28C140.84 5.03 146.88 2.14 153.78 2.14C159.38 2.14 164.82 4.1 169.11 7.64C169.61 8.05 169.7 8.78 169.33 9.31L163.77 17.06C163.56 17.35 163.26 17.53 162.9 17.57C162.56 17.61 162.21 17.5 161.95 17.26C159.73 15.29 156.81 14.2 153.76 14.2C143.89 14.2 143.12 24.85 143.12 28.11C143.12 34.83 145.91 42.02 153.76 42.02C156.69 42.02 159.4 41.06 161.59 39.26C161.86 39.04 162.2 38.94 162.53 39C162.87 39.04 163.18 39.22 163.37 39.51L168.92 47.25C169.3 47.78 169.19 48.51 168.69 48.92C164.41 52.32 159.26 54.11 153.76 54.11V54.12ZM153.76 4.6C147.63 4.6 142.29 7.16 138.71 11.79C135.47 16 133.75 21.65 133.75 28.12C133.75 34.6 135.47 40.25 138.71 44.46C142.3 49.1 147.63 51.66 153.76 51.66C158.3 51.66 162.58 50.3 166.23 47.7L162.1 41.94C159.67 43.6 156.8 44.47 153.76 44.47C144.11 44.47 140.68 36.02 140.68 28.11C140.68 20.21 144.11 11.75 153.76 11.75C156.95 11.75 160 12.74 162.51 14.58L166.64 8.84C162.94 6.1 158.41 4.6 153.76 4.6ZM106.98 54.12C96.76 54.12 88.43 46.3 88.43 36.67V4.19C88.43 3.52 88.98 2.97 89.65 2.97H99.04C99.71 2.97 100.26 3.52 100.26 4.19V36.67C100.26 39.58 103.34 42.04 106.97 42.04C110.6 42.04 113.69 39.58 113.69 36.67V3.9C113.69 3.23 114.24 2.68 114.91 2.68H124.3C124.97 2.68 125.52 3.23 125.52 3.9V36.67C125.52 46.3 117.19 54.12 106.95 54.12H106.98ZM90.89 5.42V36.67C90.89 44.94 98.12 51.66 107 51.66C115.87 51.66 123.12 44.94 123.12 36.67V5.13H116.18V36.67C116.18 40.91 111.97 44.48 107 44.48C102.02 44.48 97.83 40.91 97.83 36.67V5.42H90.89ZM82.99 54.12H56.26C55.59 54.12 55.04 53.57 55.04 52.9V3.9C55.04 3.23 55.59 2.68 56.26 2.68H65.65C66.32 2.68 66.87 3.23 66.87 3.9V41.9C66.87 41.97 66.94 42.04 67.01 42.04H82.99C83.66 42.04 84.21 42.59 84.21 43.26V52.88C84.21 53.56 83.66 54.11 82.99 54.11V54.12ZM57.48 51.66H81.77V44.48H67.02C65.59 44.48 64.44 43.31 64.44 41.9V5.13H57.5V51.66H57.48ZM21.56 48.69C21.56 48.69 21.53 48.69 21.52 48.69C19.62 48.65 17.99 47.73 16.66 46.02C15.95 45.12 15.54 43.7 15.49 42.01C13.07 42.61 10.73 42.21 8.89 40.87C6.42 39.03 5.98 35.66 7.76 32.48C9.41 29.57 12.89 28.55 15.75 27.99C16.56 27.84 17.67 27.68 18.81 27.56C18.8 27.56 18.79 27.56 18.77 27.56C16.49 27.08 12.3 25.98 9.67 24C8.12 22.8 7.09 20.76 6.99 18.64C6.91 16.8 7.53 15.09 8.71 13.97C10.86 11.94 13.4 12.08 15.65 12.74C16.15 10.3 17.97 8.18 19.76 7.57C21.67 6.93 25.55 6.9 28.02 10.96C29.81 13.91 29.61 17.61 29.17 20.1C30.52 18.1 32.54 15.97 35.3 15.12C38.67 14.09 41.62 15.13 43.6 18.08C44.96 20.11 45.02 22.38 43.82 24.34C46.39 25.13 47.85 26.76 48.17 29.22C48.84 34.56 45.23 35.84 41.6 36.37C41.1 36.44 40.61 36.45 40.29 36.45C37.5 36.39 34.66 34.97 32.36 33.55C33.19 34.49 34.07 35.4 34.93 36.11C38.2 38.82 42.49 40.32 42.94 40.47C43.45 40.61 43.84 41.02 43.93 41.54C43.99 41.79 44.1 42.61 43.45 43.8C42.88 44.88 42.15 45.29 41.76 45.45C41.71 45.47 41.65 45.49 41.58 45.5C41.35 45.56 41.1 45.56 40.88 45.5C40.81 45.49 40.72 45.46 40.61 45.4C40.54 45.38 35.11 42.45 31.63 38.92C30.93 38.21 30.25 37.42 29.55 36.55C29.85 38.48 29.92 40.79 28.98 43.42C27.79 46.83 25.16 48.72 21.59 48.72L21.56 48.69ZM16.76 39.04C17.01 39.04 17.27 39.12 17.48 39.27C17.84 39.53 18.03 39.95 17.99 40.39C17.8 42.45 18.15 43.95 18.59 44.52C19.18 45.29 20.17 46.22 21.45 46.24H21.48C24.06 46.24 25.77 45.02 26.63 42.59C27.73 39.48 27.15 36.99 26.65 34.79L26.34 33.44C26.29 33.2 26.25 32.95 26.19 32.73L25.86 31.15C25.75 30.63 25.99 30.1 26.43 29.84C26.43 29.83 26.4 29.82 26.4 29.79C26.11 29.35 26.12 28.78 26.44 28.36C26.76 27.93 27.31 27.77 27.8 27.93C28.35 28.11 29.01 28.44 29.81 28.92C30.05 29.06 30.41 29.31 30.86 29.61L31.08 29.76L31.11 29.79C33.19 31.22 37.05 33.9 40.29 33.98C40.58 33.98 40.9 33.98 41.21 33.93C45.46 33.29 46.04 32.06 45.71 29.51C45.47 27.6 44.18 26.65 41.4 26.34C40.92 26.28 40.53 25.95 40.37 25.49C40.22 25.02 40.37 24.52 40.73 24.19C42.37 22.74 42.66 21.05 41.57 19.41C40.18 17.36 38.37 16.71 36.02 17.43C32.71 18.45 30.62 22.19 29.89 23.75L29.77 24.01C28.51 26.61 28.29 27.08 27.47 27.63C27.14 27.85 26.73 27.9 26.36 27.77C25.99 27.63 25.7 27.31 25.6 26.93C25.34 25.95 25.99 22.72 26.38 21.29C26.76 19.95 27.81 15.33 25.92 12.22C23.84 8.8 20.68 9.83 20.54 9.88C19.4 10.27 17.81 12.23 17.97 14.31C18 14.74 17.82 15.13 17.48 15.4C17.14 15.64 16.7 15.71 16.3 15.56C13.38 14.42 11.72 14.47 10.39 15.74C9.73 16.37 9.39 17.37 9.44 18.52C9.51 19.9 10.18 21.28 11.16 22.02C13.48 23.78 17.6 24.78 19.25 25.14C24.3 26.12 24.98 26.68 25.22 26.86C25.41 27.01 25.57 27.16 25.71 27.34C25.94 27.66 26.03 28.07 25.9 28.45C25.78 28.84 25.49 29.13 25.11 29.25C24.63 29.4 23.58 29.53 21.48 29.73H21.29C19.58 29.93 17.47 30.15 16.23 30.39C13.89 30.86 11.06 31.66 9.91 33.69C8.71 35.81 8.89 37.8 10.36 38.89C11.94 40.06 14.03 40.14 16.27 39.15C16.44 39.08 16.6 39.04 16.76 39.04ZM38.48 41.24C39.58 41.97 40.53 42.53 41.1 42.86C41.14 42.79 41.2 42.71 41.25 42.61C41.28 42.57 41.31 42.52 41.32 42.48C40.65 42.21 39.63 41.8 38.48 41.23V41.24ZM30.27 30.97L30.4 30.76L30.26 30.96L30.27 30.97Z" fill="#44290E"/><path d="M28.87 28.3C31.14 29.87 35.18 32.68 38.82 32.77C39.21 32.77 39.59 32.77 39.96 32.7C44.48 32.03 46 30.45 45.54 26.87C45.13 23.59 42.28 22.85 40.11 22.6C42.22 20.73 42.61 18.34 41.16 16.17C39.98 14.42 37.82 12.56 34.18 13.68C30.52 14.81 28.25 18.56 27.24 20.7L27.11 20.96C25.93 23.42 25.78 23.74 25.23 24.11C25.11 23.64 25.46 21.09 26.01 19.07C26.54 17.17 27.5 12.39 25.41 8.95C23.33 5.54 20.1 5.53 18.54 6.06C16.93 6.61 14.9 9.07 15.12 11.79C12.57 10.8 9.96 10.24 7.86 12.23C6.94 13.11 6.45 14.48 6.51 15.99C6.6 17.76 7.45 19.48 8.73 20.45C11.41 22.48 16.02 23.53 17.38 23.82C18.59 24.06 22.26 24.81 22.87 25.31C23.05 25.45 23.11 25.53 23.16 25.58C22.73 25.72 21.05 25.88 19.56 26.04C17.71 26.23 15.62 26.45 14.35 26.7C11.72 27.22 8.55 28.13 7.13 30.63C5.62 33.31 5.94 35.99 7.93 37.47C9.88 38.92 12.48 39.05 15.13 37.87C14.92 40.04 15.25 41.95 16 42.92C16.63 43.73 17.93 45.09 19.83 45.13H19.93C23 45.14 25.2 43.59 26.25 40.62C27.47 37.16 26.82 34.34 26.3 32.07C26.22 31.73 26.15 31.41 26.08 31.11C26 30.71 25.93 30.34 25.85 29.98C25.73 29.39 25.62 28.87 25.52 28.41C26.71 30.37 28.64 33.25 30.96 35.62C34.31 39.01 39.62 41.89 39.67 41.91C39.7 41.91 39.74 41.91 39.77 41.94C39.8 41.94 39.83 41.93 39.84 41.93C39.91 41.9 40.44 41.71 40.91 40.83C41.39 39.95 41.28 39.44 41.27 39.38C41.27 39.32 41.2 39.26 41.13 39.25C41.09 39.23 36.31 37.67 32.62 34.61C29.99 32.43 27.31 28.74 25.88 26.61C26.21 26.72 26.76 26.96 27.65 27.49C27.94 27.66 28.35 27.95 28.87 28.3ZM201.71 50.6L191.51 33.31C191.28 32.9 190.85 32.65 190.38 32.63H190.33C189.88 32.63 189.45 32.85 189.2 33.23L185.04 39.32C184.88 39.55 184.79 39.82 184.79 40.1V50.6H175.32V1.21H184.79V18.32C184.79 18.93 185.19 19.45 185.77 19.63C185.89 19.67 186.03 19.7 186.17 19.7C186.62 19.7 187.05 19.48 187.31 19.09L199.52 1.21H211.08L196.84 22.04C196.56 22.48 196.53 23.05 196.8 23.51L212.77 50.6H201.71ZM229.67 50.6V30.04C229.67 29.82 229.62 29.6 229.52 29.4L214.63 1.21H225.39L233.19 15.99C233.44 16.44 233.91 16.72 234.41 16.72C234.92 16.72 235.39 16.44 235.62 15.99L243.43 1.21H254.2L239.31 29.4C239.2 29.6 239.14 29.82 239.14 30.04V50.6H229.67ZM153.23 50.6C146.66 50.6 140.93 47.85 137.08 42.86C133.63 38.39 131.82 32.44 131.82 25.64C131.82 18.83 133.63 12.88 137.08 8.41C140.93 3.42 146.66 0.69 153.23 0.69C158.6 0.69 163.78 2.54 167.9 5.95L162.3 13.77C159.81 11.57 156.62 10.38 153.23 10.38C144.42 10.38 141.27 18.26 141.27 25.64C141.27 33.02 144.42 40.9 153.23 40.9C156.44 40.9 159.48 39.82 161.91 37.83L167.5 45.64C163.42 48.88 158.5 50.6 153.23 50.6ZM106.08 50.6C96.44 50.6 88.61 43.27 88.61 34.26V1.51H98.08V34.26C98.08 37.86 101.75 40.9 106.08 40.9C110.41 40.9 114.09 37.86 114.09 34.26V1.22H123.56V34.26C123.56 43.27 115.71 50.6 106.08 50.6ZM54.94 50.6V1.22H64.41V39.52C64.41 40.28 65.03 40.9 65.78 40.9H81.89V50.6H54.94Z" fill="#EAAE56"/><path d="M28.87 28.3C31.14 29.87 35.18 32.68 38.82 32.77C39.21 32.77 39.59 32.77 39.96 32.7C44.48 32.03 46 30.45 45.54 26.87C45.13 23.59 42.28 22.85 40.11 22.6C42.22 20.73 42.61 18.34 41.16 16.17C39.98 14.42 37.82 12.56 34.18 13.68C30.52 14.81 28.25 18.56 27.24 20.7L27.11 20.96C25.93 23.42 25.78 23.74 25.23 24.11C25.11 23.64 25.46 21.09 26.01 19.07C26.54 17.17 27.5 12.39 25.41 8.95C23.33 5.54 20.1 5.53 18.54 6.06C16.93 6.61 14.9 9.07 15.12 11.79C12.57 10.8 9.96 10.24 7.86 12.23C6.94 13.11 6.45 14.48 6.51 15.99C6.6 17.76 7.45 19.48 8.73 20.45C11.41 22.48 16.02 23.53 17.38 23.82C18.59 24.06 22.26 24.81 22.87 25.31C23.05 25.45 23.11 25.53 23.16 25.58C22.73 25.72 21.05 25.88 19.56 26.04C17.71 26.23 15.62 26.45 14.35 26.7C11.72 27.22 8.55 28.13 7.13 30.63C5.62 33.31 5.94 35.99 7.93 37.47C9.88 38.92 12.48 39.05 15.13 37.87C14.92 40.04 15.25 41.95 16 42.92C16.63 43.73 17.93 45.09 19.83 45.13H19.93C23 45.14 25.2 43.59 26.25 40.62C27.47 37.16 26.82 34.34 26.3 32.07C26.22 31.73 26.15 31.41 26.08 31.11C26 30.71 25.93 30.34 25.85 29.98C25.73 29.39 25.62 28.87 25.52 28.41C26.71 30.37 28.64 33.25 30.96 35.62C34.31 39.01 39.62 41.89 39.67 41.91C39.7 41.91 39.74 41.91 39.77 41.94C39.8 41.94 39.83 41.93 39.84 41.93C39.91 41.9 40.44 41.71 40.91 40.83C41.39 39.95 41.28 39.44 41.27 39.38C41.27 39.32 41.2 39.26 41.13 39.25C41.09 39.23 36.31 37.67 32.62 34.61C29.99 32.43 27.31 28.74 25.88 26.61C26.21 26.72 26.76 26.96 27.65 27.49C27.94 27.66 28.35 27.95 28.87 28.3ZM201.71 50.6L191.51 33.31C191.28 32.9 190.85 32.65 190.38 32.63H190.33C189.88 32.63 189.45 32.85 189.2 33.23L185.04 39.32C184.88 39.55 184.79 39.82 184.79 40.1V50.6H175.32V1.21H184.79V18.32C184.79 18.93 185.19 19.45 185.77 19.63C185.89 19.67 186.03 19.7 186.17 19.7C186.62 19.7 187.05 19.48 187.31 19.09L199.52 1.21H211.08L196.84 22.04C196.56 22.48 196.53 23.05 196.8 23.51L212.77 50.6H201.71ZM229.67 50.6V30.04C229.67 29.82 229.62 29.6 229.52 29.4L214.63 1.21H225.39L233.19 15.99C233.44 16.44 233.91 16.72 234.41 16.72C234.92 16.72 235.39 16.44 235.62 15.99L243.43 1.21H254.2L239.31 29.4C239.2 29.6 239.14 29.82 239.14 30.04V50.6H229.67ZM153.23 50.6C146.66 50.6 140.93 47.85 137.08 42.86C133.63 38.39 131.82 32.44 131.82 25.64C131.82 18.83 133.63 12.88 137.08 8.41C140.93 3.42 146.66 0.69 153.23 0.69C158.6 0.69 163.78 2.54 167.9 5.95L162.3 13.77C159.81 11.57 156.62 10.38 153.23 10.38C144.42 10.38 141.27 18.26 141.27 25.64C141.27 33.02 144.42 40.9 153.23 40.9C156.44 40.9 159.48 39.82 161.91 37.83L167.5 45.64C163.42 48.88 158.5 50.6 153.23 50.6ZM106.08 50.6C96.44 50.6 88.61 43.27 88.61 34.26V1.51H98.08V34.26C98.08 37.86 101.75 40.9 106.08 40.9C110.41 40.9 114.09 37.86 114.09 34.26V1.22H123.56V34.26C123.56 43.27 115.71 50.6 106.08 50.6ZM54.94 50.6V1.22H64.41V39.52C64.41 40.28 65.03 40.9 65.78 40.9H81.89V50.6H54.94Z" fill="#E1B165"/><path d="M238.88 51.29H229.41C229.03 51.29 228.73 50.99 228.73 50.6V30.04C228.73 29.93 228.7 29.82 228.64 29.72L213.76 1.54C213.65 1.33 213.65 1.07 213.78 0.87C213.9 0.66 214.12 0.54 214.37 0.54H225.13C225.39 0.54 225.62 0.67 225.73 0.91L233.54 15.68C233.78 16.12 234.53 16.14 234.75 15.68L242.55 0.91C242.68 0.69 242.91 0.54 243.16 0.54H253.93C254.18 0.54 254.4 0.66 254.52 0.87C254.64 1.07 254.66 1.33 254.53 1.54L239.64 29.73C239.58 29.84 239.56 29.94 239.56 30.05V50.61C239.56 51 239.25 51.3 238.87 51.3L238.88 51.29ZM230.1 49.91H238.19V30.04C238.19 29.69 238.28 29.35 238.46 29.06L252.8 1.9H243.58L235.97 16.3C235.62 16.98 234.92 17.4 234.15 17.4C233.38 17.4 232.7 16.99 232.33 16.32L224.71 1.9H215.51L229.87 29.09C230.02 29.39 230.1 29.72 230.1 30.04V49.91ZM212.51 51.29H201.45C201.2 51.29 200.98 51.16 200.86 50.94L190.66 33.65C190.54 33.45 190.34 33.32 190.11 33.32C189.85 33.32 189.64 33.43 189.52 33.61L185.36 39.71C185.27 39.84 185.23 39.98 185.23 40.11V50.61C185.23 51 184.93 51.3 184.54 51.3H175.08C174.69 51.3 174.39 51 174.39 50.61V1.21C174.39 0.82 174.69 0.52 175.08 0.52H184.54C184.93 0.52 185.23 0.82 185.23 1.21V18.32C185.23 18.63 185.42 18.89 185.73 18.97C185.81 19 185.86 19.01 185.92 19.01C186.15 19.01 186.36 18.9 186.5 18.71L198.71 0.82C198.84 0.63 199.06 0.52 199.28 0.52H210.83C211.09 0.52 211.33 0.66 211.44 0.89C211.56 1.11 211.55 1.39 211.4 1.61L197.16 22.43C197.02 22.65 197.01 22.94 197.13 23.16L213.1 50.26C213.22 50.46 213.22 50.74 213.1 50.94C212.98 51.15 212.76 51.29 212.51 51.29ZM201.85 49.91H211.31L195.95 23.85C195.55 23.19 195.57 22.32 196.01 21.65L209.51 1.88H199.62L187.61 19.47C187.12 20.19 186.18 20.56 185.29 20.26C184.44 20 183.84 19.2 183.84 18.31V1.9H175.75V49.91H183.84V40.1C183.84 39.67 183.97 39.26 184.22 38.92L188.38 32.84C188.75 32.29 189.38 31.95 190.07 31.95C190.87 31.97 191.5 32.35 191.86 32.96L201.85 49.91ZM152.97 51.29C146.18 51.29 140.25 48.44 136.27 43.29C132.74 38.71 130.87 32.61 130.87 25.64C130.87 18.67 132.74 12.58 136.27 7.99C140.24 2.83 146.18 0 152.97 0C158.49 0 163.85 1.92 168.08 5.42C168.36 5.65 168.41 6.05 168.21 6.35L162.6 14.17C162.49 14.32 162.31 14.43 162.12 14.46C161.93 14.49 161.73 14.42 161.58 14.3C159.23 12.22 156.17 11.08 152.97 11.08C144.65 11.08 141.7 18.61 141.7 25.65C141.7 32.69 144.65 40.22 152.97 40.22C156.04 40.22 158.89 39.22 161.21 37.31C161.36 37.18 161.54 37.13 161.73 37.16C161.93 37.18 162.09 37.28 162.2 37.43L167.79 45.24C168.01 45.54 167.94 45.95 167.66 46.17C163.45 49.52 158.37 51.29 152.95 51.29H152.97ZM152.97 1.37C146.62 1.37 141.08 4.03 137.37 8.84C134.01 13.18 132.24 18.98 132.24 25.64C132.24 32.29 134.01 38.11 137.37 42.44C141.08 47.26 146.63 49.91 152.97 49.91C157.84 49.91 162.45 48.39 166.29 45.5L161.5 38.81C159.04 40.62 156.1 41.58 152.95 41.58C143.63 41.58 140.31 33.35 140.31 25.64C140.31 17.93 143.63 9.69 152.95 9.69C156.24 9.69 159.38 10.78 161.9 12.77L166.69 6.08C162.79 3.04 157.94 1.37 152.95 1.37H152.97ZM105.82 51.29C95.81 51.29 87.66 43.65 87.66 34.26V1.51C87.66 1.13 87.96 0.82 88.35 0.82H97.82C98.2 0.82 98.5 1.13 98.5 1.51V34.26C98.5 37.49 101.86 40.21 105.82 40.21C109.77 40.21 113.14 37.49 113.14 34.26V1.22C113.14 0.84 113.44 0.54 113.83 0.54H123.3C123.68 0.54 123.98 0.84 123.98 1.22V34.26C123.98 43.65 115.83 51.29 105.82 51.29ZM89.04 2.2V34.26C89.04 42.89 96.57 49.91 105.82 49.91C115.06 49.91 122.61 42.89 122.61 34.26V1.91H114.51V34.26C114.51 38.23 110.53 41.58 105.82 41.58C101.1 41.58 97.13 38.23 97.13 34.26V2.2H89.04ZM81.63 51.29H54.68C54.3 51.29 53.99 50.99 53.99 50.6V1.22C53.99 0.84 54.3 0.54 54.68 0.54H64.15C64.53 0.54 64.84 0.84 64.84 1.22V39.52C64.84 39.91 65.14 40.21 65.52 40.21H81.63C82.01 40.21 82.32 40.51 82.32 40.9V50.6C82.32 50.99 82.01 51.29 81.63 51.29ZM55.37 49.91H80.94V41.58H65.52C64.38 41.58 63.46 40.66 63.46 39.52V1.91H55.37V49.91ZM19.71 45.82H19.67C17.51 45.78 16.06 44.44 15.2 43.34C14.48 42.41 14.1 40.8 14.13 38.9C11.61 39.73 9.15 39.43 7.26 38.04C4.96 36.33 4.58 33.29 6.27 30.3C7.82 27.56 11.19 26.57 13.95 26.04C15.28 25.77 17.47 25.55 19.21 25.36H19.38C19.68 25.32 20 25.28 20.32 25.25C19.4 25.02 18.24 24.76 16.97 24.51C15.16 24.13 10.69 23.03 8.03 21.02C6.58 19.92 5.63 18.01 5.54 16.03C5.46 14.32 6.03 12.77 7.09 11.75C9.24 9.72 11.8 10.04 14.14 10.83C14.39 8.3 16.23 6.03 18.02 5.43C19.78 4.83 23.39 4.81 25.7 8.61C27.94 12.3 26.92 17.29 26.37 19.26C26.19 19.91 26.04 20.59 25.92 21.22C26 21.06 26.08 20.88 26.18 20.69L26.32 20.41C27.37 18.17 29.74 14.24 33.67 13.03C37.7 11.79 40.11 13.86 41.42 15.79C42.81 17.86 42.7 20.19 41.2 22.13C42.97 22.5 45.51 23.53 45.91 26.81C46.42 30.76 44.64 32.68 39.76 33.4C39.36 33.46 38.93 33.49 38.52 33.49C34.67 33.39 30.63 30.59 28.21 28.92L28.57 28.33L28.19 28.9L27.97 28.74C27.97 28.74 27.9 28.7 27.87 28.68C29.2 30.46 31 32.65 32.78 34.11C36.32 37.03 40.87 38.55 41.06 38.61C41.32 38.67 41.58 38.93 41.65 39.26C41.69 39.43 41.8 40.13 41.23 41.17C40.73 42.11 40.13 42.45 39.81 42.57C39.77 42.59 39.74 42.6 39.7 42.6C39.54 42.64 39.34 42.63 39.21 42.57C39.25 42.6 39.18 42.57 39.08 42.53C39.03 42.5 33.64 39.6 30.18 36.1C29.01 34.9 27.83 33.47 26.66 31.84V31.91C27.22 34.26 27.9 37.18 26.61 40.84C25.48 44.04 23.02 45.8 19.68 45.8L19.71 45.82ZM14.87 37.18C15.01 37.18 15.16 37.23 15.27 37.31C15.46 37.45 15.57 37.69 15.56 37.93C15.38 39.88 15.65 41.68 16.28 42.49C16.96 43.36 18.09 44.4 19.58 44.44H19.62C22.5 44.44 24.39 43.08 25.34 40.39C26.5 37.1 25.88 34.39 25.37 32.22L25.07 30.87C25.01 30.61 24.97 30.37 24.91 30.13L24.59 28.55C24.52 28.22 24.7 27.89 25 27.77C25.2 27.69 25.42 27.71 25.6 27.81C25.4 27.51 25.2 27.23 25.04 26.98C24.87 26.74 24.89 26.42 25.07 26.19C25.24 25.95 25.55 25.86 25.84 25.95C26.34 26.12 26.99 26.43 27.75 26.9C27.99 27.04 28.35 27.29 28.78 27.59L29 27.74L29.02 27.77C31.17 29.25 35.15 32 38.57 32.1C38.9 32.1 39.26 32.1 39.59 32.04C44.25 31.36 44.94 29.73 44.59 26.98C44.32 24.79 42.83 23.66 39.77 23.3C39.5 23.27 39.28 23.08 39.19 22.82C39.11 22.56 39.19 22.28 39.39 22.1C41.24 20.45 41.57 18.45 40.32 16.56C38.79 14.31 36.71 13.57 34.11 14.35C30.69 15.41 28.56 18.98 27.59 21.02L27.47 21.28C26.25 23.84 26.06 24.22 25.35 24.7C25.18 24.83 24.94 24.85 24.72 24.77C24.52 24.69 24.35 24.52 24.3 24.3C24.1 23.6 24.57 20.77 25.08 18.9C25.46 17.5 26.58 12.65 24.56 9.32C22.7 6.27 19.87 6.25 18.5 6.72C17.16 7.18 15.35 9.36 15.54 11.75C15.56 11.99 15.46 12.22 15.27 12.36C15.08 12.5 14.83 12.54 14.61 12.44C12.31 11.55 9.94 10.97 8.08 12.74C7.3 13.49 6.89 14.67 6.95 15.96C7.02 17.54 7.78 19.05 8.89 19.92C11.32 21.76 15.57 22.79 17.27 23.16C19.53 23.6 22.37 24.24 23.05 24.79C23.27 24.95 23.38 25.09 23.44 25.18C23.58 25.36 23.61 25.6 23.54 25.8C23.47 26.01 23.31 26.17 23.1 26.24C22.65 26.39 21.45 26.52 19.53 26.71H19.36C17.63 26.9 15.49 27.14 14.21 27.38C11.74 27.88 8.74 28.73 7.46 30.98C6.13 33.34 6.38 35.67 8.07 36.94C9.83 38.23 12.13 38.35 14.58 37.25C14.66 37.21 14.76 37.2 14.86 37.2L14.87 37.18ZM26.36 28.87C27.97 31.38 29.59 33.5 31.2 35.14C34.08 38.05 38.48 40.59 39.51 41.18C39.65 41.07 39.85 40.88 40.05 40.51C40.22 40.19 40.29 39.95 40.32 39.78C39.04 39.33 35.1 37.78 31.92 35.15C29.86 33.45 27.83 30.92 26.36 28.88V28.87ZM40.62 39.88C40.62 39.88 40.69 39.91 40.73 39.92C40.72 39.92 40.68 39.91 40.62 39.88Z" fill="#44290E"/><path d="M239.14 52.15H229.7C229.32 52.15 229.01 51.85 229.01 51.47V30.96C229.01 30.85 228.99 30.74 228.93 30.64L214.09 2.54C213.98 2.34 213.98 2.08 214.1 1.87C214.23 1.66 214.45 1.54 214.69 1.54H225.43C225.68 1.54 225.91 1.68 226.03 1.91L233.81 16.65C234.04 17.09 234.8 17.1 235.02 16.65L242.81 1.91C242.94 1.69 243.17 1.54 243.42 1.54H254.16C254.4 1.54 254.63 1.66 254.75 1.87C254.88 2.08 254.89 2.34 254.77 2.54L239.91 30.66C239.86 30.77 239.83 30.86 239.83 30.97V51.48C239.83 51.87 239.53 52.17 239.14 52.17V52.15ZM230.39 50.78H238.46V30.96C238.46 30.61 238.54 30.28 238.72 29.98L253.02 2.9H243.83L236.24 17.27C235.9 17.94 235.2 18.35 234.43 18.35C233.66 18.35 232.97 17.94 232.6 17.27L225 2.89H215.82L230.14 30C230.29 30.3 230.38 30.63 230.38 30.94V50.77L230.39 50.78ZM212.85 52.15H201.82C201.57 52.15 201.35 52.03 201.23 51.81L191.06 34.57C190.94 34.37 190.74 34.24 190.51 34.24C190.25 34.24 190.04 34.35 189.92 34.53L185.77 40.61C185.69 40.73 185.64 40.87 185.64 41.01V51.48C185.64 51.87 185.34 52.17 184.96 52.17H175.52C175.13 52.17 174.83 51.87 174.83 51.48V2.23C174.83 1.84 175.13 1.54 175.52 1.54H184.96C185.34 1.54 185.64 1.84 185.64 2.23V19.29C185.64 19.59 185.84 19.84 186.14 19.93C186.22 19.96 186.28 19.97 186.33 19.97C186.56 19.97 186.77 19.86 186.91 19.67L199.08 1.84C199.21 1.65 199.43 1.54 199.65 1.54H211.16C211.43 1.54 211.64 1.68 211.77 1.91C211.89 2.13 211.86 2.41 211.73 2.61L197.53 23.37C197.39 23.59 197.38 23.88 197.5 24.1L213.43 51.12C213.56 51.33 213.56 51.6 213.43 51.81C213.31 52.03 213.09 52.15 212.84 52.15H212.85ZM202.22 50.78H211.66L196.35 24.8C195.95 24.14 195.96 23.27 196.4 22.61L209.87 2.91H200L188.03 20.44C187.54 21.17 186.63 21.54 185.71 21.24C184.86 20.98 184.27 20.18 184.27 19.29V2.91H176.2V50.79H184.27V41.01C184.27 40.58 184.39 40.17 184.64 39.82L188.79 33.76C189.16 33.21 189.79 32.87 190.48 32.87C191.26 32.9 191.91 33.27 192.25 33.89L202.22 50.78ZM153.49 52.15C146.73 52.15 140.82 49.32 136.84 44.17C133.31 39.6 131.46 33.51 131.46 26.57C131.46 19.63 133.33 13.55 136.84 8.98C140.8 3.84 146.71 1 153.49 1C158.98 1 164.34 2.93 168.56 6.41C168.84 6.64 168.89 7.04 168.69 7.33L163.09 15.12C162.98 15.27 162.8 15.38 162.61 15.41C162.42 15.42 162.23 15.37 162.08 15.25C159.73 13.17 156.69 12.03 153.49 12.03C145.2 12.03 142.25 19.53 142.25 26.56C142.25 33.58 145.2 41.09 153.49 41.09C156.55 41.09 159.4 40.09 161.72 38.19C161.87 38.06 162.05 38.01 162.24 38.04C162.43 38.06 162.6 38.16 162.71 38.31L168.29 46.09C168.49 46.4 168.44 46.81 168.15 47.03C163.96 50.37 158.89 52.13 153.49 52.13V52.15ZM153.49 2.39C147.15 2.39 141.63 5.03 137.93 9.83C134.59 14.16 132.83 19.95 132.83 26.59C132.83 33.23 134.59 39.01 137.93 43.34C141.64 48.14 147.17 50.79 153.49 50.79C158.35 50.79 162.94 49.27 166.78 46.4L161.99 39.73C159.55 41.54 156.61 42.49 153.47 42.49C144.18 42.49 140.87 34.28 140.87 26.6C140.87 18.92 144.18 10.7 153.47 10.7C156.74 10.7 159.88 11.78 162.39 13.76L167.17 7.09C163.28 4.07 158.45 2.41 153.47 2.41L153.49 2.39ZM106.47 52.15C96.5 52.15 88.38 44.54 88.38 35.18V2.53C88.38 2.14 88.68 1.84 89.06 1.84H98.5C98.89 1.84 99.19 2.14 99.19 2.53V35.18C99.19 38.39 102.53 41.12 106.47 41.12C110.42 41.12 113.77 38.39 113.77 35.18V2.24C113.77 1.86 114.07 1.55 114.46 1.55H123.9C124.28 1.55 124.59 1.86 124.59 2.24V35.18C124.59 44.54 116.47 52.15 106.47 52.15ZM89.75 3.22V35.18C89.75 43.78 97.25 50.79 106.47 50.79C115.7 50.79 123.21 43.8 123.21 35.18V2.93H115.15V35.18C115.15 39.14 111.17 42.48 106.47 42.48C101.78 42.48 97.82 39.14 97.82 35.18V3.22H89.75ZM82.36 52.15H55.49C55.11 52.15 54.8 51.85 54.8 51.47V2.24C54.8 1.86 55.11 1.55 55.49 1.55H64.93C65.32 1.55 65.62 1.86 65.62 2.24V40.43C65.62 40.8 65.92 41.12 66.31 41.12H82.36C82.74 41.12 83.04 41.42 83.04 41.8V51.48C83.04 51.87 82.74 52.17 82.36 52.17V52.15ZM56.18 50.78H81.67V42.48H66.29C65.17 42.48 64.23 41.56 64.23 40.42V2.93H56.16V50.79L56.18 50.78ZM20.63 46.7H20.59C18.44 46.66 16.99 45.32 16.13 44.22C15.42 43.29 15.03 41.68 15.06 39.8C12.55 40.62 10.1 40.32 8.22 38.93C5.94 37.23 5.55 34.2 7.23 31.22C8.77 28.5 12.13 27.51 14.88 26.96C16.2 26.7 18.39 26.48 20.13 26.28L20.34 26.26C20.63 26.23 20.93 26.2 21.25 26.16C20.32 25.93 19.16 25.67 17.91 25.42C16.11 25.03 11.64 23.93 8.99 21.94C7.54 20.84 6.6 18.94 6.51 16.96C6.43 15.27 7.01 13.72 8.07 12.7C10.21 10.68 12.77 11 15.1 11.78C15.35 9.25 17.18 7 18.96 6.39C20.72 5.79 24.32 5.77 26.62 9.57C28.86 13.25 27.84 18.23 27.29 20.19C27.11 20.84 26.96 21.51 26.85 22.16C26.93 21.99 27.02 21.82 27.11 21.62L27.24 21.35C28.3 19.12 30.66 15.19 34.58 13.98C38.59 12.76 40.99 14.81 42.3 16.73C43.7 18.82 43.6 21.12 42.08 23.05C43.85 23.42 46.37 24.46 46.78 27.71C47.27 31.66 45.5 33.56 40.64 34.28C40.24 34.34 39.81 34.37 39.4 34.37C35.56 34.27 31.52 31.48 29.12 29.82L29.48 29.23L29.09 29.79L28.87 29.64C28.87 29.64 28.8 29.6 28.78 29.57C30.11 31.36 31.9 33.53 33.67 34.99C37.2 37.91 41.74 39.41 41.93 39.48C42.19 39.54 42.45 39.8 42.52 40.14C42.56 40.29 42.67 40.98 42.09 42.04C41.6 42.97 40.99 43.32 40.68 43.44C40.64 43.45 40.61 43.47 40.57 43.47C40.39 43.51 40.21 43.49 40.07 43.44C40.13 43.47 40.03 43.44 39.95 43.4C39.92 43.38 34.51 40.46 31.1 36.99C29.93 35.8 28.76 34.38 27.59 32.74V32.81C28.16 35.16 28.82 38.08 27.54 41.72C26.41 44.91 23.97 46.67 20.63 46.67V46.7ZM15.8 38.09C15.94 38.09 16.08 38.13 16.2 38.22C16.39 38.35 16.5 38.6 16.49 38.83C16.31 40.79 16.59 42.57 17.22 43.38C17.89 44.25 19.02 45.3 20.52 45.32C23.43 45.36 25.31 43.98 26.26 41.28C27.42 38.01 26.8 35.32 26.29 33.14L25.99 31.77C25.93 31.52 25.89 31.29 25.84 31.05L25.51 29.47C25.44 29.14 25.62 28.81 25.92 28.69C26.12 28.61 26.34 28.63 26.52 28.73C26.32 28.43 26.12 28.15 25.96 27.91C25.79 27.66 25.81 27.34 25.99 27.11C26.17 26.87 26.47 26.78 26.74 26.87C27.25 27.04 27.88 27.36 28.65 27.81C28.9 27.95 29.26 28.19 29.68 28.48L29.9 28.63L29.93 28.66C32.06 30.13 36.03 32.88 39.45 32.98C39.78 32.98 40.14 32.98 40.47 32.92C45.12 32.24 45.8 30.61 45.46 27.88C45.18 25.69 43.7 24.55 40.65 24.21C40.37 24.18 40.15 23.99 40.07 23.74C39.99 23.48 40.07 23.2 40.26 23.03C42.11 21.39 42.45 19.37 41.19 17.5C39.66 15.25 37.57 14.5 34.99 15.29C31.58 16.35 29.45 19.91 28.49 21.93L28.36 22.19C27.14 24.73 26.95 25.13 26.25 25.6C26.07 25.72 25.84 25.75 25.63 25.67C25.42 25.58 25.26 25.42 25.2 25.2C25.01 24.5 25.48 21.68 25.99 19.81C26.37 18.41 27.47 13.57 25.46 10.26C23.61 7.22 20.79 7.2 19.42 7.67C18.08 8.12 16.27 10.31 16.46 12.69C16.48 12.92 16.38 13.16 16.19 13.29C16 13.43 15.75 13.47 15.53 13.38C13.25 12.48 10.88 11.9 9.01 13.68C8.25 14.42 7.82 15.59 7.89 16.89C7.96 18.48 8.7 19.97 9.83 20.84C12.26 22.67 16.48 23.71 18.18 24.07C20.02 24.43 23.24 25.12 23.94 25.69C24.16 25.86 24.27 26 24.34 26.09C24.47 26.27 24.52 26.5 24.45 26.71C24.38 26.92 24.21 27.08 24.01 27.15C23.57 27.29 22.39 27.42 20.48 27.62L20.27 27.64C18.55 27.82 16.41 28.04 15.14 28.29C12.68 28.79 9.69 29.64 8.41 31.88C7.09 34.23 7.32 36.55 9.01 37.82C10.76 39.11 13.07 39.22 15.5 38.13C15.58 38.09 15.68 38.08 15.78 38.08L15.8 38.09ZM27.25 29.8C28.86 32.32 30.47 34.42 32.07 36.06C34.96 38.99 39.34 41.52 40.36 42.08C40.5 41.97 40.7 41.78 40.9 41.41C41.08 41.09 41.14 40.84 41.17 40.68C39.89 40.22 35.96 38.68 32.8 36.06C30.76 34.35 28.72 31.82 27.25 29.8ZM41.47 40.79C41.47 40.79 41.54 40.81 41.58 40.83C41.57 40.83 41.53 40.81 41.47 40.79Z" fill="#44290E"/><path d="M239.75 50.84H230.28C230.04 50.84 229.87 50.66 229.87 50.42V29.86C229.87 29.71 229.82 29.56 229.76 29.4L214.86 1.24C214.79 1.11 214.79 0.95 214.86 0.84C214.93 0.72 215.07 0.63 215.22 0.63H225.98C226.13 0.63 226.27 0.72 226.35 0.85L234.15 15.63C234.5 16.25 235.53 16.26 235.86 15.63L243.66 0.85C243.73 0.72 243.87 0.63 244.03 0.63H254.81C254.96 0.63 255.08 0.7 255.17 0.84C255.23 0.96 255.25 1.11 255.17 1.24L240.27 29.43C240.19 29.57 240.15 29.72 240.15 29.87V50.44C240.15 50.67 239.97 50.85 239.73 50.85L239.75 50.84ZM230.69 50.02H239.34V29.87C239.34 29.57 239.42 29.28 239.56 29.03L254.12 1.46H244.28L236.59 16.02C236.28 16.59 235.68 16.96 235.01 16.96C234.33 16.96 233.74 16.61 233.43 16.02L225.73 1.46H215.9L230.49 29.05C230.62 29.31 230.69 29.6 230.69 29.87V50.02ZM213.38 50.84H202.31C202.16 50.84 202.04 50.75 201.96 50.63L191.76 33.34C191.59 33.05 191.31 32.87 190.98 32.87C190.62 32.87 190.32 33.02 190.15 33.28L185.99 39.37C185.88 39.54 185.81 39.73 185.81 39.92V50.42C185.81 50.66 185.63 50.84 185.4 50.84H175.93C175.69 50.84 175.52 50.66 175.52 50.42V1.03C175.52 0.8 175.69 0.62 175.93 0.62H185.4C185.63 0.62 185.81 0.8 185.81 1.03V18.15C185.81 18.56 186.08 18.93 186.5 19.05C186.99 19.22 187.35 19.01 187.57 18.68L199.78 0.8C199.87 0.69 199.99 0.62 200.13 0.62H211.69C211.84 0.62 211.97 0.7 212.06 0.84C212.12 0.98 212.12 1.14 212.03 1.27L197.79 22.09C197.59 22.41 197.57 22.81 197.76 23.12L213.73 50.22C213.8 50.34 213.81 50.51 213.73 50.63C213.66 50.75 213.53 50.84 213.38 50.84ZM202.55 50.02H212.65L197.05 23.55C196.71 22.97 196.72 22.23 197.1 21.64L210.9 1.44H200.35L188.25 19.15C187.83 19.78 187.03 20.11 186.25 19.84C185.51 19.6 185 18.92 185 18.15V1.44H176.35V50.01H185V39.92C185 39.55 185.11 39.19 185.31 38.9L189.48 32.81C189.79 32.33 190.34 32.04 190.95 32.04C191.63 32.06 192.19 32.39 192.49 32.92L202.56 50.01L202.55 50.02ZM153.83 50.84C147.14 50.84 141.28 48.03 137.35 42.93C133.85 38.39 132.01 32.36 132.01 25.46C132.01 18.56 133.86 12.51 137.35 7.99C141.27 2.9 147.12 0.1 153.83 0.1C159.29 0.1 164.59 1.99 168.77 5.46C168.93 5.6 168.96 5.84 168.84 6.02L163.23 13.84C163.16 13.94 163.05 13.99 162.94 14.01C162.83 14.01 162.71 13.98 162.62 13.91C160.22 11.79 157.1 10.61 153.83 10.61C145.32 10.61 142.29 18.28 142.29 25.46C142.29 32.63 145.32 40.31 153.83 40.31C156.96 40.31 159.88 39.27 162.25 37.34C162.34 37.27 162.46 37.23 162.57 37.24C162.68 37.25 162.79 37.32 162.84 37.4L168.44 45.21C168.56 45.39 168.53 45.64 168.36 45.78C164.19 49.08 159.18 50.82 153.82 50.82L153.83 50.84ZM153.83 0.92C147.38 0.92 141.78 3.6 138.01 8.48C134.63 12.87 132.83 18.74 132.83 25.46C132.83 32.18 134.62 38.05 138.01 42.44C141.78 47.33 147.4 50.01 153.83 50.01C158.86 50.01 163.59 48.42 167.54 45.38L162.43 38.24C159.97 40.13 157.02 41.13 153.83 41.13C144.71 41.13 141.46 33.03 141.46 25.46C141.46 17.88 144.71 9.79 153.83 9.79C157.14 9.79 160.33 10.92 162.83 12.99L167.96 5.86C163.97 2.68 158.97 0.94 153.84 0.94L153.83 0.92ZM106.68 50.84C96.83 50.84 88.8 43.32 88.8 34.08V1.35C88.8 1.11 88.98 0.94 89.21 0.94H98.68C98.92 0.94 99.09 1.11 99.09 1.35V34.09C99.09 37.47 102.57 40.32 106.68 40.32C110.79 40.32 114.28 37.47 114.28 34.09V1.06C114.28 0.83 114.46 0.65 114.69 0.65H124.16C124.39 0.65 124.57 0.83 124.57 1.06V34.09C124.57 43.33 116.55 50.85 106.68 50.85V50.84ZM89.63 1.75V34.08C89.63 42.86 97.28 50.01 106.68 50.01C116.08 50.01 123.75 42.86 123.75 34.08V1.46H115.11V34.08C115.11 37.9 111.24 41.13 106.68 41.13C102.12 41.13 98.27 37.9 98.27 34.08V1.75H89.63ZM82.49 50.84H55.55C55.31 50.84 55.13 50.66 55.13 50.42V1.06C55.13 0.83 55.31 0.65 55.55 0.65H65.01C65.25 0.65 65.43 0.83 65.43 1.06V39.36C65.43 39.89 65.85 40.32 66.39 40.32H82.49C82.73 40.32 82.91 40.5 82.91 40.73V50.44C82.91 50.67 82.73 50.85 82.49 50.85V50.84ZM55.96 50.02H82.08V41.14H66.39C65.4 41.14 64.6 40.35 64.6 39.36V1.46H55.96V50.01V50.02ZM20.57 45.38C20.57 45.38 20.54 45.38 20.53 45.38H20.43C18.5 45.34 17.11 44.06 16.28 43C15.56 42.05 15.18 40.33 15.28 38.33C12.71 39.27 10.2 39.03 8.3 37.62C6.13 36 5.77 33.12 7.39 30.24C8.89 27.6 12.18 26.64 14.88 26.11C16.2 25.84 18.37 25.62 20.13 25.45H20.31C21.08 25.35 21.95 25.27 22.62 25.18C21.71 24.87 19.95 24.44 17.92 24.06C16.13 23.67 11.71 22.59 9.1 20.62C7.72 19.56 6.82 17.73 6.72 15.84C6.65 14.21 7.19 12.73 8.19 11.77C10.33 9.73 12.94 10.17 15.31 11.03C15.4 8.34 17.44 6.05 19.02 5.5C20.71 4.92 24.16 4.92 26.37 8.56C28.56 12.17 27.55 17.06 27.02 19.01C26.66 20.33 26.4 21.79 26.29 22.76C26.51 22.35 26.82 21.71 27.33 20.65L27.47 20.37C28.51 18.17 30.84 14.31 34.66 13.13C38.52 11.95 40.84 13.91 42.11 15.78C43.52 17.9 43.33 20.24 41.6 22.15C43.29 22.43 46.13 23.3 46.54 26.67C47.03 30.49 45.36 32.25 40.62 32.95C40.28 33.01 39.91 33.02 39.43 33.02C35.67 32.92 31.66 30.16 29.27 28.5L29.48 28.14L29.24 28.48L29.02 28.33C28.61 28.06 28.3 27.82 28.05 27.69C27.92 27.62 27.8 27.55 27.69 27.48C29.06 29.4 31.29 32.32 33.49 34.13C37.06 37.1 41.67 38.63 41.86 38.7C42.04 38.74 42.23 38.92 42.27 39.14C42.31 39.29 42.39 39.89 41.87 40.86C41.42 41.71 40.88 42.02 40.59 42.13C40.48 42.17 40.29 42.19 40.18 42.13L40.09 42.11C40.03 42.08 34.69 39.19 31.26 35.73C29.83 34.27 28.4 32.47 26.99 30.35C26.99 30.39 27 30.42 27.02 30.46L27.15 31.1C27.21 31.32 27.25 31.55 27.32 31.8C27.86 34.12 28.51 36.99 27.25 40.58C26.15 43.71 23.84 45.36 20.59 45.36L20.57 45.38ZM15.73 37.28C15.82 37.28 15.9 37.31 15.98 37.36C16.11 37.45 16.16 37.6 16.15 37.73C15.95 39.78 16.26 41.61 16.93 42.49C17.64 43.41 18.84 44.51 20.45 44.54C23.49 44.57 25.49 43.08 26.47 40.31C27.65 36.95 27.02 34.2 26.51 31.99C26.45 31.74 26.4 31.51 26.34 31.27L26.21 30.63C26.15 30.38 26.11 30.13 26.05 29.9L25.73 28.32C25.68 28.13 25.79 27.92 25.97 27.85C26.16 27.78 26.37 27.85 26.48 28.02C28.25 30.92 30.07 33.32 31.87 35.15C34.96 38.28 39.7 40.94 40.39 41.32C40.55 41.23 40.87 41.01 41.16 40.46C41.45 39.93 41.49 39.58 41.49 39.41C40.57 39.1 36.33 37.54 32.97 34.75C30.22 32.47 27.51 28.7 26.14 26.67C26.04 26.52 26.04 26.33 26.15 26.19C26.26 26.05 26.44 26 26.6 26.05C27.09 26.22 27.72 26.52 28.46 26.97C28.71 27.11 29.05 27.34 29.48 27.64L29.7 27.8L29.72 27.82C31.88 29.32 35.92 32.1 39.41 32.19C39.85 32.19 40.18 32.18 40.48 32.13C44.77 31.49 46.13 30.08 45.72 26.75C45.34 23.71 42.64 23.07 40.65 22.83C40.48 22.82 40.35 22.71 40.31 22.54C40.25 22.39 40.31 22.21 40.43 22.12C42.39 20.37 42.75 18.23 41.41 16.22C39.8 13.84 37.6 13.07 34.89 13.9C31.36 14.98 29.19 18.63 28.2 20.7L28.08 20.96C26.85 23.52 26.69 23.85 26.05 24.28C25.95 24.35 25.81 24.37 25.68 24.32C25.56 24.28 25.46 24.17 25.44 24.04C25.27 23.4 25.73 20.61 26.22 18.78C26.62 17.35 27.75 12.4 25.66 8.98C23.71 5.77 20.72 5.77 19.27 6.27C17.85 6.75 15.91 9.06 16.12 11.57C16.12 11.71 16.06 11.85 15.95 11.93C15.84 12.01 15.69 12.04 15.56 11.99C13.18 11.07 10.72 10.46 8.74 12.34C7.9 13.14 7.46 14.39 7.52 15.78C7.6 17.44 8.38 19.04 9.56 19.95C12.05 21.82 16.33 22.87 18.06 23.25C19.53 23.53 23.03 24.25 23.72 24.81C23.92 24.96 24.02 25.07 24.08 25.16C24.16 25.27 24.17 25.4 24.13 25.53C24.09 25.65 23.99 25.75 23.87 25.79C23.44 25.93 22.21 26.05 20.35 26.24H20.19C18.46 26.44 16.3 26.67 15.02 26.92C12.49 27.42 9.41 28.3 8.08 30.64C6.68 33.13 6.95 35.6 8.77 36.95C10.61 38.31 13.01 38.44 15.56 37.31C15.61 37.28 15.67 37.27 15.72 37.27L15.73 37.28ZM41.6 39.47C41.6 39.47 41.62 39.47 41.65 39.48C41.65 39.48 41.62 39.48 41.6 39.47Z" fill="#F9D96C"/><path d="M24.74 114C18.73 114 11.89 109.67 9.22 107.8C8.7 107.44 8.55 106.74 8.85 106.19L13.54 97.79C13.71 97.48 14 97.27 14.35 97.19C14.69 97.12 15.06 97.19 15.34 97.41L16.22 98.08C19.68 100.67 22.47 101.93 24.71 101.93C28.58 101.93 30.27 101.05 30.95 100.53C31.33 100.23 31.74 99.8 31.74 98.66C31.74 97.38 31.74 94.99 24.54 91.76C17.48 88.6 10.58 84.67 10.58 74.59C10.58 67.34 15.73 60.03 27.24 60.03C32.99 60.03 38.09 61.5 42.38 64.42C42.93 64.79 43.08 65.52 42.74 66.08L37.42 74.62C37.08 75.17 36.36 75.36 35.8 75.04L35.62 74.95C33.94 73.94 30.11 72.09 27.25 72.09C25.19 72.09 23.77 72.4 23.06 73.01C22.74 73.27 22.32 73.94 22.32 74.67C22.32 76.53 22.32 77.56 29.31 80.69C35.44 83.44 43.6 88.28 43.6 98.65C43.6 103.29 41.68 107.35 38.18 110.1C34.88 112.68 30.36 113.99 24.72 113.99L24.74 114ZM11.56 106.41C14.2 108.16 19.95 111.54 24.74 111.54C29.81 111.54 33.82 110.41 36.66 108.17C39.56 105.9 41.16 102.52 41.16 98.65C41.16 89.71 33.83 85.41 28.32 82.93C21.45 79.85 19.88 78.3 19.88 74.67C19.88 73.15 20.7 71.78 21.49 71.12C22.69 70.12 24.57 69.63 27.26 69.63C30.22 69.63 33.81 71.14 35.98 72.31L40.03 65.79C36.38 63.58 32.07 62.46 27.26 62.46C17.45 62.46 13.05 68.54 13.05 74.58C13.05 83.21 18.72 86.44 25.56 89.5C31.7 92.27 34.2 94.91 34.2 98.65C34.2 100.82 33.21 101.86 32.47 102.44C30.85 103.72 28.24 104.36 24.72 104.36C21.99 104.36 18.8 103 14.99 100.2L11.53 106.39L11.56 106.41ZM200.06 113.37H172.64C171.97 113.37 171.42 112.82 171.42 112.14V63.17C171.42 62.49 171.97 61.94 172.64 61.94H200.06C200.73 61.94 201.28 62.49 201.28 63.17V72.79C201.28 73.46 200.73 74.01 200.06 74.01H183.4C183.4 74.01 183.27 74.05 183.27 74.15V80.17C183.27 80.24 183.34 80.31 183.4 80.31H197.96C198.63 80.31 199.18 80.86 199.18 81.53V91.15C199.18 91.83 198.63 92.38 197.96 92.38H183.4C183.4 92.38 183.27 92.42 183.27 92.51V101.13C183.27 101.22 183.34 101.27 183.4 101.27H200.06C200.73 101.27 201.28 101.82 201.28 102.49V112.12C201.28 112.79 200.73 113.34 200.06 113.34V113.37ZM173.87 110.92H198.82V103.75H183.39C181.96 103.75 180.81 102.58 180.81 101.16V92.54C180.81 91.11 181.97 89.96 183.39 89.96H196.72V82.78H183.39C181.96 82.78 180.81 81.61 180.81 80.2V74.18C180.81 72.75 181.97 71.59 183.39 71.59H198.82V64.42H173.87V110.95V110.92ZM165.95 113.37H154.99C154.54 113.37 154.15 113.13 153.93 112.76L143.8 95.61C143.8 95.61 143.66 95.61 143.61 95.61C143.59 95.61 143.58 95.61 143.58 95.61L139.44 101.64L139.41 112.13C139.41 112.8 138.87 113.35 138.19 113.35H128.81C128.13 113.35 127.58 112.8 127.58 112.13V63.15C127.58 62.48 128.13 61.93 128.81 61.93H138.19C138.87 61.93 139.41 62.48 139.41 63.15V80.11C139.41 80.11 139.46 80.24 139.53 80.25C139.61 80.25 139.65 80.22 139.69 80.18L151.8 62.45C152.03 62.12 152.4 61.91 152.81 61.91H164.28C164.73 61.91 165.14 62.16 165.36 62.57C165.57 62.97 165.54 63.47 165.29 63.84L151.16 84.49C151.16 84.49 151.14 84.58 151.16 84.64L167.01 111.5C167.23 111.88 167.24 112.35 167.01 112.74C166.78 113.12 166.38 113.35 165.94 113.35L165.95 113.37ZM155.69 110.92H163.79L149.05 85.9C148.54 85.05 148.57 83.96 149.12 83.14L161.94 64.39H153.45L141.7 81.6C141.2 82.3 140.4 82.73 139.55 82.73C139.26 82.73 139 82.69 138.77 82.6C137.7 82.27 136.97 81.27 136.97 80.13V64.39H130.03V110.92H136.97V101.72C136.97 101.2 137.13 100.69 137.44 100.25L141.56 94.23C142.01 93.53 142.81 93.09 143.69 93.09C144.65 93.12 145.47 93.6 145.91 94.37L155.69 110.92ZM122.95 113.37H113.06C112.52 113.37 112.05 113.02 111.89 112.52L108.93 103.39C108.93 103.39 108.87 103.29 108.81 103.29H93.61C93.61 103.29 93.5 103.33 93.47 103.4L90.52 112.5C90.36 113.01 89.89 113.35 89.35 113.35H79.47C79.07 113.35 78.72 113.16 78.48 112.84C78.25 112.53 78.18 112.12 78.3 111.75L94.19 62.74C94.35 62.23 94.82 61.89 95.36 61.89H107.07C107.6 61.89 108.07 62.23 108.23 62.74L124.13 111.75C124.26 112.12 124.19 112.53 123.95 112.84C123.72 113.16 123.35 113.35 122.97 113.35L122.95 113.37ZM113.95 110.92H121.26L106.16 64.36H96.24L81.15 110.92H88.46L91.14 102.65C91.51 101.57 92.5 100.86 93.6 100.86H108.8C109.94 100.86 110.93 101.59 111.26 102.66L113.94 110.92H113.95ZM68.59 113.37H59.2C58.53 113.37 57.98 112.82 57.98 112.14V74.15C57.98 74.05 57.91 74.01 57.84 74.01H46.98C46.31 74.01 45.76 73.46 45.76 72.79V63.17C45.76 62.49 46.31 61.94 46.98 61.94H80.8C81.48 61.94 82.03 62.49 82.03 63.17V72.79C82.03 73.46 81.48 74.01 80.8 74.01H69.95C69.95 74.01 69.81 74.05 69.81 74.15V112.14C69.81 112.82 69.26 113.37 68.59 113.37ZM60.41 110.92H67.35V74.16C67.35 72.73 68.52 71.58 69.93 71.58H79.55V64.4H48.18V71.58H57.8C59.23 71.58 60.38 72.75 60.38 74.16V110.92H60.41ZM234.95 107.87C231.29 107.87 228.66 105.99 227.45 102.58C226.51 99.94 226.58 97.63 226.88 95.7C226.2 96.57 225.5 97.35 224.79 98.05C221.31 101.59 215.88 104.52 215.82 104.54C215.73 104.58 215.59 104.64 215.49 104.65C215.37 104.69 215.31 104.68 215.18 104.69C215.08 104.69 214.98 104.69 214.89 104.67C214.78 104.64 214.67 104.61 214.56 104.56C213.95 104.3 213.39 103.73 212.96 102.96C212.32 101.75 212.43 100.94 212.5 100.65C212.59 100.14 213.03 99.72 213.58 99.61C213.58 99.61 218.05 98.14 221.47 95.28C222.34 94.56 223.22 93.67 224.04 92.72C221.72 94.15 218.89 95.55 216.14 95.62C215.6 95.62 215.2 95.59 214.82 95.54C211.18 95 207.56 93.72 208.24 88.39C208.55 85.93 210.01 84.29 212.59 83.51C211.4 81.54 211.44 79.28 212.78 77.24C214.78 74.31 217.72 73.26 221.09 74.27C223.85 75.11 225.87 77.26 227.23 79.26C226.76 76.62 226.62 73.01 228.38 70.12C230.86 66.07 234.73 66.08 236.64 66.74C238.43 67.33 240.25 69.43 240.75 71.91C243 71.25 245.55 71.11 247.68 73.13C248.86 74.26 249.48 75.96 249.39 77.81C249.3 79.92 248.27 81.97 246.71 83.15C244.1 85.12 239.91 86.23 237.66 86.71C237.63 86.71 237.62 86.71 237.59 86.73C238.8 86.86 239.84 87 240.65 87.15C243.51 87.73 247 88.76 248.64 91.66C250.43 94.84 249.97 98.21 247.51 100.03C245.67 101.39 243.33 101.79 240.91 101.19C240.85 102.89 240.43 104.3 239.75 105.2C239 106.18 237.4 107.83 234.99 107.87H234.95ZM229.96 89.02C230.4 89.28 230.64 89.81 230.53 90.33L230.2 91.88C230.16 92.1 230.1 92.36 230.04 92.62L229.89 93.31C229.84 93.55 229.8 93.78 229.73 94.01C229.23 96.18 228.66 98.69 229.76 101.79C230.62 104.21 232.33 105.45 234.84 105.45H234.87C236.3 105.42 237.3 104.36 237.78 103.73C238.22 103.15 238.59 101.66 238.41 99.58C238.37 99.14 238.56 98.73 238.92 98.47C239.28 98.22 239.73 98.16 240.13 98.34C242.36 99.35 244.45 99.25 246.03 98.08C247.5 96.98 247.66 94.99 246.48 92.89C245.34 90.85 242.51 90.05 240.16 89.59C238.91 89.34 236.71 89.12 235.09 88.95L234.79 88.93C232.75 88.72 231.74 88.61 231.27 88.46C230.88 88.34 230.59 88.03 230.47 87.66C230.35 87.28 230.43 86.86 230.66 86.55C230.77 86.41 230.91 86.26 231.14 86.08C231.67 85.65 232.79 85.24 237.03 84.38C238.78 84.01 242.89 82.99 245.22 81.24C246.19 80.5 246.87 79.13 246.92 77.74C246.97 76.61 246.62 75.59 245.96 74.96C244.62 73.7 242.96 73.64 240.05 74.78C239.65 74.93 239.21 74.88 238.87 74.62C238.52 74.37 238.34 73.96 238.37 73.53C238.54 71.44 236.94 69.49 235.82 69.1C235.68 69.05 232.52 68.02 230.43 71.44C228.62 74.42 229.51 78.78 229.96 80.53C230.28 81.67 231.03 85.16 230.73 86.19C230.62 86.56 230.33 86.86 229.98 87C229.6 87.13 229.19 87.08 228.88 86.86C228.05 86.31 227.83 85.85 226.6 83.26L226.46 82.95C225.55 81.05 223.5 77.64 220.33 76.68C217.98 75.96 216.16 76.61 214.78 78.66C213.69 80.28 213.99 81.98 215.63 83.43C215.99 83.74 216.14 84.25 215.99 84.72C215.84 85.19 215.44 85.52 214.96 85.57C212.17 85.89 210.87 86.84 210.64 88.75C210.32 91.29 210.89 92.53 215.15 93.16C215.45 93.2 215.77 93.22 216.08 93.22C219.26 93.13 223.12 90.48 225.19 89.05C225.8 88.62 226.24 88.32 226.55 88.14C227.39 87.65 228.04 87.33 228.56 87.17C229.06 87.02 229.6 87.18 229.92 87.59C230.24 88.01 230.25 88.58 229.95 89.02C229.95 89.04 229.92 89.05 229.91 89.08L229.96 89.02ZM215.07 101.67C215.07 101.67 215.11 101.75 215.13 101.81C215.19 101.9 215.23 101.99 215.29 102.05C215.85 101.74 216.77 101.19 217.84 100.47C216.72 101.02 215.74 101.42 215.07 101.68V101.67ZM214.34 101.93C214.23 101.97 214.16 101.99 214.15 101.99C214.21 101.99 214.27 101.96 214.34 101.93ZM104.78 93.68H97.6C96.77 93.68 95.99 93.28 95.51 92.62C95.01 91.95 94.88 91.1 95.14 90.3L98.74 79.22C99.08 78.15 100.07 77.43 101.2 77.43C102.32 77.43 103.29 78.15 103.66 79.21L107.24 90.3C107.5 91.11 107.37 91.95 106.87 92.62C106.39 93.28 105.61 93.68 104.78 93.68ZM101.21 79.88C101.21 79.88 101.1 79.91 101.09 79.96L97.49 91.04L97.61 91.22H104.8L106.09 90.66L104.92 91.03L101.33 79.96C101.33 79.96 101.27 79.87 101.21 79.87V79.88Z" fill="#44290E"/><path d="M229.26 86.67C230.17 86.14 230.7 85.9 231.05 85.79C229.6 87.92 226.93 91.61 224.29 93.79C220.62 96.86 215.84 98.41 215.78 98.42C215.71 98.44 215.66 98.49 215.64 98.56C215.64 98.62 215.53 99.13 216 100C216.48 100.89 217.02 101.08 217.07 101.11C217.1 101.11 217.11 101.12 217.14 101.12C217.18 101.11 217.21 101.11 217.24 101.09C217.29 101.06 222.6 98.19 225.95 94.8C228.27 92.43 230.2 89.54 231.39 87.59C231.29 88.05 231.19 88.57 231.06 89.16C230.99 89.52 230.91 89.89 230.83 90.29C230.76 90.59 230.69 90.92 230.61 91.25C230.09 93.52 229.44 96.34 230.66 99.8C231.72 102.77 233.91 104.32 237 104.31H237.08C238.98 104.27 240.3 102.91 240.91 102.09C241.66 101.13 241.99 99.22 241.79 97.05C244.43 98.23 247.03 98.09 248.98 96.65C250.97 95.17 251.29 92.49 249.78 89.81C248.38 87.3 245.19 86.4 242.58 85.87C241.3 85.63 239.21 85.41 237.35 85.21C235.87 85.06 234.18 84.9 233.75 84.76C233.8 84.71 233.88 84.62 234.04 84.49C234.65 83.99 238.33 83.25 239.54 83C240.89 82.71 245.5 81.65 248.18 79.63C249.46 78.66 250.31 76.94 250.4 75.17C250.47 73.65 249.97 72.29 249.05 71.41C246.95 69.42 244.34 69.98 241.79 70.97C242.01 68.25 239.98 65.78 238.37 65.24C236.81 64.7 233.58 64.72 231.5 68.13C229.41 71.56 230.39 76.35 230.9 78.24C231.45 80.27 231.82 82.82 231.68 83.29C231.13 82.92 230.98 82.6 229.8 80.14L229.69 79.88C228.66 77.74 226.39 73.97 222.73 72.86C219.09 71.76 216.93 73.6 215.75 75.34C214.31 77.52 214.71 79.91 216.81 81.78C214.63 82.03 211.78 82.77 211.37 86.05C210.91 89.63 212.43 91.21 216.96 91.88C217.33 91.94 217.7 91.95 218.09 91.95C221.73 91.85 225.77 89.05 228.05 87.48C228.56 87.12 228.97 86.84 229.26 86.67ZM102.24 76.09C101.64 76.09 101.11 76.47 100.94 77.03L97.31 88.2C97.17 88.62 97.24 89.08 97.5 89.43C97.76 89.79 98.17 90 98.61 90H105.86C106.3 90 106.71 89.79 106.97 89.43C107.23 89.08 107.3 88.62 107.16 88.2L103.55 77.03C103.36 76.47 102.83 76.09 102.24 76.09ZM114.18 109.85L111.2 100.65C111.02 100.09 110.5 99.7 109.9 99.7H94.57C93.98 99.7 93.46 100.09 93.27 100.65L90.29 109.85H80.32L96.33 60.44H108.14L124.16 109.85H114.18ZM25.16 110.48C19.31 110.48 12.34 105.93 10.24 104.46L14.96 95.99L15.86 96.67C19.58 99.44 22.62 100.79 25.16 100.79C29.23 100.79 31.24 99.88 32.21 99.11C32.8 98.64 33.49 97.9 33.49 96.25C33.49 93.92 32.51 91.32 25.5 88.17C18.47 85.02 12.16 81.42 12.16 71.99C12.16 65.3 16.97 58.55 27.72 58.55C33.28 58.55 38.18 59.96 42.28 62.75L36.92 71.36L36.75 71.26C34.89 70.15 30.86 68.24 27.72 68.24C25.31 68.24 23.66 68.64 22.69 69.46C22.12 69.93 21.51 70.96 21.51 72.09C21.51 74.78 22.18 76.1 29.28 79.29C35.15 81.92 42.96 86.52 42.96 96.25C42.96 100.54 41.18 104.29 37.96 106.82C34.85 109.26 30.55 110.48 25.16 110.48ZM156.46 109.85L146.24 92.55C146.01 92.16 145.59 91.89 145.12 91.88H145.06C144.61 91.88 144.18 92.1 143.94 92.49L139.77 98.58C139.61 98.81 139.52 99.07 139.52 99.35V109.85H130.06V60.47H139.52V77.57C139.52 78.18 139.92 78.71 140.5 78.89C140.62 78.93 140.76 78.95 140.9 78.95C141.35 78.95 141.78 78.73 142.04 78.35L154.26 60.47H165.81L151.58 81.28C151.29 81.72 151.26 82.3 151.53 82.77L167.5 109.85H156.46ZM174.25 109.85V60.47H201.89V70.18H185.09C184.34 70.18 183.72 70.78 183.72 71.55V77.63C183.72 78.38 184.34 79 185.09 79H199.77V88.71H185.09C184.34 88.71 183.72 89.31 183.72 90.08V98.77C183.72 99.54 184.34 100.14 185.09 100.14H201.89V109.85H174.25ZM59.89 109.85V71.55C59.89 70.78 59.27 70.18 58.51 70.18H47.58V60.47H81.67V70.18H70.73C69.97 70.18 69.36 70.78 69.36 71.55V109.85H59.89Z" fill="#EAAE56"/><path d="M229.26 86.67C230.17 86.14 230.7 85.9 231.05 85.79C229.6 87.92 226.93 91.61 224.29 93.79C220.62 96.86 215.84 98.41 215.78 98.42C215.71 98.44 215.66 98.49 215.64 98.56C215.64 98.62 215.53 99.13 216 100C216.48 100.89 217.02 101.08 217.07 101.11C217.1 101.11 217.11 101.12 217.14 101.12C217.18 101.11 217.21 101.11 217.24 101.09C217.29 101.06 222.6 98.19 225.95 94.8C228.27 92.43 230.2 89.54 231.39 87.59C231.29 88.05 231.19 88.57 231.06 89.16C230.99 89.52 230.91 89.89 230.83 90.29C230.76 90.59 230.69 90.92 230.61 91.25C230.09 93.52 229.44 96.34 230.66 99.8C231.72 102.77 233.91 104.32 237 104.31H237.08C238.98 104.27 240.3 102.91 240.91 102.09C241.66 101.13 241.99 99.22 241.79 97.05C244.43 98.23 247.03 98.09 248.98 96.65C250.97 95.17 251.29 92.49 249.78 89.81C248.38 87.3 245.19 86.4 242.58 85.87C241.3 85.63 239.21 85.41 237.35 85.21C235.87 85.06 234.18 84.9 233.75 84.76C233.8 84.71 233.88 84.62 234.04 84.49C234.65 83.99 238.33 83.25 239.54 83C240.89 82.71 245.5 81.65 248.18 79.63C249.46 78.66 250.31 76.94 250.4 75.17C250.47 73.65 249.97 72.29 249.05 71.41C246.95 69.42 244.34 69.98 241.79 70.97C242.01 68.25 239.98 65.78 238.37 65.24C236.81 64.7 233.58 64.72 231.5 68.13C229.41 71.56 230.39 76.35 230.9 78.24C231.45 80.27 231.82 82.82 231.68 83.29C231.13 82.92 230.98 82.6 229.8 80.14L229.69 79.88C228.66 77.74 226.39 73.97 222.73 72.86C219.09 71.76 216.93 73.6 215.75 75.34C214.31 77.52 214.71 79.91 216.81 81.78C214.63 82.03 211.78 82.77 211.37 86.05C210.91 89.63 212.43 91.21 216.96 91.88C217.33 91.94 217.7 91.95 218.09 91.95C221.73 91.85 225.77 89.05 228.05 87.48C228.56 87.12 228.97 86.84 229.26 86.67ZM102.24 76.09C101.64 76.09 101.11 76.47 100.94 77.03L97.31 88.2C97.17 88.62 97.24 89.08 97.5 89.43C97.76 89.79 98.17 90 98.61 90H105.86C106.3 90 106.71 89.79 106.97 89.43C107.23 89.08 107.3 88.62 107.16 88.2L103.55 77.03C103.36 76.47 102.83 76.09 102.24 76.09ZM114.18 109.85L111.2 100.65C111.02 100.09 110.5 99.7 109.9 99.7H94.57C93.98 99.7 93.46 100.09 93.27 100.65L90.29 109.85H80.32L96.33 60.44H108.14L124.16 109.85H114.18ZM25.16 110.48C19.31 110.48 12.34 105.93 10.24 104.46L14.96 95.99L15.86 96.67C19.58 99.44 22.62 100.79 25.16 100.79C29.23 100.79 31.24 99.88 32.21 99.11C32.8 98.64 33.49 97.9 33.49 96.25C33.49 93.92 32.51 91.32 25.5 88.17C18.47 85.02 12.16 81.42 12.16 71.99C12.16 65.3 16.97 58.55 27.72 58.55C33.28 58.55 38.18 59.96 42.28 62.75L36.92 71.36L36.75 71.26C34.89 70.15 30.86 68.24 27.72 68.24C25.31 68.24 23.66 68.64 22.69 69.46C22.12 69.93 21.51 70.96 21.51 72.09C21.51 74.78 22.18 76.1 29.28 79.29C35.15 81.92 42.96 86.52 42.96 96.25C42.96 100.54 41.18 104.29 37.96 106.82C34.85 109.26 30.55 110.48 25.16 110.48ZM156.46 109.85L146.24 92.55C146.01 92.16 145.59 91.89 145.12 91.88H145.06C144.61 91.88 144.18 92.1 143.94 92.49L139.77 98.58C139.61 98.81 139.52 99.07 139.52 99.35V109.85H130.06V60.47H139.52V77.57C139.52 78.18 139.92 78.71 140.5 78.89C140.62 78.93 140.76 78.95 140.9 78.95C141.35 78.95 141.78 78.73 142.04 78.35L154.26 60.47H165.81L151.58 81.28C151.29 81.72 151.26 82.3 151.53 82.77L167.5 109.85H156.46ZM174.25 109.85V60.47H201.89V70.18H185.09C184.34 70.18 183.72 70.78 183.72 71.55V77.63C183.72 78.38 184.34 79 185.09 79H199.77V88.71H185.09C184.34 88.71 183.72 89.31 183.72 90.08V98.77C183.72 99.54 184.34 100.14 185.09 100.14H201.89V109.85H174.25ZM59.89 109.85V71.55C59.89 70.78 59.27 70.18 58.51 70.18H47.58V60.47H81.67V70.18H70.73C69.97 70.18 69.36 70.78 69.36 71.55V109.85H59.89Z" fill="#E1B165"/><path d="M24.9 111.17C19.01 111.17 12.23 106.87 9.58 105.02C9.29 104.82 9.19 104.43 9.37 104.13L14.1 95.66C14.2 95.48 14.36 95.36 14.55 95.32C14.75 95.28 14.95 95.32 15.1 95.44L16 96.12C19.6 98.8 22.5 100.1 24.89 100.1C28.76 100.1 30.63 99.28 31.51 98.58C32.03 98.16 32.53 97.59 32.53 96.25C32.53 94.15 31.61 91.79 24.96 88.8C17.71 85.56 11.21 81.83 11.21 71.99C11.21 64.95 16.23 57.86 27.46 57.86C33.16 57.86 38.19 59.32 42.41 62.19C42.71 62.4 42.81 62.81 42.6 63.12L37.24 71.73C37.05 72.05 36.65 72.14 36.33 71.98L36.16 71.88C34.44 70.85 30.45 68.94 27.46 68.94C25.24 68.94 23.71 69.3 22.87 70C22.41 70.38 21.93 71.23 21.93 72.1C21.93 74.37 22.24 75.5 29.31 78.67C35.36 81.38 43.4 86.15 43.4 96.27C43.4 100.78 41.53 104.72 38.13 107.37C34.92 109.9 30.47 111.18 24.91 111.18L24.9 111.17ZM10.88 104.25C13.36 105.92 19.65 109.79 24.9 109.79C30.15 109.79 34.3 108.61 37.27 106.29C40.32 103.9 42.01 100.34 42.01 96.25C42.01 86.93 34.44 82.47 28.75 79.92C21.7 76.76 20.56 75.26 20.56 72.09C20.56 70.73 21.27 69.52 21.99 68.93C23.09 67.99 24.87 67.55 27.46 67.55C30.54 67.55 34.37 69.27 36.43 70.44L41.09 62.96C37.21 60.48 32.62 59.23 27.46 59.23C17.19 59.23 12.59 65.64 12.59 71.99C12.59 81.01 18.7 84.49 25.52 87.54C32.9 90.85 33.92 93.68 33.92 96.25C33.92 98.21 33.04 99.13 32.38 99.65C31.32 100.49 29.16 101.48 24.9 101.48C22.21 101.48 19.03 100.09 15.19 97.22L14.92 97.01L10.88 104.24V104.25ZM201.63 110.54H173.99C173.61 110.54 173.3 110.23 173.3 109.85V60.47C173.3 60.09 173.61 59.78 173.99 59.78H201.63C202.01 59.78 202.31 60.09 202.31 60.47V70.18C202.31 70.56 202.01 70.86 201.63 70.86H184.83C184.45 70.86 184.15 71.17 184.15 71.55V77.63C184.15 78.01 184.45 78.31 184.83 78.31H199.51C199.9 78.31 200.2 78.62 200.2 79V88.71C200.2 89.09 199.9 89.39 199.51 89.39H184.83C184.45 89.39 184.15 89.7 184.15 90.08V98.77C184.15 99.15 184.45 99.46 184.83 99.46H201.63C202.01 99.46 202.31 99.76 202.31 100.14V109.85C202.31 110.23 202.01 110.54 201.63 110.54ZM174.68 109.16H200.94V100.83H184.83C183.69 100.83 182.77 99.91 182.77 98.77V90.08C182.77 88.94 183.69 88.02 184.83 88.02H198.82V79.69H184.83C183.69 79.69 182.77 78.77 182.77 77.63V71.55C182.77 70.41 183.69 69.49 184.83 69.49H200.94V61.16H174.68V109.16ZM167.24 110.54H156.19C155.95 110.54 155.73 110.41 155.6 110.19L145.39 92.9C145.27 92.69 145.06 92.57 144.84 92.57C144.58 92.57 144.38 92.68 144.27 92.86L140.09 98.96C140.01 99.09 139.97 99.21 139.97 99.35V109.85C139.97 110.23 139.66 110.54 139.28 110.54H129.81C129.43 110.54 129.12 110.23 129.12 109.85V60.47C129.12 60.09 129.43 59.78 129.81 59.78H139.28C139.66 59.78 139.97 60.09 139.97 60.47V77.57C139.97 77.87 140.17 78.15 140.46 78.23C140.57 78.27 141.04 78.23 141.23 77.96L153.43 60.09C153.56 59.89 153.78 59.78 154 59.78H165.55C165.81 59.78 166.05 59.92 166.16 60.16C166.28 60.38 166.27 60.65 166.12 60.87L151.88 81.68C151.74 81.9 151.73 82.2 151.87 82.42L167.83 109.5C167.96 109.71 167.96 109.99 167.83 110.19C167.71 110.41 167.49 110.54 167.24 110.54ZM156.59 109.16H166.05L150.68 83.11C150.28 82.44 150.31 81.56 150.74 80.9L164.25 61.14H154.35L142.34 78.73C141.94 79.29 141.31 79.62 140.64 79.62C140.41 79.62 140.2 79.59 140.02 79.52C139.18 79.26 138.58 78.45 138.58 77.56V61.14H130.48V109.15H138.58V99.33C138.58 98.92 138.7 98.52 138.95 98.16L143.11 92.07C143.47 91.51 144.12 91.17 144.8 91.17C145.57 91.18 146.22 91.58 146.57 92.18L156.58 109.13L156.59 109.16ZM123.9 110.54H113.92C113.62 110.54 113.36 110.34 113.26 110.06L110.28 100.86C110.19 100.57 109.92 100.39 109.64 100.39H94.31C94.02 100.39 93.75 100.58 93.65 100.87L90.67 110.06C90.58 110.34 90.31 110.54 90.01 110.54H80.05C79.83 110.54 79.62 110.43 79.5 110.25C79.38 110.07 79.33 109.83 79.4 109.63L95.41 60.22C95.51 59.94 95.77 59.74 96.07 59.74H107.88C108.18 59.74 108.44 59.94 108.54 60.22L124.56 109.63C124.63 109.83 124.59 110.07 124.46 110.25C124.34 110.43 124.13 110.54 123.91 110.54H123.9ZM114.43 109.16H122.97L107.38 61.13H96.58L81.01 109.16H89.53L92.36 100.45C92.65 99.59 93.45 99.02 94.33 99.02H109.65C110.56 99.02 111.34 99.59 111.61 100.45L114.45 109.16H114.43ZM69.1 110.54H59.63C59.24 110.54 58.94 110.23 58.94 109.85V71.55C58.94 71.17 58.64 70.86 58.25 70.86H47.31C46.93 70.86 46.63 70.56 46.63 70.18V60.47C46.63 60.09 46.93 59.78 47.31 59.78H81.41C81.79 59.78 82.1 60.09 82.1 60.47V70.18C82.1 70.56 81.79 70.86 81.41 70.86H70.47C70.09 70.86 69.78 71.17 69.78 71.55V109.85C69.78 110.23 69.48 110.54 69.1 110.54ZM60.31 109.16H68.41V71.55C68.41 70.41 69.33 69.49 70.47 69.49H80.72V61.16H48V69.49H58.25C59.39 69.49 60.31 70.41 60.31 71.55V109.16ZM236.79 105C233.32 105 230.91 103.28 229.76 100.03C228.47 96.38 229.14 93.45 229.67 91.1C229.67 91.07 229.67 91.04 229.69 91.02C228.52 92.65 227.34 94.08 226.17 95.28C222.72 98.77 217.32 101.68 217.28 101.71C217.22 101.74 217.13 101.77 217.07 101.78C216.95 101.82 216.85 101.82 216.7 101.78C216.63 101.78 216.56 101.75 216.51 101.71C215.99 101.48 215.51 101 215.15 100.32C214.57 99.25 214.68 98.56 214.72 98.38C214.79 98.07 215.05 97.81 215.4 97.74C215.4 97.74 220.04 96.23 223.6 93.26C225.35 91.81 227.12 89.68 228.51 87.83C228.41 87.9 228.3 87.96 228.2 88.05C225.7 89.77 221.66 92.54 217.87 92.64C217.43 92.64 217.03 92.62 216.63 92.56C211.74 91.83 209.95 89.92 210.46 85.96C210.88 82.7 213.42 81.67 215.19 81.28C213.66 79.35 213.57 77.05 214.96 74.95C216.28 73.01 218.68 70.96 222.71 72.18C226.61 73.37 229 77.32 230.09 79.57L230.21 79.85C230.31 80.05 230.39 80.22 230.47 80.39C230.35 79.76 230.2 79.07 230.02 78.41C229.48 76.42 228.48 71.4 230.69 67.76C233 63.96 236.61 63.98 238.37 64.58C240.16 65.17 242 67.44 242.25 69.98C244.6 69.19 247.16 68.87 249.3 70.9C250.37 71.92 250.93 73.49 250.85 75.19C250.75 77.17 249.81 79.07 248.38 80.17C245.82 82.09 241.7 83.18 239.46 83.66C237.95 83.96 236.88 84.21 236.11 84.4C236.38 84.43 236.66 84.46 236.92 84.49L237.21 84.51C238.96 84.69 241.15 84.93 242.48 85.19C245.26 85.74 248.62 86.73 250.15 89.46C251.84 92.46 251.46 95.5 249.16 97.2C247.26 98.6 244.82 98.91 242.3 98.07C242.33 99.97 241.95 101.59 241.23 102.51C240.54 103.42 239.06 104.94 236.88 104.98H236.83L236.79 105ZM231.13 86.91C231.21 86.91 231.3 86.92 231.39 86.96C231.71 87.08 231.87 87.41 231.8 87.74L231.47 89.31C231.43 89.53 231.38 89.77 231.34 90L231.17 90.78C231.13 90.99 231.08 91.21 231.02 91.43C230.53 93.6 229.89 96.31 231.06 99.58C232.02 102.27 233.92 103.64 236.71 103.64H236.75C238.43 103.59 239.58 102.4 240.13 101.7C240.76 100.89 241.05 99.1 240.87 97.13C240.85 96.89 240.96 96.65 241.16 96.51C241.35 96.38 241.62 96.35 241.84 96.45C244.27 97.53 246.58 97.42 248.34 96.12C250.03 94.85 250.27 92.51 248.94 90.16C247.68 87.92 244.68 87.07 242.21 86.56C240.93 86.31 238.77 86.09 237.05 85.92L236.76 85.89C234.91 85.7 233.74 85.57 233.3 85.43C233.1 85.37 232.93 85.2 232.86 84.98C232.79 84.76 232.84 84.54 232.97 84.36C233.06 84.25 233.18 84.13 233.37 83.98C233.89 83.55 235.49 83.1 239.07 82.37C240.87 81.98 245.11 80.94 247.54 79.11C248.67 78.26 249.41 76.73 249.48 75.17C249.53 73.86 249.12 72.69 248.34 71.94C246.47 70.16 244.09 70.75 241.81 71.63C241.59 71.72 241.34 71.69 241.15 71.55C240.96 71.41 240.86 71.18 240.87 70.95C241.07 68.54 239.25 66.37 237.92 65.93C236.55 65.45 233.72 65.47 231.85 68.53C229.91 71.72 230.83 76.29 231.32 78.11C231.79 79.81 232.33 82.78 232.11 83.52C232.05 83.73 231.89 83.91 231.68 83.98C231.47 84.05 231.24 84.02 231.06 83.9C230.36 83.41 230.17 83.03 228.95 80.47L228.82 80.18C227.85 78.16 225.7 74.59 222.29 73.54C219.7 72.76 217.61 73.5 216.08 75.76C214.83 77.63 215.18 79.65 217.03 81.3C217.24 81.48 217.31 81.76 217.22 82.01C217.14 82.27 216.92 82.45 216.65 82.49C213.58 82.84 212.08 83.98 211.81 86.18C211.47 88.93 212.15 90.55 216.82 91.24C217.17 91.29 217.5 91.29 217.86 91.29C221.24 91.21 225.06 88.57 227.35 87C227.96 86.58 228.38 86.29 228.69 86.11C229.5 85.63 230.11 85.33 230.61 85.17C230.88 85.08 231.19 85.17 231.37 85.42C231.54 85.65 231.54 85.97 231.38 86.22C231.21 86.47 231.02 86.74 230.81 87.03C230.91 86.97 231.03 86.95 231.16 86.95L231.13 86.91ZM216.08 98.96C216.11 99.13 216.19 99.37 216.36 99.69C216.51 99.98 216.7 100.21 216.89 100.36C217.91 99.8 222.34 97.24 225.21 94.33C226.82 92.69 228.42 90.6 230.02 88.1C228.52 90.14 226.49 92.67 224.47 94.34C221.26 97.01 217.32 98.55 216.07 98.98L216.08 98.96ZM215.77 99.07L215.69 99.1C215.71 99.1 215.74 99.09 215.77 99.07ZM105.6 90.69H98.35C97.69 90.69 97.08 90.37 96.69 89.85C96.29 89.31 96.2 88.64 96.4 87.99L100.03 76.83C100.31 75.98 101.09 75.4 102 75.4C102.9 75.4 103.66 75.96 103.95 76.82L107.56 87.99C107.77 88.64 107.66 89.31 107.27 89.85C106.89 90.38 106.25 90.7 105.61 90.7L105.6 90.69ZM101.98 76.77C101.68 76.77 101.42 76.97 101.34 77.24L97.71 88.4C97.64 88.62 97.67 88.84 97.8 89.02C97.93 89.2 98.13 89.3 98.37 89.3H105.61C105.83 89.3 106.03 89.2 106.17 89.01C106.3 88.83 106.34 88.61 106.27 88.39L102.66 77.23C102.56 76.95 102.3 76.76 102.01 76.76L101.98 76.77Z" fill="#44290E"/><path d="M25.07 112.03C19.02 112.03 11.85 107.35 9.8 105.9C9.51 105.7 9.43 105.31 9.59 105.01L14.31 96.57C14.4 96.39 14.57 96.28 14.76 96.24C14.95 96.2 15.16 96.24 15.31 96.36L16.2 97.04C19.79 99.7 22.69 101.01 25.07 101.01C28.93 101.01 30.78 100.18 31.68 99.48C32.2 99.07 32.69 98.49 32.69 97.17C32.69 95.07 31.77 92.72 25.13 89.74C17.91 86.51 11.43 82.79 11.43 72.98C11.43 65.97 16.44 58.89 27.62 58.89C33.3 58.89 38.31 60.35 42.53 63.21C42.83 63.41 42.92 63.82 42.72 64.14L37.38 72.72C37.19 73.02 36.79 73.13 36.47 72.97L36.29 72.87C34.59 71.84 30.62 69.94 27.62 69.94C25.42 69.94 23.88 70.3 23.05 71C22.59 71.39 22.11 72.24 22.11 73.09C22.11 75.34 22.41 76.49 29.46 79.65C35.48 82.34 43.49 87.1 43.49 97.19C43.49 101.68 41.62 105.61 38.24 108.27C35.03 110.78 30.6 112.06 25.07 112.06V112.03ZM11.09 105.13C13.55 106.8 19.83 110.66 25.07 110.66C30.3 110.66 34.44 109.48 37.39 107.15C40.44 104.76 42.12 101.22 42.12 97.16C42.12 87.87 34.58 83.41 28.9 80.87C21.86 77.71 20.74 76.22 20.74 73.06C20.74 71.72 21.45 70.51 22.17 69.91C23.27 68.99 25.05 68.54 27.62 68.54C30.7 68.54 34.51 70.24 36.57 71.41L41.21 63.96C37.35 61.5 32.77 60.25 27.62 60.25C17.38 60.25 12.79 66.64 12.79 72.97C12.79 81.96 18.9 85.43 25.7 88.47C33.05 91.77 34.07 94.6 34.07 97.16C34.07 99.11 33.19 100.03 32.53 100.54C31.47 101.37 29.33 102.36 25.08 102.36C22.4 102.36 19.23 100.97 15.39 98.11L15.13 97.9L11.1 105.12L11.09 105.13ZM201.25 111.4H173.7C173.32 111.4 173.01 111.1 173.01 110.71V61.49C173.01 61.1 173.32 60.8 173.7 60.8H201.25C201.64 60.8 201.94 61.1 201.94 61.49V71.17C201.94 71.55 201.64 71.85 201.25 71.85H184.52C184.13 71.85 183.83 72.16 183.83 72.54V78.6C183.83 78.97 184.13 79.29 184.52 79.29H199.15C199.54 79.29 199.84 79.59 199.84 79.98V89.65C199.84 90.04 199.54 90.34 199.15 90.34H184.52C184.13 90.34 183.83 90.64 183.83 91.03V99.69C183.83 100.07 184.13 100.38 184.52 100.38H201.25C201.64 100.38 201.94 100.68 201.94 101.06V110.74C201.94 111.13 201.64 111.43 201.25 111.43V111.4ZM174.39 110.04H200.57V101.74H184.5C183.38 101.74 182.46 100.82 182.46 99.68V91.02C182.46 89.89 183.38 88.95 184.5 88.95H198.45V80.65H184.5C183.38 80.65 182.46 79.73 182.46 78.59V72.53C182.46 71.4 183.38 70.46 184.5 70.46H200.57V62.16H174.39V110.01V110.04ZM166.98 111.4H155.96C155.71 111.4 155.49 111.28 155.37 111.06L145.19 93.82C145.08 93.61 144.86 93.49 144.64 93.49C144.38 93.49 144.17 93.6 144.06 93.78L139.9 99.87C139.81 99.99 139.77 100.12 139.77 100.25V110.73C139.77 111.11 139.47 111.42 139.09 111.42H129.64C129.26 111.42 128.96 111.11 128.96 110.73V61.5C128.96 61.12 129.26 60.81 129.64 60.81H139.09C139.47 60.81 139.77 61.12 139.77 61.5V78.55C139.77 78.85 139.98 79.12 140.27 79.21C140.39 79.25 140.84 79.21 141.04 78.93L153.21 61.12C153.34 60.92 153.56 60.81 153.78 60.81H165.29C165.54 60.81 165.77 60.95 165.9 61.19C166.02 61.41 165.99 61.68 165.85 61.89L151.66 82.63C151.52 82.85 151.51 83.14 151.65 83.37L167.57 110.37C167.7 110.58 167.7 110.85 167.57 111.06C167.45 111.28 167.23 111.4 166.98 111.4ZM156.34 110.04H165.77L150.46 84.07C150.06 83.4 150.09 82.53 150.52 81.87L163.99 62.19H154.12L142.15 79.72C141.75 80.28 141.12 80.61 140.45 80.61C140.21 80.61 140.01 80.58 139.83 80.51C138.99 80.25 138.38 79.44 138.38 78.55V62.19H130.32V110.04H138.38V100.25C138.38 99.84 138.51 99.44 138.75 99.1L142.91 93.04C143.26 92.47 143.9 92.13 144.6 92.13C145.37 92.14 146.01 92.54 146.37 93.13L156.34 110.04ZM123.76 111.4H113.81C113.51 111.4 113.25 111.21 113.17 110.93L110.2 101.77C110.1 101.48 109.86 101.3 109.55 101.3H94.27C93.98 101.3 93.72 101.49 93.61 101.78L90.64 110.93C90.55 111.22 90.29 111.4 90 111.4H80.06C79.84 111.4 79.64 111.29 79.51 111.11C79.39 110.93 79.35 110.71 79.42 110.49L95.38 61.24C95.48 60.95 95.74 60.77 96.03 60.77H107.79C108.1 60.77 108.36 60.97 108.44 61.24L124.42 110.49C124.49 110.7 124.45 110.93 124.33 111.11C124.2 111.29 124 111.4 123.78 111.4H123.76ZM114.31 110.04H122.81L107.29 62.16H96.51L81 110.04H89.49L92.31 101.34C92.6 100.49 93.38 99.92 94.26 99.92H109.54C110.43 99.92 111.23 100.5 111.49 101.35L114.31 110.04ZM69.12 111.4H59.68C59.3 111.4 59 111.1 59 110.71V72.53C59 72.14 58.69 71.84 58.31 71.84H47.4C47.01 71.84 46.71 71.54 46.71 71.15V61.47C46.71 61.09 47.01 60.79 47.4 60.79H81.4C81.78 60.79 82.08 61.09 82.08 61.47V71.15C82.08 71.54 81.78 71.84 81.4 71.84H70.48C70.1 71.84 69.8 72.14 69.8 72.53V110.71C69.8 111.1 69.49 111.4 69.11 111.4H69.12ZM60.37 110.04H68.44V72.54C68.44 71.41 69.36 70.48 70.5 70.48H80.72V62.18H48.1V70.48H58.32C59.45 70.48 60.38 71.4 60.38 72.54V110.04H60.37ZM236.31 105.89C232.85 105.89 230.46 104.19 229.3 100.94C228.01 97.3 228.69 94.37 229.23 92.03C229.23 92.01 229.23 91.98 229.25 91.95C228.08 93.59 226.91 95.02 225.74 96.2C222.32 99.66 216.92 102.59 216.87 102.62C216.81 102.64 216.72 102.67 216.66 102.69C216.55 102.73 216.44 102.73 216.29 102.69C216.22 102.69 216.15 102.66 216.08 102.62C215.56 102.38 215.09 101.9 214.72 101.24C214.13 100.13 214.27 99.43 214.31 99.29C214.37 99 214.63 98.73 214.97 98.66C214.97 98.66 219.6 97.15 223.15 94.19C224.88 92.76 226.65 90.63 228.04 88.77C227.94 88.84 227.85 88.91 227.74 88.99C225.25 90.71 221.22 93.48 217.43 93.57C216.99 93.57 216.59 93.56 216.19 93.49C211.31 92.76 209.54 90.86 210.04 86.92C210.45 83.67 212.98 82.64 214.75 82.26C213.24 80.32 213.13 78.04 214.52 75.95C215.82 74.02 218.21 71.98 222.24 73.19C226.13 74.37 228.52 78.31 229.59 80.55L229.72 80.84C229.81 81.04 229.89 81.21 229.98 81.38C229.85 80.75 229.7 80.06 229.52 79.4C228.99 77.42 228 72.42 230.2 68.77C232.5 64.99 236.09 65.01 237.85 65.6C239.64 66.19 241.47 68.44 241.71 70.99C244.05 70.19 246.6 69.87 248.75 71.91C249.82 72.92 250.38 74.48 250.3 76.18C250.21 78.15 249.26 80.06 247.83 81.15C245.28 83.06 241.16 84.16 238.94 84.62C237.44 84.93 236.35 85.17 235.6 85.37C235.86 85.39 236.13 85.42 236.38 85.45L236.7 85.48C238.84 85.7 240.72 85.9 241.96 86.15C244.72 86.7 248.07 87.69 249.6 90.41C251.28 93.39 250.89 96.42 248.61 98.12C246.73 99.51 244.28 99.81 241.78 98.99C241.81 100.89 241.42 102.49 240.71 103.42C240.02 104.32 238.54 105.83 236.35 105.89H236.31ZM230.68 87.85C230.76 87.85 230.84 87.87 230.93 87.91C231.24 88.03 231.41 88.36 231.34 88.69L230.71 91.66C230.65 91.88 230.61 92.11 230.54 92.35C230.04 94.51 229.43 97.22 230.58 100.47C231.54 103.15 233.43 104.51 236.22 104.51H236.26C237.93 104.49 239.07 103.29 239.62 102.58C240.24 101.77 240.53 99.98 240.37 98.03C240.34 97.78 240.45 97.54 240.65 97.41C240.85 97.27 241.11 97.24 241.33 97.34C243.76 98.42 246.06 98.31 247.8 97.02C249.49 95.76 249.74 93.43 248.41 91.08C247.15 88.84 244.16 87.99 241.69 87.5C240.41 87.25 238.17 87.02 236.54 86.85L236.23 86.82C234.39 86.63 233.25 86.51 232.81 86.37C232.6 86.3 232.44 86.14 232.37 85.93C232.3 85.72 232.34 85.49 232.46 85.31C232.55 85.2 232.67 85.08 232.86 84.91C233.38 84.49 234.98 84.03 238.55 83.3C240.34 82.92 244.57 81.87 246.97 80.05C248.09 79.19 248.83 77.68 248.91 76.1C248.97 74.81 248.56 73.63 247.79 72.88C245.93 71.12 243.55 71.7 241.27 72.58C241.05 72.66 240.81 72.64 240.61 72.5C240.42 72.36 240.32 72.13 240.34 71.89C240.53 69.5 238.72 67.33 237.4 66.89C236.02 66.42 233.19 66.44 231.35 69.47C229.41 72.65 230.33 77.21 230.83 79.03C231.3 80.73 231.82 83.69 231.61 84.43C231.56 84.64 231.39 84.8 231.19 84.88C230.98 84.95 230.75 84.93 230.57 84.8C229.87 84.33 229.67 83.94 228.45 81.39L228.33 81.1C227.37 79.1 225.21 75.52 221.83 74.49C219.24 73.71 217.16 74.45 215.63 76.71C214.39 78.57 214.74 80.58 216.58 82.22C216.78 82.4 216.85 82.68 216.77 82.93C216.69 83.19 216.47 83.37 216.19 83.4C213.13 83.74 211.64 84.88 211.37 87.07C211.03 89.81 211.71 91.43 216.37 92.12C216.72 92.17 217.04 92.17 217.39 92.17C220.75 92.09 224.58 89.46 226.86 87.89C227.45 87.48 227.89 87.18 228.18 87C228.99 86.52 229.6 86.22 230.1 86.07C230.38 85.98 230.68 86.07 230.86 86.31C231.03 86.55 231.03 86.86 230.87 87.11C230.71 87.36 230.51 87.63 230.31 87.92C230.4 87.87 230.53 87.84 230.65 87.84L230.68 87.85ZM215.66 99.87C215.68 100.03 215.77 100.28 215.93 100.58C216.08 100.87 216.28 101.11 216.47 101.24C217.49 100.68 221.87 98.15 224.77 95.22C226.36 93.6 227.97 91.51 229.56 89.01C228.08 91.04 226.05 93.56 224.03 95.24C220.84 97.9 216.89 99.43 215.66 99.85V99.87ZM215.35 99.98L215.27 100.01C215.3 100.01 215.33 99.99 215.35 99.98ZM105.51 91.62H98.3C97.64 91.62 97.02 91.3 96.64 90.78C96.25 90.25 96.14 89.57 96.35 88.94L99.96 77.8C100.24 76.95 101.02 76.39 101.91 76.39C102.81 76.39 103.58 76.95 103.86 77.8L107.46 88.94C107.67 89.59 107.56 90.26 107.18 90.8C106.79 91.32 106.17 91.63 105.51 91.63V91.62ZM101.91 77.75C101.61 77.75 101.35 77.94 101.27 78.22L97.65 89.35C97.58 89.57 97.61 89.79 97.75 89.97C97.87 90.15 98.08 90.26 98.3 90.26H105.51C105.73 90.26 105.94 90.16 106.08 89.98C106.2 89.81 106.24 89.59 106.17 89.37L102.57 78.24C102.48 77.97 102.22 77.78 101.93 77.78L101.91 77.75Z" fill="#44290E"/><path d="M25.77 110.73C19.79 110.73 12.66 106.07 10.61 104.64C10.43 104.52 10.38 104.28 10.49 104.1L15.21 95.63C15.27 95.52 15.38 95.46 15.49 95.43C15.61 95.4 15.72 95.43 15.82 95.5L16.71 96.17C20.35 98.89 23.32 100.21 25.77 100.21C29.73 100.21 31.65 99.35 32.56 98.62C33.11 98.18 33.68 97.53 33.68 96.09C33.68 93.89 32.75 91.44 25.95 88.38C18.79 85.17 12.36 81.5 12.36 71.83C12.36 64.92 17.29 57.97 28.32 57.97C33.96 57.97 38.95 59.41 43.12 62.24C43.3 62.37 43.36 62.62 43.25 62.81L37.89 71.41C37.78 71.59 37.53 71.66 37.34 71.56L37.16 71.47C35.3 70.35 31.39 68.5 28.32 68.5C26.02 68.5 24.46 68.87 23.56 69.63C23.03 70.05 22.52 70.99 22.52 71.94C22.52 74.26 22.84 75.52 30.06 78.77C36.03 81.45 43.98 86.15 43.98 96.1C43.98 100.53 42.15 104.39 38.81 107C35.63 109.49 31.25 110.74 25.77 110.74V110.73ZM11.38 104.17C13.7 105.77 20.28 109.9 25.77 109.9C31.25 109.9 35.29 108.71 38.3 106.33C41.42 103.88 43.15 100.24 43.15 96.09C43.15 86.6 35.48 82.08 29.73 79.5C22.76 76.36 21.7 75 21.7 71.92C21.7 70.66 22.39 69.52 23.03 68.98C24.08 68.09 25.81 67.66 28.32 67.66C31.47 67.66 35.41 69.49 37.39 70.64L42.33 62.71C38.36 60.11 33.64 58.79 28.32 58.79C17.87 58.79 13.18 65.34 13.18 71.83C13.18 81.01 19.38 84.54 26.28 87.63C33.5 90.88 34.51 93.61 34.51 96.09C34.51 97.9 33.74 98.74 33.08 99.26C32.06 100.07 29.96 101.02 25.77 101.02C23.13 101.02 20.01 99.65 16.22 96.82L15.69 96.43L11.38 104.16V104.17ZM202.49 110.1H174.86C174.62 110.1 174.44 109.92 174.44 109.68V60.31C174.44 60.07 174.62 59.89 174.86 59.89H202.49C202.73 59.89 202.91 60.07 202.91 60.31V70.01C202.91 70.24 202.73 70.42 202.49 70.42H185.7C185.16 70.42 184.74 70.85 184.74 71.39V77.46C184.74 78 185.16 78.42 185.7 78.42H200.38C200.61 78.42 200.79 78.6 200.79 78.84V88.54C200.79 88.77 200.61 88.95 200.38 88.95H185.7C185.16 88.95 184.74 89.38 184.74 89.92V98.6C184.74 99.14 185.16 99.57 185.7 99.57H202.49C202.73 99.57 202.91 99.74 202.91 99.98V109.68C202.91 109.92 202.73 110.1 202.49 110.1ZM175.27 109.27H202.08V100.39H185.7C184.71 100.39 183.91 99.59 183.91 98.6V89.92C183.91 88.93 184.71 88.13 185.7 88.13H199.96V79.25H185.7C184.71 79.25 183.91 78.45 183.91 77.46V71.39C183.91 70.4 184.71 69.6 185.7 69.6H202.08V60.72H175.27V109.27ZM168.11 110.1H157.06C156.91 110.1 156.79 110.01 156.7 109.89L146.49 92.6C146.33 92.32 146.03 92.13 145.71 92.13C145.35 92.13 145.05 92.28 144.88 92.54L140.72 98.64C140.6 98.81 140.54 98.99 140.54 99.18V109.68C140.54 109.92 140.36 110.1 140.13 110.1H130.66C130.43 110.1 130.25 109.92 130.25 109.68V60.31C130.25 60.07 130.43 59.89 130.66 59.89H140.13C140.36 59.89 140.54 60.07 140.54 60.31V77.41C140.54 77.83 140.83 78.2 141.23 78.33C141.52 78.42 142.07 78.3 142.32 77.94L154.53 60.06C154.62 59.95 154.74 59.88 154.88 59.88H166.43C166.59 59.88 166.72 59.96 166.8 60.1C166.87 60.24 166.86 60.4 166.78 60.53L152.54 81.34C152.33 81.65 152.32 82.05 152.51 82.38L168.48 109.46C168.55 109.59 168.55 109.75 168.48 109.88C168.41 110 168.28 110.08 168.12 110.08L168.11 110.1ZM157.29 109.27H167.38L151.78 82.81C151.44 82.22 151.45 81.46 151.84 80.88L165.64 60.7H155.08L142.99 78.41C142.65 78.89 142.1 79.18 141.5 79.18C141.3 79.18 141.13 79.15 140.97 79.1C140.23 78.86 139.72 78.16 139.72 77.39V60.7H131.07V109.26H139.72V99.17C139.72 98.81 139.83 98.47 140.03 98.16L144.2 92.07C144.51 91.59 145.06 91.29 145.67 91.29C146.33 91.3 146.89 91.65 147.21 92.17L157.29 109.26V109.27ZM124.77 110.1H114.79C114.61 110.1 114.45 109.99 114.39 109.81L111.41 100.61C111.29 100.21 110.92 99.95 110.49 99.95H95.17C94.75 99.95 94.38 100.23 94.25 100.62L91.26 109.82C91.21 109.99 91.04 110.11 90.86 110.11H80.9C80.76 110.11 80.64 110.04 80.57 109.94C80.49 109.83 80.48 109.7 80.52 109.57L96.53 60.17C96.58 60 96.75 59.88 96.92 59.88H108.73C108.91 59.88 109.07 59.99 109.13 60.17L125.15 109.57C125.19 109.7 125.17 109.83 125.1 109.94C125.01 110.05 124.89 110.11 124.77 110.11V110.1ZM115.09 109.27H124.2L108.45 60.69H97.25L81.51 109.27H90.6L93.49 100.36C93.74 99.62 94.42 99.13 95.19 99.13H110.52C111.3 99.13 111.97 99.62 112.22 100.36L115.11 109.27H115.09ZM69.96 110.1H60.49C60.26 110.1 60.08 109.92 60.08 109.68V71.39C60.08 70.85 59.66 70.42 59.12 70.42H48.18C47.95 70.42 47.77 70.24 47.77 70.01V60.31C47.77 60.07 47.95 59.89 48.18 59.89H82.28C82.51 59.89 82.69 60.07 82.69 60.31V70.01C82.69 70.24 82.51 70.42 82.28 70.42H71.34C70.8 70.42 70.38 70.85 70.38 71.39V109.68C70.38 109.92 70.2 110.1 69.96 110.1ZM60.91 109.27H69.55V71.39C69.55 70.4 70.35 69.6 71.34 69.6H81.86V60.72H48.59V69.6H59.12C60.11 69.6 60.91 70.4 60.91 71.39V109.27ZM237.65 104.56C234.29 104.56 231.98 102.91 230.87 99.77C229.61 96.2 230.27 93.31 230.8 90.99C230.86 90.74 230.91 90.51 230.97 90.29L231.12 89.59C231.12 89.59 231.12 89.54 231.12 89.53C229.7 91.65 228.26 93.45 226.83 94.91C223.41 98.37 218.06 101.26 218.01 101.28C217.98 101.3 217.9 101.33 217.86 101.34C217.75 101.38 217.62 101.35 217.57 101.34C216.99 101.09 216.56 100.65 216.22 100.03C215.66 98.99 215.81 98.36 215.82 98.29C215.86 98.08 216.04 97.9 216.28 97.85C216.29 97.85 221.03 96.29 224.6 93.3C226.75 91.52 228.93 88.71 230.42 86.64C230.31 86.71 230.18 86.78 230.06 86.85C229.77 87.02 229.37 87.29 228.88 87.65C226.41 89.35 222.41 92.09 218.68 92.18C218.35 92.17 217.93 92.18 217.49 92.12C212.73 91.41 211.05 89.64 211.55 85.83C211.97 82.47 214.82 81.6 216.51 81.31C214.79 79.4 214.59 77.06 215.99 74.95C217.25 73.09 219.56 71.12 223.44 72.29C227.23 73.45 229.58 77.32 230.64 79.54L230.76 79.81C231.28 80.9 231.59 81.54 231.82 81.96C231.71 81.01 231.46 79.56 231.09 78.19C230.57 76.24 229.58 71.3 231.74 67.76C233.96 64.11 237.41 64.11 239.09 64.69C240.67 65.21 242.72 67.51 242.8 70.22C245.15 69.36 247.77 68.92 249.92 70.96C250.93 71.92 251.47 73.41 251.39 75.03C251.31 76.93 250.38 78.75 249.01 79.8C246.51 81.7 242.41 82.77 240.2 83.25C237.55 83.78 236.18 84.14 235.47 84.38C236.12 84.46 236.94 84.54 237.69 84.61L237.98 84.64C239.72 84.82 241.91 85.05 243.24 85.3C245.95 85.83 249.24 86.8 250.73 89.43C252.35 92.31 251.99 95.19 249.82 96.82C247.91 98.23 245.4 98.47 242.84 97.52C242.92 99.52 242.56 101.24 241.84 102.18C241.18 103.04 239.76 104.5 237.69 104.56H237.65ZM232 87.02C232 87.02 232.11 87.02 232.15 87.04C232.34 87.11 232.44 87.32 232.4 87.51L232.07 89.08C232.03 89.3 231.97 89.53 231.93 89.76L231.78 90.47C231.72 90.7 231.67 90.93 231.61 91.18C231.1 93.38 230.47 96.14 231.65 99.5C232.66 102.3 234.64 103.73 237.56 103.73H237.6C239.41 103.69 240.63 102.42 241.19 101.68C241.87 100.8 242.17 98.99 241.99 96.93C241.99 96.78 242.04 96.64 242.15 96.56C242.28 96.47 242.43 96.46 242.56 96.51C245.05 97.63 247.53 97.5 249.34 96.16C251.15 94.81 251.43 92.32 250.03 89.85C248.71 87.51 245.64 86.63 243.1 86.12C241.81 85.87 239.65 85.65 237.92 85.46L237.63 85.43C235.84 85.26 234.64 85.12 234.24 84.99C234.11 84.95 234.02 84.86 233.98 84.72C233.94 84.6 233.96 84.46 234.04 84.35C234.11 84.25 234.22 84.16 234.4 84C234.87 83.62 236.55 83.15 239.98 82.45C241.8 82.07 246.08 80.99 248.56 79.14C249.74 78.23 250.52 76.64 250.6 74.99C250.67 73.6 250.22 72.35 249.38 71.55C247.4 69.68 244.93 70.27 242.56 71.19C242.43 71.25 242.28 71.22 242.17 71.14C242.06 71.06 241.99 70.92 242 70.77C242.21 68.24 240.28 65.93 238.85 65.46C237.4 64.97 234.42 64.97 232.47 68.17C230.47 71.45 231.41 76.11 231.9 77.97C232.41 79.83 232.88 82.6 232.69 83.23C232.64 83.36 232.55 83.47 232.42 83.51C232.3 83.55 232.16 83.54 232.05 83.47C231.41 83.03 231.26 82.71 230.03 80.16L229.91 79.88C228.92 77.82 226.71 74.15 223.22 73.09C220.48 72.27 218.3 73.05 216.69 75.41C215.36 77.42 215.71 79.56 217.68 81.31C217.8 81.42 217.84 81.59 217.8 81.74C217.75 81.89 217.62 82 217.46 82.03C215.47 82.25 212.76 82.91 212.37 85.94C211.95 89.27 213.32 90.67 217.62 91.32C218.01 91.37 218.39 91.39 218.69 91.39C222.16 91.29 226.03 88.64 228.34 87.04C228.92 86.64 229.34 86.34 229.66 86.16C230.44 85.7 231.06 85.39 231.53 85.24C231.69 85.19 231.89 85.24 231.98 85.39C232.08 85.54 232.09 85.72 231.98 85.87C230.58 87.94 227.85 91.73 225.14 93.96C221.75 96.79 217.5 98.33 216.63 98.62C216.63 98.8 216.69 99.14 216.96 99.66C217.18 100.06 217.44 100.36 217.72 100.51C218.5 100.1 223.19 97.45 226.25 94.36C228.05 92.53 229.85 90.14 231.64 87.22C231.72 87.1 231.85 87.03 232 87.03V87.02ZM106.46 90.25H99.22C98.64 90.25 98.11 89.97 97.78 89.52C97.43 89.05 97.35 88.46 97.53 87.91L101.16 76.75C101.39 76 102.08 75.51 102.86 75.51C103.64 75.51 104.31 76 104.55 76.73L108.17 87.89C108.34 88.46 108.25 89.04 107.92 89.5C107.59 89.96 107.04 90.23 106.48 90.23L106.46 90.25ZM102.85 76.33C102.42 76.33 102.06 76.6 101.94 76.99L98.31 88.16C98.22 88.46 98.26 88.77 98.45 89.02C98.63 89.27 98.92 89.42 99.23 89.42H106.48C106.79 89.42 107.07 89.28 107.26 89.02C107.44 88.77 107.49 88.46 107.4 88.16L103.78 76.99C103.64 76.6 103.27 76.33 102.86 76.33H102.85Z" fill="#F9D96C"/><path d="M171.57 26.69L169.33 14.77L175.28 25.34L187.2 23.1L176.63 29.04L178.87 40.97L172.92 30.39L161 32.63L171.57 26.69Z" fill="#FFF99E"/><path d="M10.57 65.69L8.33 53.77L14.28 64.34L26.2 62.1L15.63 68.04L17.87 79.97L11.92 69.39L0 71.63L10.57 65.69Z" fill="#FFF99E"/></svg> 