<svg width="150" height="23" viewBox="0 0 150 23" fill="none" xmlns="http://www.w3.org/2000/svg">
<path d="M147.29 17.7292C146.589 17.754 145.924 18.0476 145.437 18.5482C144.949 19.0487 144.677 19.7171 144.677 20.4125C144.677 21.85 145.839 23 147.29 23C148.742 23 150 21.85 150 20.4125C150 18.975 148.839 17.7292 147.29 17.7292ZM149.613 20.4125C149.613 21.6583 148.645 22.7125 147.29 22.7125C145.935 22.7125 144.968 21.7542 144.968 20.4125C144.968 19.1667 145.935 18.0167 147.29 18.0167C148.645 18.0167 149.613 19.0708 149.613 20.4125Z" fill="#FFD74A"/>
<path d="M148.645 19.9333C148.645 19.6458 148.645 19.3583 148.452 19.2625C148.258 19.0708 147.968 18.975 147.484 18.975H146.129V21.6583H146.903V20.8917H147.29L147.871 21.6583H148.839L148.065 20.7C148.452 20.6042 148.645 20.3167 148.645 19.9333ZM147.871 19.9333C147.871 20.125 147.774 20.2208 147.484 20.2208H146.903V19.55H147.484C147.677 19.55 147.871 19.7417 147.871 19.9333ZM44.7097 0.383333L37.3548 13.1292L34.6452 17.5375L41.6129 17.25L39.6774 22.6167H25.1613L31.6452 11.3083C32.8064 9.39167 34.0645 7.475 35.5161 5.55833H30.1935L32.129 0.383333H44.7097ZM53.0323 22.6167L52.9355 19.7417H48.871L47.9032 22.6167H41.7097L49.9355 0.383333H57.2903L59.2258 22.6167H53.0323ZM52.7419 9.58333L52.8387 5.75L52.0645 8.81667L50.2258 15.0458H52.8387L52.7419 12.4583V9.58333ZM76.8387 22.6167H71.0323L69.0968 14.4708C68.6129 12.9375 68.3226 11.4042 68.129 9.775L67.7419 13.4167C67.5484 16.5792 67.0645 19.6458 66.7742 22.7125H60.9677L63.871 0.383333H69.6774L71.6129 8.14583C72.1935 10.0625 72.4839 11.9792 72.871 13.8C72.871 10.925 72.871 8.14583 73.1613 5.36667L73.8387 0.383333H79.6452L76.7419 22.6167H76.8387ZM91.9355 7.95417C91.3548 6.70833 90.1935 5.4625 88.7419 5.4625C87.9677 5.4625 86.9032 6.13333 86.9032 6.99583C86.9032 8.9125 91.7419 9.87083 91.7419 14.375C91.7419 18.975 88.2581 23 83.4193 23C81.9677 23 80.5161 22.6167 79.0645 22.0417L80.0322 15.0458C80.8064 16.3875 81.9677 17.5375 83.5161 17.5375C84.4839 17.5375 85.4516 16.8667 85.4516 15.8125C85.4516 13.8958 80.8064 12.9375 80.8064 8.14583C80.8064 4.025 84.2903 0 88.5484 0C90.0968 0 91.5484 0.383333 92.8064 1.15L92.0323 7.85833L91.9355 7.95417ZM98.9032 22.6167H92.8064L95.8064 0.383333H101.806L98.9032 22.6167ZM111.581 0.383333C115.355 0.383333 118.548 1.62917 118.548 5.84583C118.548 8.81667 116.903 10.925 113.71 11.2125C116.419 11.5958 117.774 12.7458 117.774 15.4292C117.774 19.6458 114.387 22.6167 110.226 22.6167H101.613L104.516 0.383333H111.581ZM108.387 17.7292H108.871C110.419 17.7292 111.677 16.8667 111.677 15.3333C111.677 13.9917 110.613 13.5125 109.355 13.5125H108.871L108.387 17.7292ZM109.452 9.10417H109.839C111.29 9.10417 112.548 8.3375 112.548 6.9C112.548 5.65417 111.677 5.175 110.613 5.175H109.935L109.452 9.00833V9.10417ZM132.484 5.65417H127.258L126.871 8.81667H131.516L130.935 13.8958H126.29L125.806 17.25H131.032L130.355 22.6167H119.032L121.935 0.383333H133.161L132.484 5.65417ZM144 5.75L141.871 22.6167H135.774L137.903 5.75H134.516L135.29 0.383333H147.968L147.29 5.75H144ZM23.6129 22.6167H17.4194L18.5806 8.43333C17.4194 13.225 15.871 17.9208 14.3226 22.6167H9.29032L8.90322 11.8833V8.43333C8.22581 13.225 7.35484 17.9208 6.48387 22.6167H0L5.41935 0.383333H12.9677L13.2581 7.85833V12.1708C14.2258 8.14583 15.4839 4.3125 16.7419 0.383333H25.3548L22.4516 12.1708H26.7097L23.6129 22.6167Z" fill="#FFD74A"/>
</svg>
