<svg width="251" height="93" viewBox="0 0 251 93" fill="none" xmlns="http://www.w3.org/2000/svg"><path d="M17.53 26.86C17.9 26.79 21.16 26.7 21.5 26.6C22.75 26.24 23.79 25.74 24.62 25.1C25.42 24.51 26.06 23.74 26.49 22.85C26.9 21.98 27.11 21.05 27.11 20.05C27.11 19.04 26.93 18.12 26.57 17.29C26.22 16.47 25.7 15.73 25.05 15.12C24.38 14.5 23.59 14.02 22.72 13.71C21.99 13.44 21.22 13.28 20.44 13.23C19.93 13.19 19.41 13.19 18.91 13.23H11.35L11.27 38.05C11.27 38.82 11.29 39.45 11.31 39.93C11.34 40.41 11.41 40.8 11.52 41.1C11.6 41.37 11.75 41.62 11.95 41.82C12.17 42.03 12.42 42.2 12.69 42.33C13.39 42.69 14.16 42.88 15.01 42.88H16.27V43.77H1.44V42.88H2.68C4.12 42.88 5.15 42.49 5.79 41.72C6.2 41.18 6.41 39.96 6.41 38.06V17.14C6.41 16.39 6.39 15.78 6.37 15.3C6.35 14.9 6.28 14.5 6.16 14.12C6.08 13.84 5.93 13.59 5.73 13.38C5.52 13.18 5.28 13.01 5.02 12.87C4.29 12.5 3.49 12.3 2.67 12.3H1.44V11.43H18.44C20.31 11.43 21.9 11.49 23.21 11.59C24.35 11.67 25.49 11.86 26.6 12.16C27.56 12.42 28.38 12.79 29.07 13.24C29.76 13.69 30.42 14.26 31.03 14.95C32.25 16.32 32.86 17.92 32.86 19.74C32.86 21.75 32.17 23.47 30.77 24.94C29.38 26.41 27.24 27.43 24.33 28.03H17.52V26.86H17.53Z" fill="#D7AC63"/><path d="M16.27 42.88H15.01V42.14H16.27C16.68 42.14 17.01 42.47 17.01 42.88V43.77C17.01 44.18 16.68 44.51 16.27 44.51H1.44C1.04 44.51 0.71 44.18 0.71 43.77V42.88C0.71 42.47 1.04 42.14 1.44 42.14H2.68V42.88H1.44V43.77H16.27V42.88ZM5.67 38.06V17.14C5.67 16.41 5.66 15.8 5.63 15.34L5.63 15.32C5.62 14.99 5.56 14.66 5.46 14.34L5.46 14.33C5.41 14.17 5.32 14.02 5.21 13.9C5.05 13.75 4.88 13.63 4.68 13.53L4.68 13.53C4.21 13.29 3.71 13.13 3.19 13.07L2.67 13.04H1.44C1.03 13.04 0.7 12.71 0.7 12.3V11.43C0.7 11.03 1.03 10.7 1.44 10.7H18.44V11.43H1.44V12.3H2.67C3.49 12.3 4.29 12.5 5.02 12.87C5.28 13 5.52 13.18 5.73 13.38C5.93 13.59 6.08 13.84 6.16 14.12C6.28 14.5 6.35 14.9 6.36 15.3C6.39 15.78 6.41 16.39 6.41 17.14V38.06L6.4 38.74C6.35 40.26 6.15 41.25 5.79 41.72C5.23 42.4 4.37 42.78 3.2 42.86L2.68 42.88V42.14C3.99 42.14 4.76 41.79 5.21 41.27C5.3 41.13 5.43 40.84 5.53 40.28C5.62 39.73 5.67 38.99 5.67 38.06ZM32.86 19.74C32.86 18.14 32.39 16.72 31.46 15.48L31.03 14.95C30.42 14.26 29.76 13.69 29.07 13.24C28.38 12.79 27.56 12.42 26.6 12.15C25.77 11.93 24.92 11.77 24.07 11.67L23.21 11.59C21.9 11.49 20.31 11.43 18.44 11.43V10.7C20.32 10.7 21.93 10.75 23.27 10.86L23.26 10.86C24.16 10.92 25.04 11.04 25.92 11.23L26.79 11.44L26.8 11.45C27.56 11.66 28.26 11.93 28.88 12.27L29.48 12.62L29.48 12.62C30.22 13.11 30.93 13.72 31.58 14.46L32.05 15.04C33.08 16.41 33.59 17.99 33.59 19.74C33.59 21.94 32.83 23.84 31.31 25.45C29.78 27.06 27.47 28.14 24.48 28.75C24.43 28.76 24.38 28.76 24.33 28.76H17.52C17.11 28.76 16.78 28.43 16.78 28.03V26.86C16.78 26.49 17.06 26.18 17.43 26.13C17.6 26.11 17.91 26.09 18.21 26.07C18.58 26.05 19.04 26.03 19.49 26.01C19.94 25.99 20.39 25.96 20.74 25.94C20.92 25.93 21.06 25.92 21.17 25.91C21.31 25.89 21.33 25.89 21.29 25.9L21.3 25.89C22.47 25.55 23.43 25.09 24.17 24.52L24.18 24.51C24.79 24.06 25.3 23.48 25.67 22.82L25.82 22.53C26.19 21.76 26.37 20.94 26.37 20.05C26.37 19.13 26.21 18.31 25.89 17.58L25.89 17.58C25.58 16.85 25.13 16.2 24.55 15.66L24.08 15.27C23.59 14.9 23.05 14.61 22.47 14.4H22.47C21.8 14.16 21.1 14.01 20.39 13.96H20.39C19.91 13.93 19.43 13.93 18.95 13.96C18.94 13.96 18.92 13.96 18.91 13.96H12.08L12.01 38.06C12.01 38.81 12.02 39.43 12.05 39.89L12.11 40.46L12.21 40.86L12.22 40.88H12.22C12.27 41.04 12.36 41.18 12.47 41.3C12.55 41.37 12.63 41.44 12.72 41.5L13.01 41.66L13.03 41.68C13.62 41.98 14.28 42.14 15.01 42.14V42.88L14.39 42.84C13.98 42.8 13.6 42.71 13.23 42.57L12.69 42.33C12.42 42.2 12.17 42.03 11.95 41.82C11.75 41.62 11.6 41.37 11.52 41.1C11.41 40.8 11.34 40.41 11.31 39.93C11.3 39.69 11.29 39.42 11.28 39.1L11.27 38.05L11.35 13.23H18.91L19.67 13.2C19.92 13.2 20.18 13.21 20.43 13.23C21.22 13.28 21.99 13.44 22.72 13.7C23.59 14.02 24.38 14.5 25.05 15.12C25.7 15.73 26.22 16.47 26.57 17.29C26.93 18.12 27.11 19.04 27.11 20.05C27.11 21.04 26.9 21.98 26.49 22.85L26.32 23.18C25.89 23.93 25.32 24.59 24.62 25.1L24.3 25.34C23.52 25.86 22.59 26.29 21.5 26.6C21.25 26.68 19.35 26.75 18.26 26.81L17.53 26.86H17.52V28.03H24.33L25.39 27.78C27.59 27.21 29.3 26.36 30.51 25.21L30.77 24.94C32.17 23.47 32.86 21.75 32.86 19.74Z" fill="#D7AC63"/><path d="M17.53 26.86C17.9 26.79 21.16 26.7 21.5 26.6C22.75 26.24 23.79 25.74 24.62 25.1C25.42 24.51 26.06 23.74 26.49 22.85C26.9 21.98 27.11 21.05 27.11 20.05C27.11 19.04 26.93 18.12 26.57 17.29C26.22 16.47 25.7 15.73 25.05 15.12C24.38 14.5 23.59 14.02 22.72 13.71C21.99 13.44 21.22 13.28 20.44 13.23C19.93 13.19 19.41 13.19 18.91 13.23H11.35L11.27 38.05C11.27 38.82 11.29 39.45 11.31 39.93C11.34 40.41 11.41 40.8 11.52 41.1C11.6 41.37 11.75 41.62 11.95 41.82C12.17 42.03 12.42 42.2 12.69 42.33C13.39 42.69 14.16 42.88 15.01 42.88H16.27V43.77H1.44V42.88H2.68C4.12 42.88 5.15 42.49 5.79 41.72C6.2 41.18 6.41 39.96 6.41 38.06V17.14C6.41 16.39 6.39 15.78 6.37 15.3C6.35 14.9 6.28 14.5 6.16 14.12C6.08 13.84 5.93 13.59 5.73 13.38C5.52 13.18 5.28 13.01 5.02 12.87C4.29 12.5 3.49 12.3 2.67 12.3H1.44V11.43H18.44C20.31 11.43 21.9 11.49 23.21 11.59C24.35 11.67 25.49 11.86 26.6 12.16C27.56 12.42 28.38 12.79 29.07 13.24C29.76 13.69 30.42 14.26 31.03 14.95C32.25 16.32 32.86 17.92 32.86 19.74C32.86 21.75 32.17 23.47 30.77 24.94C29.38 26.41 27.24 27.43 24.33 28.03H17.52V26.86H17.53Z" fill="#D7AC63"/><path d="M16.27 42.88H15.01V42.14H16.27C16.68 42.14 17.01 42.47 17.01 42.88V43.77C17.01 44.18 16.68 44.51 16.27 44.51H1.44C1.04 44.51 0.71 44.18 0.71 43.77V42.88C0.71 42.47 1.04 42.14 1.44 42.14H2.68V42.88H1.44V43.77H16.27V42.88ZM5.67 38.06V17.14C5.67 16.41 5.66 15.8 5.63 15.34L5.63 15.32C5.62 14.99 5.56 14.66 5.46 14.34L5.46 14.33C5.41 14.17 5.32 14.02 5.21 13.9C5.05 13.75 4.88 13.63 4.68 13.53L4.68 13.53C4.21 13.29 3.71 13.13 3.19 13.07L2.67 13.04H1.44C1.03 13.04 0.7 12.71 0.7 12.3V11.43C0.7 11.03 1.03 10.7 1.44 10.7H18.44V11.43H1.44V12.3H2.67C3.49 12.3 4.29 12.5 5.02 12.87C5.28 13 5.52 13.18 5.73 13.38C5.93 13.59 6.08 13.84 6.16 14.12C6.28 14.5 6.35 14.9 6.36 15.3C6.39 15.78 6.41 16.39 6.41 17.14V38.06L6.4 38.74C6.35 40.26 6.15 41.25 5.79 41.72C5.23 42.4 4.37 42.78 3.2 42.86L2.68 42.88V42.14C3.99 42.14 4.76 41.79 5.21 41.27C5.3 41.13 5.43 40.84 5.53 40.28C5.62 39.73 5.67 38.99 5.67 38.06ZM32.86 19.74C32.86 18.14 32.39 16.72 31.46 15.48L31.03 14.95C30.42 14.26 29.76 13.69 29.07 13.24C28.38 12.79 27.56 12.42 26.6 12.15C25.77 11.93 24.92 11.77 24.07 11.67L23.21 11.59C21.9 11.49 20.31 11.43 18.44 11.43V10.7C20.32 10.7 21.93 10.75 23.27 10.86L23.26 10.86C24.16 10.92 25.04 11.04 25.92 11.23L26.79 11.44L26.8 11.45C27.56 11.66 28.26 11.93 28.88 12.27L29.48 12.62L29.48 12.62C30.22 13.11 30.93 13.72 31.58 14.46L32.05 15.04C33.08 16.41 33.59 17.99 33.59 19.74C33.59 21.94 32.83 23.84 31.31 25.45C29.78 27.06 27.47 28.14 24.48 28.75C24.43 28.76 24.38 28.76 24.33 28.76H17.52C17.11 28.76 16.78 28.43 16.78 28.03V26.86C16.78 26.49 17.06 26.18 17.43 26.13C17.6 26.11 17.91 26.09 18.21 26.07C18.58 26.05 19.04 26.03 19.49 26.01C19.94 25.99 20.39 25.96 20.74 25.94C20.92 25.93 21.06 25.92 21.17 25.91C21.31 25.89 21.33 25.89 21.29 25.9L21.3 25.89C22.47 25.55 23.43 25.09 24.17 24.52L24.18 24.51C24.79 24.06 25.3 23.48 25.67 22.82L25.82 22.53C26.19 21.76 26.37 20.94 26.37 20.05C26.37 19.13 26.21 18.31 25.89 17.58L25.89 17.58C25.58 16.85 25.13 16.2 24.55 15.66L24.08 15.27C23.59 14.9 23.05 14.61 22.47 14.4H22.47C21.8 14.16 21.1 14.01 20.39 13.96H20.39C19.91 13.93 19.43 13.93 18.95 13.96C18.94 13.96 18.92 13.96 18.91 13.96H12.08L12.01 38.06C12.01 38.81 12.02 39.43 12.05 39.89L12.11 40.46L12.21 40.86L12.22 40.88H12.22C12.27 41.04 12.36 41.18 12.47 41.3C12.55 41.37 12.63 41.44 12.72 41.5L13.01 41.66L13.03 41.68C13.62 41.98 14.28 42.14 15.01 42.14V42.88L14.39 42.84C13.98 42.8 13.6 42.71 13.23 42.57L12.69 42.33C12.42 42.2 12.17 42.03 11.95 41.82C11.75 41.62 11.6 41.37 11.52 41.1C11.41 40.8 11.34 40.41 11.31 39.93C11.3 39.69 11.29 39.42 11.28 39.1L11.27 38.05L11.35 13.23H18.91L19.67 13.2C19.92 13.2 20.18 13.21 20.43 13.23C21.22 13.28 21.99 13.44 22.72 13.7C23.59 14.02 24.38 14.5 25.05 15.12C25.7 15.73 26.22 16.47 26.57 17.29C26.93 18.12 27.11 19.04 27.11 20.05C27.11 21.04 26.9 21.98 26.49 22.85L26.32 23.18C25.89 23.93 25.32 24.59 24.62 25.1L24.3 25.34C23.52 25.86 22.59 26.29 21.5 26.6C21.25 26.68 19.35 26.75 18.26 26.81L17.53 26.86H17.52V28.03H24.33L25.39 27.78C27.59 27.21 29.3 26.36 30.51 25.21L30.77 24.94C32.17 23.47 32.86 21.75 32.86 19.74Z" fill="#D7AC63"/><path fill-rule="evenodd" clip-rule="evenodd" d="M46.7 18.69L37.53 38.19C36.96 39.38 36.67 40.29 36.67 40.93C36.67 41.44 36.92 41.87 37.42 42.23C37.91 42.6 38.99 42.83 40.65 42.9V43.78H29.76V42.9C31.22 42.67 32.16 42.38 32.57 42C33.43 41.25 34.4 39.74 35.47 37.46L47.63 11.43H48.52L60.55 37.74C61.52 39.81 62.41 41.18 63.21 41.86C63.97 42.46 65.07 42.81 66.51 42.9V43.78H52.87V42.9C53.55 42.88 54.11 42.82 54.56 42.71C55.01 42.6 55.38 42.46 55.64 42.28C55.88 42.15 56.08 41.95 56.21 41.71C56.33 41.48 56.38 41.24 56.38 40.99C56.38 40.29 56.04 39.21 55.37 37.74L46.69 18.7L46.7 18.69Z" fill="#D7AC63"/><path d="M48.73 10.72C48.93 10.78 49.1 10.92 49.19 11.12L61.22 37.43L61.58 38.16C62.38 39.77 63.09 40.78 63.67 41.28C64.27 41.76 65.2 42.08 66.56 42.17C66.94 42.2 67.24 42.52 67.24 42.9V43.78C67.24 44.19 66.91 44.52 66.51 44.52H52.87C52.46 44.52 52.13 44.19 52.13 43.78V42.9C52.13 42.5 52.45 42.18 52.85 42.17C53.5 42.15 54.01 42.09 54.38 41.99L54.39 41.99C54.79 41.89 55.07 41.78 55.25 41.66L55.27 41.65C55.39 41.58 55.49 41.48 55.56 41.36C55.62 41.24 55.65 41.12 55.64 41V40.99C55.64 40.47 55.37 39.52 54.7 38.05V38.05L46.68 20.45L38.2 38.51L38.2 38.51C37.63 39.69 37.41 40.47 37.41 40.93C37.41 41.09 37.46 41.26 37.63 41.44L37.85 41.63L37.86 41.64L37.98 41.71C38.13 41.79 38.37 41.88 38.75 41.96C39.23 42.06 39.88 42.13 40.69 42.17C41.08 42.19 41.39 42.51 41.39 42.9V43.78C41.39 44.19 41.06 44.52 40.65 44.52H29.76C29.35 44.52 29.02 44.19 29.02 43.78V42.9C29.02 42.54 29.28 42.23 29.64 42.18C30.35 42.06 30.91 41.94 31.33 41.81C31.77 41.67 31.98 41.54 32.07 41.46L32.09 41.45C32.82 40.8 33.73 39.42 34.8 37.15L46.96 11.12L47.07 10.94C47.21 10.78 47.41 10.69 47.63 10.69H48.52L48.73 10.72ZM47.63 11.43L35.47 37.46C34.4 39.74 33.43 41.25 32.57 42C32.16 42.38 31.22 42.67 29.76 42.9V43.78H40.65V42.9C38.99 42.82 37.91 42.6 37.42 42.23C36.92 41.87 36.67 41.44 36.67 40.93C36.67 40.29 36.96 39.38 37.53 38.19L46.69 18.7L55.37 37.74C56.04 39.21 56.38 40.29 56.38 40.99C56.38 41.24 56.33 41.49 56.21 41.71C56.08 41.95 55.88 42.15 55.64 42.28C55.38 42.45 55.02 42.6 54.56 42.71C54.12 42.82 53.55 42.88 52.87 42.9V43.78H66.51V42.9C65.07 42.8 63.97 42.46 63.21 41.86C62.41 41.18 61.52 39.81 60.55 37.74L48.52 11.43H47.63Z" fill="#D7AC63"/><path fill-rule="evenodd" clip-rule="evenodd" d="M46.7 18.69L37.53 38.19C36.96 39.38 36.67 40.29 36.67 40.93C36.67 41.44 36.92 41.87 37.42 42.23C37.91 42.6 38.99 42.83 40.65 42.9V43.78H29.76V42.9C31.22 42.67 32.16 42.38 32.57 42C33.43 41.25 34.4 39.74 35.47 37.46L47.63 11.43H48.52L60.55 37.74C61.52 39.81 62.41 41.18 63.21 41.86C63.97 42.46 65.07 42.81 66.51 42.9V43.78H52.87V42.9C53.55 42.88 54.11 42.82 54.56 42.71C55.01 42.6 55.38 42.46 55.64 42.28C55.88 42.15 56.08 41.95 56.21 41.71C56.33 41.48 56.38 41.24 56.38 40.99C56.38 40.29 56.04 39.21 55.37 37.74L46.69 18.7L46.7 18.69Z" fill="#D7AC63"/><path d="M48.73 10.72C48.93 10.78 49.1 10.92 49.19 11.12L61.22 37.43L61.58 38.16C62.38 39.77 63.09 40.78 63.67 41.28C64.27 41.76 65.2 42.08 66.56 42.17C66.94 42.2 67.24 42.52 67.24 42.9V43.78C67.24 44.19 66.91 44.52 66.51 44.52H52.87C52.46 44.52 52.13 44.19 52.13 43.78V42.9C52.13 42.5 52.45 42.18 52.85 42.17C53.5 42.15 54.01 42.09 54.38 41.99L54.39 41.99C54.79 41.89 55.07 41.78 55.25 41.66L55.27 41.65C55.39 41.58 55.49 41.48 55.56 41.36C55.62 41.24 55.65 41.12 55.64 41V40.99C55.64 40.47 55.37 39.52 54.7 38.05V38.05L46.68 20.45L38.2 38.51L38.2 38.51C37.63 39.69 37.41 40.47 37.41 40.93C37.41 41.09 37.46 41.26 37.63 41.44L37.85 41.63L37.86 41.64L37.98 41.71C38.13 41.79 38.37 41.88 38.75 41.96C39.23 42.06 39.88 42.13 40.69 42.17C41.08 42.19 41.39 42.51 41.39 42.9V43.78C41.39 44.19 41.06 44.52 40.65 44.52H29.76C29.35 44.52 29.02 44.19 29.02 43.78V42.9C29.02 42.54 29.28 42.23 29.64 42.18C30.35 42.06 30.91 41.94 31.33 41.81C31.77 41.67 31.98 41.54 32.07 41.46L32.09 41.45C32.82 40.8 33.73 39.42 34.8 37.15L46.96 11.12L47.07 10.94C47.21 10.78 47.41 10.69 47.63 10.69H48.52L48.73 10.72ZM47.63 11.43L35.47 37.46C34.4 39.74 33.43 41.25 32.57 42C32.16 42.38 31.22 42.67 29.76 42.9V43.78H40.65V42.9C38.99 42.82 37.91 42.6 37.42 42.23C36.92 41.87 36.67 41.44 36.67 40.93C36.67 40.29 36.96 39.38 37.53 38.19L46.69 18.7L55.37 37.74C56.04 39.21 56.38 40.29 56.38 40.99C56.38 41.24 56.33 41.49 56.21 41.71C56.08 41.95 55.88 42.15 55.64 42.28C55.38 42.45 55.02 42.6 54.56 42.71C54.12 42.82 53.55 42.88 52.87 42.9V43.78H66.51V42.9C65.07 42.8 63.97 42.46 63.21 41.86C62.41 41.18 61.52 39.81 60.55 37.74L48.52 11.43H47.63Z" fill="#D7AC63"/><path fill-rule="evenodd" clip-rule="evenodd" d="M69.55 11.43H78.93L100.1 35.67V17.02C100.1 15.06 99.85 13.82 99.36 13.3C98.7 12.63 97.71 12.29 96.39 12.29H95.19V11.43H102.31V44.26H101.41L78.61 18.23V38.16C78.61 40.13 78.85 41.37 79.32 41.87C79.95 42.53 80.94 42.85 82.28 42.85H83.52V43.75H71.46V42.85H72.66C74.12 42.85 75.16 42.44 75.78 41.61C76.15 41.13 76.33 39.98 76.33 38.15V15.66C75.92 15.19 75.49 14.74 75.04 14.3C74.73 14 74.41 13.72 74.06 13.48C73.75 13.27 73.42 13.09 73.07 12.95C72.64 12.79 72.21 12.65 71.78 12.52C71.05 12.35 70.3 12.27 69.55 12.29V11.43L69.55 11.43Z" fill="#D7AC63"/><path d="M102.31 10.69C102.71 10.69 103.04 11.02 103.04 11.43V44.26C103.04 44.66 102.71 44.99 102.31 44.99H101.41C101.2 44.99 101 44.9 100.86 44.74L79.35 20.19V38.16C79.35 39.12 79.41 39.88 79.51 40.43C79.62 41 79.76 41.26 79.85 41.36L80.03 41.52C80.49 41.89 81.2 42.11 82.28 42.11H83.52C83.92 42.11 84.25 42.45 84.25 42.85V43.75C84.25 44.15 83.92 44.48 83.52 44.48H71.46C71.05 44.48 70.72 44.15 70.72 43.75V42.85C70.72 42.45 71.05 42.11 71.46 42.11H72.66C73.99 42.11 74.76 41.74 75.18 41.17L75.2 41.16L75.25 41.06C75.32 40.92 75.4 40.68 75.47 40.27C75.55 39.75 75.6 39.04 75.6 38.15V15.95C75.25 15.56 74.89 15.19 74.52 14.83L74.52 14.82C74.25 14.55 73.95 14.31 73.64 14.09L73.23 13.84C73.09 13.77 72.95 13.7 72.8 13.64V13.64C72.41 13.49 72.01 13.36 71.6 13.24L71.1 13.14C70.6 13.05 70.09 13.02 69.58 13.03C69.38 13.04 69.18 12.96 69.04 12.82C68.9 12.68 68.82 12.49 68.82 12.29V11.48C68.81 11.35 68.83 11.22 68.89 11.1L68.9 11.1C69.04 10.82 69.34 10.66 69.65 10.7H78.93L79.09 10.72C79.24 10.75 79.38 10.83 79.49 10.95L99.36 33.71V17.02C99.36 16.07 99.3 15.32 99.19 14.77C99.08 14.19 98.92 13.92 98.82 13.81V13.81C98.35 13.33 97.58 13.03 96.39 13.03H95.19C94.78 13.03 94.45 12.7 94.45 12.29V11.43C94.45 11.02 94.78 10.69 95.19 10.69H102.31ZM95.19 11.43V12.29H96.39C97.71 12.29 98.7 12.63 99.36 13.3C99.85 13.82 100.1 15.06 100.1 17.02V35.67L78.93 11.44H69.55V11.43L69.55 11.44H69.55V12.29C70.3 12.27 71.05 12.35 71.78 12.52C72.21 12.65 72.64 12.79 73.07 12.95C73.42 13.09 73.75 13.27 74.06 13.48C74.41 13.72 74.74 14 75.04 14.3C75.49 14.74 75.92 15.19 76.33 15.66V38.15C76.33 39.98 76.15 41.13 75.78 41.61C75.16 42.44 74.12 42.85 72.66 42.85H71.46V43.75H83.52V42.85H82.28C80.94 42.85 79.95 42.53 79.32 41.87C78.85 41.37 78.61 40.13 78.61 38.16V18.23L101.41 44.26H102.31V11.43H95.19Z" fill="#D7AC63"/><path fill-rule="evenodd" clip-rule="evenodd" d="M69.55 11.43H78.93L100.1 35.67V17.02C100.1 15.06 99.85 13.82 99.36 13.3C98.7 12.63 97.71 12.29 96.39 12.29H95.19V11.43H102.31V44.26H101.41L78.61 18.23V38.16C78.61 40.13 78.85 41.37 79.32 41.87C79.95 42.53 80.94 42.85 82.28 42.85H83.52V43.75H71.46V42.85H72.66C74.12 42.85 75.16 42.44 75.78 41.61C76.15 41.13 76.33 39.98 76.33 38.15V15.66C75.92 15.19 75.49 14.74 75.04 14.3C74.73 14 74.41 13.72 74.06 13.48C73.75 13.27 73.42 13.09 73.07 12.95C72.64 12.79 72.21 12.65 71.78 12.52C71.05 12.35 70.3 12.27 69.55 12.29V11.43L69.55 11.43Z" fill="#D7AC63"/><path d="M102.31 10.69C102.71 10.69 103.04 11.02 103.04 11.43V44.26C103.04 44.66 102.71 44.99 102.31 44.99H101.41C101.2 44.99 101 44.9 100.86 44.74L79.35 20.19V38.16C79.35 39.12 79.41 39.88 79.51 40.43C79.62 41 79.76 41.26 79.85 41.36L80.03 41.52C80.49 41.89 81.2 42.11 82.28 42.11H83.52C83.92 42.11 84.25 42.45 84.25 42.85V43.75C84.25 44.15 83.92 44.48 83.52 44.48H71.46C71.05 44.48 70.72 44.15 70.72 43.75V42.85C70.72 42.45 71.05 42.11 71.46 42.11H72.66C73.99 42.11 74.76 41.74 75.18 41.17L75.2 41.16L75.25 41.06C75.32 40.92 75.4 40.68 75.47 40.27C75.55 39.75 75.6 39.04 75.6 38.15V15.95C75.25 15.56 74.89 15.19 74.52 14.83L74.52 14.82C74.25 14.55 73.95 14.31 73.64 14.09L73.23 13.84C73.09 13.77 72.95 13.7 72.8 13.64V13.64C72.41 13.49 72.01 13.36 71.6 13.24L71.1 13.14C70.6 13.05 70.09 13.02 69.58 13.03C69.38 13.04 69.18 12.96 69.04 12.82C68.9 12.68 68.82 12.49 68.82 12.29V11.48C68.81 11.35 68.83 11.22 68.89 11.1L68.9 11.1C69.04 10.82 69.34 10.66 69.65 10.7H78.93L79.09 10.72C79.24 10.75 79.38 10.83 79.49 10.95L99.36 33.71V17.02C99.36 16.07 99.3 15.32 99.19 14.77C99.08 14.19 98.92 13.92 98.82 13.81V13.81C98.35 13.33 97.58 13.03 96.39 13.03H95.19C94.78 13.03 94.45 12.7 94.45 12.29V11.43C94.45 11.02 94.78 10.69 95.19 10.69H102.31ZM95.19 11.43V12.29H96.39C97.71 12.29 98.7 12.63 99.36 13.3C99.85 13.82 100.1 15.06 100.1 17.02V35.67L78.93 11.44H69.55V11.43L69.55 11.44H69.55V12.29C70.3 12.27 71.05 12.35 71.78 12.52C72.21 12.65 72.64 12.79 73.07 12.95C73.42 13.09 73.75 13.27 74.06 13.48C74.41 13.72 74.74 14 75.04 14.3C75.49 14.74 75.92 15.19 76.33 15.66V38.15C76.33 39.98 76.15 41.13 75.78 41.61C75.16 42.44 74.12 42.85 72.66 42.85H71.46V43.75H83.52V42.85H82.28C80.94 42.85 79.95 42.53 79.32 41.87C78.85 41.37 78.61 40.13 78.61 38.16V18.23L101.41 44.26H102.31V11.43H95.19Z" fill="#D7AC63"/><path fill-rule="evenodd" clip-rule="evenodd" d="M136.51 11.43L136.52 13.45H124.04V38.19C124.04 40.18 124.26 41.42 124.71 41.9C125.35 42.56 126.35 42.88 127.7 42.88H128.91V43.78H114.2V42.88H115.43C116.89 42.88 117.93 42.47 118.54 41.64C118.92 41.16 119.1 40.01 119.1 38.18V13.44H106.61V11.43H136.51Z" fill="#D7AC63"/><path d="M136.51 10.69C136.92 10.69 137.25 11.02 137.25 11.43L137.26 13.44C137.26 13.64 137.18 13.83 137.05 13.97C136.91 14.11 136.72 14.18 136.52 14.18H124.77V38.18C124.77 39.16 124.83 39.92 124.93 40.48C125.04 41.06 125.17 41.31 125.25 41.4C125.69 41.85 126.46 42.15 127.7 42.15H128.91C129.31 42.15 129.64 42.48 129.65 42.88V43.78C129.65 44.19 129.31 44.52 128.91 44.52H114.2C113.79 44.52 113.46 44.19 113.46 43.78V42.88C113.46 42.48 113.79 42.15 114.2 42.15H115.43C116.76 42.15 117.53 41.77 117.95 41.2L117.96 41.18C118.03 41.1 118.15 40.85 118.23 40.3C118.32 39.78 118.36 39.07 118.36 38.18V14.18H106.61C106.2 14.18 105.87 13.85 105.87 13.44V11.43C105.87 11.02 106.2 10.69 106.61 10.69H136.51ZM106.61 11.43V13.44H119.1V38.18C119.1 40.01 118.92 41.16 118.55 41.64C117.93 42.47 116.89 42.88 115.43 42.88H114.2V43.78H128.91V42.88H127.7C126.35 42.88 125.35 42.56 124.71 41.9C124.26 41.42 124.04 40.18 124.04 38.18V13.45H136.52L136.51 11.43H106.61Z" fill="#D7AC63"/><path fill-rule="evenodd" clip-rule="evenodd" d="M136.51 11.43L136.52 13.45H124.04V38.19C124.04 40.18 124.26 41.42 124.71 41.9C125.35 42.56 126.35 42.88 127.7 42.88H128.91V43.78H114.2V42.88H115.43C116.89 42.88 117.93 42.47 118.54 41.64C118.92 41.16 119.1 40.01 119.1 38.18V13.44H106.61V11.43H136.51Z" fill="#D7AC63"/><path d="M136.51 10.69C136.92 10.69 137.25 11.02 137.25 11.43L137.26 13.44C137.26 13.64 137.18 13.83 137.05 13.97C136.91 14.11 136.72 14.18 136.52 14.18H124.77V38.18C124.77 39.16 124.83 39.92 124.93 40.48C125.04 41.06 125.17 41.31 125.25 41.4C125.69 41.85 126.46 42.15 127.7 42.15H128.91C129.31 42.15 129.64 42.48 129.65 42.88V43.78C129.65 44.19 129.31 44.52 128.91 44.52H114.2C113.79 44.52 113.46 44.19 113.46 43.78V42.88C113.46 42.48 113.79 42.15 114.2 42.15H115.43C116.76 42.15 117.53 41.77 117.95 41.2L117.96 41.18C118.03 41.1 118.15 40.85 118.23 40.3C118.32 39.78 118.36 39.07 118.36 38.18V14.18H106.61C106.2 14.18 105.87 13.85 105.87 13.44V11.43C105.87 11.02 106.2 10.69 106.61 10.69H136.51ZM106.61 11.43V13.44H119.1V38.18C119.1 40.01 118.92 41.16 118.55 41.64C117.93 42.47 116.89 42.88 115.43 42.88H114.2V43.78H128.91V42.88H127.7C126.35 42.88 125.35 42.56 124.71 41.9C124.26 41.42 124.04 40.18 124.04 38.18V13.45H136.52L136.51 11.43H106.61Z" fill="#D7AC63"/><path d="M135.55 15.24H136.52V15.24C136.26 14.48 136.1 13.99 135.14 13.65C135.44 13.89 135.57 14.38 135.55 15.24Z" fill="#D7AC63"/><path d="M136.52 15.23C136.26 14.48 136.1 13.99 135.14 13.65C135.44 13.89 135.57 14.38 135.55 15.24H136.52V15.23ZM137.26 15.24C137.26 15.65 136.93 15.98 136.52 15.98H135.55C135.35 15.98 135.16 15.9 135.02 15.76C134.88 15.61 134.81 15.42 134.81 15.23C134.82 14.82 134.79 14.56 134.75 14.39C134.73 14.31 134.71 14.27 134.69 14.24C134.69 14.23 134.68 14.23 134.68 14.22L134.68 14.22C134.4 13.99 134.32 13.6 134.5 13.28C134.68 12.97 135.06 12.83 135.39 12.95C135.97 13.16 136.38 13.44 136.68 13.85C136.96 14.21 137.1 14.64 137.22 14.99C137.25 15.07 137.26 15.15 137.26 15.23V15.24Z" fill="#D7AC63"/><path d="M135.55 15.24H136.52V15.24C136.26 14.48 136.1 13.99 135.14 13.65C135.44 13.89 135.57 14.38 135.55 15.24Z" fill="#D7AC63"/><path d="M136.52 15.23C136.26 14.48 136.1 13.99 135.14 13.65C135.44 13.89 135.57 14.38 135.55 15.24H136.52V15.23ZM137.26 15.24C137.26 15.65 136.93 15.98 136.52 15.98H135.55C135.35 15.98 135.16 15.9 135.02 15.76C134.88 15.61 134.81 15.42 134.81 15.23C134.82 14.82 134.79 14.56 134.75 14.39C134.73 14.31 134.71 14.27 134.69 14.24C134.69 14.23 134.68 14.23 134.68 14.22L134.68 14.22C134.4 13.99 134.32 13.6 134.5 13.28C134.68 12.97 135.06 12.83 135.39 12.95C135.97 13.16 136.38 13.44 136.68 13.85C136.96 14.21 137.1 14.64 137.22 14.99C137.25 15.07 137.26 15.15 137.26 15.23V15.24Z" fill="#D7AC63"/><path d="M136.53 15.24V13.45H134.46C134.74 13.45 134.97 13.51 135.14 13.65C136.1 13.99 136.26 14.48 136.52 15.24L136.53 15.24Z" fill="#D7AC63"/><path d="M134.46 13.45C134.74 13.45 134.97 13.5 135.15 13.65C136.1 13.99 136.26 14.48 136.52 15.23L136.53 15.24V13.45H134.46ZM137.26 15.24C137.26 15.49 137.13 15.73 136.91 15.87C136.7 16 136.42 16.01 136.2 15.9L136.19 15.89C136.02 15.81 135.88 15.66 135.82 15.47C135.69 15.07 135.61 14.88 135.5 14.73C135.42 14.61 135.27 14.48 134.89 14.34C134.82 14.31 134.74 14.27 134.68 14.22C134.68 14.22 134.68 14.22 134.67 14.21C134.67 14.21 134.66 14.21 134.64 14.2C134.61 14.19 134.55 14.18 134.46 14.18C134.05 14.18 133.72 13.85 133.72 13.45C133.72 13.04 134.05 12.71 134.46 12.71H136.53C136.93 12.71 137.26 13.04 137.26 13.45V15.24Z" fill="#D7AC63"/><path d="M136.53 15.24V13.45H134.46C134.74 13.45 134.97 13.51 135.14 13.65C136.1 13.99 136.26 14.48 136.52 15.24L136.53 15.24Z" fill="#D7AC63"/><path d="M134.46 13.45C134.74 13.45 134.97 13.5 135.15 13.65C136.1 13.99 136.26 14.48 136.52 15.23L136.53 15.24V13.45H134.46ZM137.26 15.24C137.26 15.49 137.13 15.73 136.91 15.87C136.7 16 136.42 16.01 136.2 15.9L136.19 15.89C136.02 15.81 135.88 15.66 135.82 15.47C135.69 15.07 135.61 14.88 135.5 14.73C135.42 14.61 135.27 14.48 134.89 14.34C134.82 14.31 134.74 14.27 134.68 14.22C134.68 14.22 134.68 14.22 134.67 14.21C134.67 14.21 134.66 14.21 134.64 14.2C134.61 14.19 134.55 14.18 134.46 14.18C134.05 14.18 133.72 13.85 133.72 13.45C133.72 13.04 134.05 12.71 134.46 12.71H136.53C136.93 12.71 137.26 13.04 137.26 13.45V15.24Z" fill="#D7AC63"/><path d="M107.59 15.24H106.61V15.23C106.87 14.48 107.04 13.99 107.99 13.64C107.7 13.89 107.57 14.37 107.59 15.24Z" fill="#D7AC63"/><path d="M107.74 12.95C108.08 12.83 108.45 12.97 108.63 13.28C108.81 13.59 108.74 13.98 108.46 14.21C108.46 14.21 108.46 14.21 108.46 14.22C108.45 14.22 108.45 14.23 108.44 14.24C108.43 14.26 108.41 14.31 108.39 14.39C108.34 14.56 108.31 14.82 108.32 15.22C108.33 15.42 108.25 15.61 108.11 15.75C107.98 15.89 107.78 15.97 107.59 15.97H106.61C106.2 15.97 105.87 15.64 105.87 15.24V15.23C105.87 15.15 105.89 15.06 105.91 14.99C106.03 14.64 106.17 14.21 106.45 13.84C106.75 13.44 107.16 13.16 107.74 12.95ZM107.59 15.24C107.57 14.37 107.7 13.89 107.99 13.64C107.04 13.99 106.87 14.48 106.61 15.23V15.24H107.59Z" fill="#D7AC63"/><path d="M107.59 15.24H106.61V15.23C106.87 14.48 107.04 13.99 107.99 13.64C107.7 13.89 107.57 14.37 107.59 15.24Z" fill="#D7AC63"/><path d="M107.74 12.95C108.08 12.83 108.45 12.97 108.63 13.28C108.81 13.59 108.74 13.98 108.46 14.21C108.46 14.21 108.46 14.21 108.46 14.22C108.45 14.22 108.45 14.23 108.44 14.24C108.43 14.26 108.41 14.31 108.39 14.39C108.34 14.56 108.31 14.82 108.32 15.22C108.33 15.42 108.25 15.61 108.11 15.75C107.98 15.89 107.78 15.97 107.59 15.97H106.61C106.2 15.97 105.87 15.64 105.87 15.24V15.23C105.87 15.15 105.89 15.06 105.91 14.99C106.03 14.64 106.17 14.21 106.45 13.84C106.75 13.44 107.16 13.16 107.74 12.95ZM107.59 15.24C107.57 14.37 107.7 13.89 107.99 13.64C107.04 13.99 106.87 14.48 106.61 15.23V15.24H107.59Z" fill="#D7AC63"/><path d="M106.61 15.24V13.44H108.68C108.44 13.43 108.19 13.5 107.99 13.64C107.04 13.99 106.87 14.47 106.61 15.23V15.24Z" fill="#D7AC63"/><path d="M108.68 12.71V12.71C108.7 12.71 108.72 12.71 108.73 12.71C109.13 12.74 109.43 13.07 109.42 13.47C109.4 13.87 109.08 14.18 108.68 14.18H108.63L108.52 14.19C108.49 14.2 108.45 14.22 108.42 14.24C108.37 14.28 108.31 14.31 108.25 14.33C107.86 14.47 107.72 14.61 107.63 14.72C107.52 14.87 107.45 15.07 107.31 15.47L107.31 15.47C107.21 15.76 106.94 15.97 106.61 15.97C106.2 15.97 105.87 15.64 105.87 15.24V13.44C105.87 13.04 106.2 12.71 106.61 12.71H108.68ZM106.61 15.23C106.87 14.47 107.04 13.99 107.99 13.64C108.19 13.5 108.44 13.43 108.68 13.44H106.61V15.23Z" fill="#D7AC63"/><path d="M106.61 15.24V13.44H108.68C108.44 13.43 108.19 13.5 107.99 13.64C107.04 13.99 106.87 14.47 106.61 15.23V15.24Z" fill="#D7AC63"/><path d="M108.68 12.71V12.71C108.7 12.71 108.72 12.71 108.73 12.71C109.13 12.74 109.43 13.07 109.42 13.47C109.4 13.87 109.08 14.18 108.68 14.18H108.63L108.52 14.19C108.49 14.2 108.45 14.22 108.42 14.24C108.37 14.28 108.31 14.31 108.25 14.33C107.86 14.47 107.72 14.61 107.63 14.72C107.52 14.87 107.45 15.07 107.31 15.47L107.31 15.47C107.21 15.76 106.94 15.97 106.61 15.97C106.2 15.97 105.87 15.64 105.87 15.24V13.44C105.87 13.04 106.2 12.71 106.61 12.71H108.68ZM106.61 15.23C106.87 14.47 107.04 13.99 107.99 13.64C108.19 13.5 108.44 13.43 108.68 13.44H106.61V15.23Z" fill="#D7AC63"/><path fill-rule="evenodd" clip-rule="evenodd" d="M166.61 24.72V11.43H176.45V12.29H175.25C174.56 12.29 173.87 12.43 173.23 12.7C172.92 12.83 172.63 13.01 172.37 13.22C172.11 13.43 171.92 13.7 171.8 14C171.63 14.52 171.54 15.58 171.54 17.17V38.06C171.54 38.81 171.56 39.43 171.59 39.91C171.62 40.38 171.69 40.78 171.79 41.09C171.88 41.36 172.03 41.62 172.23 41.82C172.44 42.03 172.68 42.2 172.93 42.33C173.66 42.69 174.44 42.88 175.28 42.88H176.48V43.77H166.62V28.7H150.7V43.77H140.84V42.88H142.07C143.51 42.88 144.55 42.49 145.19 41.72C145.58 41.22 145.78 40 145.78 38.06V17.17C145.78 16.55 145.76 15.92 145.73 15.3C145.72 14.9 145.65 14.5 145.54 14.12C145.47 13.84 145.33 13.59 145.14 13.38C144.93 13.17 144.69 13 144.42 12.87C143.69 12.5 142.89 12.31 142.08 12.3H140.84V11.43H150.71V26.4H166.62V24.72L166.61 24.72Z" fill="#D7AC63"/><path d="M176.45 10.69C176.86 10.69 177.19 11.02 177.19 11.43V12.29C177.19 12.7 176.86 13.03 176.45 13.03H175.25C174.66 13.03 174.06 13.15 173.51 13.38H173.51C173.27 13.48 173.04 13.62 172.84 13.79L172.83 13.8L172.83 13.8C172.68 13.92 172.56 14.07 172.49 14.25C172.37 14.66 172.28 15.59 172.28 17.17V38.06C172.28 38.8 172.3 39.4 172.33 39.86V39.86C172.34 40.08 172.36 40.27 172.39 40.44L172.49 40.85L172.5 40.87C172.55 41.03 172.63 41.18 172.75 41.3C172.9 41.45 173.08 41.58 173.27 41.67C173.88 41.98 174.56 42.14 175.28 42.14H176.48C176.89 42.14 177.22 42.47 177.22 42.88V43.77C177.22 44.18 176.89 44.51 176.48 44.51H166.62C166.21 44.51 165.88 44.18 165.88 43.77V29.44H151.44V43.77C151.44 44.18 151.11 44.51 150.7 44.51H140.84C140.43 44.51 140.1 44.18 140.1 43.77V42.88C140.1 42.47 140.43 42.14 140.84 42.14H142.07C143.38 42.14 144.16 41.79 144.61 41.26C144.69 41.15 144.81 40.88 144.9 40.32C144.99 39.76 145.04 39.01 145.04 38.06V17.17C145.04 16.56 145.03 15.95 145 15.34L144.99 15.33C144.98 14.99 144.93 14.65 144.84 14.32L144.83 14.31C144.79 14.15 144.71 14 144.6 13.88C144.46 13.74 144.29 13.63 144.11 13.54L144.08 13.53C143.46 13.21 142.77 13.04 142.07 13.04H140.84C140.43 13.04 140.1 12.71 140.1 12.3V11.44C140.1 11.03 140.43 10.7 140.84 10.7H150.71C151.11 10.7 151.45 11.03 151.45 11.44V25.66H165.89V24.85C165.88 24.8 165.87 24.76 165.87 24.71V11.43C165.87 11.02 166.2 10.69 166.61 10.69H176.45ZM166.61 11.43V24.71L166.62 24.72V26.4H150.71V11.44H140.84V12.3H142.08C142.89 12.31 143.69 12.5 144.42 12.87C144.69 13 144.93 13.17 145.14 13.38C145.33 13.59 145.47 13.84 145.54 14.12C145.65 14.5 145.71 14.9 145.73 15.3C145.76 15.92 145.78 16.55 145.78 17.17V38.06C145.78 40 145.58 41.22 145.19 41.72C144.55 42.49 143.51 42.88 142.07 42.88H140.84V43.77H150.7V28.7H166.62V43.77H176.48V42.88H175.28C174.44 42.88 173.65 42.69 172.93 42.33C172.68 42.2 172.44 42.03 172.23 41.82C172.03 41.62 171.88 41.36 171.79 41.09C171.69 40.78 171.62 40.38 171.59 39.91C171.56 39.43 171.55 38.81 171.55 38.06V17.17C171.55 15.58 171.63 14.52 171.8 14C171.92 13.7 172.11 13.43 172.37 13.22C172.62 13.01 172.92 12.83 173.23 12.7C173.87 12.43 174.56 12.29 175.25 12.29H176.45V11.43H166.61Z" fill="#D7AC63"/><path fill-rule="evenodd" clip-rule="evenodd" d="M166.61 24.72V11.43H176.45V12.29H175.25C174.56 12.29 173.87 12.43 173.23 12.7C172.92 12.83 172.63 13.01 172.37 13.22C172.11 13.43 171.92 13.7 171.8 14C171.63 14.52 171.54 15.58 171.54 17.17V38.06C171.54 38.81 171.56 39.43 171.59 39.91C171.62 40.38 171.69 40.78 171.79 41.09C171.88 41.36 172.03 41.62 172.23 41.82C172.44 42.03 172.68 42.2 172.93 42.33C173.66 42.69 174.44 42.88 175.28 42.88H176.48V43.77H166.62V28.7H150.7V43.77H140.84V42.88H142.07C143.51 42.88 144.55 42.49 145.19 41.72C145.58 41.22 145.78 40 145.78 38.06V17.17C145.78 16.55 145.76 15.92 145.73 15.3C145.72 14.9 145.65 14.5 145.54 14.12C145.47 13.84 145.33 13.59 145.14 13.38C144.93 13.17 144.69 13 144.42 12.87C143.69 12.5 142.89 12.31 142.08 12.3H140.84V11.43H150.71V26.4H166.62V24.72L166.61 24.72Z" fill="#D7AC63"/><path d="M176.45 10.69C176.86 10.69 177.19 11.02 177.19 11.43V12.29C177.19 12.7 176.86 13.03 176.45 13.03H175.25C174.66 13.03 174.06 13.15 173.51 13.38H173.51C173.27 13.48 173.04 13.62 172.84 13.79L172.83 13.8L172.83 13.8C172.68 13.92 172.56 14.07 172.49 14.25C172.37 14.66 172.28 15.59 172.28 17.17V38.06C172.28 38.8 172.3 39.4 172.33 39.86V39.86C172.34 40.08 172.36 40.27 172.39 40.44L172.49 40.85L172.5 40.87C172.55 41.03 172.63 41.18 172.75 41.3C172.9 41.45 173.08 41.58 173.27 41.67C173.88 41.98 174.56 42.14 175.28 42.14H176.48C176.89 42.14 177.22 42.47 177.22 42.88V43.77C177.22 44.18 176.89 44.51 176.48 44.51H166.62C166.21 44.51 165.88 44.18 165.88 43.77V29.44H151.44V43.77C151.44 44.18 151.11 44.51 150.7 44.51H140.84C140.43 44.51 140.1 44.18 140.1 43.77V42.88C140.1 42.47 140.43 42.14 140.84 42.14H142.07C143.38 42.14 144.16 41.79 144.61 41.26C144.69 41.15 144.81 40.88 144.9 40.32C144.99 39.76 145.04 39.01 145.04 38.06V17.17C145.04 16.56 145.03 15.95 145 15.34L144.99 15.33C144.98 14.99 144.93 14.65 144.84 14.32L144.83 14.31C144.79 14.15 144.71 14 144.6 13.88C144.46 13.74 144.29 13.63 144.11 13.54L144.08 13.53C143.46 13.21 142.77 13.04 142.07 13.04H140.84C140.43 13.04 140.1 12.71 140.1 12.3V11.44C140.1 11.03 140.43 10.7 140.84 10.7H150.71C151.11 10.7 151.45 11.03 151.45 11.44V25.66H165.89V24.85C165.88 24.8 165.87 24.76 165.87 24.71V11.43C165.87 11.02 166.2 10.69 166.61 10.69H176.45ZM166.61 11.43V24.71L166.62 24.72V26.4H150.71V11.44H140.84V12.3H142.08C142.89 12.31 143.69 12.5 144.42 12.87C144.69 13 144.93 13.17 145.14 13.38C145.33 13.59 145.47 13.84 145.54 14.12C145.65 14.5 145.71 14.9 145.73 15.3C145.76 15.92 145.78 16.55 145.78 17.17V38.06C145.78 40 145.58 41.22 145.19 41.72C144.55 42.49 143.51 42.88 142.07 42.88H140.84V43.77H150.7V28.7H166.62V43.77H176.48V42.88H175.28C174.44 42.88 173.65 42.69 172.93 42.33C172.68 42.2 172.44 42.03 172.23 41.82C172.03 41.62 171.88 41.36 171.79 41.09C171.69 40.78 171.62 40.38 171.59 39.91C171.56 39.43 171.55 38.81 171.55 38.06V17.17C171.55 15.58 171.63 14.52 171.8 14C171.92 13.7 172.11 13.43 172.37 13.22C172.62 13.01 172.92 12.83 173.23 12.7C173.87 12.43 174.56 12.29 175.25 12.29H176.45V11.43H166.61Z" fill="#D7AC63"/><path fill-rule="evenodd" clip-rule="evenodd" d="M191.21 13.21V26.39H209.75V28.68H191.21V38.37C191.21 39.81 191.27 40.69 191.39 40.99C191.46 41.16 191.55 41.31 191.68 41.44C191.8 41.56 191.95 41.66 192.12 41.73C192.32 41.81 192.56 41.88 192.87 41.93C193.18 41.98 193.58 42 194.08 42H209.75V43.78H181.34V42.88H182.55C182.88 42.88 183.22 42.85 183.58 42.79C183.92 42.72 184.26 42.62 184.58 42.48C184.88 42.35 185.16 42.17 185.41 41.95C185.65 41.75 185.84 41.5 185.97 41.21C186.18 40.71 186.28 39.66 186.28 38.06V17.06C186.28 16.04 186.23 15.21 186.13 14.56C186.03 13.91 185.86 13.48 185.63 13.25C185.01 12.61 183.99 12.29 182.55 12.29H181.34V11.43H209.75V13.25C209.23 13.22 201.36 13.2 200.71 13.2H191.21V13.21Z" fill="#D7AC63"/><path d="M209.75 10.69C210.16 10.69 210.49 11.02 210.49 11.43V13.25C210.49 13.46 210.4 13.65 210.26 13.79C210.11 13.93 209.91 14 209.71 13.99C209.21 13.96 201.39 13.94 200.71 13.94H191.95V25.65H209.75C210.16 25.65 210.49 25.98 210.49 26.39V28.68C210.49 29.08 210.16 29.41 209.75 29.41H191.94V38.37C191.94 39.08 191.96 39.64 191.99 40.06C192 40.26 192.02 40.42 192.04 40.54L192.08 40.72L192.08 40.73C192.11 40.8 192.15 40.87 192.2 40.92C192.25 40.97 192.32 41.01 192.39 41.04L192.41 41.05C192.53 41.1 192.72 41.16 192.98 41.2H192.98C193.25 41.24 193.61 41.27 194.08 41.27H209.75C210.15 41.27 210.49 41.6 210.49 42V43.78C210.49 44.19 210.15 44.52 209.75 44.52H181.34C180.93 44.52 180.6 44.19 180.6 43.78V42.88C180.6 42.48 180.93 42.15 181.34 42.15H182.55C182.83 42.15 183.13 42.12 183.44 42.06C183.73 42.01 184.01 41.92 184.28 41.8L184.29 41.8C184.52 41.7 184.74 41.57 184.93 41.4L184.94 41.39C185.09 41.26 185.21 41.1 185.29 40.92C185.35 40.77 185.42 40.47 185.47 39.97C185.52 39.48 185.54 38.85 185.54 38.06V17.06C185.54 16.06 185.49 15.27 185.4 14.67V14.67C185.3 14.05 185.17 13.83 185.11 13.78L185.1 13.77L185.1 13.76C184.69 13.34 183.91 13.03 182.55 13.03H181.34C180.94 13.03 180.6 12.7 180.6 12.29V11.43C180.6 11.02 180.94 10.69 181.34 10.69H209.75ZM181.34 11.43V12.29H182.55C183.99 12.29 185.01 12.61 185.63 13.25C185.87 13.48 186.03 13.91 186.13 14.56C186.23 15.21 186.28 16.04 186.28 17.06V38.06C186.28 39.66 186.18 40.71 185.97 41.21C185.84 41.5 185.65 41.75 185.41 41.95C185.16 42.17 184.88 42.35 184.58 42.48C184.26 42.62 183.92 42.72 183.58 42.79C183.22 42.85 182.88 42.88 182.55 42.88H181.34V43.78H209.75V42H194.08C193.58 42 193.18 41.98 192.87 41.93C192.56 41.88 192.32 41.81 192.12 41.73C191.95 41.66 191.8 41.56 191.68 41.44C191.55 41.31 191.46 41.16 191.39 40.99C191.27 40.69 191.21 39.81 191.21 38.37V28.68H209.75V26.39H191.21V13.2H200.71C201.37 13.2 209.23 13.22 209.75 13.25V11.43H181.34Z" fill="#D7AC63"/><path fill-rule="evenodd" clip-rule="evenodd" d="M191.21 13.21V26.39H209.75V28.68H191.21V38.37C191.21 39.81 191.27 40.69 191.39 40.99C191.46 41.16 191.55 41.31 191.68 41.44C191.8 41.56 191.95 41.66 192.12 41.73C192.32 41.81 192.56 41.88 192.87 41.93C193.18 41.98 193.58 42 194.08 42H209.75V43.78H181.34V42.88H182.55C182.88 42.88 183.22 42.85 183.58 42.79C183.92 42.72 184.26 42.62 184.58 42.48C184.88 42.35 185.16 42.17 185.41 41.95C185.65 41.75 185.84 41.5 185.97 41.21C186.18 40.71 186.28 39.66 186.28 38.06V17.06C186.28 16.04 186.23 15.21 186.13 14.56C186.03 13.91 185.86 13.48 185.63 13.25C185.01 12.61 183.99 12.29 182.55 12.29H181.34V11.43H209.75V13.25C209.23 13.22 201.36 13.2 200.71 13.2H191.21V13.21Z" fill="#D7AC63"/><path d="M209.75 10.69C210.16 10.69 210.49 11.02 210.49 11.43V13.25C210.49 13.46 210.4 13.65 210.26 13.79C210.11 13.93 209.91 14 209.71 13.99C209.21 13.96 201.39 13.94 200.71 13.94H191.95V25.65H209.75C210.16 25.65 210.49 25.98 210.49 26.39V28.68C210.49 29.08 210.16 29.41 209.75 29.41H191.94V38.37C191.94 39.08 191.96 39.64 191.99 40.06C192 40.26 192.02 40.42 192.04 40.54L192.08 40.72L192.08 40.73C192.11 40.8 192.15 40.87 192.2 40.92C192.25 40.97 192.32 41.01 192.39 41.04L192.41 41.05C192.53 41.1 192.72 41.16 192.98 41.2H192.98C193.25 41.24 193.61 41.27 194.08 41.27H209.75C210.15 41.27 210.49 41.6 210.49 42V43.78C210.49 44.19 210.15 44.52 209.75 44.52H181.34C180.93 44.52 180.6 44.19 180.6 43.78V42.88C180.6 42.48 180.93 42.15 181.34 42.15H182.55C182.83 42.15 183.13 42.12 183.44 42.06C183.73 42.01 184.01 41.92 184.28 41.8L184.29 41.8C184.52 41.7 184.74 41.57 184.93 41.4L184.94 41.39C185.09 41.26 185.21 41.1 185.29 40.92C185.35 40.77 185.42 40.47 185.47 39.97C185.52 39.48 185.54 38.85 185.54 38.06V17.06C185.54 16.06 185.49 15.27 185.4 14.67V14.67C185.3 14.05 185.17 13.83 185.11 13.78L185.1 13.77L185.1 13.76C184.69 13.34 183.91 13.03 182.55 13.03H181.34C180.94 13.03 180.6 12.7 180.6 12.29V11.43C180.6 11.02 180.94 10.69 181.34 10.69H209.75ZM181.34 11.43V12.29H182.55C183.99 12.29 185.01 12.61 185.63 13.25C185.87 13.48 186.03 13.91 186.13 14.56C186.23 15.21 186.28 16.04 186.28 17.06V38.06C186.28 39.66 186.18 40.71 185.97 41.21C185.84 41.5 185.65 41.75 185.41 41.95C185.16 42.17 184.88 42.35 184.58 42.48C184.26 42.62 183.92 42.72 183.58 42.79C183.22 42.85 182.88 42.88 182.55 42.88H181.34V43.78H209.75V42H194.08C193.58 42 193.18 41.98 192.87 41.93C192.56 41.88 192.32 41.81 192.12 41.73C191.95 41.66 191.8 41.56 191.68 41.44C191.55 41.31 191.46 41.16 191.39 40.99C191.27 40.69 191.21 39.81 191.21 38.37V28.68H209.75V26.39H191.21V13.2H200.71C201.37 13.2 209.23 13.22 209.75 13.25V11.43H181.34Z" fill="#D7AC63"/><path fill-rule="evenodd" clip-rule="evenodd" d="M226.47 26.54C226.84 26.47 230.11 26.39 230.45 26.29C231.69 25.93 232.74 25.45 233.57 24.82C234.4 24.2 235.03 23.46 235.44 22.61C235.85 21.76 236.06 20.85 236.06 19.87C236.06 18.89 235.88 17.98 235.52 17.17C235.17 16.36 234.65 15.64 234 15.05C233.32 14.44 232.53 13.97 231.67 13.66C230.93 13.4 230.16 13.24 229.38 13.19C228.87 13.16 228.36 13.16 227.85 13.19L214.79 12.28V11.43H227.38C229.26 11.43 230.85 11.48 232.16 11.59C233.47 11.69 234.6 11.88 235.56 12.14C236.51 12.4 237.34 12.76 238.03 13.2C238.72 13.64 239.37 14.2 239.99 14.88C241.2 16.22 241.81 17.78 241.81 19.57C241.82 20.51 241.64 21.45 241.29 22.32C240.93 23.2 240.4 23.99 239.73 24.66C238.34 26.09 236.19 27.1 233.28 27.68L241.14 37.44C241.96 38.51 242.71 39.38 243.38 40.05C244.05 40.71 244.7 41.24 245.35 41.62C246 42.01 246.69 42.29 247.42 42.47C248.15 42.65 249 42.79 249.96 42.88V43.76H240.71L229.39 29.73L226.47 26.54V26.54Z" fill="#D7AC63"/><path d="M227.38 10.7C229.27 10.7 230.88 10.75 232.22 10.85L233.19 10.95C234.14 11.06 234.99 11.22 235.75 11.43C236.77 11.71 237.66 12.1 238.42 12.57H238.42C239.18 13.06 239.88 13.66 240.53 14.38C241.87 15.85 242.55 17.59 242.55 19.56L242.54 19.95C242.51 20.86 242.31 21.76 241.97 22.6C241.57 23.56 240.99 24.43 240.25 25.17L240.26 25.17C238.93 26.54 237.02 27.51 234.6 28.13L241.72 36.97L241.73 36.99H241.73C242.53 38.04 243.26 38.88 243.9 39.52C244.38 40 244.84 40.39 245.28 40.7L245.73 40.99L245.73 40.99V40.99C246.32 41.34 246.93 41.59 247.6 41.76C248.28 41.92 249.09 42.05 250.03 42.14C250.41 42.18 250.7 42.5 250.7 42.88V43.76C250.7 44.16 250.37 44.49 249.96 44.49H240.71C240.49 44.49 240.27 44.39 240.13 44.22L228.83 30.21L225.93 27.04V27.03C225.81 26.9 225.74 26.73 225.74 26.54V26.54C225.74 26.24 225.92 25.96 226.21 25.85C226.25 25.84 226.29 25.83 226.33 25.82V25.82C226.35 25.82 226.36 25.82 226.38 25.81C226.4 25.81 226.42 25.81 226.44 25.81C226.62 25.78 226.9 25.76 227.16 25.75C227.53 25.73 227.99 25.71 228.44 25.69C228.89 25.67 229.34 25.65 229.69 25.63C229.87 25.61 230.01 25.6 230.12 25.59C230.26 25.58 230.28 25.57 230.24 25.58H230.24C231.43 25.24 232.38 24.79 233.12 24.23L233.13 24.23C233.88 23.67 234.42 23.03 234.77 22.29C235.13 21.54 235.32 20.74 235.32 19.87C235.32 18.98 235.16 18.18 234.84 17.47V17.46C234.53 16.75 234.08 16.12 233.51 15.6L233.03 15.21C232.54 14.85 232 14.56 231.42 14.36H231.42C230.92 14.18 230.4 14.05 229.87 13.98L229.33 13.93C228.86 13.89 228.38 13.89 227.9 13.93C227.87 13.93 227.83 13.93 227.8 13.93L214.74 13.02C214.35 12.99 214.05 12.67 214.05 12.28V11.43C214.05 11.03 214.38 10.7 214.79 10.7H227.38ZM214.79 11.43V12.28L227.85 13.19C228.36 13.16 228.87 13.16 229.38 13.19C230.16 13.24 230.93 13.4 231.67 13.66C232.53 13.96 233.32 14.44 234 15.05C234.65 15.64 235.16 16.36 235.52 17.17C235.88 17.98 236.06 18.89 236.06 19.87C236.06 20.85 235.85 21.76 235.44 22.61C235.02 23.46 234.4 24.2 233.57 24.82C232.74 25.44 231.69 25.93 230.45 26.29C230.11 26.39 226.86 26.47 226.48 26.54L226.47 26.54V26.54L226.48 26.54L229.39 29.73L240.71 43.76H249.96V42.88C249 42.79 248.15 42.65 247.42 42.47C246.69 42.29 246 42.01 245.35 41.62C244.71 41.24 244.05 40.71 243.38 40.05C242.71 39.38 241.96 38.51 241.14 37.44L233.28 27.68C236.19 27.1 238.34 26.09 239.73 24.66C240.4 23.99 240.93 23.2 241.29 22.32C241.64 21.45 241.82 20.51 241.81 19.57C241.81 17.78 241.2 16.22 239.99 14.88C239.37 14.2 238.72 13.64 238.03 13.2C237.34 12.76 236.51 12.4 235.56 12.14C234.6 11.88 233.47 11.69 232.16 11.59C230.85 11.48 229.26 11.43 227.38 11.43H214.79Z" fill="#D7AC63"/><path fill-rule="evenodd" clip-rule="evenodd" d="M226.47 26.54C226.84 26.47 230.11 26.39 230.45 26.29C231.69 25.93 232.74 25.45 233.57 24.82C234.4 24.2 235.03 23.46 235.44 22.61C235.85 21.76 236.06 20.85 236.06 19.87C236.06 18.89 235.88 17.98 235.52 17.17C235.17 16.36 234.65 15.64 234 15.05C233.32 14.44 232.53 13.97 231.67 13.66C230.93 13.4 230.16 13.24 229.38 13.19C228.87 13.16 228.36 13.16 227.85 13.19L214.79 12.28V11.43H227.38C229.26 11.43 230.85 11.48 232.16 11.59C233.47 11.69 234.6 11.88 235.56 12.14C236.51 12.4 237.34 12.76 238.03 13.2C238.72 13.64 239.37 14.2 239.99 14.88C241.2 16.22 241.81 17.78 241.81 19.57C241.82 20.51 241.64 21.45 241.29 22.32C240.93 23.2 240.4 23.99 239.73 24.66C238.34 26.09 236.19 27.1 233.28 27.68L241.14 37.44C241.96 38.51 242.71 39.38 243.38 40.05C244.05 40.71 244.7 41.24 245.35 41.62C246 42.01 246.69 42.29 247.42 42.47C248.15 42.65 249 42.79 249.96 42.88V43.76H240.71L229.39 29.73L226.47 26.54V26.54Z" fill="#D7AC63"/><path d="M227.38 10.7C229.27 10.7 230.88 10.75 232.22 10.85L233.19 10.95C234.14 11.06 234.99 11.22 235.75 11.43C236.77 11.71 237.66 12.1 238.42 12.57H238.42C239.18 13.06 239.88 13.66 240.53 14.38C241.87 15.85 242.55 17.59 242.55 19.56L242.54 19.95C242.51 20.86 242.31 21.76 241.97 22.6C241.57 23.56 240.99 24.43 240.25 25.17L240.26 25.17C238.93 26.54 237.02 27.51 234.6 28.13L241.72 36.97L241.73 36.99H241.73C242.53 38.04 243.26 38.88 243.9 39.52C244.38 40 244.84 40.39 245.28 40.7L245.73 40.99L245.73 40.99V40.99C246.32 41.34 246.93 41.59 247.6 41.76C248.28 41.92 249.09 42.05 250.03 42.14C250.41 42.18 250.7 42.5 250.7 42.88V43.76C250.7 44.16 250.37 44.49 249.96 44.49H240.71C240.49 44.49 240.27 44.39 240.13 44.22L228.83 30.21L225.93 27.04V27.03C225.81 26.9 225.74 26.73 225.74 26.54V26.54C225.74 26.24 225.92 25.96 226.21 25.85C226.25 25.84 226.29 25.83 226.33 25.82V25.82C226.35 25.82 226.36 25.82 226.38 25.81C226.4 25.81 226.42 25.81 226.44 25.81C226.62 25.78 226.9 25.76 227.16 25.75C227.53 25.73 227.99 25.71 228.44 25.69C228.89 25.67 229.34 25.65 229.69 25.63C229.87 25.61 230.01 25.6 230.12 25.59C230.26 25.58 230.28 25.57 230.24 25.58H230.24C231.43 25.24 232.38 24.79 233.12 24.23L233.13 24.23C233.88 23.67 234.42 23.03 234.77 22.29C235.13 21.54 235.32 20.74 235.32 19.87C235.32 18.98 235.16 18.18 234.84 17.47V17.46C234.53 16.75 234.08 16.12 233.51 15.6L233.03 15.21C232.54 14.85 232 14.56 231.42 14.36H231.42C230.92 14.18 230.4 14.05 229.87 13.98L229.33 13.93C228.86 13.89 228.38 13.89 227.9 13.93C227.87 13.93 227.83 13.93 227.8 13.93L214.74 13.02C214.35 12.99 214.05 12.67 214.05 12.28V11.43C214.05 11.03 214.38 10.7 214.79 10.7H227.38ZM214.79 11.43V12.28L227.85 13.19C228.36 13.16 228.87 13.16 229.38 13.19C230.16 13.24 230.93 13.4 231.67 13.66C232.53 13.96 233.32 14.44 234 15.05C234.65 15.64 235.16 16.36 235.52 17.17C235.88 17.98 236.06 18.89 236.06 19.87C236.06 20.85 235.85 21.76 235.44 22.61C235.02 23.46 234.4 24.2 233.57 24.82C232.74 25.44 231.69 25.93 230.45 26.29C230.11 26.39 226.86 26.47 226.48 26.54L226.47 26.54V26.54L226.48 26.54L229.39 29.73L240.71 43.76H249.96V42.88C249 42.79 248.15 42.65 247.42 42.47C246.69 42.29 246 42.01 245.35 41.62C244.71 41.24 244.05 40.71 243.38 40.05C242.71 39.38 241.96 38.51 241.14 37.44L233.28 27.68C236.19 27.1 238.34 26.09 239.73 24.66C240.4 23.99 240.93 23.2 241.29 22.32C241.64 21.45 241.82 20.51 241.81 19.57C241.81 17.78 241.2 16.22 239.99 14.88C239.37 14.2 238.72 13.64 238.03 13.2C237.34 12.76 236.51 12.4 235.56 12.14C234.6 11.88 233.47 11.69 232.16 11.59C230.85 11.48 229.26 11.43 227.38 11.43H214.79Z" fill="#D7AC63"/><path d="M218.15 43.76V22.5H220.15C220.15 22.5 221.1 38.01 221.98 42C222.15 42.76 223.24 42.87 224.51 42.94V43.76H218.15Z" fill="#D7AC63"/><path d="M217.41 22.5C217.41 22.09 217.74 21.76 218.15 21.76H220.15L220.29 21.78C220.61 21.84 220.86 22.11 220.88 22.45L220.89 22.46C220.89 22.46 220.89 22.46 220.89 22.47C220.89 22.47 220.89 22.49 220.89 22.5C220.89 22.53 220.89 22.57 220.9 22.63C220.9 22.74 220.91 22.91 220.93 23.13C220.95 23.56 221 24.18 221.05 24.94C221.15 26.45 221.29 28.51 221.47 30.7C221.82 35.09 222.28 39.91 222.7 41.84C222.7 41.85 222.7 41.86 222.73 41.88C222.77 41.92 222.86 41.97 223.04 42.02C223.4 42.13 223.91 42.17 224.56 42.21C224.95 42.23 225.25 42.55 225.25 42.94V43.76C225.25 44.16 224.92 44.49 224.51 44.49H218.15C217.74 44.49 217.41 44.16 217.41 43.76V22.5ZM218.15 43.76H224.51V42.94C223.24 42.87 222.15 42.76 221.98 42C221.1 38.01 220.15 22.52 220.15 22.5H218.15V43.76Z" fill="#D7AC63"/><path d="M218.15 43.76V22.5H220.15C220.15 22.5 221.1 38.01 221.98 42C222.15 42.76 223.24 42.87 224.51 42.94V43.76H218.15Z" fill="#D7AC63"/><path d="M217.41 22.5C217.41 22.09 217.74 21.76 218.15 21.76H220.15L220.29 21.78C220.61 21.84 220.86 22.11 220.88 22.45L220.89 22.46C220.89 22.46 220.89 22.46 220.89 22.47C220.89 22.47 220.89 22.49 220.89 22.5C220.89 22.53 220.89 22.57 220.9 22.63C220.9 22.74 220.91 22.91 220.93 23.13C220.95 23.56 221 24.18 221.05 24.94C221.15 26.45 221.29 28.51 221.47 30.7C221.82 35.09 222.28 39.91 222.7 41.84C222.7 41.85 222.7 41.86 222.73 41.88C222.77 41.92 222.86 41.97 223.04 42.02C223.4 42.13 223.91 42.17 224.56 42.21C224.95 42.23 225.25 42.55 225.25 42.94V43.76C225.25 44.16 224.92 44.49 224.51 44.49H218.15C217.74 44.49 217.41 44.16 217.41 43.76V22.5ZM218.15 43.76H224.51V42.94C223.24 42.87 222.15 42.76 221.98 42C221.1 38.01 220.15 22.52 220.15 22.5H218.15V43.76Z" fill="#D7AC63"/><path fill-rule="evenodd" clip-rule="evenodd" d="M176.41 59L176.42 61.02H163.93V85.76C163.93 87.76 164.16 89 164.61 89.48C165.24 90.13 166.24 90.46 167.6 90.46H168.8V91.35H154.09V90.46H155.33C156.79 90.46 157.83 90.04 158.44 89.21C158.81 88.74 159 87.58 159 85.75V61.01H146.5V59H176.41Z" fill="#D7AC63"/><path d="M176.41 58.27C176.81 58.27 177.14 58.59 177.14 59L177.16 61.02C177.16 61.21 177.08 61.4 176.94 61.54C176.8 61.68 176.62 61.76 176.42 61.76H164.67V85.76C164.67 86.74 164.72 87.5 164.82 88.06C164.93 88.63 165.07 88.89 165.14 88.97C165.59 89.42 166.35 89.72 167.6 89.72H168.8C169.21 89.72 169.54 90.05 169.54 90.46V91.35C169.54 91.76 169.21 92.09 168.8 92.09H154.09C153.69 92.09 153.36 91.76 153.36 91.35V90.46C153.36 90.05 153.69 89.72 154.09 89.72H155.33C156.66 89.72 157.43 89.35 157.85 88.78L157.86 88.76C157.93 88.67 158.04 88.42 158.13 87.87C158.22 87.35 158.26 86.65 158.26 85.75V61.75H146.5C146.1 61.75 145.77 61.42 145.77 61.01V59C145.77 58.6 146.1 58.27 146.5 58.27H176.41ZM146.5 59V61.01H159V85.75C159 87.58 158.81 88.73 158.44 89.21C157.83 90.04 156.79 90.46 155.33 90.46H154.09V91.35H168.8V90.46H167.6C166.24 90.46 165.24 90.13 164.61 89.48C164.16 89 163.93 87.76 163.93 85.76V61.02H176.42L176.41 59H146.5Z" fill="#D7AC63"/><path fill-rule="evenodd" clip-rule="evenodd" d="M176.41 59L176.42 61.02H163.93V85.76C163.93 87.76 164.16 89 164.61 89.48C165.24 90.13 166.24 90.46 167.6 90.46H168.8V91.35H154.09V90.46H155.33C156.79 90.46 157.83 90.04 158.44 89.21C158.81 88.74 159 87.58 159 85.75V61.01H146.5V59H176.41Z" fill="#D7AC63"/><path d="M176.41 58.27C176.81 58.27 177.14 58.59 177.14 59L177.16 61.02C177.16 61.21 177.08 61.4 176.94 61.54C176.8 61.68 176.62 61.76 176.42 61.76H164.67V85.76C164.67 86.74 164.72 87.5 164.82 88.06C164.93 88.63 165.07 88.89 165.14 88.97C165.59 89.42 166.35 89.72 167.6 89.72H168.8C169.21 89.72 169.54 90.05 169.54 90.46V91.35C169.54 91.76 169.21 92.09 168.8 92.09H154.09C153.69 92.09 153.36 91.76 153.36 91.35V90.46C153.36 90.05 153.69 89.72 154.09 89.72H155.33C156.66 89.72 157.43 89.35 157.85 88.78L157.86 88.76C157.93 88.67 158.04 88.42 158.13 87.87C158.22 87.35 158.26 86.65 158.26 85.75V61.75H146.5C146.1 61.75 145.77 61.42 145.77 61.01V59C145.77 58.6 146.1 58.27 146.5 58.27H176.41ZM146.5 59V61.01H159V85.75C159 87.58 158.81 88.73 158.44 89.21C157.83 90.04 156.79 90.46 155.33 90.46H154.09V91.35H168.8V90.46H167.6C166.24 90.46 165.24 90.13 164.61 89.48C164.16 89 163.93 87.76 163.93 85.76V61.02H176.42L176.41 59H146.5Z" fill="#D7AC63"/><path d="M175.44 62.81H176.42L176.42 62.81C176.16 62.05 176 61.57 175.04 61.22C175.34 61.46 175.46 61.95 175.44 62.81Z" fill="#D7AC63"/><path d="M174.4 60.86C174.57 60.55 174.95 60.4 175.29 60.53C175.87 60.74 176.28 61.02 176.58 61.42C176.86 61.79 176.99 62.22 177.11 62.57H177.11C177.17 62.74 177.17 62.93 177.1 63.1C176.99 63.37 176.72 63.55 176.42 63.55H175.44C175.25 63.55 175.06 63.47 174.92 63.33C174.78 63.19 174.7 63 174.71 62.8C174.72 62.4 174.69 62.13 174.65 61.97C174.63 61.89 174.61 61.84 174.59 61.82C174.59 61.81 174.58 61.8 174.58 61.8L174.57 61.79C174.29 61.56 174.22 61.17 174.4 60.86ZM175.04 61.22C175.34 61.46 175.46 61.95 175.44 62.81H176.42L176.42 62.81C176.16 62.05 176 61.57 175.04 61.22Z" fill="#D7AC63"/><path d="M175.44 62.81H176.42L176.42 62.81C176.16 62.05 176 61.57 175.04 61.22C175.34 61.46 175.46 61.95 175.44 62.81Z" fill="#D7AC63"/><path d="M174.4 60.86C174.57 60.55 174.95 60.4 175.29 60.53C175.87 60.74 176.28 61.02 176.58 61.42C176.86 61.79 176.99 62.22 177.11 62.57H177.11C177.17 62.74 177.17 62.93 177.1 63.1C176.99 63.37 176.72 63.55 176.42 63.55H175.44C175.25 63.55 175.06 63.47 174.92 63.33C174.78 63.19 174.7 63 174.71 62.8C174.72 62.4 174.69 62.13 174.65 61.97C174.63 61.89 174.61 61.84 174.59 61.82C174.59 61.81 174.58 61.8 174.58 61.8L174.57 61.79C174.29 61.56 174.22 61.17 174.4 60.86ZM175.04 61.22C175.34 61.46 175.46 61.95 175.44 62.81H176.42L176.42 62.81C176.16 62.05 176 61.57 175.04 61.22Z" fill="#D7AC63"/><path d="M176.42 62.81V61.02H174.35C174.6 61 174.84 61.08 175.04 61.22C176 61.57 176.16 62.05 176.42 62.81L176.42 62.81Z" fill="#D7AC63"/><path d="M174.35 61.02C174.6 61 174.84 61.08 175.04 61.22C176 61.57 176.16 62.05 176.42 62.81L176.42 62.81V61.02H174.35ZM177.16 62.81C177.16 63.11 176.98 63.38 176.7 63.5C176.43 63.61 176.11 63.54 175.9 63.33L175.89 63.33C175.81 63.25 175.76 63.15 175.72 63.05C175.58 62.64 175.51 62.45 175.4 62.3C175.31 62.19 175.17 62.05 174.79 61.91C174.72 61.89 174.66 61.86 174.6 61.82C174.55 61.78 174.49 61.76 174.42 61.76H174.35C173.95 61.76 173.63 61.44 173.61 61.05C173.6 60.65 173.91 60.31 174.3 60.28C174.32 60.28 174.33 60.29 174.35 60.29V60.28H176.42C176.83 60.28 177.16 60.61 177.16 61.02V62.81Z" fill="#D7AC63"/><path d="M176.42 62.81V61.02H174.35C174.6 61 174.84 61.08 175.04 61.22C176 61.57 176.16 62.05 176.42 62.81L176.42 62.81Z" fill="#D7AC63"/><path d="M174.35 61.02C174.6 61 174.84 61.08 175.04 61.22C176 61.57 176.16 62.05 176.42 62.81L176.42 62.81V61.02H174.35ZM177.16 62.81C177.16 63.11 176.98 63.38 176.7 63.5C176.43 63.61 176.11 63.54 175.9 63.33L175.89 63.33C175.81 63.25 175.76 63.15 175.72 63.05C175.58 62.64 175.51 62.45 175.4 62.3C175.31 62.19 175.17 62.05 174.79 61.91C174.72 61.89 174.66 61.86 174.6 61.82C174.55 61.78 174.49 61.76 174.42 61.76H174.35C173.95 61.76 173.63 61.44 173.61 61.05C173.6 60.65 173.91 60.31 174.3 60.28C174.32 60.28 174.33 60.29 174.35 60.29V60.28H176.42C176.83 60.28 177.16 60.61 177.16 61.02V62.81Z" fill="#D7AC63"/><path d="M147.48 62.81H146.5L146.51 62.8C146.77 62.05 146.93 61.57 147.89 61.22C147.59 61.46 147.46 61.95 147.48 62.81Z" fill="#D7AC63"/><path d="M147.63 60.52C147.97 60.4 148.35 60.54 148.53 60.86C148.7 61.17 148.63 61.56 148.35 61.79V61.79L148.35 61.79C148.34 61.8 148.34 61.8 148.34 61.82C148.32 61.84 148.3 61.88 148.28 61.96C148.24 62.13 148.21 62.39 148.22 62.79C148.22 62.99 148.15 63.18 148.01 63.32C147.87 63.47 147.68 63.55 147.48 63.55H146.5C146.25 63.55 146.01 63.41 145.88 63.2C145.76 63.01 145.74 62.77 145.81 62.56H145.81C145.93 62.21 146.07 61.79 146.34 61.42C146.64 61.01 147.06 60.73 147.63 60.52ZM147.89 61.22C146.93 61.56 146.76 62.05 146.51 62.8L146.5 62.81H147.48C147.46 61.95 147.59 61.46 147.89 61.22Z" fill="#D7AC63"/><path d="M147.48 62.81H146.5L146.51 62.8C146.77 62.05 146.93 61.57 147.89 61.22C147.59 61.46 147.46 61.95 147.48 62.81Z" fill="#D7AC63"/><path d="M147.63 60.52C147.97 60.4 148.35 60.54 148.53 60.86C148.7 61.17 148.63 61.56 148.35 61.79V61.79L148.35 61.79C148.34 61.8 148.34 61.8 148.34 61.82C148.32 61.84 148.3 61.88 148.28 61.96C148.24 62.13 148.21 62.39 148.22 62.79C148.22 62.99 148.15 63.18 148.01 63.32C147.87 63.47 147.68 63.55 147.48 63.55H146.5C146.25 63.55 146.01 63.41 145.88 63.2C145.76 63.01 145.74 62.77 145.81 62.56H145.81C145.93 62.21 146.07 61.79 146.34 61.42C146.64 61.01 147.06 60.73 147.63 60.52ZM147.89 61.22C146.93 61.56 146.76 62.05 146.51 62.8L146.5 62.81H147.48C147.46 61.95 147.59 61.46 147.89 61.22Z" fill="#D7AC63"/><path d="M146.5 62.81V61.02H148.57C148.33 61 148.09 61.07 147.89 61.21C146.93 61.56 146.77 62.05 146.51 62.8L146.5 62.81Z" fill="#D7AC63"/><path d="M148.57 60.28V60.29C148.59 60.29 148.61 60.28 148.63 60.28C149.02 60.31 149.32 60.65 149.31 61.04C149.3 61.44 148.97 61.75 148.57 61.75H148.53L148.42 61.76C148.38 61.77 148.35 61.79 148.32 61.81C148.26 61.85 148.2 61.88 148.14 61.91C147.76 62.05 147.61 62.18 147.53 62.3C147.42 62.45 147.34 62.64 147.21 63.04C147.19 63.07 147.18 63.1 147.17 63.13L147.16 63.14C147.01 63.44 146.67 63.61 146.34 63.53C146 63.45 145.77 63.15 145.77 62.81V61.02C145.77 60.61 146.1 60.28 146.5 60.28H148.57ZM146.5 62.81L146.51 62.8C146.76 62.05 146.93 61.56 147.89 61.21C148.09 61.07 148.33 61 148.57 61.02H146.5V62.81Z" fill="#D7AC63"/><path d="M146.5 62.81V61.02H148.57C148.33 61 148.09 61.07 147.89 61.21C146.93 61.56 146.77 62.05 146.51 62.8L146.5 62.81Z" fill="#D7AC63"/><path d="M148.57 60.28V60.29C148.59 60.29 148.61 60.28 148.63 60.28C149.02 60.31 149.32 60.65 149.31 61.04C149.3 61.44 148.97 61.75 148.57 61.75H148.53L148.42 61.76C148.38 61.77 148.35 61.79 148.32 61.81C148.26 61.85 148.2 61.88 148.14 61.91C147.76 62.05 147.61 62.18 147.53 62.3C147.42 62.45 147.34 62.64 147.21 63.04C147.19 63.07 147.18 63.1 147.17 63.13L147.16 63.14C147.01 63.44 146.67 63.61 146.34 63.53C146 63.45 145.77 63.15 145.77 62.81V61.02C145.77 60.61 146.1 60.28 146.5 60.28H148.57ZM146.5 62.81L146.51 62.8C146.76 62.05 146.93 61.56 147.89 61.21C148.09 61.07 148.33 61 148.57 61.02H146.5V62.81Z" fill="#D7AC63"/><path fill-rule="evenodd" clip-rule="evenodd" d="M90.33 89.03H97.6C99.77 89.03 102.6 88.27 103.39 87.67C104.19 87.07 104.78 86.36 105.17 85.54C105.8 84.2 105.94 82.68 105.56 81.25C105.19 79.82 104.32 78.57 103.11 77.71C102.42 77.2 101.06 76.53 98.93 76.26V73.97C100.8 73.76 102.75 73.17 103.39 72.68C104.18 72.08 104.77 71.37 105.17 70.55C105.57 69.69 105.78 68.75 105.77 67.8C105.76 66.85 105.53 65.91 105.11 65.06C104.64 64.13 103.95 63.33 103.1 62.73C102.21 62.06 100.23 61.16 96.91 61.16H90.32V89.04L90.33 89.03ZM103.84 74.87C105.26 75.16 106.11 75.55 107.11 76.05C108.1 76.55 108.92 77.12 109.55 77.78C110.17 78.43 110.63 79.16 110.92 79.97C111.21 80.78 111.35 81.62 111.35 82.5C111.35 83.31 111.21 84.11 110.92 84.9C110.63 85.68 110.23 86.43 109.7 87.13C108.57 88.63 107.01 89.75 105.23 90.34C103.32 91.02 100.78 91.35 96.89 91.35H80.55V90.45H81.85C83.31 90.45 84.35 90.03 84.96 89.18C85.35 88.64 85.55 87.46 85.55 85.64V64.71C85.55 62.75 85.3 61.5 84.81 60.94C84.17 60.22 83.18 59.87 81.85 59.87H80.55V59.01H95.51C97.2 59.01 98.69 59.08 100 59.22C101.31 59.37 102.45 59.59 103.45 59.87C104.45 60.16 105.32 60.53 106.06 60.99C106.8 61.44 107.45 61.98 108.03 62.62C109.39 64.12 110.07 65.8 110.07 67.64C110.07 69.28 109.54 70.73 108.49 72.01C107.43 73.28 105.89 74.23 103.83 74.87H103.84Z" fill="#D7AC63"/><path d="M95.51 58.27C96.79 58.27 97.97 58.31 99.04 58.39L100.08 58.49L101.06 58.62C102.01 58.76 102.87 58.94 103.66 59.16H103.66C104.7 59.47 105.64 59.86 106.45 60.36C107.24 60.84 107.95 61.43 108.58 62.12C110.05 63.75 110.81 65.59 110.81 67.64C110.81 69.46 110.22 71.07 109.06 72.48H109.05C108.28 73.41 107.28 74.16 106.07 74.76C106.55 74.95 106.98 75.16 107.44 75.39H107.44C108.49 75.92 109.38 76.54 110.08 77.27H110.08C110.77 77.99 111.29 78.81 111.61 79.72L111.82 80.4C112 81.08 112.09 81.78 112.09 82.5C112.09 83.4 111.93 84.28 111.61 85.15C111.3 86 110.86 86.82 110.29 87.58L110.28 87.57C109.06 89.19 107.39 90.4 105.46 91.04L105.46 91.04C103.43 91.75 100.8 92.09 96.89 92.09H80.55C80.14 92.09 79.81 91.75 79.81 91.35V90.45C79.81 90.04 80.14 89.71 80.55 89.71H81.85C83.17 89.71 83.94 89.33 84.36 88.75L84.44 88.62C84.52 88.46 84.6 88.19 84.67 87.77C84.76 87.23 84.81 86.53 84.81 85.64V64.71C84.81 63.76 84.75 63.01 84.64 62.44C84.52 61.86 84.37 61.56 84.25 61.42H84.25C83.8 60.93 83.05 60.61 81.85 60.61H80.55C80.14 60.61 79.81 60.28 79.81 59.87V59.01C79.81 58.6 80.14 58.27 80.55 58.27H95.51ZM80.55 59.01V59.87H81.85C83.18 59.87 84.17 60.23 84.81 60.94C85.3 61.5 85.55 62.75 85.55 64.71V85.64C85.55 87.46 85.35 88.64 84.96 89.18C84.35 90.03 83.31 90.45 81.85 90.45H80.55V91.35H96.89C100.78 91.35 103.32 91.02 105.23 90.34C107.01 89.75 108.57 88.63 109.7 87.13C110.23 86.43 110.63 85.68 110.92 84.9C111.21 84.11 111.35 83.31 111.35 82.5C111.35 81.62 111.21 80.78 110.92 79.97C110.63 79.16 110.17 78.43 109.55 77.78C108.92 77.12 108.1 76.55 107.11 76.05C106.11 75.55 105.26 75.16 103.84 74.87H103.83C105.89 74.23 107.43 73.28 108.49 72.01C109.54 70.73 110.07 69.28 110.07 67.64C110.07 65.8 109.39 64.12 108.03 62.62C107.45 61.98 106.8 61.44 106.06 60.98C105.32 60.53 104.45 60.16 103.45 59.87C102.45 59.59 101.31 59.37 100 59.22C98.69 59.08 97.2 59.01 95.51 59.01H80.55ZM96.91 61.15C100.23 61.15 102.21 62.06 103.11 62.73C103.95 63.33 104.64 64.13 105.11 65.06C105.53 65.91 105.76 66.85 105.77 67.8C105.78 68.75 105.57 69.69 105.17 70.55C104.77 71.37 104.18 72.08 103.39 72.68C102.75 73.17 100.8 73.76 98.93 73.97V76.26C101.06 76.53 102.42 77.2 103.11 77.71C104.32 78.57 105.19 79.82 105.56 81.25C105.94 82.68 105.8 84.2 105.17 85.54C104.77 86.36 104.19 87.07 103.39 87.67C102.6 88.27 99.77 89.03 97.59 89.03H90.33L90.32 89.04V61.15H96.91ZM91.06 88.3H97.59C98.61 88.3 99.8 88.12 100.83 87.86C101.35 87.73 101.82 87.59 102.19 87.45C102.59 87.3 102.83 87.17 102.95 87.08C103.65 86.55 104.17 85.92 104.51 85.21C105.06 84.03 105.18 82.7 104.85 81.44C104.52 80.18 103.75 79.07 102.69 78.31L102.67 78.3C102.09 77.88 100.86 77.25 98.83 77C98.47 76.95 98.19 76.64 98.19 76.26V73.97C98.19 73.6 98.47 73.28 98.84 73.24C99.74 73.14 100.65 72.95 101.41 72.72C102.21 72.49 102.74 72.25 102.94 72.1C103.65 71.55 104.17 70.93 104.51 70.23C104.86 69.47 105.04 68.64 105.03 67.81C105.02 66.97 104.82 66.14 104.45 65.39V65.38C104.03 64.57 103.42 63.86 102.67 63.33L102.66 63.32C101.92 62.76 100.09 61.89 96.91 61.89H91.06V88.3Z" fill="#D7AC63"/><path fill-rule="evenodd" clip-rule="evenodd" d="M90.33 89.03H97.6C99.77 89.03 102.6 88.27 103.39 87.67C104.19 87.07 104.78 86.36 105.17 85.54C105.8 84.2 105.94 82.68 105.56 81.25C105.19 79.82 104.32 78.57 103.11 77.71C102.42 77.2 101.06 76.53 98.93 76.26V73.97C100.8 73.76 102.75 73.17 103.39 72.68C104.18 72.08 104.77 71.37 105.17 70.55C105.57 69.69 105.78 68.75 105.77 67.8C105.76 66.85 105.53 65.91 105.11 65.06C104.64 64.13 103.95 63.33 103.1 62.73C102.21 62.06 100.23 61.16 96.91 61.16H90.32V89.04L90.33 89.03ZM103.84 74.87C105.26 75.16 106.11 75.55 107.11 76.05C108.1 76.55 108.92 77.12 109.55 77.78C110.17 78.43 110.63 79.16 110.92 79.97C111.21 80.78 111.35 81.62 111.35 82.5C111.35 83.31 111.21 84.11 110.92 84.9C110.63 85.68 110.23 86.43 109.7 87.13C108.57 88.63 107.01 89.75 105.23 90.34C103.32 91.02 100.78 91.35 96.89 91.35H80.55V90.45H81.85C83.31 90.45 84.35 90.03 84.96 89.18C85.35 88.64 85.55 87.46 85.55 85.64V64.71C85.55 62.75 85.3 61.5 84.81 60.94C84.17 60.22 83.18 59.87 81.85 59.87H80.55V59.01H95.51C97.2 59.01 98.69 59.08 100 59.22C101.31 59.37 102.45 59.59 103.45 59.87C104.45 60.16 105.32 60.53 106.06 60.99C106.8 61.44 107.45 61.98 108.03 62.62C109.39 64.12 110.07 65.8 110.07 67.64C110.07 69.28 109.54 70.73 108.49 72.01C107.43 73.28 105.89 74.23 103.83 74.87H103.84Z" fill="#D7AC63"/><path d="M95.51 58.27C96.79 58.27 97.97 58.31 99.04 58.39L100.08 58.49L101.06 58.62C102.01 58.76 102.87 58.94 103.66 59.16H103.66C104.7 59.47 105.64 59.86 106.45 60.36C107.24 60.84 107.95 61.43 108.58 62.12C110.05 63.75 110.81 65.59 110.81 67.64C110.81 69.46 110.22 71.07 109.06 72.48H109.05C108.28 73.41 107.28 74.16 106.07 74.76C106.55 74.95 106.98 75.16 107.44 75.39H107.44C108.49 75.92 109.38 76.54 110.08 77.27H110.08C110.77 77.99 111.29 78.81 111.61 79.72L111.82 80.4C112 81.08 112.09 81.78 112.09 82.5C112.09 83.4 111.93 84.28 111.61 85.15C111.3 86 110.86 86.82 110.29 87.58L110.28 87.57C109.06 89.19 107.39 90.4 105.46 91.04L105.46 91.04C103.43 91.75 100.8 92.09 96.89 92.09H80.55C80.14 92.09 79.81 91.75 79.81 91.35V90.45C79.81 90.04 80.14 89.71 80.55 89.71H81.85C83.17 89.71 83.94 89.33 84.36 88.75L84.44 88.62C84.52 88.46 84.6 88.19 84.67 87.77C84.76 87.23 84.81 86.53 84.81 85.64V64.71C84.81 63.76 84.75 63.01 84.64 62.44C84.52 61.86 84.37 61.56 84.25 61.42H84.25C83.8 60.93 83.05 60.61 81.85 60.61H80.55C80.14 60.61 79.81 60.28 79.81 59.87V59.01C79.81 58.6 80.14 58.27 80.55 58.27H95.51ZM80.55 59.01V59.87H81.85C83.18 59.87 84.17 60.23 84.81 60.94C85.3 61.5 85.55 62.75 85.55 64.71V85.64C85.55 87.46 85.35 88.64 84.96 89.18C84.35 90.03 83.31 90.45 81.85 90.45H80.55V91.35H96.89C100.78 91.35 103.32 91.02 105.23 90.34C107.01 89.75 108.57 88.63 109.7 87.13C110.23 86.43 110.63 85.68 110.92 84.9C111.21 84.11 111.35 83.31 111.35 82.5C111.35 81.62 111.21 80.78 110.92 79.97C110.63 79.16 110.17 78.43 109.55 77.78C108.92 77.12 108.1 76.55 107.11 76.05C106.11 75.55 105.26 75.16 103.84 74.87H103.83C105.89 74.23 107.43 73.28 108.49 72.01C109.54 70.73 110.07 69.28 110.07 67.64C110.07 65.8 109.39 64.12 108.03 62.62C107.45 61.98 106.8 61.44 106.06 60.98C105.32 60.53 104.45 60.16 103.45 59.87C102.45 59.59 101.31 59.37 100 59.22C98.69 59.08 97.2 59.01 95.51 59.01H80.55ZM96.91 61.15C100.23 61.15 102.21 62.06 103.11 62.73C103.95 63.33 104.64 64.13 105.11 65.06C105.53 65.91 105.76 66.85 105.77 67.8C105.78 68.75 105.57 69.69 105.17 70.55C104.77 71.37 104.18 72.08 103.39 72.68C102.75 73.17 100.8 73.76 98.93 73.97V76.26C101.06 76.53 102.42 77.2 103.11 77.71C104.32 78.57 105.19 79.82 105.56 81.25C105.94 82.68 105.8 84.2 105.17 85.54C104.77 86.36 104.19 87.07 103.39 87.67C102.6 88.27 99.77 89.03 97.59 89.03H90.33L90.32 89.04V61.15H96.91ZM91.06 88.3H97.59C98.61 88.3 99.8 88.12 100.83 87.86C101.35 87.73 101.82 87.59 102.19 87.45C102.59 87.3 102.83 87.17 102.95 87.08C103.65 86.55 104.17 85.92 104.51 85.21C105.06 84.03 105.18 82.7 104.85 81.44C104.52 80.18 103.75 79.07 102.69 78.31L102.67 78.3C102.09 77.88 100.86 77.25 98.83 77C98.47 76.95 98.19 76.64 98.19 76.26V73.97C98.19 73.6 98.47 73.28 98.84 73.24C99.74 73.14 100.65 72.95 101.41 72.72C102.21 72.49 102.74 72.25 102.94 72.1C103.65 71.55 104.17 70.93 104.51 70.23C104.86 69.47 105.04 68.64 105.03 67.81C105.02 66.97 104.82 66.14 104.45 65.39V65.38C104.03 64.57 103.42 63.86 102.67 63.33L102.66 63.32C101.92 62.76 100.09 61.89 96.91 61.89H91.06V88.3Z" fill="#D7AC63"/><path d="M98.93 76.26V73.97H90.32V76.26H98.93Z" fill="#D7AC63"/><path d="M98.93 76.27V73.97H90.32V76.27H98.93ZM99.66 76.27C99.66 76.67 99.33 77 98.93 77H90.32C89.91 77 89.58 76.67 89.58 76.27V73.97C89.58 73.56 89.91 73.23 90.32 73.23H98.93C99.33 73.23 99.66 73.56 99.66 73.97V76.27Z" fill="#D7AC63"/><path d="M98.93 76.26V73.97H90.32V76.26H98.93Z" fill="#D7AC63"/><path d="M98.93 76.27V73.97H90.32V76.27H98.93ZM99.66 76.27C99.66 76.67 99.33 77 98.93 77H90.32C89.91 77 89.58 76.67 89.58 76.27V73.97C89.58 73.56 89.91 73.23 90.32 73.23H98.93C99.33 73.23 99.66 73.56 99.66 73.97V76.27Z" fill="#D7AC63"/><path d="M85.55 76.26V73.97H75.16V76.26H85.55Z" fill="#D7AC63"/><path d="M85.55 76.27V73.97H75.16V76.27H85.55ZM86.28 76.27C86.28 76.67 85.95 77 85.55 77H75.16C74.76 77 74.43 76.67 74.43 76.27V73.97C74.43 73.56 74.76 73.23 75.16 73.23H85.55C85.95 73.23 86.28 73.56 86.28 73.97V76.27Z" fill="#D7AC63"/><path d="M85.55 76.26V73.97H75.16V76.26H85.55Z" fill="#D7AC63"/><path d="M85.55 76.27V73.97H75.16V76.27H85.55ZM86.28 76.27C86.28 76.67 85.95 77 85.55 77H75.16C74.76 77 74.43 76.67 74.43 76.27V73.97C74.43 73.56 74.76 73.23 75.16 73.23H85.55C85.95 73.23 86.28 73.56 86.28 73.97V76.27Z" fill="#D7AC63"/><path d="M76.1 71.74H75.16V73.97H78.4C76.62 73.96 76.09 73.49 76.1 71.74Z" fill="#D7AC63"/><path d="M76.1 71.01C76.3 71.01 76.48 71.08 76.62 71.22C76.76 71.36 76.84 71.55 76.84 71.75C76.83 72.6 76.97 72.86 77.09 72.97C77.22 73.09 77.52 73.23 78.41 73.23C78.81 73.23 79.14 73.57 79.14 73.97C79.14 74.38 78.81 74.71 78.4 74.71H75.16C74.76 74.71 74.43 74.38 74.43 73.97V71.74C74.43 71.33 74.76 71.01 75.16 71.01H76.1ZM78.4 73.97C76.62 73.96 76.09 73.49 76.1 71.74H75.16V73.97H78.4Z" fill="#D7AC63"/><path d="M76.1 71.74H75.16V73.97H78.4C76.62 73.96 76.09 73.49 76.1 71.74Z" fill="#D7AC63"/><path d="M76.1 71.01C76.3 71.01 76.48 71.08 76.62 71.22C76.76 71.36 76.84 71.55 76.84 71.75C76.83 72.6 76.97 72.86 77.09 72.97C77.22 73.09 77.52 73.23 78.41 73.23C78.81 73.23 79.14 73.57 79.14 73.97C79.14 74.38 78.81 74.71 78.4 74.71H75.16C74.76 74.71 74.43 74.38 74.43 73.97V71.74C74.43 71.33 74.76 71.01 75.16 71.01H76.1ZM78.4 73.97C76.62 73.96 76.09 73.49 76.1 71.74H75.16V73.97H78.4Z" fill="#D7AC63"/><path d="M75.16 78.48H76.1C76.1 76.78 76.59 76.27 78.4 76.26H75.16V78.48Z" fill="#D7AC63"/><path d="M78.4 75.53C78.8 75.53 79.13 75.86 79.14 76.26C79.14 76.67 78.81 77 78.4 77C77.51 77 77.21 77.14 77.09 77.26C76.97 77.37 76.84 77.64 76.84 78.48C76.84 78.67 76.76 78.86 76.62 79C76.48 79.14 76.3 79.22 76.1 79.22H75.16C74.76 79.22 74.43 78.89 74.43 78.48V76.26C74.43 75.86 74.76 75.53 75.16 75.53H78.4ZM76.1 78.48C76.1 76.78 76.59 76.27 78.4 76.26H75.16V78.48H76.1Z" fill="#D7AC63"/><path d="M75.16 78.48H76.1C76.1 76.78 76.59 76.27 78.4 76.26H75.16V78.48Z" fill="#D7AC63"/><path d="M78.4 75.53C78.8 75.53 79.13 75.86 79.14 76.26C79.14 76.67 78.81 77 78.4 77C77.51 77 77.21 77.14 77.09 77.26C76.97 77.37 76.84 77.64 76.84 78.48C76.84 78.67 76.76 78.86 76.62 79C76.48 79.14 76.3 79.22 76.1 79.22H75.16C74.76 79.22 74.43 78.89 74.43 78.48V76.26C74.43 75.86 74.76 75.53 75.16 75.53H78.4ZM76.1 78.48C76.1 76.78 76.59 76.27 78.4 76.26H75.16V78.48H76.1Z" fill="#D7AC63"/><path fill-rule="evenodd" clip-rule="evenodd" d="M123.47 60.79V73.96H142.02V76.28H123.47V85.95C123.47 87.39 123.54 88.27 123.66 88.57C123.73 88.73 123.83 88.88 123.95 89.01C124.08 89.13 124.22 89.23 124.39 89.3C124.63 89.4 124.88 89.47 125.14 89.51C125.45 89.55 125.85 89.58 126.35 89.58H142.02V91.35H113.61V90.46H114.81C115.14 90.46 115.49 90.43 115.85 90.36C116.21 90.29 116.54 90.19 116.85 90.05C117.15 89.92 117.43 89.75 117.68 89.53C117.92 89.33 118.11 89.07 118.24 88.78C118.44 88.28 118.55 87.23 118.55 85.64V64.63C118.56 63.8 118.51 62.96 118.4 62.14C118.3 61.49 118.13 61.05 117.9 60.82C117.28 60.19 116.26 59.87 114.81 59.87H113.61V59H142.02V60.83C141.49 60.8 133.63 60.78 132.98 60.78H123.47V60.79Z" fill="#D7AC63"/><path d="M142.02 58.27C142.42 58.27 142.76 58.6 142.76 59V60.83C142.76 61.03 142.67 61.22 142.52 61.36C142.38 61.5 142.18 61.58 141.97 61.56C141.47 61.53 133.66 61.52 132.98 61.52H124.21V73.22H142.02C142.42 73.22 142.76 73.55 142.76 73.96V76.28C142.76 76.69 142.42 77.02 142.02 77.02H124.21V85.95C124.21 86.66 124.23 87.22 124.26 87.63C124.27 87.84 124.29 88 124.31 88.12L124.34 88.29L124.35 88.29C124.38 88.37 124.42 88.43 124.48 88.49C124.53 88.55 124.6 88.59 124.67 88.62C124.85 88.7 125.05 88.75 125.24 88.78H125.25C125.51 88.82 125.87 88.84 126.34 88.84H142.02C142.42 88.84 142.76 89.17 142.76 89.58V91.35C142.76 91.76 142.42 92.09 142.02 92.09H113.61C113.2 92.09 112.87 91.76 112.87 91.35V90.46C112.87 90.05 113.2 89.72 113.61 89.72H114.81C115.09 89.72 115.39 89.69 115.71 89.64C116.02 89.57 116.3 89.49 116.55 89.38L116.56 89.37C116.79 89.28 117.01 89.14 117.2 88.97L117.21 88.96C117.36 88.84 117.48 88.67 117.56 88.49C117.62 88.34 117.69 88.04 117.74 87.55C117.78 87.06 117.81 86.42 117.81 85.63V64.62C117.82 63.83 117.77 63.04 117.67 62.25C117.57 61.63 117.43 61.4 117.38 61.34L117.37 61.34V61.34C116.96 60.91 116.17 60.61 114.81 60.61H113.61C113.2 60.61 112.87 60.27 112.87 59.87V59C112.87 58.6 113.2 58.27 113.61 58.27H142.02ZM113.61 59V59.87H114.81C116.26 59.87 117.28 60.19 117.9 60.82C118.13 61.05 118.3 61.49 118.4 62.13C118.51 62.96 118.56 63.8 118.55 64.63V85.63C118.55 87.23 118.44 88.28 118.24 88.78C118.11 89.07 117.92 89.33 117.68 89.53C117.43 89.75 117.15 89.92 116.85 90.05C116.54 90.19 116.21 90.29 115.85 90.36C115.49 90.43 115.14 90.46 114.81 90.46H113.61V91.35H142.02V89.58H126.34C125.85 89.58 125.45 89.55 125.14 89.51C124.88 89.47 124.63 89.4 124.39 89.3C124.22 89.23 124.08 89.13 123.95 89.01C123.83 88.88 123.73 88.73 123.66 88.57C123.54 88.27 123.47 87.39 123.47 85.95V76.28H142.02V73.96H123.47V60.78H132.98C133.63 60.78 141.48 60.79 142.02 60.83V59H113.61Z" fill="#D7AC63"/><path fill-rule="evenodd" clip-rule="evenodd" d="M123.47 60.79V73.96H142.02V76.28H123.47V85.95C123.47 87.39 123.54 88.27 123.66 88.57C123.73 88.73 123.83 88.88 123.95 89.01C124.08 89.13 124.22 89.23 124.39 89.3C124.63 89.4 124.88 89.47 125.14 89.51C125.45 89.55 125.85 89.58 126.35 89.58H142.02V91.35H113.61V90.46H114.81C115.14 90.46 115.49 90.43 115.85 90.36C116.21 90.29 116.54 90.19 116.85 90.05C117.15 89.92 117.43 89.75 117.68 89.53C117.92 89.33 118.11 89.07 118.24 88.78C118.44 88.28 118.55 87.23 118.55 85.64V64.63C118.56 63.8 118.51 62.96 118.4 62.14C118.3 61.49 118.13 61.05 117.9 60.82C117.28 60.19 116.26 59.87 114.81 59.87H113.61V59H142.02V60.83C141.49 60.8 133.63 60.78 132.98 60.78H123.47V60.79Z" fill="#D7AC63"/><path d="M142.02 58.27C142.42 58.27 142.76 58.6 142.76 59V60.83C142.76 61.03 142.67 61.22 142.52 61.36C142.38 61.5 142.18 61.58 141.97 61.56C141.47 61.53 133.66 61.52 132.98 61.52H124.21V73.22H142.02C142.42 73.22 142.76 73.55 142.76 73.96V76.28C142.76 76.69 142.42 77.02 142.02 77.02H124.21V85.95C124.21 86.66 124.23 87.22 124.26 87.63C124.27 87.84 124.29 88 124.31 88.12L124.34 88.29L124.35 88.29C124.38 88.37 124.42 88.43 124.48 88.49C124.53 88.55 124.6 88.59 124.67 88.62C124.85 88.7 125.05 88.75 125.24 88.78H125.25C125.51 88.82 125.87 88.84 126.34 88.84H142.02C142.42 88.84 142.76 89.17 142.76 89.58V91.35C142.76 91.76 142.42 92.09 142.02 92.09H113.61C113.2 92.09 112.87 91.76 112.87 91.35V90.46C112.87 90.05 113.2 89.72 113.61 89.72H114.81C115.09 89.72 115.39 89.69 115.71 89.64C116.02 89.57 116.3 89.49 116.55 89.38L116.56 89.37C116.79 89.28 117.01 89.14 117.2 88.97L117.21 88.96C117.36 88.84 117.48 88.67 117.56 88.49C117.62 88.34 117.69 88.04 117.74 87.55C117.78 87.06 117.81 86.42 117.81 85.63V64.62C117.82 63.83 117.77 63.04 117.67 62.25C117.57 61.63 117.43 61.4 117.38 61.34L117.37 61.34V61.34C116.96 60.91 116.17 60.61 114.81 60.61H113.61C113.2 60.61 112.87 60.27 112.87 59.87V59C112.87 58.6 113.2 58.27 113.61 58.27H142.02ZM113.61 59V59.87H114.81C116.26 59.87 117.28 60.19 117.9 60.82C118.13 61.05 118.3 61.49 118.4 62.13C118.51 62.96 118.56 63.8 118.55 64.63V85.63C118.55 87.23 118.44 88.28 118.24 88.78C118.11 89.07 117.92 89.33 117.68 89.53C117.43 89.75 117.15 89.92 116.85 90.05C116.54 90.19 116.21 90.29 115.85 90.36C115.49 90.43 115.14 90.46 114.81 90.46H113.61V91.35H142.02V89.58H126.34C125.85 89.58 125.45 89.55 125.14 89.51C124.88 89.47 124.63 89.4 124.39 89.3C124.22 89.23 124.08 89.13 123.95 89.01C123.83 88.88 123.73 88.73 123.66 88.57C123.54 88.27 123.47 87.39 123.47 85.95V76.28H142.02V73.96H123.47V60.78H132.98C133.63 60.78 141.48 60.79 142.02 60.83V59H113.61Z" fill="#D7AC63"/></svg> 