<?xml version="1.0"?>
<svg xmlns="http://www.w3.org/2000/svg" width="150" height="150" fill="none" viewBox="0 0 150 15">
  <path fill="#D4AF70" d="M6.9 6.6c.15-.075 1.5-.075 1.65-.15.55-.15 1-.35 1.35-.6.35-.25.625-.575.825-.975.15-.4.225-.8.225-1.2 0-.45-.075-.85-.225-1.2-.15-.35-.35-.65-.6-.9-.3-.3-.65-.5-1.05-.6A2.15 2.15 0 0 0 8.1.75H4.2v11.475c0 .2.025.35.075.45.05.15.125.25.225.3.1.1.2.175.3.225.3.15.625.225.975.225H6.3v.375H0v-.375h.525c.6 0 1.025-.15 1.275-.45.2-.25.3-.775.3-1.575V1.65c0-.2-.025-.375-.075-.525-.05-.1-.125-.2-.225-.3C1.7.725 1.6.65 1.5.6A2.15 2.15 0 0 0 .525.375H0V0h7.275c.8 0 1.475.025 2.025.075.5 0 .975.075 1.425.225.45.1.825.25 1.125.45.25.2.525.45.825.75.5.55.75 1.225.75 2.025 0 .85-.3 1.6-.9 2.25-.6.6-1.525 1.025-2.775 1.275H6.825V6.6H6.9Z"/>
  <path fill="#D4AF70" d="M6.9 6.6c.15-.075 1.5-.075 1.65-.15.55-.15 1-.35 1.35-.6.35-.25.625-.575.825-.975.15-.4.225-.8.225-1.2 0-.45-.075-.85-.225-1.2-.15-.35-.35-.65-.6-.9-.3-.3-.65-.5-1.05-.6A2.15 2.15 0 0 0 8.1.75H4.2v11.475c0 .2.025.35.075.45.05.15.125.25.225.3.1.1.2.175.3.225.3.15.625.225.975.225H6.3v.375H0v-.375h.525c.6 0 1.025-.15 1.275-.45.2-.25.3-.775.3-1.575V1.65c0-.2-.025-.375-.075-.525-.05-.1-.125-.2-.225-.3C1.7.725 1.6.65 1.5.6A2.15 2.15 0 0 0 .525.375H0V0h7.275c.8 0 1.475.025 2.025.075.5 0 .975.075 1.425.225.45.1.825.25 1.125.45.25.2.525.45.825.75.5.55.75 1.225.75 2.025 0 .85-.3 1.6-.9 2.25-.6.6-1.525 1.025-2.775 1.275H6.825V6.6H6.9Z"/>
  <path fill="#D4AF70" fill-rule="evenodd" d="m19.35 3.075-3.9 8.4c-.25.5-.375.875-.375 1.125s.1.45.3.6c.2.15.675.25 1.425.3v.375h-4.725V13.5c.65-.1 1.075-.25 1.275-.45.35-.3.75-.95 1.2-1.95L19.8 0h.375l5.1 11.25c.45.9.85 1.5 1.2 1.8.3.25.75.4 1.35.45v.375H22.05V13.5c.25-.05.475-.1.675-.15.2-.05.35-.1.45-.15.1-.05.2-.125.3-.225.05-.1.075-.2.075-.3 0-.3-.15-.775-.45-1.425l-3.75-8.175Z" clip-rule="evenodd"/>
  <path fill="#D4AF70" fill-rule="evenodd" d="m19.35 3.075-3.9 8.4c-.25.5-.375.875-.375 1.125s.1.45.3.6c.2.15.675.25 1.425.3v.375h-4.725V13.5c.65-.1 1.075-.25 1.275-.45.35-.3.75-.95 1.2-1.95L19.8 0h.375l5.1 11.25c.45.9.85 1.5 1.2 1.8.3.25.75.4 1.35.45v.375H22.05V13.5c.25-.05.475-.1.675-.15.2-.05.35-.1.45-.15.1-.05.2-.125.3-.225.05-.1.075-.2.075-.3 0-.3-.15-.775-.45-1.425l-3.75-8.175ZM29.175 0h3.975l9.075 10.35V2.4c0-.85-.1-1.4-.3-1.65-.25-.25-.675-.375-1.275-.375h-.525V0H43.2v14.025h-.375l-9.75-11.1V11.4c0 .85.1 1.4.3 1.65.25.25.675.375 1.275.375h.525v.375H30v-.375h.525c.6 0 1.025-.175 1.275-.525.2-.2.3-.7.3-1.5V1.8l-.6-.6a1.34 1.34 0 0 0-.375-.375c-.15-.05-.3-.125-.45-.225-.2-.05-.375-.1-.525-.15a2.21 2.21 0 0 0-.975-.075V0Z" clip-rule="evenodd"/>
  <path fill="#D4AF70" fill-rule="evenodd" d="M29.175 0h3.975l9.075 10.35V2.4c0-.85-.1-1.4-.3-1.65-.25-.25-.675-.375-1.275-.375h-.525V0H43.2v14.025h-.375l-9.75-11.1V11.4c0 .85.1 1.4.3 1.65.25.25.675.375 1.275.375h.525v.375H30v-.375h.525c.6 0 1.025-.175 1.275-.525.2-.2.3-.7.3-1.5V1.8l-.6-.6a1.34 1.34 0 0 0-.375-.375c-.15-.05-.3-.125-.45-.225-.2-.05-.375-.1-.525-.15a2.21 2.21 0 0 0-.975-.075V0Zm120.824 0v.825h-5.4v10.65c0 .85.1 1.375.3 1.575.3.25.725.375 1.275.375h.525v.45h-6.3v-.45h.525c.65 0 1.1-.175 1.35-.525.15-.2.225-.675.225-1.425V.825h-5.325V0h12.825Z" clip-rule="evenodd"/>
  <path fill="#D4AF70" fill-rule="evenodd" d="M149.999 0v.825h-5.4v10.65c0 .85.1 1.375.3 1.575.3.25.725.375 1.275.375h.525v.45h-6.3v-.45h.525c.65 0 1.1-.175 1.35-.525.15-.2.225-.675.225-1.425V.825h-5.325V0h12.825Z" clip-rule="evenodd"/>
  <path fill="#D4AF70" d="M149.55 1.575h.45c-.15-.3-.225-.525-.6-.675.075.15.15.3.15.675Z"/>
  <path fill="#D4AF70" d="M149.55 1.575h.45c-.15-.3-.225-.525-.6-.675.075.15.15.3.15.675Z"/>
  <path fill="#D4AF70" d="M150 1.575v-.75h-.9c.1 0 .2.025.3.075.375.15.45.375.6.675Z"/>
  <path fill="#D4AF70" d="M150 1.575v-.75h-.9c.1 0 .2.025.3.075.375.15.45.375.6.675Zm-12.451 0h-.375c.075-.3.15-.525.6-.675-.15.15-.225.3-.225.675Z"/>
  <path fill="#D4AF70" d="M137.549 1.575h-.375c.075-.3.15-.525.6-.675-.15.15-.225.3-.225.675Z"/>
  <path fill="#D4AF70" d="M137.174 1.575v-.75h.825c-.1 0-.175.025-.225.075-.45.15-.525.375-.6.675Z"/>
  <path fill="#D4AF70" d="M137.174 1.575v-.75h.825c-.1 0-.175.025-.225.075-.45.15-.525.375-.6.675Z"/>
  <path fill="#D4AF70" fill-rule="evenodd" d="m57.825 0 .075.825h-5.4v10.65c0 .85.1 1.375.3 1.575.25.25.675.375 1.275.375h.525v.45h-6.3v-.45h.525c.65 0 1.1-.175 1.35-.525.15-.2.225-.675.225-1.425V.825h-5.325V0h12.75Z" clip-rule="evenodd"/>
  <path fill="#D4AF70" fill-rule="evenodd" d="m57.825 0 .075.825h-5.4v10.65c0 .85.1 1.375.3 1.575.25.25.675.375 1.275.375h.525v.45h-6.3v-.45h.525c.65 0 1.1-.175 1.35-.525.15-.2.225-.675.225-1.425V.825h-5.325V0h12.75Z" clip-rule="evenodd"/>
  <path fill="#D4AF70" d="M57.45 1.575h.45c-.15-.3-.225-.525-.6-.675.075.15.15.3.15.675Z"/>
  <path fill="#D4AF70" d="M57.45 1.575h.45c-.15-.3-.225-.525-.6-.675.075.15.15.3.15.675Z"/>
  <path fill="#D4AF70" d="M57.9 1.575v-.75H57c.1 0 .2.025.3.075.375.15.45.375.6.675Z"/>
  <path fill="#D4AF70" d="M57.9 1.575v-.75H57c.1 0 .2.025.3.075.375.15.45.375.6.675Zm-12.45 0h-.375c.075-.3.15-.525.6-.675-.15.15-.225.3-.225.675Z"/>
  <path fill="#D4AF70" d="M45.45 1.575h-.375c.075-.3.15-.525.6-.675-.15.15-.225.3-.225.675Z"/>
  <path fill="#D4AF70" d="M45.075 1.575v-.75h.825c-.1 0-.175.025-.225.075-.45.15-.525.375-.6.675Z"/>
  <path fill="#D4AF70" d="M45.075 1.575v-.75h.825c-.1 0-.175.025-.225.075-.45.15-.525.375-.6.675Z"/>
  <path fill="#D4AF70" fill-rule="evenodd" d="M70.725 5.7V0H75v.375h-.525c-.3 0-.6.05-.9.15-.1.05-.225.125-.375.225-.1.1-.175.2-.225.3-.05.25-.075.7-.075 1.35v9.75c0 .2.025.375.075.525.05.15.125.25.225.3.05.1.15.175.3.225.3.15.625.225.975.225H75v.375h-4.2V7.35h-6.825v6.45H59.7v-.375h.525c.65 0 1.1-.15 1.35-.45.15-.25.225-.775.225-1.575V1.65c0-.2-.025-.375-.075-.525l-.15-.3c-.1-.1-.2-.175-.3-.225-.35-.15-.7-.225-1.05-.225H59.7V0h4.275v6.375H70.8V5.7h-.075Z" clip-rule="evenodd"/>
  <path fill="#D4AF70" fill-rule="evenodd" d="M70.725 5.7V0H75v.375h-.525c-.3 0-.6.05-.9.15-.1.05-.225.125-.375.225-.1.1-.175.2-.225.3-.05.25-.075.7-.075 1.35v9.75c0 .2.025.375.075.525.05.15.125.25.225.3.05.1.15.175.3.225.3.15.625.225.975.225H75v.375h-4.2V7.35h-6.825v6.45H59.7v-.375h.525c.65 0 1.1-.15 1.35-.45.15-.25.225-.775.225-1.575V1.65c0-.2-.025-.375-.075-.525l-.15-.3c-.1-.1-.2-.175-.3-.225-.35-.15-.7-.225-1.05-.225H59.7V0h4.275v6.375H70.8V5.7h-.075ZM81.3.75v5.625h7.95v.975H81.3v4.2c0 .6.025.975.075 1.125l.15.15.15.15c.1.05.225.075.375.075h7.2v.825H77.1v-.45h.9l.45-.15a.941.941 0 0 0 .375-.225c.1-.1.175-.2.225-.3.1-.2.15-.65.15-1.35v-9c0-.45-.025-.8-.075-1.05-.05-.3-.125-.5-.225-.6-.25-.25-.675-.375-1.275-.375H77.1V0h12.15v.75H81.3Z" clip-rule="evenodd"/>
  <path fill="#D4AF70" fill-rule="evenodd" d="M81.3.75v5.625h7.95v.975H81.3v4.2c0 .6.025.975.075 1.125l.15.15.15.15c.1.05.225.075.375.075h7.2v.825H77.1v-.45h.9l.45-.15a.941.941 0 0 0 .375-.225c.1-.1.175-.2.225-.3.1-.2.15-.65.15-1.35v-9c0-.45-.025-.8-.075-1.05-.05-.3-.125-.5-.225-.6-.25-.25-.675-.375-1.275-.375H77.1V0h12.15v.75H81.3Zm15.15 5.7c.15 0 1.5-.075 1.65-.075.55-.15 1-.375 1.35-.675.35-.25.625-.55.825-.9.15-.4.225-.8.225-1.2 0-.45-.075-.85-.225-1.2-.15-.35-.35-.65-.6-.9-.3-.25-.65-.45-1.05-.6-.3-.1-.625-.15-.975-.15-.2-.05-.425-.05-.675 0l-5.55-.375V0h5.4c.8 0 1.475.025 2.025.075.55 0 1.025.075 1.425.225.45.1.825.25 1.125.45.25.2.525.425.825.675.5.6.75 1.275.75 2.025 0 .4-.075.8-.225 1.2-.15.35-.375.675-.675.975-.6.65-1.525 1.1-2.775 1.35l3.375 4.125c.35.45.675.825.975 1.125.3.3.575.525.825.675.3.2.6.325.9.375.3.1.675.15 1.125.15v.375h-3.975l-4.875-6-1.2-1.35Z" clip-rule="evenodd"/>
  <path fill="#D4AF70" fill-rule="evenodd" d="M96.45 6.45c.15 0 1.5-.075 1.65-.075.55-.15 1-.375 1.35-.675.35-.25.625-.55.825-.9.15-.4.225-.8.225-1.2 0-.45-.075-.85-.225-1.2-.15-.35-.35-.65-.6-.9-.3-.25-.65-.45-1.05-.6-.3-.1-.625-.15-.975-.15-.2-.05-.425-.05-.675 0l-5.55-.375V0h5.4c.8 0 1.475.025 2.025.075.55 0 1.025.075 1.425.225.45.1.825.25 1.125.45.25.2.525.425.825.675.5.6.75 1.275.75 2.025 0 .4-.075.8-.225 1.2-.15.35-.375.675-.675.975-.6.65-1.525 1.1-2.775 1.35l3.375 4.125c.35.45.675.825.975 1.125.3.3.575.525.825.675.3.2.6.325.9.375.3.1.675.15 1.125.15v.375h-3.975l-4.875-6-1.2-1.35Z" clip-rule="evenodd"/>
  <path fill="#D4AF70" d="M92.85 13.8V4.725h.825s.45 6.675.825 8.325c.075.375.525.375 1.05.45v.3h-2.7Z"/>
  <path fill="#D4AF70" d="M92.85 13.8V4.725h.825s.45 6.675.825 8.325c.075.375.525.375 1.05.45v.3h-2.7Z"/>
  <path fill="#D4AF70" fill-rule="evenodd" d="M118.874 6.75c.6.15.975.3 1.425.525.4.2.725.45.975.75.3.3.5.6.6.9.15.35.225.725.225 1.125 0 .35-.075.7-.225 1.05-.1.3-.275.6-.525.9-.45.675-1.125 1.125-1.875 1.425-.825.3-1.95.375-3.6.375h-6.975v-.375h.525c.65 0 1.1-.175 1.35-.525.15-.25.225-.75.225-1.5v-9c0-.85-.1-1.375-.3-1.575-.25-.3-.675-.45-1.275-.45h-.525V0h6.375c.75 0 1.4.025 1.95.075.55.05 1.05.15 1.5.3.4.1.775.25 1.125.45.3.2.575.425.825.675.55.65.825 1.375.825 2.175 0 .7-.225 1.325-.675 1.875-.45.55-1.1.95-1.95 1.2Zm-5.775 6.075h3.075c.975 0 2.175-.3 2.475-.6.35-.25.6-.55.75-.9.3-.525.375-1.2.225-1.8-.15-.6-.525-1.2-1.05-1.5-.3-.225-.9-.525-1.8-.675v-.975c.75-.075 1.65-.3 1.875-.525.35-.25.6-.55.75-.9.2-.4.3-.8.3-1.2 0-.4-.1-.8-.3-1.2-.2-.4-.475-.725-.825-.975-.45-.3-1.275-.675-2.7-.675h-2.775v11.925Z" clip-rule="evenodd"/>
  <path fill="#D4AF70" fill-rule="evenodd" d="M118.874 6.75c.6.15.975.3 1.425.525.4.2.725.45.975.75.3.3.5.6.6.9.15.35.225.725.225 1.125 0 .35-.075.7-.225 1.05-.1.3-.275.6-.525.9-.45.675-1.125 1.125-1.875 1.425-.825.3-1.95.375-3.6.375h-6.975v-.375h.525c.65 0 1.1-.175 1.35-.525.15-.25.225-.75.225-1.5v-9c0-.85-.1-1.375-.3-1.575-.25-.3-.675-.45-1.275-.45h-.525V0h6.375c.75 0 1.4.025 1.95.075.55.05 1.05.15 1.5.3.4.1.775.25 1.125.45.3.2.575.425.825.675.55.65.825 1.375.825 2.175 0 .7-.225 1.325-.675 1.875-.45.55-1.1.95-1.95 1.2Zm-5.775 6.075h3.075c.975 0 2.175-.3 2.475-.6.35-.25.6-.55.75-.9.3-.525.375-1.2.225-1.8-.15-.6-.525-1.2-1.05-1.5-.3-.225-.9-.525-1.8-.675v-.975c.75-.075 1.65-.3 1.875-.525.35-.25.6-.55.75-.9.2-.4.3-.8.3-1.2 0-.4-.1-.8-.3-1.2-.2-.4-.475-.725-.825-.975-.45-.3-1.275-.675-2.7-.675h-2.775v11.925Z" clip-rule="evenodd"/>
  <path fill="#D4AF70" d="M116.775 7.35v-.975H113.1v.975h3.675Z"/>
  <path fill="#D4AF70" d="M116.775 7.35v-.975H113.1v.975h3.675Zm-5.775 0v-.975h-4.425v.975H111Z"/>
  <path fill="#D4AF70" d="M111 7.35v-.975h-4.425v.975H111Zm-4.05-1.95h-.375v.975H108c-.825 0-1.05-.225-1.05-.975Z"/>
  <path fill="#D4AF70" d="M106.95 5.4h-.375v.975H108c-.825 0-1.05-.225-1.05-.975Zm-.375 2.925h.375c0-.75.225-.975.975-.975h-1.35v.975Z"/>
  <path fill="#D4AF70" d="M106.575 8.325h.375c0-.75.225-.975.975-.975h-1.35v.975Z"/>
  <path fill="#D4AF70" fill-rule="evenodd" d="M127.275.75v5.625h7.95v.975h-7.95v4.2c0 .6.025.975.075 1.125l.15.15.15.15c.1.05.225.075.375.075h7.2v.825h-12.15v-.45h.9c.2-.05.35-.1.45-.15a.941.941 0 0 0 .375-.225c.1-.1.175-.2.225-.3.1-.2.15-.65.15-1.35v-9c0-.35-.025-.7-.075-1.05-.05-.3-.125-.5-.225-.6-.25-.25-.675-.375-1.275-.375h-.525V0h12.15v.75h-7.95Z" clip-rule="evenodd"/>
  <path fill="#D4AF70" fill-rule="evenodd" d="M127.275.75v5.625h7.95v.975h-7.95v4.2c0 .6.025.975.075 1.125l.15.15.15.15c.1.05.225.075.375.075h7.2v.825h-12.15v-.45h.9c.2-.05.35-.1.45-.15a.941.941 0 0 0 .375-.225c.1-.1.175-.2.225-.3.1-.2.15-.65.15-1.35v-9c0-.35-.025-.7-.075-1.05-.05-.3-.125-.5-.225-.6-.25-.25-.675-.375-1.275-.375h-.525V0h12.15v.75h-7.95Z" clip-rule="evenodd"/>
</svg>
