<?xml version="1.0" encoding="UTF-8"?>
<svg id="Layer_1" data-name="Layer 1" xmlns="http://www.w3.org/2000/svg" viewBox="0 0 2631.28 498.32">
  <defs>
    <style>
      .cls-1 {
        fill: #f1c72f;
      }

      .cls-2 {
        fill: #fff;
      }

      .cls-3 {
        fill: #db1b13;
      }
    </style>
  </defs>
  <path class="cls-2" d="m1295.82,238.99c-16.09.96-30.44,5.84-43.04,14.71-14.13,9.93-23.31,22.55-27.56,37.79l-17.27,61.71h-58.7l43.78-156.55h33.14c18.04,0,21.52,9.03,17.32,24.06-1.19,4.29-1.68,6.05-1.68,6.05h.59c19.14-18.58,40.88-28.46,65.18-29.83l-11.75,42.06m656.18-42.06c-24.3,1.37-46.06,11.24-65.18,29.83h-.62s.5-1.77,1.7-6.05c4.2-15.03.72-24.06-17.34-24.06h-33.14l-43.76,156.55h58.71l17.26-61.71c4.27-15.24,13.44-27.86,27.55-37.79,12.62-8.87,26.98-13.75,43.04-14.71l11.77-42.06Zm-1200.22,93.05c-1.47,5.22-5.19,10.04-11.12,14.45-5.95,4.42-11.73,6.63-17.36,6.63-6.02,0-9.82-1.7-11.36-5.12-1.57-3.42-1.06-9.75,1.54-18.96l25.24-90.34h-55.69l-26.1,93.33c-6.85,24.49-7.79,41.65-2.79,51.49,4.96,9.84,16.28,14.76,33.96,14.76s36.05-7.62,52.75-22.89h.61l-4.94,19.86h30.72c15.03,0,26.58-9.01,30.78-24.06,3.36-12.02,37.04-132.5,37.04-132.5h-57.2l-26.08,93.33Zm399.81,1.51c2.36-5.62,4.3-11.14,5.82-16.56,15.14-54.19-2.87-81.3-54.05-81.3-25.9,0-47.62,7.03-65.21,21.09-17.57,14.04-30.02,34.13-37.29,60.21-7.37,26.29-5.31,46.42,6.14,60.37,11.47,13.93,31.44,20.92,59.93,20.92,18.08,0,37.35-2.52,57.83-7.53l10.92-39.14c-20.66,5.03-36.92,7.53-48.76,7.53-13.64,0-23.04-1.91-28.21-5.73-5.17-3.8-7.13-10.42-5.89-19.86h98.76Zm-77.21-53.9c5.09-4.2,11.74-6.31,19.98-6.31,7.62,0,12.68,2.2,15.16,6.61,2.48,4.42,2.29,11.75-.59,21.99h-47.86c3.77-10.63,8.21-18.08,13.32-22.29m-84.28-23.75c-6.94-13.95-19.65-20.92-38.13-20.92s-36.24,7.62-52.75,22.89h-.61l5.37-19.16h-55.4l-62.09,222.08h33.14c15.03,0,26.58-9.03,30.79-24.06,2.03-7.26,16.06-57.54,16.06-57.54h.61c10.23,12.25,23.37,18.38,39.43,18.38,17.66,0,34.09-7.12,49.32-21.39,15.23-14.24,26.42-34.22,33.61-59.91,7.37-26.29,7.56-46.42.63-60.37m-102.88,43.81c1.52-5.43,5.61-10.54,12.28-15.36,6.66-4.81,13.19-7.22,19.62-7.22,17.05,0,21.95,13.05,14.65,39.14-3.66,13.05-8.7,22.84-15.13,29.34-6.45,6.54-13.58,9.8-21.42,9.8-6.42,0-11.61-2.41-15.59-7.23-3.98-4.83-5.2-9.95-3.69-15.35l9.26-33.12Zm739.92-43.81c-6.94-13.95-19.65-20.92-38.11-20.92s-36.26,7.62-52.77,22.89h-.59l5.33-19.16h-55.38l-62.09,222.08h33.14c15.03,0,26.58-9.03,30.78-24.06,2.04-7.26,16.08-57.54,16.08-57.54h.61c10.21,12.25,23.35,18.38,39.41,18.38,17.68,0,34.11-7.12,49.34-21.39,15.23-14.24,26.44-34.22,33.61-59.91,7.36-26.29,7.55-46.42.63-60.37m-102.88,43.81c1.5-5.43,5.61-10.54,12.26-15.36,6.68-4.81,13.21-7.22,19.63-7.22,17.07,0,21.96,13.05,14.67,39.14-3.67,13.05-8.68,22.84-15.13,29.34-6.46,6.54-13.58,9.8-21.4,9.8-6.43,0-11.63-2.41-15.59-7.23-4-4.83-5.22-9.95-3.7-15.35l9.26-33.12Zm113.69,17.28c-7.13,25.5-5.56,45.41,4.66,59.76,10.25,14.36,28.21,21.54,53.9,21.54s47.68-7.17,65.93-21.54c18.27-14.35,30.95-34.26,38.08-59.76,7.13-25.48,5.58-45.42-4.66-59.76-10.25-14.35-28.22-21.54-53.9-21.54s-47.67,7.19-65.93,21.54c-18.26,14.34-30.97,34.28-38.08,59.76m57.2,0c4.3-15.46,9.27-26.35,14.85-32.67,5.57-6.33,12.58-9.48,21.02-9.48s13.68,3.16,15.72,9.48c2.04,6.33.9,17.21-3.42,32.67-4.31,15.46-9.27,26.35-14.86,32.67-5.58,6.33-12.57,9.48-21.01,9.48s-13.65-3.15-15.72-9.48c-2.04-6.33-.9-17.21,3.42-32.67m325.21,76.77l11.77-42.16c-9.47,3.01-18.91,4.52-28.35,4.52-7.03,0-11.12-1.51-12.29-4.52-1.16-3.01-.07-10.54,3.31-22.56l13.46-48.19h43.66l11.78-42.15h-43.67s6.26-22.33,7.6-27.11c4.2-15.05.71-24.08-17.33-24.08h-33.17l-41.24,147.54c-6.61,23.66-6.8,40.13-.55,49.36,6.25,9.23,20.1,13.86,41.59,13.86,14.85,0,29.33-1.51,43.42-4.52M615.56,129.84c-26.91,0-49.01,5.62-66.3,16.85-17.28,11.27-28.74,27.29-34.22,46.95-5.11,18.27-3.53,33.57,4.78,45.92,8.27,12.35,24.62,22.64,49.02,30.86,6.74,2.41,11.1,5.14,13.07,8.13,1.97,3.01,2.17,7.34.6,12.96-3.36,12.04-14.09,18.06-32.15,18.06-21.88,0-40.62-6.52-56.24-19.57l-13.9,49.67c15.18,11.05,35.22,16.58,60.09,16.58,57.22,0,91.99-22.08,104.34-66.25,5.32-19.07,4.08-34.31-3.77-45.76-7.85-11.44-24.66-21.28-50.46-29.5-12.33-4.02-17.09-11.05-14.28-21.09,3.2-11.43,13.03-17.3,29.56-17.57,8.57-.14,15.89,1.06,22,1.9,10.08,1.37,25.69-.27,31.12-19.72,4.85-17.37,6.08-22.11,6.08-22.11-13.86-4.16-30.29-6.29-49.35-6.29m804.19-3.23c-26.89,0-48.99,5.6-66.28,16.85-17.29,11.24-28.74,27.28-34.24,46.94-5.11,18.28-3.52,33.57,4.78,45.92,8.29,12.34,24.62,22.61,49.02,30.85,6.74,2.41,11.1,5.12,13.09,8.13,1.95,3.01,2.15,7.34.58,12.96-3.36,12.04-14.07,18.06-32.14,18.06-21.88,0-40.63-6.53-56.25-19.57l-13.88,49.67c15.17,11.04,35.21,16.56,60.1,16.56,57.2,0,91.99-22.08,104.32-66.23,5.33-19.07,4.08-34.31-3.77-45.75-7.83-11.44-24.66-21.29-50.46-29.5-12.32-4.02-17.09-11.05-14.28-21.09,3.19-11.42,13.04-17.3,29.58-17.57,8.56-.15,15.88,1.06,21.98,1.89,10.1,1.37,25.68-.27,31.12-19.72,4.86-17.37,6.08-22.11,6.08-22.11-13.85-4.18-30.27-6.29-49.35-6.29"/>
  <g>
    <path class="cls-1" d="m2194.38,232.35c11.3,4.13,19.45,10.9,24.46,20.3,5,9.4,5.57,20.72,1.69,33.94-4.51,15.7-10.59,28-18.25,36.88-7.66,8.89-16.48,15.49-26.44,19.83-9.97,4.34-20.88,7.03-32.74,8.06-11.86,1.04-24.15,1.55-36.86,1.55h-72.19l64.31-225.93h69.06c10,0,20.21.57,30.63,1.71,10.42,1.14,19.57,3.62,27.47,7.44,7.89,3.83,13.64,9.51,17.25,17.05,3.6,7.54,3.59,17.72-.04,30.53-3.3,11.36-9.28,21.28-17.94,29.75-8.67,8.47-18.8,14.78-30.42,18.91Zm-60.34,25.1h-13.12l-14.94,52.38h17.5c5.2,0,10.14-.41,14.8-1.24,4.65-.82,8.84-2.27,12.57-4.34,3.72-2.06,7-4.96,9.83-8.68,2.83-3.72,5.02-8.47,6.57-14.26,1.51-5.37,1.42-9.66-.27-12.86-1.7-3.2-4.3-5.63-7.79-7.28-3.5-1.65-7.53-2.68-12.07-3.1-4.55-.41-8.91-.62-13.07-.62Zm28.02-87.4h-16.25l-12.26,43.39h9.06c3.95,0,8.24-.2,12.87-.62,4.62-.41,9.03-1.34,13.21-2.79,4.19-1.44,7.98-3.66,11.37-6.66,3.39-2.99,5.83-7.07,7.33-12.24,1.25-4.75,1.38-8.52.37-11.31s-2.75-4.91-5.22-6.35c-2.48-1.44-5.52-2.37-9.13-2.79-3.61-.41-7.4-.62-11.35-.62Z"/>
    <path class="cls-1" d="m2280.48,126.98l-64.31,225.93s122.9.01,129.7,0c14.29,0,25.09-8.07,28.79-21.32l8.34-29.2h-83.11s0,0,0,0h-8.95l10.89-38.43,81.95.09,14.56-49.06h-82.5l11.34-39.98h66.56c5.42,0,10.91-1.5,16.49-4.49,5.58-2.99,9.15-7.49,10.72-13.48l8.62-30.06h-149.09Z"/>
    <path class="cls-1" d="m2444.4,126.67l-13.95,48.35h62.19l-50.69,177.89h6.22c1.61,0,27.42.01,34.11,0,14.29,0,25.09-8.07,28.79-21.32l8.09-28.94,36.29-127.63h62.19l13.64-48.35h-186.88Z"/>
  </g>
  <path class="cls-1" d="m499.93,41.23c0-22.77-22.01-41.23-49.17-41.23s-49.17,18.46-49.17,41.23,22.01,41.23,49.17,41.23,49.17-18.46,49.17-41.23"/>
  <path class="cls-3" d="m352.74,228.13c-43.88-42.67-190.66-13.92-245.73-22.84-26.71-4.33-44.28-14.3-44.28-35.41,0-88.35,236.39-142.52,271.22-141.7,10.92.26,23.2,5.89,28.64,10.71,13.76,12.2,23.53,29.15,21.86,42.29,0,13.39-16.97,21.03-33.93,21.03-101.11,0-178.24,26.51-197.81,41.19-.62.6-.99,1.39-.99,2.24,0,1.88,1.82,3.41,4.06,3.41,20.62,0,151.84-24.94,228.94,10.88,33.47,15.56,51.08,48.11,50.93,83.1,0,24.54-18.18,47.28-37.29,63.28-33.41,28-103.79,56.09-181.34,93.53-76.1,36.72-152.32,74.72-193.89,93.33-9.94,4.45-20.3,7.53-22.57,2.67-2.06-4.36,2.12-10.38,4.55-13.36,18.19-22.31,108.3-72.62,192.81-119.92,71.38-39.93,144.53-76.35,160.28-102.53,2.08-3.5,3.25-7.52,3.25-11.7,0-6.67-3.87-15.53-8.7-20.23"/>
</svg>