<?xml version="1" encoding="utf-8"?><!DOCTYPE svg PUBLIC "-//W3C//DTD SVG 1.1//EN" "http://www.w3.org/Graphics/SVG/1.1/DTD/svg11.dtd"><svg version="1.1" xmlns="http://www.w3.org/2000/svg" x="0px" y="0px" width="359px" height="132px" viewBox="0 0 359 132" enable-background="new 0 0 359 132"><g><path fill-rule="evenodd" clip-rule="evenodd" fill="#FFFFFF" d="M42.5,24.38c3.34,0.09,6.68,0.19,10.02,0.28 c1.52,0.8,3.27,1.28,4.16,2.92c-0.25,0.9,0.29,0.45,0.66,0.33c0.56-0.06,0.98,0.2,1.39,0.51 c2.3,10.97,4.6,21.94,6.9,32.91c0.45,0.63,0.41,2.08,1.83,1.09c2.35-11.86,4.75-23.71,7-35.59 c0.45-2.38,1.92-2.33,3.63-2.32c3.83,0.01,7.67,0.1,11.5-0.03c2.8-0.1,3.9,0.43,3.04,3.67 C86.88,49.89,81.75,71.82,75.45,93.41c-1.98,6.78-9.26,1.58-13.92,2.95c-2.67,0.78-3.58-0.93-4.11-3.51 c-2.25-11.02-4.76-21.98-7.4-33.92c-2.67,11.86-5.24,22.75-7.49,33.71c-0.59,2.87-1.69,3.81-4.57,3.87 c-13.02,0.31-13.06,0.4-16.22-11.89C17.01,66.2,12.39,47.76,7.62,29.35c-0.9-3.45-0.67-5.4,3.69-4.9 c4.43,0.5,10.14-1.78,13.02,0.92c2.62,2.45,2.32,8.08,3.23,12.32c1.8,8.42,3.54,16.85,5.67,25.38 c2.94-11.69,5.71-23.43,7.34-35.42C41.69,26.85,39.92,24.32,42.5,24.38z"/><path fill-rule="evenodd" clip-rule="evenodd" fill="#FEFEFE" d="M296.6,95.5c-1.67,1.66-3.77,0.87-5.67,0.89 c-9.82,0.07-19.64-0.06-29.45,0.1c-3.02,0.05-4.05-0.83-4.04-3.93c0.11-21.46,0.11-42.93,0.02-64.39 c-0.01-2.77,0.71-3.91,3.62-3.71c3.31,0.22,6.68,0.3,9.97-0.01c3.79-0.37,4.4,1.36,4.39,4.66 c-0.05,17.13,0.1,34.26,0.19,51.39c6.55,1.48,13.1-0.36,19.67-0.08c4.04,0.17,5.46,1.52,4.39,5.39 c-0.23,2.43-0.5,4.86-1.22,7.21C298.16,94.06,297.31,94.73,296.6,95.5z"/><path fill-rule="evenodd" clip-rule="evenodd" fill="#F9F8F8" d="M311.96,118.74c0,2.91-0.15,5.84,0.05,8.74 c0.16,2.32-0.41,3.24-2.94,3.23c-2.47-0.01-2.58-1.19-2.56-3.06c0.07-6.16-0.03-12.31,0.08-18.47 c0.02-1.25-0.95-3.23,1.48-3.53c1.92-0.24,3.43,0.16,4.5,2.15c1.88,3.5,4.07,6.84,6.97,11.65 c0-3.99-0.14-6.66,0.05-9.3c0.13-1.82-1.24-4.51,2.62-4.59c3.7-0.08,2.88,2.35,2.89,4.35 c0.04,5.66,0.04,11.31-0.05,16.97c-0.02,1.32,0.93,3.27-1.32,3.68c-1.97,0.35-3.76,0.28-4.95-2.09 c-1.73-3.44-3.95-6.64-5.96-9.95C312.54,118.6,312.25,118.67,311.96,118.74z"/><path fill-rule="evenodd" clip-rule="evenodd" fill="#FAF8F8" d="M202.41,3.75c0.17,0.59,0.57,0.7,1.1,0.53 c4.06,1.67,4.87,4.55,3.17,8.41c-1.12,2.54-2.16,5.11-3.24,7.66c-1.11,1.96-1.73,4.28-3.83,5.56 c-3.67,1.25-5.11-0.58-5.21-4.09c-3.33,2.12-3.33,2.12-4.95,0.55c0.02-0.66-0.09-1.37,0.09-1.99 c2.51-8.46,2.12-9.64-5.2-14.39C190.46,4.35,196.31,3.18,202.41,3.75z"/><path fill-rule="evenodd" clip-rule="evenodd" fill="#F9F8F8" d="M346.7,120.42c-0.84-3.3,0.75-3.94,3.71-3.82 c2.63,0.1,4.7,0.17,4.07,3.67c-0.15,0.81,0.16,1.71-0.04,2.48c-0.65,2.54,1.85,6.21-1.36,7.54 c-4.37,1.81-9.15,1.86-13.18-1.5c-3.85-3.21-5.21-10.69-3.03-16.18c1.94-4.89,6.69-7.51,12.45-7.11 c2.94,0.2,4.64,1.33,4.42,4.83c-3.5,0.05-7.61-1.94-10.23,2.16c-1.39,2.18-1.48,4.63-1.51,7.1 c-0.01,1.03,0.18,1.95,0.85,2.77c1.09,1.33,2.52,2.81,4.13,1.96C348.86,123.33,346.91,121.76,346.7,120.42z"/><path fill-rule="evenodd" clip-rule="evenodd" fill="#F6F6F5" d="M230.2,130.39c-14.4,1.12-14.4,1.12-14.4-12.97 c0-0.5,0-1,0-1.5c0-11.61-0.01-11.51,11.45-10.38c2.32,0.23,2.81,1.58,3.04,3.14c0.42,2.78-1.87,1.53-3.06,1.7 c-1.31,0.19-2.66,0.09-3.99,0.05c-2.21-0.06-1.68,1.54-1.74,2.79c-0.07,1.39-0.13,2.76,1.95,2.54 c0.66-0.07,1.34-0.1,2-0c1.57,0.23,3.83-1.03,4.08,2.1c0.28,3.5-2.37,2.32-4.02,2.78 c-1.16,0.95-2.49,1.91-1.7,3.66c0.71,1.58,2.26,1.76,3.79,1.7C231.15,125.88,232.05,127.31,230.2,130.39z"/><path fill-rule="evenodd" clip-rule="evenodd" fill="#F8F7F6" d="M11.43,126.6c2.25-0.08,4.84,0.71,5.64-2.1 c0.79-2.77-1.77-3.52-3.5-4.66c-2.3-1.52-5.26-2.4-6.02-5.5c-0.72-2.98-0.11-5.74,2.69-7.36 c3.15-1.83,6.57-2.17,9.93-0.5c1.16,0.58,1.46,1.98,1.16,3.07c-0.52,1.86-1.83,0.59-2.81,0.39 c-2.27-0.47-4.7-0.38-5.45,2.03c-0.74,2.37,1.54,3.24,3.4,4.07c3.42,1.52,6.7,3.39,6.71,7.7 c0.01,2.97-1.45,5.45-4.41,6.61c-3.34,1.3-6.75,1.8-10.03-0.14c-1.05-0.62-1.65-2.02-1.12-3.05 C8.52,125.39,10.29,127.05,11.43,126.6z"/><path fill-rule="evenodd" clip-rule="evenodd" fill="#F9FAFA" d="M155.87,8.33c7.98,0.56,14.62,4.13,20.62,9.15 c1.28,1.77,0.91,3.22-1.25,3.45c-1.6,0.18-2.65,0.93-3.75,1.86c-5.72,1.01-5.9,0.91-7.39-4.14 c0.02-0.8,1.94-0.85,0.79-2.09c-1.07-0.62-1.85-0.04-2.64,0.56c-0.81,0.41-1.67,0.55-2.56,0.57 c-2.14,0.08-4.7-1.93-6.19,1.28c-0.5,0.79-1.09,1.47-1.94,1.91c-1.15,0.49-2.27,0.24-3.39-0.1 c-0.66-0.21-1.26-0.52-1.75-1.02c-0.59-1.69,1.02-2.23,1.65-3.27c-0.12-1.02-1.2-0.99-1.7-1.58 c-0.34-0.38-0.59-0.8-0.77-1.27c-0.37-1.3-0.41-2.6-0.09-3.91c0.28-0.84,0.71-1.54,1.68-1.69 C150.09,8.13,153,7.69,155.87,8.33z"/><path fill-rule="evenodd" clip-rule="evenodd" fill="#F6F5F4" d="M145.42,115.5c-1.13-4.13-0.66-7.54,4.09-9.01 c2.68-0.79,5.36-0.74,8.05-0.03c1.64,1.88,2.29,3.49-1.06,4.06c-2.48-1.8-4.69-0.82-5.69,1.46 c-0.93,2.13,1.27,2.99,2.97,3.8c1.49,0.71,2.95,1.55,4.3,2.5c2.48,1.75,2.97,4.36,2.42,7.11 c-0.6,3.04-2.42,5-5.71,5.22c-2.21,0.61-4.42,0.56-6.63,0.02c-3,1-2.18-2.35-3.6-3.15 c-0.21-2.16,1.45-1.27,2.42-1.48c1.89,0.45,3.85,1.87,5.52-0.42c1.51-1.97,0.63-3.25-1.23-4.25 c-1.87-1.01-3.56-2.23-4.66-4.1C146.22,116.65,145.82,116.07,145.42,115.5z"/><path fill-rule="evenodd" clip-rule="evenodd" fill="#F4F3F3" d="M268.66,120.45c-0-2.32-0.14-4.65,0.04-6.96 c0.17-2.32-0.52-3.33-3-3.13c-1.04,0.08-3.11,1.02-3.04-1.15c0.06-1.66,0.76-3.57,3.13-3.58 c3.81-0,7.63,0,11.44,0.03c1.1,0.01,2.52-0.26,2.34,1.59c-0.14,1.44-0.06,3.37-2.23,3.12 c-3.17-0.37-2.94,1.57-2.92,3.64c0.05,4.64-0.09,9.29,0.06,13.93c0.08,2.26-0.85,2.77-2.89,2.78 c-2.06,0.01-3.08-0.55-2.96-2.8C268.77,125.43,268.66,122.94,268.66,120.45z"/><path fill-rule="evenodd" clip-rule="evenodd" fill="#F3F3F2" d="M120.54,105.61c3.65-0.07,7.31-0.14,10.96-0.22 c2.63,0.11,5.1,0.37,4.02,4.11c-5.12,0.47-5.56,3.77-5.14,7.97c0.33,3.27,0,6.61,0.1,9.91 c0.06,2.03-0.07,3.4-2.79,3.35c-2.49-0.04-3.08-0.98-3.02-3.25c0.13-4.62,0.08-9.26,0.02-13.88 c-0.02-1.32,0.66-3.33-1.83-3.13C117.69,110.88,119.61,108.03,120.54,105.61z"/><path fill-rule="evenodd" clip-rule="evenodd" fill="#F9F8F8" d="M239.14,110.36c-0.52-4.02,1.28-5.11,4.79-4.78 c2.79,0.26,5.63-0.05,8.44,0.07c1.1,0.05,3.08-0.75,2.89,1.46c-0.11,1.27-0.17,3.45-2.19,3.24 c-4.02-0.43-3.17,2.27-3.18,4.46c-0.02,4.14,0.01,8.28,0.05,12.42c0.02,1.89,0.17,3.51-2.7,3.49 c-2.64-0.02-2.93-1.17-2.85-3.31c0.14-3.64-0.18-7.3,0.1-10.93C244.81,112.37,244.57,109.13,239.14,110.36z"/><path fill-rule="evenodd" clip-rule="evenodd" fill="#EFEDED" d="M293.5,105.4c0.33,0.03,0.66,0.06,1,0.09 c0.6-0.44,0.88-0.29,0.85,0.45c0.08,0.52,0.16,1.03,0.25,1.55c1.37,7.66,1.68,15.32-0.24,22.95 c-4.35,1.06-6.27-0.07-5.88-5.09c0.46-5.92-0.01-11.91-0.08-17.87C289.16,103.64,291.32,104.51,293.5,105.4z"/><path fill-rule="evenodd" clip-rule="evenodd" fill="#F2F2F3" d="M199.23,25.47c-1.52,2.39-2.82,5-5.69,6.14 c-2.69-0.47-4.96-1.73-6.95-3.57c-0.63-0.86-0.92-1.74-0.14-2.68c1-0.99,2-1.99,3-2.98 c2.21,2.1,2.05-0.95,3.07-1.44c0.79-0.38,0.79-2.12,2.08-1.58c1.04,0.44,2.09,1.48,1.49,2.74 C194.21,26.08,197.96,24.57,199.23,25.47z"/><path fill-rule="evenodd" clip-rule="evenodd" fill="#BBDBED" d="M130.45,11.65c1.21-0.45,2.42-0.9,3.63-1.35 c1.33-0.34,2.68-0.38,4.04-0.26c1.93,1.94,0.45,3.26-0.82,4.63c-1.17,0.86-2.63,1-3.9,1.6 c-0.98,0.5-1.81,1.24-2.73,1.84c-0.99,0.58-2.01,1.04-3.19,1.01c-0.46-0.08-0.87-0.28-1.22-0.59 c-0.19-0.42-0.27-0.87-0.24-1.33C125.99,14.16,129.38,13.83,130.45,11.65z"/><path fill-rule="evenodd" clip-rule="evenodd" fill="#E7F5F9" d="M136.49,14.5c0.61-1.36,2.15-2.26,1.99-4.01 c0.27-1.07,1.24-1.4,2.04-1.89c0.27-0.25,0.57-0.29,0.9-0.14c1.73-0.62,3.44-0.87,5.11,0.16 c-0.01,0.63-0.02,1.25-0.02,1.88c-0.73,0.75-1.61,0.81-2.63,0.82c-1.18,0.01,0.39,0.64-0.07,0.95 c-0.4,1.27-1.15,2.33-1.96,3.36c-1.83,0.64-3.62,1.61-5.65,0.72C135.89,15.67,135.93,15.04,136.49,14.5z"/><path fill-rule="evenodd" clip-rule="evenodd" fill="#EFF5F7" d="M171.49,22.49c0.62-1.46-0.07-4.19,3.35-2.6 c1.92,0.9,1.44-1.33,1.65-2.42c2.57,0.17,3.6,2.3,5.04,3.92c0.47,0.8-0.03,1.25-0.62,1.66 c-0.63,0.27-1.29,0.34-1.97,0.3c-1.72-0.19-3.42,0.38-5.14,0.23c-0.67-0.06-1.3-0.23-1.88-0.59 C171.78,22.83,171.63,22.66,171.49,22.49z"/><path fill-rule="evenodd" clip-rule="evenodd" fill="#C9CEC9" d="M112.59,86.55c-2.74,1.3-5.48,2.6-8.22,3.89 c-0.62,0-1.25,0.01-1.87,0.01c-0.94-0.38-1.53-1.01-1.51-2.09c0.24-1.55,1.8-1.15,2.65-1.81 c0.99-1.35,2.56-0.71,3.83-1.12C109.28,85.34,111.19,84.79,112.59,86.55z"/><path fill-rule="evenodd" clip-rule="evenodd" fill="#C5C1C2" d="M101.37,88.14c0.38,0.77,0.75,1.54,1.12,2.31 c-3.11,1.52-6.36,2.59-9.78,3.14c-1.04,0.36-2.15,0.9-2.18-0.98c2.31-1.08,4.63-2.17,6.94-3.25 C98.39,87.72,99.67,87.27,101.37,88.14z"/><path fill-rule="evenodd" clip-rule="evenodd" fill="#DEE4E6" d="M130.45,11.65c0.35,3.07-3.43,3.35-3.95,5.84 c-1.51,0.44-2.67,1.97-4.5,1.44c-0.68-0.39-1.12-0.85-0.54-1.65C123.7,14.19,126.94,12.7,130.45,11.65z"/><path fill-rule="evenodd" clip-rule="evenodd" fill="#DAEBF4" d="M186.45,25.36c0.05,0.85,0.21,1.65,1.02,2.14 c0.64,2.28-1.27,3.19-2.41,4.52c-0.93,0.72-1.91,1.28-3.15,0.89c-0.39-0.23-0.69-0.56-0.9-0.96 c-0.11-0.43-0.12-0.87-0.05-1.31c0.2-0.62,0.53-1.17,0.9-1.7c0.72-1,1.19-2.18,2.06-3.08 c0.18-0.1,0.36-0.2,0.54-0.31C185.13,25.49,185.79,25.42,186.45,25.36z"/><path fill-rule="evenodd" clip-rule="evenodd" fill="#F2F1F0" d="M58.72,28.41c-0.74,0.03-1.48,0.06-2.22,0.09l0,0 c-1.33-1.28-2.66-2.56-3.99-3.84C55.41,24.53,59.05,23.18,58.72,28.41z"/><path fill-rule="evenodd" clip-rule="evenodd" fill="#D7C9CC" d="M112.59,86.55c-1.72-0.32-3.71,0.61-5.12-1.12 c0.38-0.63,0.75-1.26,1.12-1.9c0.35-0.08,0.66-0.01,0.95,0.2c1.52,0.43,3.1-0.87,4.59,0.16 c0.4,0.26,0.64,0.63,0.73,1.1c-0.09,0.81-0.63,1.16-1.35,1.34C113.23,86.46,112.92,86.53,112.59,86.55z"/><path fill-rule="evenodd" clip-rule="evenodd" fill="#CAD6DC" d="M146.52,8.62c-1.7-0.05-3.41-0.1-5.11-0.16 c4.81-1.46,9.63-1.51,14.46-0.14C152.76,8.43,149.64,8.52,146.52,8.62z"/><path fill-rule="evenodd" clip-rule="evenodd" fill="#0D5A92" d="M194.42,65.37c-0.29,0.38-0.58,0.75-0.87,1.12 c-2.68,2.54-2.68,0.02-3.14-1.66c0.01-0.79,0.19-1.54,0.61-2.22c0.34-0.41,0.77-0.67,1.28-0.8 c0.81-0.1,1.5,0.12,2.06,0.73l0.4-0.09C194.64,63.43,194.53,64.4,194.42,65.37z"/><path fill-rule="evenodd" clip-rule="evenodd" fill="#D8F0F7" d="M180.38,22.57c0.38-0.39,0.77-0.78,1.15-1.17 c1.5,1.02,3.01,2.02,2.94,4.16l0.06-0.08c-1.19,1.09-2.23,0.47-3.26-0.29 C180.56,24.45,180.03,23.66,180.38,22.57z"/><path fill-rule="evenodd" clip-rule="evenodd" fill="#13669B" d="M114.32,24.25c0.05-0.43,0.1-0.86,0.16-1.28 c0.21-0.14,0.44-0.19,0.69-0.15c0.92,0.23,1.43,0.87,1.76,1.7c-0.09,2.33-0.03,4.79-3.57,4.14 C111.97,26.82,113.22,25.55,114.32,24.25z"/><path fill-rule="evenodd" clip-rule="evenodd" fill="#99BBCA" d="M115.34,22.21c0.79-2.44,2.75-3.42,5.02-3.99 c1.16,1.98-0.51,2.78-1.58,3.84C117.66,22.5,116.56,23.7,115.34,22.21z"/><path fill-rule="evenodd" clip-rule="evenodd" fill="#F8F7F7" d="M220.58,73.69c-0.3-0.99-1.35-2.27,0.51-2.67 c1.71-0.36,2.78,0.39,2.42,2.37C222.53,73.49,221.55,73.59,220.58,73.69z"/><path fill-rule="evenodd" clip-rule="evenodd" fill="#B3E1F7" d="M118.44,21.59c0.64-1.12,1.28-2.24,1.93-3.37 c0.37-0.31,0.73-0.63,1.1-0.94c0.35,0.42,0.7,0.84,1.04,1.27c0.59,0.49,0.57,1.1,0.34,1.75 c-0.6,1-1.55,1.49-2.62,1.78c-0.43,0.06-0.86,0.03-1.28-0.09C118.78,21.85,118.61,21.72,118.44,21.59z"/><path fill-rule="evenodd" clip-rule="evenodd" fill="#CAD6DC" d="M140.51,8.6c-0.68,0.63-1.36,1.26-2.04,1.89 c-1.46-0.06-2.93-0.13-4.39-0.19C136.09,9.21,138.16,8.38,140.51,8.6z"/><path fill-rule="evenodd" clip-rule="evenodd" fill="#B4B4B4" d="M90.53,92.62c0.73,0.33,1.46,0.65,2.18,0.98 c-1.1,1.18-2.58,0.94-3.97,1.02c-1.07,0.52-1.29-0.05-1.22-0.97C88.53,93.31,89.53,92.96,90.53,92.62z"/><path fill-rule="evenodd" clip-rule="evenodd" fill="#ACADAD" d="M87.53,93.65c0.41,0.32,0.81,0.65,1.22,0.97 c-1.28,1.04-2.74,0.99-4.87,0.59C85.41,94.55,86.47,94.1,87.53,93.65z"/><path fill-rule="evenodd" clip-rule="evenodd" fill="#13608C" d="M115.34,22.21c1.03-0.21,2.07-0.41,3.1-0.62l0.03,0.02 c0.34,0.34,0.45,0.75,0.36,1.22c-0.52,0.95-0.78,2.29-2.4,1.66c-0.42-0.55-0.84-1.11-1.27-1.67 C115.02,22.56,115.07,22.35,115.34,22.21z"/><path fill-rule="evenodd" clip-rule="evenodd" fill="#E9E8E7" d="M147.51,126.68c0.67-0.09,1.33-0.18,2-0.27 c0.33,0,0.66,0,0.99,0.01c0.99-0.01,1.97-0.03,2.96-0.04C151.56,128.21,149.56,127.86,147.51,126.68z"/><path fill-rule="evenodd" clip-rule="evenodd" fill="#E9E8E7" d="M148.15,130.63c2.21-0.01,4.42-0.01,6.63-0.02 C152.57,131.79,150.36,131.87,148.15,130.63z"/><path fill-rule="evenodd" clip-rule="evenodd" fill="#B5B5B4" d="M67.45,62.41c0.12,0.78,0.23,1.88-0.85,1.64 c-1.38-0.3-1.16-1.62-0.97-2.73C66.23,61.69,66.84,62.05,67.45,62.41z"/><path fill-rule="evenodd" clip-rule="evenodd" fill="#F7F6F6" d="M82.95,43.88c-0.68-1.78,0.36-2.54,0.83-4.02 C84.77,41.73,83.96,42.67,82.95,43.88z"/><path fill-rule="evenodd" clip-rule="evenodd" fill="#F9F8F7" d="M69.78,70.09c-1.58,0.04-2.26-0.74-2.56-2.18 C68.8,67.87,69.48,68.65,69.78,70.09z"/><path fill-rule="evenodd" clip-rule="evenodd" fill="#F7F6F6" d="M77.4,74.37c-0.33-0.67-0.72-1.09-0.67-1.45 c0.05-0.34,0.56-0.62,0.87-0.92c0.24,0.37,0.67,0.73,0.67,1.1C78.27,73.45,77.82,73.8,77.4,74.37z"/><path fill-rule="evenodd" clip-rule="evenodd" fill="#F7F6F6" d="M56.5,28.5c-0.48,0.82-0.88,1.78-2.1,1.55 c-0.17-0.03-0.44-0.53-0.38-0.69c0.48-1.2,1.6-0.71,2.48-0.86L56.5,28.5z"/><path fill-rule="evenodd" clip-rule="evenodd" fill="#F3F2F2" d="M49.27,56.93c-0.31,0.51-0.52,1.25-1,1.55 c-0.67,0.42-0.77-0.39-0.64-0.72c0.22-0.56,0.67-1.02,1.03-1.52C48.84,56.43,49.01,56.63,49.27,56.93z"/><path fill-rule="evenodd" clip-rule="evenodd" fill="#FFFFFF" d="M254.22,92.08c-3.64-6.13-7.07-12.38-10.68-18.52 c-0.96-1.64-1.34-2.66,0.61-4.01c10.37-7.16,11.16-20.53,8.03-30.58c-2.94-9.45-11.8-14.44-24.22-14.47 c-7.82-0.02-15.64-0.11-23.46-0.16c-3.68,0.57-3.54,3.56-3.6,6.11c-0.2,8.98-0.14,17.96-0.04,26.94 c0.02,1.85,0.25,3.66,1.58,5.12c0.07,9.96,0.23,19.92,0.17,29.88c-0.02,2.96,0.9,4.29,4,4.11 c3.31-0.19,6.65-0.24,9.96-0.01c2.99,0.2,4.1-0.68,3.99-3.86c-0.23-6.3-0.02-12.62,0-18.93 c0.8-1.85,1.81-1.54,2.92-0.29c2.02,0.07,2.68,1.58,3.42,3.11c1.3,2.68,3.15,5.17,3.98,7.98 c3.12,10.53,10.09,14.04,20.46,11.95c0.16-0.03,0.33-0.01,0.5,0C255.89,96.74,256.01,95.09,254.22,92.08z M233.7,56.34c-2.24,4.29-6.16,4.24-10.25,4.29c-2.45,0.03-3.17-0.69-2.99-3.06c0.2-2.63,0.05-5.29,0.04-7.94 c-0-1.49-0.22-3.02,0.05-4.46c0.41-2.21-1.54-5.2,1.27-6.55c3.25-1.57,9.96,0.58,11.6,3.56 C235.96,46.77,236.2,51.57,233.7,56.34z"/><path fill-rule="evenodd" clip-rule="evenodd" fill="#F9F9F9" d="M205.24,31.61c0,20.52,0,41.05,0,61.57 c-0.13,0-0.27,0-0.4,0c0-20.52,0-41.05,0-61.57C204.97,31.62,205.1,31.62,205.24,31.61z"/><path fill-rule="evenodd" clip-rule="evenodd" fill="#F6F6F6" d="M237.91,92.92c0.43-1.22,0.85-2.45,1.37-3.94 C241.07,90.9,240.42,92.13,237.91,92.92z"/><path fill-rule="evenodd" clip-rule="evenodd" fill="#FFFFFF" d="M351,41.13c-4.44-11.11-13.26-16.24-24.91-16.58 c-8.48-0.24-16.98-0.03-25.48-0.01c-0.98,1.13-0.68,2.43-0.67,3.77c0.12,12.92,0.1,25.84,0.05,38.76 c-0.02,4.78-0.21,9.54-0.65,14.33c-0.44,4.92-1.77,10.25,1.38,14.97l-0.11-0.09c0.84,1.12,1.85,0.82,2.89,0.36 c6.99-0.07,13.98-0.07,20.96-0.21c12.26-0.23,21.4-5.49,26.25-17.03C356.05,66.73,356.08,53.85,351,41.13z M333.37,74.5c-2.23,5.47-7.71,7.79-13.48,6.94c-2.63-0.39-2.13-2.03-2.14-3.61 c-0.02-5.98-0.01-11.96-0.01-17.94c0-5.98,0.17-11.96-0.06-17.93c-0.11-2.97,1-3.54,3.7-3.53 c5.71,0.01,10.11,1.95,12.15,7.53C337.01,55.46,337.2,65.09,333.37,74.5z"/><path fill-rule="evenodd" clip-rule="evenodd" fill="#FBF9F9" d="M304.98,79.5c-1.95-3.38-2.6-35.18,0-51.13 C304.98,45.51,304.98,62.65,304.98,79.5z"/><path fill-rule="evenodd" clip-rule="evenodd" fill="#FAF9F8" d="M315.36,39.87c0,13.08,0,26.16,0,39.25 c-0.17,0-0.33,0-0.5,0.01c0-13.15,0-26.29,0-39.44C315.03,39.75,315.19,39.81,315.36,39.87z"/><path fill-rule="evenodd" clip-rule="evenodd" fill="#F8F7F7" d="M335.69,92.81c-2.16,0.37-3.32-1.78-4.87-0.14 C332.26,90.14,333.69,89.99,335.69,92.81z"/><path fill-rule="evenodd" clip-rule="evenodd" fill="#F6F5F5" d="M333.59,38.87c1.2,0.6,1.2,2.15,0.6,2.41 c-1.01,0.43-0.62-1.03-0.96-1.61C333.14,39.52,333.45,39.16,333.59,38.87z"/><path fill-rule="evenodd" clip-rule="evenodd" fill="#F9F8F8" d="M277.4,85.37c-0.72-0.02-1.29-0.13-1.08-0.74 c0.12-0.34,0.68-0.59,1.09-0.73c0.14-0.05,0.66,0.43,0.63,0.5C277.87,84.79,277.57,85.12,277.4,85.37z"/><path fill-rule="evenodd" clip-rule="evenodd" fill="#085297" d="M188.56,77.52c-1.71,1.44-1.56,4.27-3.91,5.23 c-0.18-0.12-0.37-0.23-0.55-0.35c-0.54-0.7-0.8-1.54-1.1-2.36c-0.71-1.15-1.44-2.28-1.61-3.66 c-0.12-0.94-0.09-1.87,0.14-2.79c0.14-0.45,0.36-0.86,0.66-1.23c0.57-0.44,1.22-0.56,1.92-0.43 c1,0.31,1.77,1.13,2.81,1.38c0.59,0.18,1.15,0.42,1.64,0.8C189.67,75.25,188.54,76.38,188.56,77.52z"/><path fill-rule="evenodd" clip-rule="evenodd" fill="#0C5192" d="M150.48,100.38c-4.91,0.33-9.8,0.53-14.01-2.74 c0.07-0.24,0.14-0.47,0.21-0.71c2.34-2.81,4.55,0.23,6.83,0.15c2.34,0.25,4.81-0.42,6.95,1.08 C151.02,98.89,151.1,99.63,150.48,100.38z"/><path fill-rule="evenodd" clip-rule="evenodd" fill="#134E9A" d="M178.45,89.25c-0.33,0.04-0.67,0.07-1,0.1 c-0.55-0.32-1.18-0.14-1.76-0.25c-0.2-0.07-0.39-0.14-0.58-0.21c-0.18-0.1-0.36-0.21-0.55-0.3 c-1.01-0.76-2.27-1.28-2.61-2.69c0.12-2.71,2.89-2.47,4.24-3.82c0.65-0.32,1.33-0.46,2.05-0.42 c0.47,0.08,0.91,0.24,1.32,0.51c0.32,0.36,0.52,0.78,0.64,1.25C180.4,85.59,179.88,87.55,178.45,89.25z"/><path fill-rule="evenodd" clip-rule="evenodd" fill="#61BDEB" d="M172.48,94.51c-2.67,0.37-4.91,2.31-7.74,2.08 c-0.43,0.3-0.87,0.33-1.32,0.07c-0.47-1.08,0.07-1.85,0.8-2.56c0.57-0.42,1.22-0.71,1.89-0.93 c2.19-0.58,4.24-1.57,6.4-2.24c0.73-0.06,1.38,0.07,1.76,0.78C174.69,93.3,172.98,93.52,172.48,94.51z"/><path fill-rule="evenodd" clip-rule="evenodd" fill="#115089" d="M150.48,100.38c0.02-0.61,0.03-1.22,0.05-1.82 c0.63-1.04,1.72-1.32,2.75-1.72c0.43-0.14,0.87-0.22,1.31-0.27c0.68-0.04,1.35,0.04,2.01,0.19 c0.88,0.22,1.76,0.41,2.65,0.56c0.91,0.23,1.84,0.42,2.21,1.47c-1.16,1.16-3.15,0.14-4.19,1.6 C155.01,100.38,152.75,100.38,150.48,100.38z"/><path fill-rule="evenodd" clip-rule="evenodd" fill="#164C8C" d="M178.45,89.25c0.35-1.9,0.71-3.81,1.07-5.71 c1.59-0.61,2.94-2.21,4.93-1.18c0,0,0.2,0.4,0.2,0.4C183.44,85.73,181.28,87.8,178.45,89.25z"/><path fill-rule="evenodd" clip-rule="evenodd" fill="#104E7D" d="M191.45,64.53c0.07,1.32-0.23,3.04,2.09,1.97 c-0.51,2.55-1.04,5.09-3,7.02c-0.19-0.17-0.38-0.34-0.57-0.5c-0.82-1.38-0.74-2.91-0.78-4.43 c-0.01-0.77,0.05-1.53,0.21-2.28C189.78,65.36,190.02,64.26,191.45,64.53z"/><path fill-rule="evenodd" clip-rule="evenodd" fill="#155391" d="M174.27,91.72c-0.6-0.06-1.19-0.11-1.79-0.17 c-1.78,0.09-1.47-1.06-1.27-2.14c1.21-1.34,2.56-1.98,4.29-0.93l0.02,0.06c0.28,0.22,0.59,0.41,0.91,0.55 c0.06,0.17,0.11,0.34,0.17,0.51C176.72,91.3,175.56,91.58,174.27,91.72z"/><path fill-rule="evenodd" clip-rule="evenodd" fill="#4E8AB8" d="M134.44,98.35c-0.61,0.03-1.23,0.07-1.85,0.1 c-0.9-0.67-2.34-0.33-2.93-1.58c-0.45-0.87-0.81-1.74-0.1-2.65c1.53-0.77,2.82-0.1,4.08,0.69 c0.75,0.69,1.33,1.44,0.95,2.56C134.53,97.76,134.47,98.05,134.44,98.35z"/><path fill-rule="evenodd" clip-rule="evenodd" fill="#135DAA" d="M134.61,97.47c-0.42-0.62-0.84-1.25-1.26-1.88 c0.69-1.61,1.96-2.32,3.47-1.45c1.82,1.06,0.17,2.15-0.31,3.2l-0.04,0.29 C135.85,97.58,135.23,97.52,134.61,97.47z"/><path fill-rule="evenodd" clip-rule="evenodd" fill="#144E8C" d="M188.56,77.52c-1.24-0.98,0.24-2.03-0.09-3.04 c-0.55-0.52-0.59-1.14-0.31-1.8c1-0.87,1.56-0.29,2.01,0.62l0.38,0.22 C190.31,75.06,189.89,76.52,188.56,77.52z"/><path fill-rule="evenodd" clip-rule="evenodd" fill="#E5E4E4" d="M157.56,106.46c-2.68,0.01-5.37,0.02-8.05,0.03 C152.19,105.03,154.87,105.01,157.56,106.46z"/><path fill-rule="evenodd" clip-rule="evenodd" fill="#16619C" d="M176.55,88.53c0.3,0.27,0.6,0.55,0.91,0.82 c-0.27,0.15-0.56,0.23-0.86,0.25c0,0-0.1-0.14-0.1-0.14c-0.23-0.22-0.3-0.43-0.21-0.63 C176.38,88.63,176.46,88.53,176.55,88.53z"/><path fill-rule="evenodd" clip-rule="evenodd" fill="#FBFAFA" d="M202.33,118.6c-2-1.23,0.07-1.71,0.51-2.37 c3.13-4.68,1.7-8.85-3.85-10.11c-2.7-0.61-5.61-0.25-8.4-0.51c-2.36-0.22-3.22,0.59-3.15,3.02 c0.16,5.15,0.05,10.3,0.06,15.46c0.01,6.53,0.01,6.53,6.47,6.5c1.16,0,2.33-0,3.49,0 c3,0.01,5.71-0.73,6.95-3.75C205.71,123.69,205.7,120.67,202.33,118.6z M195.49,110.21 c1.89,0.11,3.17,0.65,3.08,2.88c-0.09,2.21-1.57,2.59-3.32,2.83c-2.48,0.35-2.72-1.14-2.54-3.06 C192.21,110.57,193.49,110.1,195.49,110.21z M195.36,126.48c-2.79,0.29-2.92-1.32-2.66-3.35 c-0.32-2.16,0.22-3.55,2.83-3.23c2.09,0.25,4.1,0.66,3.96,3.32C199.35,125.68,197.52,126.26,195.36,126.48z"/><path fill-rule="evenodd" clip-rule="evenodd" fill="#F9F8F7" d="M110.52,116.5c0.68-1.32,0.71-2.66,0.08-4.01 c-2.27-7.41-8.36-6.78-14.22-6.92c-2.77-0.06-3.83,0.77-3.75,3.66c0.18,5.81,0.03,11.64,0.04,17.46 c0.01,1.92-0.54,3.93,2.74,4.06c3.54,0.14,2.96-1.95,3.09-4.1c0.08-1.34-0.93-3.38,0.84-3.92 c2.27-0.69,2.39,1.83,3.11,3.12c2.9,5.21,2.85,5.24,8.4,3.96C106.11,125.4,106.32,120.92,110.52,116.5z M100.7,118.72c-4.34,0.09-0.94-3.4-2.4-4.31c0.57-1.82-1-4.26,2.34-4.19c3.1,0.07,3.98,1.72,3.92,4.45 C104.5,117.25,103.43,118.66,100.7,118.72z"/><path fill-rule="evenodd" clip-rule="evenodd" fill="#F9F9F8" d="M74.31,105.6c-6.06-1.29-11.19,1.72-12.69,7.46 c-2.07,7.88,0.62,15.55,6.16,17.54c7.94,2.86,14.04-2.59,13.99-12.5C81.72,111.15,79.02,106.6,74.31,105.6z M75.72,122.02c-0.33,2.5-1.27,4.51-4.23,4.5c-2.94-0.01-3.74-1.96-4.23-4.49 c-0.48-2.49-0.35-4.91-0.13-7.38c0.26-2.87,1.55-4.75,4.59-4.65c2.85,0.09,3.87,2.07,4.08,4.64 c0.1,1.15,0.23,2.3,0.36,3.6C76.02,119.39,75.89,120.71,75.72,122.02z"/><path fill-rule="evenodd" clip-rule="evenodd" fill="#2C5982" d="M113.53,86.33c0.37-0.31,0.74-0.61,1.12-0.92 c2.89-1.79,4.31,0.67,6.1,2.09c1.06,1.21,2.31,2.33,2.38,4.11c-0.07,0.47-0.28,0.86-0.6,1.2 C119.52,90.66,116.52,88.49,113.53,86.33z"/><path fill-rule="evenodd" clip-rule="evenodd" fill="#F8F3F4" d="M184.49,31.5c0.99-1.33,1.99-2.66,2.98-3.99 c1.65,1.92,4.92,1.45,6.07,4.1c-0.74,0.95-1.47,1.9-2.21,2.84c-1.27,1.37-2.71,1.84-4.45,0.88 C185.75,34.27,183.94,33.62,184.49,31.5z"/><path fill-rule="evenodd" clip-rule="evenodd" fill="#D4E4EE" d="M187.49,34.45c1.28,1.1,2.56-0.42,3.85-0 c-0,0.32-0.01,0.64-0.01,0.96c-0.32,1.04-0.42,2.16-1.09,3.08c-0.35,0.57-0.79,1.08-1.27,1.55 c-0.5,0.48-1.06,0.87-1.71,1.12c-0.69,0.21-1.38,0.22-2.07,0.04c-0.45-0.18-0.8-0.47-1.08-0.87 c-0.25-0.7-0.2-1.39,0.09-2.06C185.41,37.11,184.91,34.45,187.49,34.45z"/><path fill-rule="evenodd" clip-rule="evenodd" fill="#0F6596" d="M188.34,39.41c0.31-0.34,0.62-0.68,0.93-1.02 c1.01-0.63,2.01-0.8,2.98,0.1c0.48,1.23,0.97,2.46,1.46,3.7c-0.12,0.47-0.42,0.79-0.85,0.98 c-0.92,0.25-1.79,0.15-2.58-0.42C189.35,41.79,188.86,40.59,188.34,39.41z"/><path fill-rule="evenodd" clip-rule="evenodd" fill="#1964AC" d="M194.74,46.48c-0.08,1.34-0.16,2.68-0.24,4.03 c-0.71,0.59-1.47,0.57-2.24,0.12c-0.96-1.14-1.05-2.49-0.97-3.89c0.09-0.83,0.35-1.6,0.87-2.26 c0.73-0.51,1.47-0.6,2.19,0.04C194.47,45.17,194.61,45.83,194.74,46.48z"/><path fill-rule="evenodd" clip-rule="evenodd" fill="#0164A1" d="M194.34,44.52c-0.62-0-1.23-0.01-1.85-0.01 c-0.87,1.5-2.02,2.25-3.76,1.41c-0.38-0.35-0.56-0.78-0.52-1.3c1.15-2.14,3.51-1.11,5.15-1.99 c0.14-0.12,0.25-0.28,0.33-0.45C194.54,42.79,194.49,43.64,194.34,44.52z"/><path fill-rule="evenodd" clip-rule="evenodd" fill="#3B728D" d="M192.24,38.49c-0.99-0.03-1.99-0.07-2.98-0.1 c0.1-1.4,0.7-2.45,2.06-2.98C191.63,36.44,191.93,37.46,192.24,38.49z"/><path fill-rule="evenodd" clip-rule="evenodd" fill="#F8F7F6" d="M48.67,108.28c-3.96-3.65-9.2-3.37-13.7-2.29 c-3.27,0.78-0.85,4.91-1.38,7.47c-0.3,1.43-0.05,2.98-0.05,4.47c0,2.99,0.02,5.98-0,8.96 c-0.01,1.96-0.52,3.9,2.78,3.83c3.18-0.06,3.08-1.88,2.81-3.9c-0.38-2.84,0.78-3.66,3.52-3.8 c3.19-0.17,6.46-1.1,7.61-4.58C51.42,114.92,51.74,111.11,48.67,108.28z M45.3,114.61 c-0.13,2.26-1.15,4.27-3.99,4c-4.12-0.38-1.61-3.55-2.07-5.4c-0.42-1.7-0.13-3.51,2.08-2.96 C44.63,110.33,45.43,112.35,45.3,114.61z"/><path fill-rule="evenodd" clip-rule="evenodd" fill="#F0F8FA" d="M159.47,16.52c1.03-0.01,2.07-0.03,3.1-0.04 c1.07-0.75,1.84-0.47,2.37,0.67c0.08,0.53-0.07,0.98-0.44,1.36c0.52,4.5,4.17,3.52,6.99,3.99l0.01,0.01 c1.5,2.12,4.5,0.29,6.04,2.3c0.31,0.38,0.51,0.8,0.63,1.27c0.11,1.79-0.35,3.39-1.52,4.77 c-0.62,0.44-1.32,0.65-2.07,0.69c-1.47,0.06-2.82-0.52-4.24-0.78c-1.15-0.28-2.21-0.75-3.15-1.46 c-1.18-0.17-1.65-3.13-3.42-0.83c-0.39,1.21-0.8,2.39-2.1,2.94c-5,0.88-10,1.4-14.93-0.39 c-0.78-0.65-0.89-1.47-0.6-2.38c1.69-1.98,4.01-1.37,6.14-1.52c2.72,0.21,5.4,0.29,6.7-2.86 c1.21-1.35,2.6-2.76-0.76-2.9c-0.98-0.04-1.95-0.03-2.72-0.77c-0.24-0.39-0.32-0.81-0.22-1.27 c0.67-1.31,1.94-1.66,3.21-2.01C158.86,17.09,159.19,16.83,159.47,16.52z"/><path fill-rule="evenodd" clip-rule="evenodd" fill="#F0F7FA" d="M146.5,19.5c0.67,0.01,1.34,0.02,2.01,0.03 c-1,3.96-4.96,1.56-6.99,3.28c-0.42,0.46-0.71,0.99-0.95,1.57c-0.38,1.04-0.75,2.08-1.44,2.98 c-0.33,0.36-0.73,0.6-1.2,0.74c-1.93,0.14-3.33-0.63-4.17-2.38c-0.36-1.21-0.19-2.35,0.45-3.42 c1.01-1.72,2.45-3.06,3.9-4.4c0.9-1.09,2.09-1.67,3.43-1.99c0.91-0.73,1.85-1.38,3.06-0.65 C145.66,16.47,144.86,18.53,146.5,19.5z"/><path fill-rule="evenodd" clip-rule="evenodd" fill="#E1F1F6" d="M140.49,22.48c0.16-2.29,2.14-1.64,3.23-1.63 c1.8,0.01,3.42-0.03,4.79-1.32c0.99,0.31,1.97,0.63,2.96,0.94c0.22,0.02,0.45,0.04,0.67,0.07 c1.05,0.51,2.25,0.95,1.11,2.46c-0.4,0.26-0.83,0.44-1.28,0.56c-1.17,0.23-2.36,0.25-3.55,0.26 c-0.98,0.02-1.95,0.02-2.93,0.02c-0.76,0.02-1.52-0-2.27-0.07C142.16,23.64,141.17,23.39,140.49,22.48z"/><path fill-rule="evenodd" clip-rule="evenodd" fill="#E1F1F6" d="M155.49,19.5c0.84,1.19,1.89,0.96,3.03,0.52 c1.82-0.7,2.94,0.5,3.43,1.84c0.74,2.03-0.94,2.39-2.44,2.67c-0.17-0.13-0.34-0.27-0.51-0.39 c-0.75-0.79-1.65-1.29-2.74-1.46c-0.43-0.09-0.85-0.22-1.26-0.39c-0.97-0.94-2.29-1.21-3.46-1.76 c0,0-0.07-0.07-0.07-0.07c0.35-0.66,0.69-1.32,1.04-1.98C153.84,17.85,154.75,18.43,155.49,19.5z"/><path fill-rule="evenodd" clip-rule="evenodd" fill="#F9F9F9" d="M146.5,19.5c-4.02,0.34-1.43-2.64-2.02-4.03 c-0.3-0.43-0.28-0.85,0.07-1.24c0.71-0.34,1.36-0.31,1.94,0.27l0,0c0.74,1.06,2.14,1.13,3,2 C148.5,17.5,147.5,18.5,146.5,19.5z"/><path fill-rule="evenodd" clip-rule="evenodd" fill="#CDE2EB" d="M155.49,19.5c-0.99-0.34-1.99-0.67-2.98-1 c1.17-4.7,4.36-2.3,6.96-1.97c0.01,0.32,0.02,0.65,0.02,0.97c-1.22,0.89-3.3,0.07-4,2.01L155.49,19.5z"/><path fill-rule="evenodd" clip-rule="evenodd" fill="#F2F9FC" d="M146.5,14.5c-0.65,0-1.3,0.01-1.95,0.01 c-0.94-0.35-1.54-0.88-1.06-1.99c-0.63-0.47-1.26-0.95-2.69-2.02c2.37,0,4.03,0,5.7,0 C146.5,11.83,146.5,13.16,146.5,14.5z"/><path fill-rule="evenodd" clip-rule="evenodd" fill="#EFF5F7" d="M164.5,18.5c-0-0.33-0-0.65-0.01-0.98 c0.87-0.41,0.85-1.25,0.99-2.02c1.01,0.17,2.72-0.37,2.52,1.3C167.78,18.63,165.94,18.46,164.5,18.5z"/><path fill-rule="evenodd" clip-rule="evenodd" fill="#F4F7EF" d="M149.5,16.5c-1.45,0.01-2.89-0-3-2 C147.4,15.32,149.99,13.6,149.5,16.5z"/><path fill-rule="evenodd" clip-rule="evenodd" fill="#CDD9DF" d="M165.48,15.51c0.59,1.12,0.74,2.03-0.99,2.02 c-0.41-0.77-1.11-1.01-1.92-1.05C162.79,13.88,164.55,15.93,165.48,15.51z"/><path fill-rule="evenodd" clip-rule="evenodd" fill="#68C7EF" d="M110.5,80.49c-1.67-1.66-2.23-3.9-3.1-5.98 c0.11-0.92,0.19-1.84,0.78-2.61c2.81-4.22,5.62-0.04,8.44-0.01c2.1,1.06,5.06-0.07,6.58,2.53 c0.18,0.69,0.15,1.38-0.07,2.06c-0.57,1.3-1.37,2.44-2.41,3.41c-2.15,1.23-4.58,1.83-6.77,2.96 c-0.43,0.11-0.87,0.12-1.31,0.03C111.55,82.42,111.36,81.16,110.5,80.49z"/><path fill-rule="evenodd" clip-rule="evenodd" fill="#0C5D9F" d="M103.34,63.3c-1.01-3.55-0.71-7.19-0.77-10.81 c0.37-0.83,1.08-1.32,1.82-1.77c0.82-0.4,1.64-0.72,2.41,0.1c0.57,1.73,1.14,3.47,2.49,4.78 c0.74,1.14,1.94,1.86,2.74,2.96c0.23,0.43,0.37,0.88,0.45,1.36c0.09,1.01-0.08,1.96-0.73,2.78 c-0.83,0.66-1.77,0.75-2.77,0.53c-0.9-0.27-1.57-0.9-2.27-1.48c-1.18-0.93-1.82-0.18-2.39,0.78 C104.08,62.89,103.74,63.14,103.34,63.3z"/><path fill-rule="evenodd" clip-rule="evenodd" fill="#84D4F1" d="M107.3,60.55c0.47,0.62,0.93,1.25,1.39,1.87 c-0.21,0.48-0.82,0.41-1.09,0.81c5.83,1.29,1.72,4.09,0.97,6.39c-0.18,0.44-0.43,0.83-0.73,1.2 c-0.55,0.5-1.18,0.77-1.94,0.62c-1.62-2.46-1.71-5.42-2.56-8.12c0.15-0.27,0.27-0.56,0.36-0.86 C104.17,60.43,105.05,59.19,107.3,60.55z"/><path fill-rule="evenodd" clip-rule="evenodd" fill="#23547C" d="M104.58,51.45c-0.43,0.81-1.15,1.06-2,1.04 c-1.59-1.97,0.75-4.05-0.17-6.04l0.34,0.18c1.21-0.39,1.91,0.24,2.44,1.21 C105.69,49.18,105.27,50.34,104.58,51.45z"/><path fill-rule="evenodd" clip-rule="evenodd" fill="#C8C4D3" d="M112.5,82.51c0.36-0.01,0.73-0.01,1.09-0.01 c1.53-0.36,2.03,0.51,2.17,1.81c-0.27,0.44-0.63,0.54-1.08,0.29c-1.71-0.32-3.6,0.46-5.15-0.86 c0.31-0.13,0.61-0.26,0.92-0.38C111.08,82.92,111.42,81.8,112.5,82.51z"/><path fill-rule="evenodd" clip-rule="evenodd" fill="#7BCEF0" d="M105.9,71.43c0.53-0.31,1.06-0.62,1.59-0.94 c1.75-0.04,1.67,0.83,1.01,2c-0.04,0.85-0.25,1.61-1.1,2.02C106.33,73.76,106.32,72.5,105.9,71.43z"/><path fill-rule="evenodd" clip-rule="evenodd" fill="#2D303E" d="M112.5,82.51c-0.68,0.28-1.36,0.56-2.04,0.84 c0.01-0.95,0.03-1.91,0.04-2.86C111.91,80.42,112.5,81.18,112.5,82.51z"/><path fill-rule="evenodd" clip-rule="evenodd" fill="#1A689D" d="M107.92,34.55c0.45-1.28,0.9-2.56,1.35-3.85 c0.8-1.32,1.77-2.2,3.43-1.41c1.34,1.7,1.25,3.57,0.65,5.49c-0.35,0.75-0.92,1.23-1.72,1.45 c-1.02,0.18-1.95-0.05-2.81-0.6C108.45,35.34,108.15,34.97,107.92,34.55z"/><path fill-rule="evenodd" clip-rule="evenodd" fill="#D9EBF3" d="M112.5,29.69c-1.37-0.6-2.15,0.71-3.23,1.02 c0.47-3.1,1.93-5.43,5.05-6.45c-0.3,1.37-1.24,2.63-0.67,4.14c0.27,0.39,0.3,0.79,0.06,1.21 C113.33,29.88,112.92,29.9,112.5,29.69z"/><path fill-rule="evenodd" clip-rule="evenodd" fill="#1A4F6C" d="M105.33,40.19c0.3-2.13,0.63-4.26,2.58-5.64 c0.23-0.11,0.47-0.14,0.72-0.08c0.43,0.88,0.78,1.77,0.62,2.78c-0.52,1.58-0.72,3.41-2.86,3.75 C105.89,40.92,105.53,40.66,105.33,40.19z"/><path fill-rule="evenodd" clip-rule="evenodd" fill="#23547C" d="M103.53,43.53c-0.36-1.64,0.76-2.47,1.8-3.34 c0.09,0.18,0.2,0.35,0.31,0.52c1.69,0.75,1.92,2.11,1.55,3.72c-0.33,0.96-0.82,1.8-1.73,2.32 C103.13,46.7,104.12,44.64,103.53,43.53z"/><path fill-rule="evenodd" clip-rule="evenodd" fill="#0C4E75" d="M103.53,43.53c0.57,0.99,1.13,1.98,1.7,2.97 c0.42,0.26,0.55,0.62,0.39,1.09c-0.4,0.29-0.78,0.27-1.14-0.07c-0.58-0.29-1.16-0.58-1.75-0.87 C102.43,45.46,102.99,44.5,103.53,43.53z"/><path fill-rule="evenodd" clip-rule="evenodd" fill="#BCDAF0" d="M136.49,14.5c0.02,0.65,0.04,1.29,0.06,1.94 c0.92,0.63,1.8,1.28,0.68,2.47c-1.94,0.77-3.71,0.77-5.05-1.13c-0.34-0.82-0.21-1.58,0.32-2.27 C133.55,14.07,135.1,14.63,136.49,14.5z"/><path fill-rule="evenodd" clip-rule="evenodd" fill="#B7D8EA" d="M127.45,18.52c1.01-0.34,2.03-0.69,3.04-1.03 c1.14,0.62,1.59,1.67,1.8,2.87c0.03,0.47-0.02,0.93-0.16,1.38c-1.24,2.11-2.64,1.06-4.04,0.2 c-0.4-0.21-0.76-0.47-1.11-0.77C125.87,20.08,126.28,19.23,127.45,18.52z"/><path fill-rule="evenodd" clip-rule="evenodd" fill="#B7D8EA" d="M122.48,20.52c0.01-0.66,0.02-1.32,0.03-1.98 c1.38-0.16,2.04-3.04,3.99-1.06c-0,0.34-0,0.69-0.01,1.03c-0.31,0.8-0.38,1.7-0.99,2.37 c-0.83,0.5-1.68,0.53-2.55,0.12C122.8,20.84,122.64,20.68,122.48,20.52z"/><path fill-rule="evenodd" clip-rule="evenodd" fill="#A9DDEF" d="M131.5,20.51c-0.34-1-0.68-2.01-1.01-3.01 c0.67-0.66,1.34-1.33,2-1.99c0.01,0.68,0.03,1.36,0.04,2.04c0.47,0.59,0.67,1.26,0.57,2.02 C132.81,20.28,132.4,20.8,131.5,20.51z"/><path fill-rule="evenodd" clip-rule="evenodd" fill="#96C8DF" d="M125.48,20.49c0.05-0.81,0.23-1.55,1.01-1.98 c0.32,0.01,0.64,0.01,0.95,0.01c-0.07,0.66-1.01,1.34,0.04,1.98c0.12,0.66-0.08,1.19-0.78,1.27 C125.81,21.88,125.34,21.45,125.48,20.49z"/><path fill-rule="evenodd" clip-rule="evenodd" fill="#D2E7EE" d="M137.5,18.5c-0.32-0.68-0.64-1.37-0.95-2.05 c1.46-1.28,3.09-1.66,4.93-0.97c0.31,0.22,0.42,0.45,0.32,0.68c-0.1,0.23-0.2,0.35-0.3,0.35 c-1,0.67-2,1.33-3,2C138.16,18.9,137.83,18.88,137.5,18.5z"/><path fill-rule="evenodd" clip-rule="evenodd" fill="#D2E5EA" d="M141.5,16.5c-0.01-0.34-0.01-0.69-0.02-1.03 c0.03-1.42,0-2.88,2.01-2.95c0.35,0.66,0.7,1.32,1.06,1.99c-0.03,0.32-0.05,0.64-0.06,0.96 C143.49,15.81,142.49,16.16,141.5,16.5z"/><path fill-rule="evenodd" clip-rule="evenodd" fill="#055D9C" d="M194.35,62.54c-0.62-0.01-1.23-0.03-1.85-0.04 c-1.24-1.36-1.43-2.96-1.06-4.68c0.15-0.55,0.42-1.03,0.8-1.45c0.79-0.45,1.56-0.46,2.28,0.14 C194.47,58.52,194.41,60.53,194.35,62.54z"/><path fill-rule="evenodd" clip-rule="evenodd" fill="#1462AD" d="M194.52,56.51c-0.67-0.02-1.33-0.03-2-0.05 c-0.72-0.53-1.02-1.29-1.17-2.13c-0.13-1.43-0.05-2.8,1.15-3.83c0.67,0,1.33,0,2,0.01 C194.51,52.51,194.51,54.51,194.52,56.51z"/><path fill-rule="evenodd" clip-rule="evenodd" fill="#65B1DA" d="M180.38,22.57c0.43,0.58,0.85,1.16,1.28,1.74 c0.34,1.83,2.13,3.41,0.95,5.5c-0.35,0.26-0.71,0.51-1.07,0.77c-0.39,0.31-0.83,0.52-1.32,0.64 c-0.51,0.03-0.99-0.07-1.45-0.3c-0.93-0.65-1.2-1.58-1.1-2.66c0.23-0.99,0.47-1.98,0.19-3.01 c-0.39-1.08-0.18-2.02,0.63-2.83C179.12,22.46,179.75,22.51,180.38,22.57z"/><path fill-rule="evenodd" clip-rule="evenodd" fill="#DBECF3" d="M177.48,25.51c-1.31-2.36-5.79,1.57-5.98-3.01 c0.68,0.01,1.37,0.01,2.05,0.02C174.45,24.06,178.69,21.2,177.48,25.51z"/><path fill-rule="evenodd" clip-rule="evenodd" fill="#B2CED9" d="M177.48,25.51c0.02-2.75-3.08-1.4-3.93-2.99 c1.65-0.04,3.29-0.07,4.94-0.11c-0.05,1.05-0.1,2.1-0.14,3.16c-0.31,0.38-0.6,0.39-0.86-0.05L177.48,25.51z"/><path fill-rule="evenodd" clip-rule="evenodd" fill="#F4EBE6" d="M187.49,34.45c-1.64,0.88-0.2,4.02-2.98,4.06 c-0.17-0.12-0.35-0.24-0.52-0.35c-0.77-0.98-1.35-2.12-2.38-2.89c-0.3-0.32-0.52-0.69-0.67-1.09 c-0.08-0.43-0.06-0.86,0.05-1.28c0.12-0.18,0.25-0.35,0.38-0.53c1.04-0.29,2.09-0.58,3.13-0.87 C185.49,32.48,186.49,33.47,187.49,34.45z"/><path fill-rule="evenodd" clip-rule="evenodd" fill="#507E9B" d="M182.62,29.8c0.46-1.97-2.57-3.33-0.95-5.5 c0.95,0.39,1.91,0.78,2.86,1.17C184.58,27.22,183.82,28.61,182.62,29.8z"/><path fill-rule="evenodd" clip-rule="evenodd" fill="#6FA9C5" d="M179.47,30.58c0.36-0.01,0.72-0.01,1.08-0.02 c0.31,0.22,0.53,0.51,0.69,0.85c0.05,0.32,0.09,0.64,0.12,0.95c0,0,0.03,0.02,0.03,0.02 c-0.26,0.39-0.61,0.65-1.05,0.81c-0.71,0.11-1.36-0.02-1.92-0.49C177.97,31.6,178.54,31,179.47,30.58z"/><path fill-rule="evenodd" clip-rule="evenodd" fill="#6F9AAE" d="M181.24,31.41c-0.23-0.28-0.46-0.57-0.69-0.85 c0.33-0.02,0.66-0.02,0.99,0.01C181.5,30.87,181.4,31.15,181.24,31.41z"/><path fill-rule="evenodd" clip-rule="evenodd" fill="#67C4ED" d="M114.69,84.59c0.27-0,0.54-0.03,0.81-0.08 c2.56-2.27,5.81-3.2,8.8-4.64c0.71-0.21,1.43-0.24,2.15-0.06c1.11,0.42,1.4,1.18,0.95,2.25 c-0.79,1.99-2.38,3.26-4.03,4.48c-0.99,0.7-1.14,2.65-3.01,2.03c-1.85-1.15-2.84-3.88-5.72-3.16 C114.64,85.14,114.65,84.86,114.69,84.59z"/><path fill-rule="evenodd" clip-rule="evenodd" fill="#055181" d="M191.45,64.53c-0.76,0.43-0.92,1.16-0.95,1.95 c-1.15,1.02-2.41,1.24-3.79,0.51c-0.68-0.56-0.86-1.3-0.73-2.14c1.33-2.14,2.74-4.21,4.95-5.57 c1.53,0.84,1.24,2,0.58,3.24C191.49,63.18,191.47,63.85,191.45,64.53z"/><path fill-rule="evenodd" clip-rule="evenodd" fill="#015686" d="M191.51,62.51c-0.04-1.1,0.14-2.27-1-3.01 c-0.34-0.26-0.57-0.6-0.71-1.01c-0.07-0.42-0.06-0.84,0.02-1.26c0.15-0.4,0.4-0.73,0.75-0.98 c1.06-0.2,1.42,0.64,1.91,1.29c0.01,1.65,0.01,3.3,0.02,4.95C192.17,62.5,191.84,62.51,191.51,62.51z"/><path fill-rule="evenodd" clip-rule="evenodd" fill="#57A4D5" d="M113.42,29.37c0.08-0.33,0.15-0.65,0.23-0.98 c2.62-0.1,1.89-2.57,2.78-3.9c0.65-0.69,1.3-1.38,1.95-2.06c2.32,2.09,0.26,4.94,1.3,7.25 c0.12,1.63,1.05,2.92,1.79,4.29c0.44,0.85,0.79,1.72,0.86,2.68c0.01,0.76-0.2,1.44-0.74,2 c-0.48,0.13-0.94,0.07-1.38-0.14c-2.09-1.88-4.2-3.76-3.35-6.28c-0.09,0.43-0.61,1.52-2.13,1.53 c-0.69-0.34-0.99-0.93-1.13-1.65C113.49,31.2,113.5,30.28,113.42,29.37z"/><path fill-rule="evenodd" clip-rule="evenodd" fill="#90C9E5" d="M128.51,20.51c1.05,0.15,1.25,2.9,2.98,0.97 c2.72,0.22,1.67,2.4,2.02,3.86c0.19,1.65,0.54,3.31-0.5,4.83c-0.97,1.05-1.83,0.44-2.7-0.16 c-2.02-3.98-6.13-1.38-8.97-2.8c-0.94-0.39-1.76-0.93-2.22-1.89c-0.07-1.27-0.44-2.57,0.34-3.77 c1.01-0.34,2.01-0.68,3.02-1.02l0.01,0.01C124.5,20.96,126.52,23.48,128.51,20.51z"/><path fill-rule="evenodd" clip-rule="evenodd" fill="#74BFE5" d="M119.47,21.55c0.02,1.32,0.03,2.63,0.05,3.95 c1.73,2.28,3.52,4.44,6.88,3.68c1.39-0.04,2.76-0.03,4.11,0.34c0.67,0.33,1.34,0.65,2.01,0.98 c1.2-0.83,1.92-0.34,2.38,0.86c-0.07,2.34-0.87,4.18-3.37,4.83c-4.83-0.75-9.99-0.76-13-5.69 c-1.4-2.67,0.33-5.39-0.15-8.07c0.04-0.27,0.07-0.55,0.09-0.82C118.8,21.53,119.13,21.51,119.47,21.55z"/><path fill-rule="evenodd" clip-rule="evenodd" fill="#03579F" d="M179.51,82.51c-0.34-0.01-0.68-0.02-1.02-0.02 c-0.78-0.9-1.24-1.93-1.23-3.14c0.01-1.21,0.26-2.33,1.16-3.21c1.44-0.88,2.79-0.69,4.07,0.34 c-0.14,1.53,1.35,1.98,1.99,2.99C183.15,81.02,182.6,83.85,179.51,82.51z"/><path fill-rule="evenodd" clip-rule="evenodd" fill="#095082" d="M182.5,72.51c-0.02,0.32-0.02,0.65-0.02,0.97 c-0.78,1.65-2.17,2.12-3.86,1.99c-0.8,0.04-1.51-0.17-2.14-0.67c-0.81-1.52-0.28-2.86,0.57-4.15 c1.92-0.48,3.85-1.25,5.79-0.04C183.12,71.31,183.07,71.96,182.5,72.51z"/><path fill-rule="evenodd" clip-rule="evenodd" fill="#0C55A1" d="M188.52,72.53c-0.01,0.65-0.03,1.3-0.05,1.95 c-0.67-0.01-1.34-0.01-2.01-0.02c-0.88-1.68-0.63-3.48-0.55-5.27c0.51-1.02,1.32-1.4,2.43-1.14 C190.46,69.47,189.79,70.99,188.52,72.53z"/><path fill-rule="evenodd" clip-rule="evenodd" fill="#164D96" d="M179.51,82.51c2.31,0.05,3.16-2.29,4.98-3.04 c-0.01,0.96-0.03,1.92-0.04,2.88c-1.68,0.24-2.77,2.96-4.93,1.18C179.52,83.19,179.51,82.85,179.51,82.51z"/><path fill-rule="evenodd" clip-rule="evenodd" fill="#095DA8" d="M186.49,69.49c0.45,1.66,0.51,3.32-0.02,4.98 c-1.33-0.01-1.93-0.74-2.02-2c-0.75-0.97-0.89-1.97-0.2-3.04C185.01,68.93,185.76,68.87,186.49,69.49z"/><path fill-rule="evenodd" clip-rule="evenodd" fill="#035490" d="M178.47,74.53c1.45,0.1,2.77-0.32,4.01-1.05 c0.01,1,0.01,2,0.01,3c-1.33,0.01-2.66,0.01-4,0.02C177.97,75.85,177.9,75.19,178.47,74.53z"/><path fill-rule="evenodd" clip-rule="evenodd" fill="#03558D" d="M184.57,69.58c-0.04,0.96-0.08,1.92-0.12,2.88 c-0.65,0.01-1.3,0.03-1.95,0.04c-0.01-0.67-0.02-1.35-0.02-2.02c-0.8-1.18-0.36-1.92,0.86-2.37 C184.22,68.21,184.8,68.56,184.57,69.58z"/><path fill-rule="evenodd" clip-rule="evenodd" fill="#50B4E5" d="M161.47,98.78c-0.95-0.13-1.9-0.25-2.85-0.38 c-0.44-1.68,0.93-1.98,1.95-2.56c0.99-0.23,1.94-0.26,2.71,0.57c0.49,0.06,0.97,0.12,1.46,0.18 C164.02,97.88,162.93,98.61,161.47,98.78z"/><path fill-rule="evenodd" clip-rule="evenodd" fill="#0C5099" d="M163.28,96.41c-0.92,0.05-1.84,0.1-2.76,0.15 c-1.26,0.59-2.61,0.81-3.99,0.9c-0.67-0.01-1.34-0.01-2.01-0.02c-1.08-1.31-2.53-1.69-4.15-1.62 c-1.09-0.01-2.17-0.03-3.26-0.01c-1.52-0.06-2.87,0.26-3.69,1.71c-0.29,0.3-0.58,0.6-0.88,0.9 c-2.02-0.34-3.62-2.98-6.04-1.07c-0.2-0.87,0.99-1.95-0.1-2.58c-1.1-0.63-2.05,0.47-3.06,0.83 c-1.36-0.19-2.52-1.31-4.01-0.85c-0.79-0.02-1.21-0.49-1.47-1.17c-0.17-2.74-1.41-5.18-2.18-7.76 c0.14-1.22,0.16-2.46,0.83-3.55c1.31-0.58,2.56-0.32,3.79,0.28c3.97,1.67,7.99,3.02,12.41,2.63 c1.15-0.1,2.65-0.07,3.26,0.83c4.14,6.15,10.17,3.69,15.68,3.63c1.28-0.22,2.57-0.35,3.86-0.13 c0.49,0.09,0.97,0.25,1.42,0.48c1.45,1.09,3,2.2,0.01,3.31c-0.79,0.38-2.1-0.18-2.34,1.25 C164.16,95.16,163.72,95.79,163.28,96.41z"/><path fill-rule="evenodd" clip-rule="evenodd" fill="#154C9D" d="M142.54,98.42c-0.02-0.31-0.03-0.62-0.03-0.94 c1.14-1.1,2.59-1.52,4.08-1.84c1.28-0.16,2.56-0.13,3.84-0.1c1.41,0.05,2.59,0.46,3.07,1.97 c-0.7,1.17-1.89,0.95-2.97,1.05C147.87,98.51,145.21,98.46,142.54,98.42z"/><path fill-rule="evenodd" clip-rule="evenodd" fill="#0E4F9B" d="M175.49,88.48c-1.35,0.35-2.69,0.7-4.04,1.06 c-1.26,2.29-3.06,1.84-4.94,0.98l-0.03-0.02c-0.48-0.42-0.62-0.95-0.51-1.55c0.58-1.02-0.14-0.65-0.69-0.7 c-1.14-0.09-2.22-0.37-1.86-1.96c0.36-0.33,0.76-0.56,1.21-0.73c1.2-0.36,2.43-0.35,3.66-0.37 c0.76-0.02,1.51,0.04,2.25,0.18c0.77,0.17,1.37,0.62,1.94,1.13C173.93,86.51,174.92,87.17,175.49,88.48z"/><path fill-rule="evenodd" clip-rule="evenodd" fill="#0F4E97" d="M172.5,86.5c-0.67-0-1.34-0-2.01-0.01 c-1.03-1.27-1.23-2.61-0.36-4.05c1.16-1.14,2.6-1.25,4.11-1.14c0.9,0.13,1.69,0.46,2.26,1.2 C176.66,85.33,172.33,83.66,172.5,86.5z"/><path fill-rule="evenodd" clip-rule="evenodd" fill="#025593" d="M176.5,82.51c-0.66-0.01-1.33-0.01-1.99-0.02 c-0.54-0.57-0.88-1.24-0.92-2.04c0.34-2.39,1.59-3.06,3.77-2c0.38,0.33,0.75,0.68,1.12,1.03 c0,1,0.01,2.01,0.01,3.01C177.83,82.5,177.17,82.5,176.5,82.51z"/><path fill-rule="evenodd" clip-rule="evenodd" fill="#164985" d="M176.55,88.53c-0.03,0.31-0.05,0.62-0.06,0.93 c-0.33-0.31-0.66-0.61-0.98-0.92C175.85,88.53,176.2,88.53,176.55,88.53z"/><path fill-rule="evenodd" clip-rule="evenodd" fill="#145EA8" d="M166.52,90.52c1.73,0.1,3.41-0.06,4.94-0.99 c0.34,0.67,0.68,1.34,1.02,2.02c-1.56,1.87-4.05,1.76-6,2.82c-0.57-0.62-0.56-1.23,0.01-1.84 C169.68,91.91,166.02,91.18,166.52,90.52z"/><path fill-rule="evenodd" clip-rule="evenodd" fill="#0A4F84" d="M166.48,92.53c-0,0.61-0.01,1.23-0.01,1.84 c-0.62,0.06-1.25,0.11-1.87,0.17c-0.67-0.23-1.94-0.19-1.48-1.22C163.75,91.87,165.33,92.76,166.48,92.53z"/><path fill-rule="evenodd" clip-rule="evenodd" fill="#065295" d="M153.5,97.5c-1-0.34-2.01-0.68-3.01-1.01 c-0.59-0.66-0.58-1.32,0-1.99c2.12-0.09,4.24-0.17,4.03,2.94C154.19,97.46,153.84,97.48,153.5,97.5z"/><path fill-rule="evenodd" clip-rule="evenodd" fill="#065994" d="M156.53,97.46c1.09-1.39,2.6-0.84,3.99-0.9 c-0.63,0.61-1.26,1.23-1.9,1.84C157.75,98.47,156.98,98.32,156.53,97.46z"/><path fill-rule="evenodd" clip-rule="evenodd" fill="#015893" d="M184.57,69.58c-0.3-0.36-0.6-0.73-0.9-1.09 c-0.77-1.14-0.01-1.77,0.78-2.4c0.75-0.25,1.43-0.17,2.03,0.39c1.34-0,2.67-0,4.01-0 c-0.01,0.67-0.02,1.34-0.03,2.02c-0.65,0.6-1.31,0.59-1.97,0.02c-0.82,0.02-1.57,0.18-2.01,0.98 C185.85,69.52,185.21,69.55,184.57,69.58z"/><path fill-rule="evenodd" clip-rule="evenodd" fill="#095399" d="M188.5,68.51c0.66-0.01,1.31-0.01,1.97-0.02 c-0.1,1.6-0.2,3.21-0.3,4.81c-0.55-0.26-1.1-0.52-1.65-0.77C188.52,71.19,189.47,69.84,188.5,68.51z"/><path fill-rule="evenodd" clip-rule="evenodd" fill="#4FBEED" d="M128.34,93.85c-0.62,0.2-1.24,0.4-1.86,0.6 c-1.3-0.71-2.59-1.42-3.89-2.12c0.34-1.89-1.77-2.33-2.23-3.75c0.71-1.02,1.43-2.04,2.14-3.07 c1.4,0.12,2.64,1.13,4.13,0.72C128.38,88.5,129.51,90.92,128.34,93.85z"/><path fill-rule="evenodd" clip-rule="evenodd" fill="#1572B5" d="M188.51,44.5c0,0.32,0.01,0.65,0.02,0.97 c0.31,0.33,0.54,0.71,0.68,1.14c0.16,2.83-2.73,3.89-3.57,6.15c-0.2,0.4-0.46,0.77-0.74,1.12 c-0.68,0.66-1.44,1.1-2.44,0.92c-1.18-0.68-2.43-1.26-3.38-2.29c-0.23-0.42-0.37-0.87-0.44-1.34 c0.04-2.35,1.1-4.1,3.07-5.33c0.78-0.5,2.03-0.68,1.43-2.12c-0.1-0.42-0.09-0.84-0.01-1.25 c0.44-1.16,1.6-1.35,2.5-1.9c0.59-0.07,1.18-0.15,1.77-0.22c1.09,0.3,1.63,1.08,1.85,2.13 C189.31,43.26,189.04,43.93,188.51,44.5z"/><path fill-rule="evenodd" clip-rule="evenodd" fill="#F0F1F5" d="M185.64,40.56c-0.7,0.66-1.4,1.32-2.1,1.98 c-1.4,0.62-2.85,1.1-4.36,1.4c-0.74-0.23-1.2-0.75-1.48-1.46c-0.28-1-0.21-1.95,0.33-2.85 c0.51-0.6,1.19-0.82,1.95-0.83c0.95,0.05,1.86,0.32,2.77,0.57c0.69,0.2,1.22,0.64,1.72,1.13 C184.87,40.51,185.25,40.53,185.64,40.56z"/><path fill-rule="evenodd" clip-rule="evenodd" fill="#056BA6" d="M188.5,42.5c-0.36-0.72-0.73-1.44-1.09-2.16 c0.31-0.31,0.62-0.62,0.93-0.93c1.92,0.16,2.24,1.48,2.21,3.05C189.88,43.11,189.19,43.08,188.5,42.5z"/><path fill-rule="evenodd" clip-rule="evenodd" fill="#EDE8E2" d="M184.48,40.49c-0.67-0.01-1.34-0.01-2-0.01 c-1.18-0.87-1.8-1.74,0-2.6c0.76-0.13,1.42,0.07,1.99,0.59l0.04,0.05C184.5,39.17,184.49,39.83,184.48,40.49 z"/><path fill-rule="evenodd" clip-rule="evenodd" fill="#1170AA" d="M188.5,42.5c0.68-0.01,1.36-0.02,2.04-0.03 c0.94,0.06,1.88,0.11,2.82,0.17c-1.4,1.19-3.15,1.48-4.86,1.87C188.51,43.83,188.5,43.17,188.5,42.5z"/><path fill-rule="evenodd" clip-rule="evenodd" fill="#0A67AD" d="M192.5,50.5c0,1.33,0,2.65,0,3.98 c-0.54,0.6-1.19,0.65-1.92,0.39c-0.4-0.29-0.7-0.67-0.91-1.11c-0.27-0.71-0.4-1.44-0.45-2.2 c-0.04-1.81-0.07-3.63,1.07-5.21c0.76-0.38,1.49-0.45,2.19,0.14C192.49,47.83,192.5,49.16,192.5,50.5z"/><path fill-rule="evenodd" clip-rule="evenodd" fill="#086CAA" d="M192.49,46.49c-0.66,0-1.32,0.01-1.99,0.01 c-0.67,0.59-1.33,0.59-1.99-0.01c0.01-0.34,0.01-0.68,0.02-1.02c1.45,0.18,2.73-0.29,3.96-0.97 C192.49,45.17,192.49,45.83,192.49,46.49z"/><path fill-rule="evenodd" clip-rule="evenodd" fill="#E6F3F9" d="M138.5,27.49c0-0.34,0.01-0.68,0.01-1.01 c1.21-0.75,2.47-1.35,3.94-1.29c3.27,0.47,6.54,0.9,9.81,1.4c0.78,0.4,1.47,0.86,1.23,1.92 c-2.34,0.01-4.67,0.01-7.01,0.02c-0.81,0.66-0.78,1.32,0.01,1.98c5.34,0,10.67,0,16.01,0 c1.22-0.81,2.59-1.08,3.17,0.51c0.75,2.04-1.36,2.58-2.43,3.64c-6.43,2.46-13.15,0.76-19.71,1.34 c-1.31,0.12-2.66-0.06-3.98,0.04c-1.21,0.14-2.24-0.03-2.67-1.34c-1.16,0.9,3.73,5.13-1.96,3.91 c-2.02-1.58-1.12-3.62-0.89-5.55C134.97,30.76,136.04,28.57,138.5,27.49z"/><path fill-rule="evenodd" clip-rule="evenodd" fill="#E3F2F7" d="M162.5,33.5c0.42-1.18,2.54-0.65,2.43-2.04 c-0.1-1.34-1.53-0.79-2.42-0.96c0-1.34,0-2.67,0.01-4.01c2.17-0.56,3.43,1.16,5.03,2.02 c0.98,0.33,1.96,0.66,2.94,0.99c1.22,0.96,2.81,1.64,2.75,3.58c-0.15,1.24-0.9,1.99-2.02,2.42 C168.05,35.96,164.87,36.52,162.5,33.5z"/><path fill-rule="evenodd" clip-rule="evenodd" fill="#D3ECF4" d="M171.51,34.51c0.79-0.45,0.96-1.2,0.98-2.02 c0.38-0.96,1.25-1.42,2.01-1.99c0.65-0.02,1.29-0.04,1.94-0.07c0.37-0.32,0.76-0.36,1.19-0.13 c1.32,1.4-2.53,2.92,0.1,4.31c-0.12,2.11-2.8,1.92-3.26,3.72c-1.11,1.86-2.2,3.73-4.29,4.68 c-0.81,0.14-1.53-0.02-2.12-0.62c-1.04-1.73-1-3.53-0.35-5.38C168.41,35.35,170.37,35.55,171.51,34.51z"/><path fill-rule="evenodd" clip-rule="evenodd" fill="#E8F3F9" d="M153.5,28.5c-0.33-0.33-0.66-0.66-0.99-1 c-0.13-0.21-0.27-0.41-0.4-0.62c0.06-0.24,0.12-0.48,0.18-0.72c1.07-1.57,2.78-1.97,4.45-2.45 c1.03-0.17,1.98-0.03,2.74,0.76l0.02,0.06C159.83,29.37,156.35,28.46,153.5,28.5z"/><path fill-rule="evenodd" clip-rule="evenodd" fill="#FBEDF4" d="M146.5,30.5c-1.2-0.07-2.52,0.27-3.53-0.82 c0.92-1.74,2.37-0.93,3.52-1.16C146.49,29.18,146.49,29.84,146.5,30.5z"/><path fill-rule="evenodd" clip-rule="evenodd" fill="#B8D3DD" d="M167.54,28.5c-1.68-0.67-3.35-1.34-5.03-2.02 C165.32,24.34,166.27,26.82,167.54,28.5z"/><path fill-rule="evenodd" clip-rule="evenodd" fill="#DBECF3" d="M177.35,30.48c-0.3-0-0.6-0.02-0.91-0.04 c0.35-1.64,0.7-3.28,1.05-4.92c0.29,0.01,0.58,0.03,0.86,0.05c0.04,0.98,0.09,1.96,0.13,2.94 C177.77,28.97,178.31,30.16,177.35,30.48z"/><path fill-rule="evenodd" clip-rule="evenodd" fill="#DBECF3" d="M174.5,30.5c-0.39,0.95-1.05,1.61-2.01,1.99 c-0.67-1-1.34-2-2.01-3C171.82,29.83,173.16,30.17,174.5,30.5z"/><path fill-rule="evenodd" clip-rule="evenodd" fill="#E1F1F6" d="M155.5,19.5c0.35-2.63,2.42-1.81,4-2.01 C158.16,18.16,156.83,18.83,155.5,19.5z"/><path fill-rule="evenodd" clip-rule="evenodd" fill="#D1E8F2" d="M138.5,27.49c-0.77,2.12-2.5,3.48-3.98,5.04 c-0.3-0.22-0.4-0.45-0.31-0.68c0.09-0.23,0.19-0.35,0.29-0.35c-0.39-0.88-1.2-0.92-1.99-1.01 c0-1.67,0-3.33,0-5c0.65-0.58,1.31-0.58,1.97-0.01C135.5,26.79,136.91,27.33,138.5,27.49z"/><path fill-rule="evenodd" clip-rule="evenodd" fill="#DEEFF6" d="M137.5,18.5c0.33,0,0.67,0.01,1,0.01 c-1.02,1.32-2.05,2.64-3.07,3.96c-1.54-0.44-2.45-1.5-2.92-2.99c0.01-0.65,0.01-1.29,0.02-1.94 C134.08,18.42,135.76,18.62,137.5,18.5z"/><path fill-rule="evenodd" clip-rule="evenodd" fill="#B4DDEA" d="M132.52,19.48c1.29,0.69,2.32,1.63,2.92,2.99 c-1.11,0.76-0.86,1.94-0.95,3.02c-0.66,0-1.31,0.01-1.97,0.01c-0.14-1.39,0.4-2.95-1.02-4.01 c0-0.32,0.01-0.65,0.01-0.97C131.84,20.17,132.18,19.82,132.52,19.48z"/><path fill-rule="evenodd" clip-rule="evenodd" fill="#96CAD9" d="M142.47,26.45c-1.32,0.01-2.64,0.02-3.96,0.03 c0.35-0.98,0.69-1.95,1.04-2.93c1.67-0.98,3.15,0.08,4.7,0.42c0.38,0.32,0.55,0.73,0.56,1.23 C144.38,26.27,143.11,25.77,142.47,26.45z"/><path fill-rule="evenodd" clip-rule="evenodd" fill="#B2E0EF" d="M144.49,24.49c-1.65-0.32-3.29-0.63-4.93-0.95 c0.31-0.36,0.62-0.71,0.93-1.07c1.01,0.01,2.01,0.02,3.02,0.04C144.09,23.05,145.05,23.4,144.49,24.49z"/><path fill-rule="evenodd" clip-rule="evenodd" fill="#9AD9EF" d="M144.49,24.49c-0.33-0.66-0.65-1.32-0.98-1.98 c0.66,0.01,1.32,0.02,1.98,0.04c1.01,0.74,2.02,1.02,3.02-0.02c1.33,0,2.65,0,3.98,0 c1.13,1.32,0.93,2.64,0.01,3.97l-0,0c-2.83,0.88-5.55,0.92-8.01-1.03C144.49,25.14,144.49,24.82,144.49,24.49z"/><path fill-rule="evenodd" clip-rule="evenodd" fill="#B2E0EF" d="M152.49,26.49c-0-1.32-0-2.65-0-3.97 c0.3-0.04,0.6-0.06,0.91-0.06c0.47-0.8,1.5-0.36,2.08-0.92c0.34-0,0.68-0.01,1.02-0.01 c0.63,0.67,0.74,1.55-0.01,1.96c-1.11,0.6-0.03,0.72,0.08,1.05C155.21,25.2,153.85,25.84,152.49,26.49z"/><path fill-rule="evenodd" clip-rule="evenodd" fill="#B2E0EF" d="M148.51,22.52c-0.98,3.06-2,1.52-3.02,0.02 C146.5,22.54,147.5,22.53,148.51,22.52z"/><path fill-rule="evenodd" clip-rule="evenodd" fill="#B1D6E9" d="M155.48,21.54c-0.48,0.79-1.24,0.94-2.08,0.92 c-0.62-0.65-1.24-1.29-1.86-1.93C152.99,20.34,154.26,20.83,155.48,21.54z"/><path fill-rule="evenodd" clip-rule="evenodd" fill="#B1D6E9" d="M156.57,24.55c-5.57-0.88,2.98-2.08-0.07-3.02 c1.43,0.54,4.1-0.17,2.99,2.94C158.52,24.5,157.54,24.52,156.57,24.55z"/><path fill-rule="evenodd" clip-rule="evenodd" fill="#6DCBEF" d="M122.51,74.52c-1.93-0.89-4.44-0.04-6.01-2.02 c-1.16-0.46-2.06-1.16-2.34-2.46c0.15-1.07,0.72-1.81,1.73-2.2c2.74-0.26,4.99,1.42,7.55,1.96 c1.93,0.4,2.25,2.19,1.68,4.02C124.46,74.84,123.66,75.34,122.51,74.52z"/><path fill-rule="evenodd" clip-rule="evenodd" fill="#BDD3DD" d="M124.52,80.46c-2.68,2.08-5.5,3.85-9.02,4.05 c-0.64-0.67-1.27-1.35-1.9-2.02c1.55-2.69,4.33-2.58,6.87-3.02c0.32-0.33,0.71-0.47,1.17-0.45 c0.88,0.14,1.71,0.43,2.46,0.93C124.23,80.12,124.38,80.29,124.52,80.46z"/><path fill-rule="evenodd" clip-rule="evenodd" fill="#70CAEF" d="M114.5,70.5c1.29,0.05,1.95,0.72,2,2 c-0.92,1.13-2.1,1.33-2.82,0.07c-1.79-3.12-3.45-1.1-5.19-0.07c-0.03-0.82-0.22-1.56-1-2 c0.01-0.33,0.01-0.66,0.01-0.99C111,65.89,111.75,66,114.5,70.5z"/><path fill-rule="evenodd" clip-rule="evenodd" fill="#6FB9E2" d="M122.51,74.52c0.81-0.04,1.56-0.21,2.01-0.99 c0.64-0.63,1.31-0.55,2-0.09c0.94,1.31,0.41,2.37-0.59,3.34c-0.43,0.29-0.9,0.46-1.42,0.53 c-0.8,0.02-1.5-0.2-2.01-0.85C122.5,75.81,122.5,75.16,122.51,74.52z"/><path fill-rule="evenodd" clip-rule="evenodd" fill="#BEE3F7" d="M122.49,76.45c0.68,0.05,1.36,0.09,2.04,0.14 c0.56,0.59,0.58,1.26,0.27,1.97c-0.9,1.05-2.14,0.89-3.33,0.91c-0.33,0-0.67,0-1,0 C120.53,78.06,121.23,77.07,122.49,76.45z"/><path fill-rule="evenodd" clip-rule="evenodd" fill="#1261AB" d="M108.5,56.51c-1.28-1.8-3.79-3.19-2-6.01 c0.19-0.19,0.37-0.38,0.56-0.57c1.77-0.91,3.57-0.74,5.38-0.13c2.32,1.14,4.12,2.61,3.69,5.61 c-0.24,1.66,1.14,2.6,1.9,3.81c0.97,1.55,1.81,3.12,0.99,5.01c-0.42,0.63-1.03,0.85-1.75,0.82 c-0.98-0.67-2-1.27-3.16-1.61c-1.1-1.16-1.28-2.93-2.6-3.94c-0.01-0.34-0.01-0.67-0.01-1.01 C110.86,57.27,109.42,57.28,108.5,56.51z"/><path fill-rule="evenodd" clip-rule="evenodd" fill="#7BCEF0" d="M114.5,70.5c-2.08-2.11-4.3-3.21-7-1 c1.53-2.17,0.97-4.69,1.19-7.08c0.93,0.05,1.86,0.11,2.79,0.16c0.93-0,1.65,0.44,2.3,1.05 c0.33,0.26,0.67,0.5,1.03,0.71c0.36,0.5,0.53,1.06,0.57,1.66c0.01,0.35-0.02,0.71-0.08,1.06 c-0.08,0.49,0.08,0.96,0.21,1.44C115.17,69.17,114.84,69.83,114.5,70.5z"/><path fill-rule="evenodd" clip-rule="evenodd" fill="#0C63A5" d="M113.63,64.26c-0.98-0.22-1.72-0.76-2.15-1.68 c0.01-1.03,0.01-2.05,0.01-3.08c2.56,0.14,3.08,1.83,3.02,3.97C114.36,63.89,114.07,64.16,113.63,64.26z"/><path fill-rule="evenodd" clip-rule="evenodd" fill="#10619E" d="M104.48,47.52c0.3-0.05,0.6-0.07,0.9-0.06 c2.41,0.26,1.82,1.63,1.13,3.05H106.5c-0.64,0.32-1.28,0.64-1.92,0.96C104.55,50.14,104.52,48.83,104.48,47.52z"/><path fill-rule="evenodd" clip-rule="evenodd" fill="#0359A1" d="M108.5,56.51c0.56,1.31,4.95-3.12,2.98,1.99 C110.06,58.48,109.07,57.81,108.5,56.51z"/><path fill-rule="evenodd" clip-rule="evenodd" fill="#72B7DF" d="M107.3,60.55c-1.72-0.35-2.68,0.74-3.6,1.9 C103.53,59.22,104.84,58.8,107.3,60.55z"/><path fill-rule="evenodd" clip-rule="evenodd" fill="#156BB2" d="M113.42,29.37c1.01,0.38,1.05,1.23,1.03,2.11 c-1.23,2.26,0.85,4.01,0.94,6.07c0.24,0.95,0.36,1.92,0.39,2.9c0.01,1.23-0.06,2.45-0.63,3.57 c-0.24,0.41-0.61,0.65-1.07,0.77c-0.96-0.07-2.06-0.54-2.6,0.81c-0.34,0.62-0.76,1.15-1.46,1.37 c-1.55,0.13-2.22-0.77-2.49-2.13c-0.33-2.33,0.35-4.38,1.71-6.25c0.21-0.42,0.5-0.78,0.84-1.11 c1.85,0.6,1.55-1.37,2.37-2c0.01-1.93,0.03-3.86,0.04-5.79C112.83,29.63,113.13,29.52,113.42,29.37z"/><path fill-rule="evenodd" clip-rule="evenodd" fill="#076493" d="M110.54,37.51c-0.05,0.32-0.09,0.64-0.13,0.95 c-1.18,0.71-2.01,0.73-1.94-1c0.06-1,0.11-2,0.17-2.99c0.6,0.34,1.2,0.69,1.8,1.03 C111.08,36.14,111.12,36.81,110.54,37.51z"/><path fill-rule="evenodd" clip-rule="evenodd" fill="#1576B6" d="M110.54,37.51c-0.03-0.67-0.07-1.34-0.1-2.01 c0.68-0.01,1.35-0.01,2.03-0.02C112.39,36.69,113.03,38.59,110.54,37.51z"/><path fill-rule="evenodd" clip-rule="evenodd" fill="#10619E" d="M108.47,37.47c0.42,0.79,1.13,0.99,1.94,1 c-0.39,2.09-2.67,3.57-1.93,6.02c-0.72,0.61-1.42,0.54-2.1-0.06c0.2-1.33-0.13-2.55-0.74-3.72 C107.56,40.47,107.27,38.33,108.47,37.47z"/><path fill-rule="evenodd" clip-rule="evenodd" fill="#0B65AB" d="M106.39,44.43c0.7,0.02,1.4,0.04,2.1,0.06 c0.06,1.28,0.71,1.97,2.01,2.01c0.66-0.59,1.38-0.6,2.14-0.22c0.97,1.13,1.02,2.36,0.42,3.67 c-0.18,0.19-0.37,0.38-0.55,0.56c-1.99,0-3.99,0-5.98,0c-0.05-1.14,0.13-2.36-1.13-3.05 c0.02-0.33-0.03-0.65-0.15-0.95C105.62,45.81,106,45.12,106.39,44.43z"/><path fill-rule="evenodd" clip-rule="evenodd" fill="#A5D5EB" d="M128.51,20.51c-1.99,4.17-4.01,1.22-6.02,0.03 c1-0.01,1.99-0.03,2.99-0.04c0.66,1,1.33,1.02,2.01,0.01C127.83,20.51,128.17,20.51,128.51,20.51z"/><path fill-rule="evenodd" clip-rule="evenodd" fill="#035E9C" d="M190.53,54.49c0.66-0,1.31-0,1.97-0.01 c0.01,0.66,0.01,1.32,0.02,1.98c-0.01,0.36-0.03,0.72-0.04,1.08c-0.65-0.35-1.31-0.71-1.96-1.06 C189.98,55.82,189.98,55.15,190.53,54.49z"/><path fill-rule="evenodd" clip-rule="evenodd" fill="#86B6CA" d="M177.35,30.48c0.38-0.66,0.76-1.32,1.13-1.98 c0.33,0.69,0.66,1.38,0.99,2.07c-0.31,0.68-0.63,1.36-0.94,2.04c0.57,1.11,0.66,1.96-1.01,1.84 C171.74,33.37,178.47,31.76,177.35,30.48z"/><path fill-rule="evenodd" clip-rule="evenodd" fill="#DDEEF5" d="M177.52,34.45c0.34-0.61,0.67-1.23,1.01-1.84 c0.66-0.01,1.32-0.02,1.98-0.03c0.37,0.26,0.7,0.56,0.99,0.91c0.02,0.35,0.04,0.7,0.06,1.05 c0.29,0.4,0.36,0.83,0.18,1.3c-0.37,0.63-0.89,1.09-1.55,1.39c-1.79,0.54-3.62,0.8-5.48,0.93 c-0.47-0.1-0.87-0.31-1.19-0.67C173.5,34.71,176.72,36.17,177.52,34.45z"/><path fill-rule="evenodd" clip-rule="evenodd" fill="#FCE5D1" d="M181.51,35.49c0.01-0.32,0.02-0.63,0.05-0.95 c2.56,0.13,3.03,1.81,2.91,3.92c-0.65,0.01-1.3,0.02-1.96,0.03C181.46,37.73,181.48,36.62,181.51,35.49z"/><path fill-rule="evenodd" clip-rule="evenodd" fill="#D1E8F3" d="M181.5,33.5c-0.33-0.3-0.66-0.61-0.99-0.91 c0.28-0.13,0.57-0.2,0.88-0.2C181.43,32.75,181.46,33.12,181.5,33.5z"/><path fill-rule="evenodd" clip-rule="evenodd" fill="#315589" d="M129.45,83.43c-0.88-0.32-1.75-0.64-2.63-0.95 c-0.72-0.42-0.67-0.71,0.14-0.88c0.81-0.75,0.17-1.03-0.43-1.32c-0.35-1.51,0.55-2.37,1.63-3.14 c0.47-0.22,0.97-0.3,1.49-0.27c0.52,0.1,0.95,0.35,1.3,0.75c0.71,1.17,0.76,2.42,0.49,3.72 C131.13,82.37,130.59,83.19,129.45,83.43z"/><path fill-rule="evenodd" clip-rule="evenodd" fill="#45C0EA" d="M126.96,81.59c-0.09,0.29-0.14,0.58-0.14,0.88 c-0.06,1.25-0.13,2.5-0.19,3.75c-2.13,4.12-2.92,0.48-4.13-0.72C123.99,84.2,125.47,82.9,126.96,81.59z"/><path fill-rule="evenodd" clip-rule="evenodd" fill="#E5DAD0" d="M128.6,77.81c-0.69,0.82-1.37,1.65-2.06,2.47 c-0.67,0.06-1.35,0.12-2.02,0.18c0,0,0.03-0.2,0.03-0.2c-0.38-0.59-0.12-1.15,0.05-1.72 c-0.02-0.65-0.05-1.3-0.07-1.95c0.28-0.09,0.57-0.14,0.86-0.14C126.84,75.99,128.57,74.88,128.6,77.81z"/><path fill-rule="evenodd" clip-rule="evenodd" fill="#03526E" d="M190.43,58.55c0.02,0.32,0.05,0.64,0.08,0.95 c0.03,2.76-1.56,4.23-4,5.02c-0.69-0.07-1.24-0.42-1.72-0.9c-0.47-0.53-0.75-1.14-0.73-1.87 c0.1-0.47,0.29-0.9,0.56-1.29C186.09,58.42,187.53,56.27,190.43,58.55z"/><path fill-rule="evenodd" clip-rule="evenodd" fill="#115A73" d="M185.5,63.48c0.34,0.35,0.67,0.7,1.01,1.04 c-0.01,0.65-0.02,1.3-0.02,1.95c-0.62,0.03-1.25,0.06-1.87,0.09c-2.1,0.89-2.68-0.23-2.71-2.07 C182.65,62.58,183.96,62.63,185.5,63.48z"/><path fill-rule="evenodd" clip-rule="evenodd" fill="#00527A" d="M190.43,58.55c-3.08-1.3-3.62,2.37-5.74,2.94 c-1.65-1.79-0.52-3.38,0.35-4.99c0.38-0.38,0.83-0.64,1.35-0.77c1.78-0.35,3,0.57,4.08,1.81 C190.46,57.88,190.44,58.21,190.43,58.55z"/><path fill-rule="evenodd" clip-rule="evenodd" fill="#0B6087" d="M190.48,57.54c-1.35-0.36-2.69-0.73-4.04-1.09 c-0.2-3.87,1.9-2.98,4.06-1.96l0.03-0.01c-0,0.67-0.01,1.33-0.02,2 C190.5,56.84,190.49,57.19,190.48,57.54z"/><path fill-rule="evenodd" clip-rule="evenodd" fill="#4BAADD" d="M121.51,38.48c-0-0.66-0-1.32-0-1.98 c3.27-0.4,6.27,0.59,9.24,1.76c0.91,1.19,1.04,2.53,0.79,3.94c-0.13,0.54-0.38,1.03-0.73,1.46 C126.26,44.47,123.42,42.89,121.51,38.48z"/><path fill-rule="evenodd" clip-rule="evenodd" fill="#3698D1" d="M121.51,38.48c2.62,2.31,5.19,4.74,8.94,5.04 c1.13,0.45,1.62,1.21,1.14,2.42c-1.31,1.71-3.03,1.81-4.92,1.28c-2.53-2.47-7.11-3.28-6.67-8.18 c0.17-0.19,0.34-0.37,0.51-0.56C120.84,38.48,121.18,38.48,121.51,38.48z"/><path fill-rule="evenodd" clip-rule="evenodd" fill="#66B6E1" d="M118.53,30.5c3.66,3.44,8.76,3.13,13.02,5.01 c0.28,0.56,0.18,1.04-0.31,1.45c-4.08,1.38-7.47-0.25-10.73-2.45C119.91,33.13,118.37,32.23,118.53,30.5z"/><path fill-rule="evenodd" clip-rule="evenodd" fill="#489ACF" d="M114.55,33.48c1.4-0.47,1.69-1.83,3.02-4.19 c-0.98,4.61,2.49,6.21,2.94,9.19c0,0-0.02,0.03-0.02,0.03c-0.58,0.52-1.24,0.86-2.04,0.91 c-2.59,0.01-2.94-2.45-4.24-3.87C114.01,34.81,113.91,34.08,114.55,33.48z"/><path fill-rule="evenodd" clip-rule="evenodd" fill="#5BB1DF" d="M120.51,34.5c3.62,0.7,7.07,2.32,10.88,2.02 c0.55,1.13-0.05,1.67-1.03,2c-3.17,0.27-6.15-0.24-8.85-2.02C121.17,35.83,120.84,35.16,120.51,34.5z"/><path fill-rule="evenodd" clip-rule="evenodd" fill="#3185C6" d="M114.55,33.48c-0.01,0.67-0.03,1.35-0.04,2.02 c0.6,0.71,0.52,1.4-0.07,2.07c-1.44-2.04-1.4-4.07,0.02-6.09C114.49,32.15,114.52,32.81,114.55,33.48z"/><path fill-rule="evenodd" clip-rule="evenodd" fill="#87C6EB" d="M130.5,29.52c-1.07,1.42-2.62,0.85-4,0.98 c-1.04-2.12-4.89-0.71-5-3.99c1.93-0.04,3.99,0.36,5.75-0.2C130.85,25.14,130.51,27.36,130.5,29.52z"/><path fill-rule="evenodd" clip-rule="evenodd" fill="#86C1E4" d="M121.5,26.5c1.38,1.69,5.11,0.43,5,3.99 c-3.96,0.61-6.68-0.51-6.99-5C120.33,25.52,121.06,25.71,121.5,26.5z"/><path fill-rule="evenodd" clip-rule="evenodd" fill="#CBEAF4" d="M130.35,38.52c0.35-0.67,0.69-1.33,1.03-2 c0.05-0.34,0.1-0.67,0.16-1.01c2.07-0.54,1.52-3,2.96-4c0.01,0.34,0.02,0.69,0.03,1.03 c-0.07,2.05-0.2,4.12,0.97,5.96c0.85,1.53,2.44,2.63,2.66,4.54c0.1,1.5-0.36,2.78-1.53,3.76 c-2.9-0.15-5.03-1.37-5.95-4.28C130.57,41.18,130.46,39.85,130.35,38.52z"/><path fill-rule="evenodd" clip-rule="evenodd" fill="#194991" d="M178.48,79.48l-0.49,0.01l-0.49-0.01 c-0.9-1.54-1.99-3.05-0.91-4.96c0.63,0,1.26,0,1.89,0.01c0.01,0.66,0.02,1.31,0.03,1.97 C178.49,77.49,178.48,78.49,178.48,79.48z"/><path fill-rule="evenodd" clip-rule="evenodd" fill="#025377" d="M182.47,64.45c0.06,1.37,0.84,2.01,2.14,2.12 c-0.31,0.64-0.63,1.28-0.94,1.92c-0.88,0.38-1.12,1.14-1.19,2c-1.73,0.44-3.36,2.5-5.25,0.31 c-0.51,0.02-0.9-0.2-1.18-0.62c-0.53-1.97,0.12-3.75,0.88-5.52c0.27-0.38,0.6-0.7,0.99-0.97 C179.6,62.98,181.54,60.77,182.47,64.45z"/><path fill-rule="evenodd" clip-rule="evenodd" fill="#09549F" d="M176.15,70.58c0.36,0.07,0.73,0.14,1.09,0.21 c0.36,1.35-0.18,2.53-0.65,3.72c0.84,1.56,1.03,3.23,0.91,4.96c-1.3-0.56-2.76-1.55-3.01,1.01 c-0.55,0.57-1.21,0.64-1.93,0.39c-0.85-0.54-1.26-1.35-1.48-2.3c0.93-1.66,0.18-3.29-0.1-4.93 c0.74-1.79,2.19-2.76,3.94-3.38C175.38,70.18,175.79,70.28,176.15,70.58z"/><path fill-rule="evenodd" clip-rule="evenodd" fill="#07529A" d="M129.45,83.43c0.35-0.64,0.7-1.29,1.05-1.93 c1.53-1.22,3.29-0.88,4.75-0.21c4.41,2.05,9.06,1.7,13.7,1.85c4.35,0.14,8.61,1.75,13.04,0.84 c0.76,0.45,1.13,1.13,1.18,2c-0.19,0.81,0.04,1.58,0.22,2.36c0.01,0.84-0.33,1.53-0.88,2.15 c-4.58,2.09-9.4,0.6-14.1,0.88c-0.51,0.03-1.5-0.61-1.51-0.97c-0.19-5.06-3.93-4.05-6.84-3.83 C136.04,86.87,132.81,85.04,129.45,83.43z"/><path fill-rule="evenodd" clip-rule="evenodd" fill="#1B4793" d="M146.51,96.5c-1.06,1.44-2.6,0.88-3.99,0.98 c0.14-2.58,1.85-3.06,3.99-2.98C147.09,95.17,147.09,95.83,146.51,96.5z"/><path fill-rule="evenodd" clip-rule="evenodd" fill="#1A499B" d="M162.5,90.49c0-0.66,0-1.33,0.01-1.99 c1.33-0.77,2.66-0.7,3.99-0c-0,0.67-0,1.33-0.01,2C165.16,90.5,163.83,90.49,162.5,90.49z"/><path fill-rule="evenodd" clip-rule="evenodd" fill="#05538F" d="M146.51,96.5c-0-0.67-0-1.33-0-1.99 c1.33,0,2.66,0,3.99,0c-0,0.66-0,1.32-0,1.99C149.16,96.49,147.84,96.49,146.51,96.5z"/><path fill-rule="evenodd" clip-rule="evenodd" fill="#065393" d="M170.5,82.51c-0,1.33-0,2.66-0,3.99 c-0.67-0-1.34-0.01-2-0.01c-0.57-0.78-2.44-0.2-2.09-1.97c0.48-1.05,1.18-1.92,2.23-2.46 C169.33,81.87,169.97,81.96,170.5,82.51z"/><path fill-rule="evenodd" clip-rule="evenodd" fill="#184995" d="M166.5,88.5c-1.33,0-2.66,0-3.99,0 c-0-0.67-0-1.34-0-2c0.34-0.34,0.67-0.35,0.99,0.01c0.93,1.35,2.6,0.51,3.59,1.14 C168.26,88.4,166.82,88.27,166.5,88.5z"/><path fill-rule="evenodd" clip-rule="evenodd" fill="#045998" d="M166.49,84.52c0.67,0.65,1.33,1.31,1.99,1.96 c-1.33,0-2.66-0-3.99-0c-0.59-1.03,0.05-1.62,0.77-2.19c0.22-0.04,0.43-0.07,0.65-0.11 C166.12,84.3,166.31,84.41,166.49,84.52z"/><path fill-rule="evenodd" clip-rule="evenodd" fill="#065393" d="M165.51,84.52c-0.34,0.65-0.67,1.31-1.01,1.96 c-0.33,0.01-0.67,0.02-1,0.03c-0.33-0.01-0.66-0.01-0.99-0.01c-0.01-0.67-0.02-1.33-0.04-2 c0.17-0.16,0.34-0.32,0.51-0.48C163.93,83.65,164.8,83.68,165.51,84.52z"/><path fill-rule="evenodd" clip-rule="evenodd" fill="#06549C" d="M170.5,82.51c-0.66-0-1.33-0.01-1.99-0.01 c-1.77-0.03-2.81-0.54-1.65-2.51c2-1.12,3.88-0.91,5.65,0.51c0.66-0,1.32-0,1.99-0 c0.01,0.67,0.02,1.33,0.03,2C173.17,82.5,171.83,82.5,170.5,82.51z"/><path fill-rule="evenodd" clip-rule="evenodd" fill="#016EAD" d="M188.51,46.5c0.67,0,1.33,0,1.99,0.01 c0,2,0,4,0,5.99c-2,1.3-4.01,1.46-6.01,0C184.78,49.79,188.22,49.2,188.51,46.5z"/><path fill-rule="evenodd" clip-rule="evenodd" fill="#7BC6EB" d="M185.66,56.5c-0.32,1.66-0.65,3.33-0.97,4.99 c-0.06,0.34-0.11,0.69-0.16,1.03c-4.11,0.59-3.02-2.55-3.36-4.67c0.11-1.23,0.33-2.42,1.45-3.19 c0.63-0.38,1.26-0.75,1.89-1.12C187.08,53.67,185.73,55.34,185.66,56.5z"/><path fill-rule="evenodd" clip-rule="evenodd" fill="#3D87B8" d="M182.48,46.46c-2,1.15-2.66,3.09-3.08,5.18 c-0.43,0.21-0.87,0.23-1.31,0.01c-1.04-0.76-1.46-1.79-1.39-3.05c0.08-0.71,0.34-1.36,0.73-1.97 c0.26-0.4,0.56-0.76,0.89-1.09c1.57-0.47,2.35-3.21,4.64-1.66C183.43,44.85,183.24,45.7,182.48,46.46z"/><path fill-rule="evenodd" clip-rule="evenodd" fill="#8BD4EB" d="M178.55,51.4c0.29,0.06,0.57,0.13,0.85,0.23 c0.06,0.32,0.14,0.63,0.27,0.93c1.28,1.29,1.6,2.73,0.63,4.35c-0.4,0.59-0.94,0.99-1.65,1.13 c-0.97,0.07-1.74-0.35-2.44-0.96c-1-1.06-1.32-2.22-0.5-3.54c0.34-0.52,0.76-0.98,1.23-1.39 C177.4,51.75,177.93,51.47,178.55,51.4z"/><path fill-rule="evenodd" clip-rule="evenodd" fill="#015D98" d="M185.66,56.5c-0.32-1.01,0.1-2.31-1.16-2.95 c0-0.35,0-0.7-0-1.05c2,0,4.01-0,6.01-0c-0,0.67-0.01,1.33-0.01,2 c-1.59,0.17-3.65-0.63-4.06,1.96C186.18,56.47,185.92,56.49,185.66,56.5z"/><path fill-rule="evenodd" clip-rule="evenodd" fill="#0E6999" d="M179.73,56.59c0.97-1.36-0.39-2.67-0.06-4.02 c1.6-0.16,2.81,0.23,2.95,2.1c-0.09,0.95-0.17,1.91-0.26,2.86C181.03,58.46,180.25,57.89,179.73,56.59z"/><path fill-rule="evenodd" clip-rule="evenodd" fill="#D7E0E6" d="M182.55,43.76c-1.36,0.87-2.72,1.73-4.07,2.6 c-0.91-1.4-0.21-2.22,1.02-2.86c1.08-1.43,2.49-1.5,4.04-0.96c-0.03,0.31-0.09,0.61-0.15,0.91 C183.2,43.8,182.92,43.91,182.55,43.76z"/><path fill-rule="evenodd" clip-rule="evenodd" fill="#267BC0" d="M182.55,43.76c0.25-0.17,0.53-0.28,0.84-0.31 c0.99,0.19,2.1,0.42,1.87,1.74c-0.28,1.59-1.68,1.21-2.78,1.27C182.5,45.56,182.53,44.66,182.55,43.76z"/><path fill-rule="evenodd" clip-rule="evenodd" fill="#EAE9E6" d="M179.5,43.5c-0.34,0.95-0.68,1.91-1.02,2.86 c0,0-0.14,0.09-0.14,0.09c-1.09,0.94-2.29,1.21-3.63,0.56c-1.2-0.92-1.3-2.17-1.07-3.53 c0.14-0.5,0.4-0.94,0.76-1.32c0.65-0.44,1.37-0.63,2.15-0.62c0.77,0.06,1.4,0.42,1.96,0.94 C178.83,42.83,179.16,43.16,179.5,43.5z"/><path fill-rule="evenodd" clip-rule="evenodd" fill="#E9EEF6" d="M174.51,37.5c1.85-1.19,3.93-1.02,5.98-1.01 c0.89,1,0.75,2.01,0,3.01c-0.66-0-1.32-0-1.99-0c-0.84,0.11-1.68,0.17-2.52-0.01 c-0.66-0.13-1.25-0.38-1.74-0.86C174.03,38.19,174.13,37.81,174.51,37.5z"/><path fill-rule="evenodd" clip-rule="evenodd" fill="#F6EBE5" d="M180.49,39.5c-0-1-0-2.01-0-3.01 c0.34-0.33,0.68-0.67,1.02-1c1.14,0.73,0.96,1.9,1,3c-1.08,0.64-0.13,1.32-0.04,1.98 C181.66,40.47,180.93,40.28,180.49,39.5z"/><path fill-rule="evenodd" clip-rule="evenodd" fill="#F3E8E9" d="M176.5,38.5c0.82,0.02,1.56,0.21,2,1 c-0,1-0,2-0,2.99c-0.67,0-1.33,0-2,0C175.42,41.17,175.42,39.83,176.5,38.5z"/><path fill-rule="evenodd" clip-rule="evenodd" fill="#DEF2F9" d="M171.51,34.51c-0.58,1.31-1.57,1.98-3.01,1.99 c-1.49,2.35-3.35,3.78-6.3,2.58c-7.14-1.96-14.28-1.78-21.44-0.1c-0.85,0.26-1.67,0.2-2.42-0.32 c-0.51-1.08-0.76-2.15,0.16-3.16c4.53-1.92,9.3-0.41,13.93-1.01c3.35-0.44,6.88,1.04,10.07-0.99 C165.43,34.5,168.45,34.65,171.51,34.51z"/><path fill-rule="evenodd" clip-rule="evenodd" fill="#DBEEF2" d="M138.5,35.5c0,1,0,2,0,3 c0.51,0.41,0.68,0.96,0.63,1.59c-0.15,0.82-0.54,1.51-1.11,2.11c-0.17,0.1-0.35,0.2-0.52,0.3 c-0.66-1.34-3.55-1.56-2-4c3.47-1.14-1.42-2.72,1.45-4.76C137.04,33.68,137.48,35.44,138.5,35.5z"/><path fill-rule="evenodd" clip-rule="evenodd" fill="#B2E0EF" d="M144.48,25.46c2.6,0.87,5.27,1.26,8.01,1.03 c0.01,0.34,0.01,0.67,0.02,1.01c-3.43,0.41-6.71-0.48-10.04-1.05C143.14,26.12,143.81,25.79,144.48,25.46z"/><path fill-rule="evenodd" clip-rule="evenodd" fill="#D2EBF7" d="M138.5,40.5c0-0.67,0-1.33,0-2 c0.67-0,1.33-0,2-0.01c7.33-1.62,14.67-1.63,22,0c2.47,0.75,3.96-1.46,6-2 c0,2,0,4,0,6c1.02,1.27,1.24,2.6,0.3,4.01c-0.76,0.57-1.56,0.57-2.37,0.13 c-1.76-2.9-4.64-3.39-7.67-3.62c-4.65-0.35-9.29,0.3-13.93,0.12C142.97,41.69,140.21,42.34,138.5,40.5z"/><path fill-rule="evenodd" clip-rule="evenodd" fill="#E0EBEF" d="M174.51,37.5c-0,0.33-0,0.67-0,1 c1.07,1.33,1.07,2.67-0.01,4v-0c-0.57,0.53-1.22,0.88-2.01,0.92c-0.79-0.03-1.48-0.28-1.99-0.92 c1-1.67,2-3.33,3-5C173.84,37.5,174.17,37.5,174.51,37.5z"/><path fill-rule="evenodd" clip-rule="evenodd" fill="#E3E9F2" d="M170.5,42.5c0.67,0,1.33,0,2,0 c1.27,2.27-0.53,3.22-1.88,4.37c-0.79,0.26-1.52,0.19-2.15-0.41c0.01-1.32,0.02-2.64,0.02-3.96 C169.17,42.5,169.83,42.5,170.5,42.5z"/><path fill-rule="evenodd" clip-rule="evenodd" fill="#70CAEF" d="M115.5,68.5c-0.43-0.25-1.8,0.46-1.03-1.01 c2.39-2.1,5.1-1.03,7.73-0.8c1.16,0.16,2.27,0.5,3.28,1.12c0.75,0.52,1.25,1.23,1.48,2.11 c0.12,1.02,0.09,2.05-0.08,3.08c-0.1,0.17-0.21,0.35-0.32,0.52c-0.68,0-1.36-0-2.04-0 c-0.12-1.09,0.04-2.9-1.27-2.73C120.2,71.21,118.17,68.9,115.5,68.5z"/><path fill-rule="evenodd" clip-rule="evenodd" fill="#DACFC4" d="M124.6,78.53c0.78,0.6,0.15,1.16-0.05,1.73 c-1.15,0.22-2.29,0.41-3.08-0.79C122.27,78.34,123.45,78.49,124.6,78.53z"/><path fill-rule="evenodd" clip-rule="evenodd" fill="#DADFEA" d="M128.6,77.81c-0.64-1.46-2-1.23-3.21-1.35 c0.39-0.97,0.78-1.95,1.17-2.92l-0.03-0.1c0.72-0.8,1.64-0.96,2.65-0.86c0.48,0.09,0.92,0.28,1.33,0.55 c0.33,0.37,0.52,0.8,0.61,1.28c0.09,1.35-0.71,2.21-1.63,3.01C129.23,77.61,128.93,77.75,128.6,77.81z"/><path fill-rule="evenodd" clip-rule="evenodd" fill="#0E64AC" d="M118.5,64.49c-1.84-4.74-3.35-9.61-6-13.99 l0-0c0.58-0.56,1.28-0.7,2.05-0.56c0.74,0.21,1.38,0.6,1.94,1.11c1.35,3.94,5.2,6.83,4.86,11.49 C120.84,63.83,120.18,64.92,118.5,64.49z"/><path fill-rule="evenodd" clip-rule="evenodd" fill="#0460A2" d="M118.5,64.49c0.67-0.66,1.33-1.32,2-1.98 c1.57-0.76,2.89-0.23,4.12,0.79c0.23,0.48,0.22,0.97-0.01,1.45c-1.09,1.11-2.34,1.95-3.91,2.23 c-2.05-0.23-4.19,0.53-6.17-0.55c-0.1-0.61-0.19-1.23-0.29-1.84c0.73-0.69,1.48-0.74,2.26-0.09 C117.17,64.5,117.83,64.5,118.5,64.49z"/><path fill-rule="evenodd" clip-rule="evenodd" fill="#1A59A2" d="M116.5,64.5c-0.75,0.03-1.5,0.06-2.26,0.09 c-0.26-0.01-0.47-0.12-0.61-0.34c0.3-0.26,0.59-0.53,0.89-0.79c0.71-0.21,1.42-0.41,2.12-0.62 C116.59,63.4,116.55,63.95,116.5,64.5z"/><path fill-rule="evenodd" clip-rule="evenodd" fill="#6FB9E2" d="M114.53,66.44c2.32,0.01,4.64,0.03,6.97,0.04 c0.83-0.34,1.05,0.1,1.05,0.82c-2.69,0.06-5.39,0.13-8.08,0.19C114.49,67.14,114.51,66.79,114.53,66.44z"/><path fill-rule="evenodd" clip-rule="evenodd" fill="#2785C6" d="M114.5,44.5c0.01-1.33,0.02-2.67,0.03-4.01 c0.75-0.37,1.26,0.05,1.76,0.53c0.46,0.51,0.83,1.07,1.18,1.65c0.65,2.92,5.1,2.32,5.29,5.68 c-0.83,2.22-2.34,2.96-4.59,2.1c-1.57-0.74-2.56-2.1-3.61-3.4C114.03,46.22,113.62,45.37,114.5,44.5z"/><path fill-rule="evenodd" clip-rule="evenodd" fill="#3F94CD" d="M115.51,41.49c-0.33-0.33-0.66-0.67-0.99-1 c-0.03-0.97-0.06-1.95-0.08-2.92c0.02-0.69,0.04-1.38,0.06-2.07c2.27-0.25,1.72,3.26,4,3 C119.64,41.64,118.67,42.66,115.51,41.49z"/><path fill-rule="evenodd" clip-rule="evenodd" fill="#1666AF" d="M114.5,44.5c0.06,0.8,0.22,1.56,0.99,2.01 c0.95,1.65,0.46,2.94-0.99,3.99c-0.67,0-1.34-0-2-0c0-1.33,0-2.67,0-4 c-0.06-0.63,0.12-1.18,0.5-1.68c0.17-0.11,0.34-0.22,0.5-0.33C113.84,44.49,114.17,44.5,114.5,44.5z"/><path fill-rule="evenodd" clip-rule="evenodd" fill="#1666AF" d="M110.5,44.5c0.13-0.8,0.24-1.67,1.26-1.8 c1.32-0.17,1.58,0.78,1.75,1.79l-0.01,0.01C112.5,45.32,111.5,45.32,110.5,44.5z"/><path fill-rule="evenodd" clip-rule="evenodd" fill="#1462AC" d="M110.5,44.5c1,0,2-0,3-0 c-0.02,0.82-0.21,1.56-1,2c-0.67-0-1.33-0-2-0C110.5,45.83,110.5,45.17,110.5,44.5z"/><path fill-rule="evenodd" clip-rule="evenodd" fill="#05559E" d="M162.47,84.5c-10.93,1.92-21.49-0.07-31.96-3 c0-1.29,0.01-2.58,0.01-3.88c1.5-1.13,2.63-2.89,4.83-2.82c0.65,0.15,1.15,0.49,1.47,1.08 c0.23,1.3,1.18,2.12,2.02,3.03c6.19,2.07,12.56,2.6,19.02,2.26c1.48-0.08,2.93-0.72,4.43-0.11 c0.46,0.3,0.75,0.71,0.89,1.23c0.12,0.83-0.12,1.56-0.65,2.2L162.47,84.5z"/><path fill-rule="evenodd" clip-rule="evenodd" fill="#C4CFE0" d="M135.6,75.5c-2.18-0.44-2.44,3.71-5.09,2.12 c-0.34-0.07-0.68-0.15-1.01-0.22c0.34-0.97,0.67-1.95,1.01-2.92c1.66-0.85,3.33-1.24,5.07-0.22 C135.83,74.67,135.84,75.08,135.6,75.5z"/><path fill-rule="evenodd" clip-rule="evenodd" fill="#0B6186" d="M179.73,56.59c0.88,0.32,1.75,0.63,2.63,0.95 c1.03,1.53-1.47,4.59,2.17,4.99c0.33,0.32,0.65,0.64,0.98,0.96c-1.1,0.05-2.27-0.14-3.03,0.97 c-1.36-2.22-2.74,0.24-4.11-0.02c-1.26-1.45-1.27-3.15-1-4.91c0.25-0.85,0.62-1.62,1.59-1.85 C179.21,57.31,179.47,56.95,179.73,56.59z"/><path fill-rule="evenodd" clip-rule="evenodd" fill="#B6E0F0" d="M130.68,42.51c1.44,2.06,3.66,2.96,5.81,3.97 c2.18-0.22,4.31-0.32,5.52,2.07c-0.85,3.38-4.14,2.37-6.27,3.48c-3.64-0.64-5.84-2.29-4.51-6.42 c-0.26-0.7-0.52-1.4-0.79-2.09C130.53,43.19,130.6,42.85,130.68,42.51z"/><path fill-rule="evenodd" clip-rule="evenodd" fill="#2F8DC9" d="M131.24,45.61c0.22,3.33,2.13,5.17,5.23,5.96 c0.76,0.02,1.34,0.39,1.82,0.94c0.45,0.61,0.65,1.26,0.26,1.99c-2.28,1.82-4.57,0.12-6.86,0.04 c-0.44-0.13-0.86-0.33-1.25-0.58c-1.82-2.69-4.75-3.69-7.53-4.94c-0.14-0.17-0.27-0.35-0.41-0.52 c-1.23-2.77-6.41-1.59-6.01-6c4.64-1.94,6.62,2.79,10.01,4C128.15,46.55,129.78,46.56,131.24,45.61z"/><path fill-rule="evenodd" clip-rule="evenodd" fill="#338FCA" d="M126.5,46.5c-4.09,0.55-5.86-4.7-10.01-4 c-0.33-0.34-0.66-0.67-0.98-1.01c2.21,0.22,3.19-0.79,2.99-2.99c0.67,0,1.33,0.01,1.99,0.01 C120,43.05,125.52,43.07,126.5,46.5z"/><path fill-rule="evenodd" clip-rule="evenodd" fill="#C4E8F6" d="M141.5,48.49c-1.43-1.27-3.79-0.2-5.01-2 c0.34-1.33,0.67-2.66,1-3.98l0,0c2.33-1.41,4.67-1.41,7,0c6.2-1.47,12.39-1.34,18.66-0.32 c2.77,0.45,3.67,1.76,3.34,4.32c-0.15,0.13-0.3,0.27-0.45,0.41c-1.12,0.38-2.34,0.11-3.46,0.48 c-0.73,0.19-1.32,0.58-1.71,1.25c-0.23,0.34-0.5,0.61-0.82,0.86c-1.54,0.64-3.05,1.39-4.77,1.47 c-0.69-0.21-1.09-0.7-1.33-1.35c-2.25-3.18-5.25-1.84-7.95-1.1C144.41,48.95,143.02,50.04,141.5,48.49z"/><path fill-rule="evenodd" clip-rule="evenodd" fill="#83D4F4" d="M178.94,57.67c-0.19,0.62-0.37,1.25-0.56,1.87 c-0.99,1.58,0.21,3.52-0.83,5.09c0.28,2.16-0.69,4.03-1.41,5.96c-0,0-0.28-0.01-0.28-0.01l-0.28,0.03 c-0.15,0.07-0.38,0.25-0.43,0.21c-3.2-2.71-6.43-2.05-9.67-0.09c-0.85-0.53-1.42-1.31-1.97-2.13 c-1.59-2.71-4.38-5.08-2.51-8.77c2.9-1.49,6.48-1.62,8.77-4.37c1.32-0.99,2.65-1.98,4.46-1.43 c0.92,0.67,1.1,2.01,2.26,2.46C177.32,56.89,178.13,57.28,178.94,57.67z"/><path fill-rule="evenodd" clip-rule="evenodd" fill="#82C9E8" d="M177.56,64.63c0.15-1.72-0.69-3.6,0.83-5.09 c-0.01,1.63-0.02,3.27-0.03,4.9C178.09,64.5,177.82,64.56,177.56,64.63z"/><path fill-rule="evenodd" clip-rule="evenodd" fill="#1365AB" d="M164.48,68.49c1.03,0.31,0.87,1.34,1.23,2.05 c-0.04,0.17-0.07,0.33-0.1,0.49c0.39,1.29,0.99-0.2,1.47,0.11c1.8,0.32,3.43,0.89,4.46,2.54 c0.66,1.61,1.94,3.22-0.01,4.83c-3.07,2-5.85,0.75-8.59-0.78c-5.46-3.19-11.13-1.88-16.8-0.75 c-1.64,0.06-3.06-0.39-4.09-1.74c-0.36-0.68-0.5-1.4-0.43-2.16c0.18-0.99,0.63-1.78,1.65-2.12 c0.44-0.08,0.9-0.09,1.34-0.03c0.64,0.1,1.29,0.23,1.94,0.29c0.87,0.04,1.73,0.02,2.6-0.01 c2.78-0.39,5.77,0.82,8.33-1.13C159.81,69.58,161.53,66.25,164.48,68.49z"/><path fill-rule="evenodd" clip-rule="evenodd" fill="#6EC8F1" d="M171.53,73.68c-2,0.19-3.48-1-5.06-1.92 c-0.92,0.03-1.32-0.4-1.2-1.31l0.44,0.1c0.16-0.04,0.38-0.03,0.46-0.13c4.03-4.71,4.02-4.71,8.5-0.08 c0.19,0.2,0.61,0.19,0.92,0.27C174.24,71.63,172.88,72.65,171.53,73.68z"/><path fill-rule="evenodd" clip-rule="evenodd" fill="#1256A6" d="M163.5,76.5c2.36,1.92,5.16,2.07,8.02,2 c0.78,0.44,0.96,1.18,0.98,2c-2,0-4-0-6-0c-1.91,1.4-2.79-0.4-3.97-1.28 c-0.3-0.36-0.48-0.77-0.59-1.22C162.06,77.08,162.11,76.1,163.5,76.5z"/><path fill-rule="evenodd" clip-rule="evenodd" fill="#0A518B" d="M162.51,78.53c1.33,0.66,2.66,1.31,3.99,1.97 c0.38,0.95,1.05,1.61,2,2c-0.04,1.3-0.73,1.95-2.01,2.02c-0,0-0-0.02-0-0.02 c-1.07-1.15-2.95-0.69-3.95-1.99c-0.02-0.34-0.05-0.67-0.07-1.01C161.72,80.5,161.62,79.5,162.51,78.53z"/><path fill-rule="evenodd" clip-rule="evenodd" fill="#01598B" d="M162.54,82.51c1.7-0.1,3.2,0.2,3.95,1.99 c-0.33,0.01-0.65,0.01-0.98,0.03c-0.99-0.01-1.99-0.02-2.98-0.02C162.53,83.83,162.53,83.17,162.54,82.51z"/><path fill-rule="evenodd" clip-rule="evenodd" fill="#B6E0EF" d="M178.55,51.4c-0.35,0.37-0.69,0.74-1.04,1.1 c-1.91,1.22-3.99,1.15-6.11,0.83c-1.61-0.73-1.39-1.92-0.81-3.2c0.25-0.41,0.6-0.74,1.01-0.99 c1.98-0.03,3.82-1.46,5.9-0.63C177.85,49.47,178.2,50.44,178.55,51.4z"/><path fill-rule="evenodd" clip-rule="evenodd" fill="#D1EBF4" d="M177.5,48.51c-1.93,0.73-3.65,2.7-5.99,1 c-0.34-0.66-0.02-1.13,0.43-1.57c0.8-0.57,1.6-1.15,2.56-1.43c1.27-0.02,2.55-0.04,3.83-0.06 C178.06,47.14,177.78,47.82,177.5,48.51z"/><path fill-rule="evenodd" clip-rule="evenodd" fill="#ABE0F5" d="M170.52,52.5c2.33,0,4.66,0,6.99,0 c-0.34,0.33-0.68,0.66-1.01,0.99c-0.58,0.51-1.28,0.79-2.01,1.03c-1.58,0.16-2.97,0.7-4,1.97 c-1.78,0.84-3.52,1.28-5.02-0.53c-0.41-0.82-0.12-1.49,0.44-2.11C167.34,53.08,168.44,51.1,170.52,52.5z"/><path fill-rule="evenodd" clip-rule="evenodd" fill="#A5D9F1" d="M174.49,54.52c0.44-0.8,1.18-1,2.01-1.02 c-0.61,1-0.61,2,0.02,3C175.23,56.46,174.54,55.82,174.49,54.52z"/><path fill-rule="evenodd" clip-rule="evenodd" fill="#EAE6EA" d="M174.51,46.51c-0.05,1.28-0.7,1.95-2,1.98 c-0.72-0.62-1.75-0.94-2.02-2.01c0.67-1.33,1.34-2.65,2.02-3.98c0.67-0,1.33-0.01,2-0.01 C174.5,43.84,174.5,45.17,174.51,46.51z"/><path fill-rule="evenodd" clip-rule="evenodd" fill="#EBEAEC" d="M174.5,42.5c0-1.33,0-2.67,0.01-4 c0.67,0,1.33,0,2,0c-0,1.33-0,2.66-0,4C175.83,42.5,175.16,42.5,174.5,42.5z"/><path fill-rule="evenodd" clip-rule="evenodd" fill="#D9F1FB" d="M162.5,38.5c-7.33-0-14.67-0-22-0 C143.32,35.57,159.69,35.58,162.5,38.5z"/><path fill-rule="evenodd" clip-rule="evenodd" fill="#CBEAF4" d="M144.5,42.5c-2.33,0-4.67,0-7,0 c0.02-0.82,0.21-1.56,1-2C140.5,41.16,143.47,38.92,144.5,42.5z"/><path fill-rule="evenodd" clip-rule="evenodd" fill="#F0E8E0" d="M170.49,46.48c1.28,0.06,1.97,0.72,2.02,2.01 c-0.33,0.34-0.67,0.68-1,1.02c0,0-0.02-0.01-0.02-0.01c-0.69,1.05-1.46,1.92-2.91,1.45 c-1.08-0.58-1.91-1.42-2.51-2.49c-0.21-0.73-0.13-1.4,0.45-1.95l-0.01-0.02c0.66-0.01,1.32-0.02,1.98-0.03 C169.15,46.47,169.82,46.48,170.49,46.48z"/><path fill-rule="evenodd" clip-rule="evenodd" fill="#0A5EA0" d="M122.56,67.3c-0.35-0.27-0.7-0.55-1.05-0.82 c0.11-1.98,1.54-2,2.98-1.98c1.23-0.05,2.07,0.5,2.54,1.63c0.08,0.44,0.06,0.87-0.06,1.29 c-0.32,0.62-0.79,1.03-1.49,1.14C124.5,68.15,123.53,67.72,122.56,67.3z"/><path fill-rule="evenodd" clip-rule="evenodd" fill="#1A5793" d="M129.47,73.19c-0.98,0.08-1.96,0.16-2.94,0.23 c-0.16-1-2.06-1.9-0.17-3.02c0.98-0.63,1.82-0.15,2.65,0.35C129.74,71.46,130.3,72.2,129.47,73.19z"/><path fill-rule="evenodd" clip-rule="evenodd" fill="#0760A3" d="M128.52,71.48c-0.72-0.35-1.44-0.71-2.16-1.06 c-0.3-0.61-0.59-1.23-0.89-1.84c0.34-0.36,0.67-0.72,1.01-1.07C129.54,67.6,129.7,69.19,128.52,71.48z"/><path fill-rule="evenodd" clip-rule="evenodd" fill="#E0DADD" d="M135.68,74.57c-1.72-0.45-3.47,1.04-5.17-0.09 c-0.03-0.41-0.05-0.82-0.08-1.23c-0.04-2.13,1.61-2.74,3.13-3.48c0.93-0.33,1.89-0.44,2.88-0.41 c0.75,0.03,1.47,0.19,2.16,0.46c1.12,0.59,2.23,1.19,2.19,2.72C139.62,74.57,137.86,75.09,135.68,74.57z"/><path fill-rule="evenodd" clip-rule="evenodd" fill="#1567A9" d="M133.65,70.55c-0.82,1.2-2.8,1.02-3.22,2.7 l-0.48,0.06l-0.47-0.11c-0.32-0.57-0.63-1.15-0.95-1.72c0.06-1.71-0.23-3.23-2.04-3.98 c0.01-0.33,0.01-0.66,0.02-0.99c1.61-1.07,3.42-0.63,5.17-0.7c1.57,0.57,2.28,1.76,2.47,3.35 C134.08,69.66,133.92,70.12,133.65,70.55z"/><path fill-rule="evenodd" clip-rule="evenodd" fill="#0F67AF" d="M124.5,63.5c-1.45,0.14-2.75-0.3-4-0.98 c-0.38-4.26-3.99-7.05-5.01-11.02c0.29-2.5,1.55-1.45,2.51-0.58c0.85,0.76,1.02,2.05,1.84,2.88 c1.02,1.56,1.82,3.27,3.31,4.5C123.89,59.95,127.91,60.77,124.5,63.5z"/><path fill-rule="evenodd" clip-rule="evenodd" fill="#156FB3" d="M119.5,54.5c-1.46-0.09-1.89-1.01-2.06-2.32 c-0.17-1.28-0.82-1.78-1.94-0.69c-0.33-0.33-0.66-0.66-0.99-0.99c0.33-1.33,0.66-2.66,0.99-3.99 c0.99,1,1.99,2,2.98,3c0.76,1.88,4.06,2.29,3,5.21C120.77,55.09,120.1,55.09,119.5,54.5z"/><path fill-rule="evenodd" clip-rule="evenodd" fill="#156BB3" d="M124.5,63.5c2.3-2.86-2.75-2.77-2.01-5 c0.17-0.14,0.35-0.29,0.52-0.43c3.42-0.55,5.11,2.38,7.59,3.75c0.73,0.59,1.27,1.3,1.57,2.2 c0.11,0.45,0.13,0.9,0.07,1.36c-0.14,0.44-0.39,0.82-0.73,1.13c-1.68,0.46-3.35,0.46-5.03,0.01 c-0.67-0.67-1.34-1.34-2.01-2.01C124.49,64.17,124.49,63.83,124.5,63.5z"/><path fill-rule="evenodd" clip-rule="evenodd" fill="#2080C2" d="M121.5,54.5c-0.73-1.83-3.08-2.68-3.03-4.99 c1.73,1.23,2.74-0.43,4.02-1.01h0c2.68,1.65,5.54,3.01,8,5c0.33,0.01,0.66,0.01,0.98,0.02 c2.11,1.26,4.33,2.25,6.79,2.45c1.88,0.15,3.21,0.64,2.8,2.92c-1.61,2.91-4.04,2.57-6.61,1.67 c-4.22-1.09-7.47-4.4-11.85-5.13C122.16,55.21,121.8,54.9,121.5,54.5z"/><path fill-rule="evenodd" clip-rule="evenodd" fill="#0659A1" d="M162.51,78.53c-0.02,0.99-0.03,1.98-0.05,2.98 c-7.59,2.99-15.15-0.02-22.73-0.17c-1.47-0.03-2.14-1.37-2.23-2.83c2.52-1.92,5.34-2.14,8.33-1.54 c5.56,0.42,11.32-1.4,16.66,1.51L162.51,78.53z"/><path fill-rule="evenodd" clip-rule="evenodd" fill="#1561AB" d="M145.49,77.47c-2.7,0.08-5.22,1.52-7.99,1.03 c-0.69-0.52-2.14-0.63-1.11-2.07c1.74-1.57,3.81-2.12,6.1-1.93c1,0.66,2.01,1.32,3.01,1.98 c0.3,0.22,0.39,0.44,0.29,0.66C145.69,77.36,145.59,77.47,145.49,77.47z"/><path fill-rule="evenodd" clip-rule="evenodd" fill="#0D62A7" d="M142.49,74.5c-1.53,2.23-4,1.5-6.1,1.93 c-0.27-0.31-0.53-0.62-0.8-0.93c-0.03-0.32-0.01-0.62,0.08-0.93c1.57-0.77,3.14-1.54,4.72-2.32 c0.66-0.49,1.34-0.47,2.02-0.04C142.44,72.98,142.47,73.74,142.49,74.5z"/><path fill-rule="evenodd" clip-rule="evenodd" fill="#AADEF0" d="M141.5,48.49c3.8-0.62,7.25-2.94,11.39-2.03 c1.95,0.43,3.39,0.69,1.72,3c-0.21,0.03-0.42,0.06-0.63,0.1c-2.03,0.44-4.26-0.34-6.12,1.05 c-0.96,0.66-1.85,1.42-2.96,1.84c-2.44,0.67-4.87,1.57-7.38,0.28c-0.36-0.39-0.71-0.77-1.07-1.16 C136.88,48.48,140.88,51.24,141.5,48.49z"/><path fill-rule="evenodd" clip-rule="evenodd" fill="#2589C8" d="M140.5,58.51c-0.56-2.92-2.99-0.6-4.47-1.53 c-1.65-1.04-3.6-1.51-4.54-3.46c2.35-0.97,4.68,2.12,7.04,0.04c2.87,0.07,6.71-2.04,7.3,3.21 c-0.62,2.02-2.17,2.54-4.05,2.48C141.28,59.12,140.86,58.86,140.5,58.51z"/><path fill-rule="evenodd" clip-rule="evenodd" fill="#2496D2" d="M145.5,56.51c-1.36-3.27-5.24-0.56-6.98-2.94 c-0.33-0.28-0.66-0.56-0.99-0.83c2.63-0.45,5.26-0.9,7.89-1.35c1.7,0.06,3.38,0.14,3.6,2.4 c-0.31,1.37-1.69,1.87-2.41,2.91C146.2,56.89,145.83,56.83,145.5,56.51z"/><path fill-rule="evenodd" clip-rule="evenodd" fill="#2785C6" d="M130.5,53.5c-3.6-0.18-6.14-2.04-8-5 C126.02,48.81,129.65,48.94,130.5,53.5z"/><path fill-rule="evenodd" clip-rule="evenodd" fill="#D7E7E8" d="M166.51,46.51c-0,0.66-0,1.33-0.01,1.99 c-0.38,1.16-1.16,1.97-2.17,2.6c-0.67,0.31-1.38,0.44-2.12,0.41c-0.77-0.08-1.45-0.35-2-0.92 c-0.36-0.76-0.25-1.46,0.29-2.09l-0.01,0.01c0.57-0.77,1.37-1.31,2.03-2 C163.86,45.55,165.18,46.45,166.51,46.51z"/><path fill-rule="evenodd" clip-rule="evenodd" fill="#A8DAEE" d="M160.5,48.49c-0,0.64-0.01,1.27-0.01,1.91 c-0.13,0.45-0.33,0.87-0.6,1.25c-1.56,1-2.11,4.12-4.98,2.4c-0.51-1.24-0.57-2.42,0.43-3.48 C156.44,48.33,158.83,49.31,160.5,48.49z"/><path fill-rule="evenodd" clip-rule="evenodd" fill="#3199D2" d="M155.34,50.57c0.06,1.3,0.13,2.61,0.19,3.91 c-0.19,0.8-0.67,1.33-1.46,1.58c-0.81,0.11-1.51-0.08-2.06-0.72c-0.83-1.46-0.8-2.96-0.24-4.49 c0.55-1.01,1.33-1.54,2.52-1.22l0.33-0.17C154.85,49.83,155.1,50.2,155.34,50.57z"/><path fill-rule="evenodd" clip-rule="evenodd" fill="#A3DDF1" d="M162.53,46.51c-0.04,1.31-0.73,1.97-2.03,2 C159.43,46.06,161.27,46.58,162.53,46.51z"/><path fill-rule="evenodd" clip-rule="evenodd" fill="#1C73B8" d="M164.48,68.49c-2.33-0.35-3.65,2.38-6,1.99 c-2.2,1.46-3.35,0.5-3.77-1.74c-0.27-1.45,0.49-2.9,0.18-4.37c-0.06-0.47-0.02-0.95,0.08-1.42 c0.33-0.93,1.11-1.42,1.89-1.9c0.36-0.23,0.74-0.43,1.12-0.63c0.93-0.46,1.81-1.08,2.9-1.13 c0.18,0.1,0.36,0.21,0.54,0.32C160.49,63.25,163.44,65.54,164.48,68.49z"/><path fill-rule="evenodd" clip-rule="evenodd" fill="#A5D9F1" d="M165.52,55.51c1.53,0.95,3.23,1.09,4.98,0.99 c-2.65,2.12-5.13,4.76-9.07,3.11c0,0-0-0.11-0-0.11c-0.59-1.31,0.01-2.33,0.78-3.33 C163.2,55.44,164.22,54.78,165.52,55.51z"/><path fill-rule="evenodd" clip-rule="evenodd" fill="#0E5FA9" d="M145.49,77.47c0-0.33,0.01-0.66,0.01-0.99 c3.71-2.87,14.56-2.86,17.99,0.02c-0.78,0.42-0.97,1.15-1.01,1.96C156.82,78.06,151.06,79.56,145.49,77.47z"/><path fill-rule="evenodd" clip-rule="evenodd" fill="#116BB0" d="M155.37,63.44c1.7,1.27,1.05,2.8,0.54,4.35 c-0.82,2.48,0.79,2.69,2.58,2.69c-2.6,4.29-6.73,0.95-9.98,2.02c-1.21-1.61,0.05-2.41,1.13-3.09 c1.57-1,2.97-2.06,3.13-4.1C153.25,64.15,153.85,63.15,155.37,63.44z"/><path fill-rule="evenodd" clip-rule="evenodd" fill="#0C6CAC" d="M153.46,65.36c1.47,2.12,0,3.07-1.5,4.24 c-1.18,0.92-3.45,0.61-3.46,2.91c-1-0-2-0.01-3-0.01c-0.3-0.31-0.62-0.61-0.94-0.9l-0.3-0.35 c-0.13-0.44-0.11-0.88,0.06-1.31c0.4-0.83,0.94-1.56,1.54-2.25c0.48-0.52,1.04-0.92,1.67-1.24 C149.47,65.9,151.19,64.08,153.46,65.36z"/><path fill-rule="evenodd" clip-rule="evenodd" fill="#C2D1DB" d="M144.42,70.49c-0.08,0.25-0.13,0.5-0.16,0.75 c-0.79-0-1.54,0.07-1.85,0.98c-0.67,0.01-1.35,0.02-2.02,0.04c-0.62-0.59-1.24-1.17-1.86-1.76 c1.01-1.18,2.37-1.25,3.77-1.15C143.14,69.48,143.88,69.81,144.42,70.49z"/><path fill-rule="evenodd" clip-rule="evenodd" fill="#035BA2" d="M165.27,70.45c0.4,0.44,0.8,0.87,1.2,1.31 c-0.12,1.18-0.6,1.53-1.54,0.62C164.12,71.6,163.4,70.78,165.27,70.45z"/><path fill-rule="evenodd" clip-rule="evenodd" fill="#2066A9" d="M144.56,71.59c0.31,0.3,0.63,0.6,0.94,0.9 C145.19,72.19,144.88,71.89,144.56,71.59z"/><path fill-rule="evenodd" clip-rule="evenodd" fill="#DBE4E6" d="M168.51,50.49c0.99-0.33,1.98-0.66,2.97-0.99 c-0.32,1-0.65,2-0.97,3c-1.34,0.65-2.69,1.31-4.03,1.96c-1.2-1.23-1.12-2.56-0.31-3.95 C166.95,49.92,167.73,49.86,168.51,50.49z"/><path fill-rule="evenodd" clip-rule="evenodd" fill="#E6E3DD" d="M166.5,50.5c-0.01,1.32-0.01,2.64-0.02,3.96 c-0.32,0.35-0.65,0.69-0.97,1.04c-1,0.34-2,0.68-3,1.01c-0.73-0.12-1.24-0.53-1.59-1.17 c-0.27-0.65-0.33-1.32-0.24-2.02c0.16-1.21,0.97-2,1.77-2.81c0.68-0.01,1.36-0.02,2.05-0.03 C165.17,49.9,165.83,49.97,166.5,50.5z"/><path fill-rule="evenodd" clip-rule="evenodd" fill="#E0E6E6" d="M166.5,50.5c-0.67,0-1.33-0-2-0 c0.05-1.29,0.72-1.95,2-2c1.28,0.04,1.94,0.72,2.01,1.99C167.84,50.49,167.17,50.5,166.5,50.5z"/><path fill-rule="evenodd" clip-rule="evenodd" fill="#C5CDD4" d="M142.48,70.47c-1.31,0.01-2.63,0.01-3.94,0.02 c-0.68-0.01-1.36-0.03-2.05-0.04c-0.29-0.43-0.31-0.87-0.04-1.31c1.73-1.52,3.69-2.3,6.03-1.89 c0.36,0.34,0.61,0.75,0.74,1.24C143.28,69.27,143.04,69.93,142.48,70.47z"/><path fill-rule="evenodd" clip-rule="evenodd" fill="#B1D1E7" d="M136.54,69.52c-0.02,0.31-0.04,0.63-0.06,0.94 c-0.94,0.03-1.89,0.06-2.84,0.09c-0.15-0.31-0.18-0.64-0.09-0.97c0.35-0.56,0.38-1.28,0.9-1.75 c0.76-0.52,1.53-1,2.38-0.15C137.13,68.36,137.08,68.98,136.54,69.52z"/><path fill-rule="evenodd" clip-rule="evenodd" fill="#196AAB" d="M134.61,68.75c-0.35,0.28-0.7,0.55-1.05,0.83 c-0.68-1.03-1.36-2.05-2.04-3.08c-0.01-0.33-0.01-0.66-0.02-0.99c0.68-0.6,1.44-0.65,2.25-0.32 C135.03,66.14,135.36,67.31,134.61,68.75z"/><path fill-rule="evenodd" clip-rule="evenodd" fill="#0F6AB2" d="M121.5,54.5c0.33,0,0.66,0,0.99,0.01 c0.53,0.56,0.88,1.2,0.92,1.99c-0.03,0.79-0.38,1.43-0.91,2l-0.01,0c-2.35-0.32-2.65-2.18-3-4 C120.17,54.5,120.83,54.5,121.5,54.5z"/><path fill-rule="evenodd" clip-rule="evenodd" fill="#1673B5" d="M131.5,64.5c-0.33-0.67-0.67-1.33-1-2 c-0.6-0.71-0.58-1.46-0.12-2.23c1.21-0.9,2.49-0.81,3.8-0.28c1.83,1.74,4.55,0.96,6.53,2.3 c0.49,0.69,0.61,1.46,0.46,2.29c-0.37,1.15-1.24,1.68-2.36,1.89c-1.91,0.25-3.54-0.6-5.19-1.35 C132.91,64.95,132.09,65.11,131.5,64.5z"/><path fill-rule="evenodd" clip-rule="evenodd" fill="#1871B6" d="M130.5,60.5c-0,0.67-0,1.33-0,2 c-3.15-0.37-4.62-4.08-8-4c0-0.67,0-1.34,0.01-2.01C126.31,55.57,128.93,56.98,130.5,60.5z"/><path fill-rule="evenodd" clip-rule="evenodd" fill="#1272B8" d="M131.5,64.5c0.66,0,1.33,0,1.99,0 c0.25,0.22,0.34,0.44,0.26,0.67c-0.08,0.22-0.16,0.34-0.25,0.34c-0.67,0-1.33,0.01-2,0.01 C131.5,65.17,131.5,64.84,131.5,64.5z"/><path fill-rule="evenodd" clip-rule="evenodd" fill="#1978BC" d="M130.5,60.5c-2.34-1.99-5.05-3.23-8-4 c-0.01-0.66-0.01-1.32-0.02-1.99c4.82-0.31,7.88,3.65,12.01,4.99c0.26,0.22,0.34,0.45,0.25,0.67 c-0.09,0.22-0.17,0.33-0.26,0.33C133.17,60.5,131.84,60.5,130.5,60.5z"/><path fill-rule="evenodd" clip-rule="evenodd" fill="#137CBC" d="M134.5,60.51c0-0.34,0-0.67,0-1 c2.14,0.52,4.34,1.4,6-0.99c0.33,0,0.66,0,0.99,0.01c0.9,1.75,3.41,0.56,4.29,2.36 c-0.15,1.45-1.09,2.12-2.37,2.5c-1.12,0.21-2.07-0.12-2.9-0.87C138.35,62.31,135.81,63.25,134.5,60.51z"/><path fill-rule="evenodd" clip-rule="evenodd" fill="#3C91CF" d="M152.48,50.54c0,1.65,0,3.29,0,4.93 c-0.32,0.33-0.7,0.54-1.16,0.6c-1.2-0.06-2.2-0.48-2.81-1.58c0.14-2.19-2.42-1.72-3.08-3.12 c0.66-0.66,1.32-1.32,1.98-1.98C149.35,48.65,151.06,48.98,152.48,50.54z"/><path fill-rule="evenodd" clip-rule="evenodd" fill="#38A2D3" d="M152.48,50.54c-1.69-0.38-3.39-0.76-5.08-1.14 c2.35-1.45,4.64-1.37,6.88,0.23C153.69,49.93,153.09,50.24,152.48,50.54z"/><path fill-rule="evenodd" clip-rule="evenodd" fill="#2080C2" d="M145.57,60.53c-1.7,0.01-4.39,2.05-4.08-2.01 c1.58-0.19,2.99-0.72,4.01-2.01c0.33-0.01,0.67-0.01,1,0c1.12,0.65,1.55,1.68,1.58,2.92 c-0.13,0.75-0.53,1.27-1.25,1.52C146.34,61.01,145.92,60.87,145.57,60.53z"/><path fill-rule="evenodd" clip-rule="evenodd" fill="#2A90C9" d="M147.58,59.68c-0.36-1.06-0.72-2.11-1.08-3.17 c-1.08-2.42,0.73-1.94,2.01-2.01c1.13,0.39,2.26,0.79,3.39,1.18c0.65,1.57-0.06,2.8-1,3.98 c-0.59,0.48-1.28,0.68-2.03,0.65C148.37,60.23,147.94,60.02,147.58,59.68z"/><path fill-rule="evenodd" clip-rule="evenodd" fill="#E2EAC2" d="M162.45,50.53c-0.32,0.99-0.65,1.97-0.97,2.96 c-2.3,0.13-2.06-1.48-2.01-2.95c0.34-0.04,0.68-0.09,1.02-0.13C161.15,50.45,161.8,50.49,162.45,50.53z"/><path fill-rule="evenodd" clip-rule="evenodd" fill="#D5E2E8" d="M159.47,50.54c0.67,0.98,1.34,1.97,2.01,2.95 c0.01,0.67,0.03,1.34,0.04,2.01c-0.78,1.11-1.99,1.47-3.2,1.85c-1.29,0.29-2.55,0.31-3.7-0.47 c-0.42-0.41-0.47-0.87-0.15-1.36c0.35-0.34,0.71-0.69,1.06-1.03C156.84,53.17,158.16,51.85,159.47,50.54z"/><path fill-rule="evenodd" clip-rule="evenodd" fill="#C9DFE1" d="M154.47,55.52c0.02,0.35,0.04,0.7,0.06,1.04 c0.88,0.86,1.68,1.74,1.25,3.12c-0.7,1.17-1.74,1.63-3.07,1.45c-0.97-0.25-1.79-0.71-2.26-1.65 c0.48-1.27,0.97-2.54,1.46-3.81c0.22,0.01,0.42-0.06,0.59-0.2C153.15,55.49,153.81,55.5,154.47,55.52z"/><path fill-rule="evenodd" clip-rule="evenodd" fill="#CBE0F0" d="M153.46,65.36c-2.21-0.01-3.63,2.36-5.97,1.97 c-1.01-0.27-1.51-0.95-1.57-1.97c0.06-0.46,0.24-0.88,0.54-1.25c0.89-0.75,1.94-1.26,2.87-1.96 c1.1-0.71,2.32-0.77,3.57-0.64c1.04,0.03,2.08,0.05,2.76,1.03c-0.1,0.3-0.2,0.6-0.3,0.91 C154.73,64.08,154.1,64.72,153.46,65.36z"/><path fill-rule="evenodd" clip-rule="evenodd" fill="#E6DEE1" d="M158.49,56.51c0.73-1.17,1.92-0.98,3.03-1.01 c0.33,0.34,0.66,0.68,0.99,1.02c-0.36,0.99-0.73,1.99-1.1,2.98c-0.98,0.6-1.96,1.21-2.94,1.81 c-0.99-1.01-1.22-2.2-0.84-3.54C157.86,57.31,158.15,56.89,158.49,56.51z"/><path fill-rule="evenodd" clip-rule="evenodd" fill="#EBD5D7" d="M155.67,62.54c-1.05-0.03-2.1-0.05-3.15-0.08 c-0.61-0.65-0.54-1.31-0.01-1.97c1.02-0.33,2.03-0.66,3.05-0.98c0.32-0.32,0.69-0.38,1.11-0.2 c0.73,0.57,0.83,1.4,0.92,2.24C157.27,62.51,156.46,62.51,155.67,62.54z"/><path fill-rule="evenodd" clip-rule="evenodd" fill="#F5DBE2" d="M157.58,61.55c-0.83-0.44-1.05-1.2-1.09-2.05 c-0.78-2.11-0.13-2.8,2-2c-0,1.27-0.01,2.55-0.01,3.82C158.19,61.42,157.89,61.5,157.58,61.55z"/><path fill-rule="evenodd" clip-rule="evenodd" fill="#F1E7DD" d="M146.52,65.47c0.32,0.62,0.65,1.24,0.97,1.86 c-0.41,0.38-0.82,0.76-1.23,1.13c-1.24,1.01-2.5,1.08-3.77,0.05c-0.01-0.34-0.03-0.68-0.04-1.02 C143.21,65.61,143.58,62.97,146.52,65.47z"/><path fill-rule="evenodd" clip-rule="evenodd" fill="#C5D7E6" d="M142.5,68.52c1.26-0.02,2.51-0.03,3.77-0.05 c-0.16,1.08-0.79,1.75-1.84,2.02c-0.65-0.01-1.3-0.01-1.95-0.02C142.48,69.82,142.49,69.17,142.5,68.52z"/><path fill-rule="evenodd" clip-rule="evenodd" fill="#C2D1DB" d="M146.52,65.47c-2.38-1.38-2.4,1.95-4.06,2.02 c-1.97,0.67-3.95,1.34-5.92,2.02c0-0.62,0-1.23,0-1.85c-0-1.35,1.26-1.49,2.02-2.11 c0.67-0.25,1.33-0.51,2-0.76c0.56-1.35,2.04-1.47,3.02-2.27c0.67-0.67,1.33-1.33,1.99-2 c0.35,0.04,0.69,0.08,1.04,0.12c1.17,1.34,0.87,2.64-0.12,3.91C146.5,64.86,146.51,65.17,146.52,65.47z"/><path fill-rule="evenodd" clip-rule="evenodd" fill="#176CAA" d="M138.56,65.56c-0.28,1.07-1.01,1.73-2.02,2.11 c-0.64,0.36-1.29,0.72-1.93,1.08c-0.37-1.08-0.74-2.17-1.11-3.25c0-0.33-0-0.67-0.01-1 C135.18,64.85,136.87,65.2,138.56,65.56z"/><path fill-rule="evenodd" clip-rule="evenodd" fill="#2F719E" d="M143.57,62.53c-0.69,1.18-1.77,1.83-3.02,2.27 c-0.01-0.76-0.03-1.52-0.04-2.28C141.54,62.52,142.56,62.52,143.57,62.53z"/><path fill-rule="evenodd" clip-rule="evenodd" fill="#F5D6C7" d="M146.49,64.56c0.04-1.3,0.08-2.61,0.12-3.91 c0.33-0.32,0.65-0.65,0.97-0.97c0.3-0.06,0.6-0.04,0.89,0.05c1.49,0.96,0.38,2.59,0.99,3.78 C148.78,64.75,147.57,64.47,146.49,64.56z"/><path fill-rule="evenodd" clip-rule="evenodd" fill="#D7DACF" d="M149.46,63.51c-1.36-0.99-0.87-2.46-0.99-3.78 c0.66-0.08,1.31-0.16,1.97-0.25c0.82,0.06,1.6,0.2,2.06,1c0,0.66,0.01,1.31,0.01,1.97 C151.41,62.55,150.2,62.35,149.46,63.51z"/><path fill-rule="evenodd" clip-rule="evenodd" fill="#EBD3D1" d="M158.49,57.5c-1.27,0.06-1.94,0.72-2,2 c-0.31,0-0.62,0.01-0.94,0.01c-0.34-0.98-0.68-1.96-1.03-2.94c1.32-0.01,2.65-0.03,3.97-0.05 C158.5,56.84,158.5,57.17,158.49,57.5z"/></g></svg> 