<svg width="42" height="42" viewBox="0 0 42 42" fill="none" xmlns="http://www.w3.org/2000/svg">
<rect width="42" height="42" rx="6" fill="#333333"/>
<path fill-rule="evenodd" clip-rule="evenodd" d="M13.3987 15H5.2928V16.3407H13.3987V15ZM13.3987 17.6044H5.2928V18.9451H13.3987V17.6044ZM5.2928 20.0624H13.3987V21.4031H5.2928V20.0624ZM19.7094 21.326H21.0809L23.0149 15H21.5278L20.3104 19.13L19.2625 15.3853H17.8678L16.8199 19.13L15.6025 15H14.1153L16.0494 21.326H17.4209L18.5613 17.4811L19.7094 21.326ZM23.8471 15H25.2726V21.326H23.8471V15ZM28.0157 18.8141H28.1389H28.4934L29.9574 21.326H31.6063L29.9497 18.6215C30.6354 18.3364 31.013 17.7585 31.013 16.8724C31.013 15.7474 30.412 15 28.817 15H26.5902V21.326H28.0157V18.8141ZM28.0157 16.2714H28.6706C29.1175 16.2714 29.5875 16.3099 29.5875 16.8878C29.5875 17.4811 29.1252 17.5427 28.6706 17.5427H28.0157V16.2714ZM33.8948 20.0547H36.7226V21.326H32.4693V15H36.7226V16.2714H33.8948V17.4349H36.5839V18.7062H33.8948V20.0547ZM5 23.391H6.27908V26.8892H7.28076V23.391H8.55213V22.5126H5V23.391ZM10.6865 22.5126C11.7883 22.5126 12.2044 23.0289 12.2044 23.8071C12.2044 24.4235 11.9425 24.8242 11.4647 25.0169L12.6128 26.8892H11.4724L10.463 25.1478H10.2165H10.1317V26.8892H9.14544V22.5126H10.6865ZM10.124 24.2694H10.5786C10.8945 24.2694 11.2182 24.2309 11.2105 23.8148C11.2105 23.4142 10.8868 23.391 10.5786 23.391H10.124V24.2694ZM14.6701 22.5126L12.8517 26.8892H13.9227L14.2078 26.1495H15.8567L16.1341 26.8892H17.2052L15.3867 22.5126H14.6701ZM14.5391 25.2711L15.0323 23.9843L15.5177 25.2711H14.5391ZM18.7616 22.5126L20.4105 25.1864V22.5126H21.3968V26.8892H20.3874L18.7385 24.2078V26.8892H17.7522V22.5126H18.7616ZM24.1553 24.2386C23.5235 23.9998 23.354 23.8457 23.354 23.6299C23.354 23.4219 23.5389 23.2755 23.77 23.2755C24.0243 23.2755 24.2324 23.4373 24.4019 23.7301L25.1878 23.2523C24.9027 22.6899 24.4173 22.4048 23.8086 22.4048C22.9456 22.4048 22.3754 22.921 22.3754 23.6453C22.3754 24.3157 22.753 24.7164 23.6468 25.0631C24.2092 25.2788 24.4173 25.4175 24.4173 25.6718C24.4173 25.9569 24.163 26.111 23.8471 26.111C23.4079 26.111 23.1074 25.8644 23.0149 25.3636L22.0518 25.6025C22.1828 26.4346 22.8377 26.9817 23.8086 26.9817C24.764 26.9817 25.3882 26.4115 25.3882 25.6102C25.4036 24.9244 24.9952 24.5468 24.1553 24.2386ZM27.1064 26.8892H26.1202V22.5126H29.0867V23.391H27.1064V24.2001H28.8324V25.0785H27.1064V26.8892ZM29.7647 26.8892H32.7082V26.0108H30.751V25.0785H32.608V24.2001H30.751V23.391H32.7082V22.5126H29.7647V26.8892ZM36.5916 23.8071C36.5916 24.4235 36.3373 24.8242 35.8596 25.0169L37 26.8892H35.8596L34.8502 25.1478H34.6037H34.5189V26.8892H33.5326V22.5126H35.0737C36.1755 22.5126 36.5916 23.0289 36.5916 23.8071ZM34.5189 24.2694H34.9735C35.2894 24.2694 35.6131 24.2309 35.6053 23.8148C35.6053 23.4142 35.2817 23.391 34.9735 23.391H34.5189V24.2694Z" fill="white"/>
</svg>
