<svg width="42" height="42" viewBox="0 0 42 42" fill="none" xmlns="http://www.w3.org/2000/svg">
<rect width="42" height="42" rx="6" fill="black"/>
<path d="M27.0359 10.8171C28.3661 10.8171 29.4445 9.73878 29.4445 8.40857C29.4445 7.07835 28.3661 6 27.0359 6C25.7057 6 24.6273 7.07835 24.6273 8.40857C24.6273 9.73878 25.7057 10.8171 27.0359 10.8171Z" fill="#7804DD"/>
<path d="M19.8684 10.2963C21.0248 10.2963 21.9623 9.3588 21.9623 8.20234C21.9623 7.04589 21.0248 6.1084 19.8684 6.1084C18.7119 6.1084 17.7744 7.04589 17.7744 8.20234C17.7744 9.3588 18.7119 10.2963 19.8684 10.2963Z" fill="#8000F7"/>
<path d="M13.531 13.3553C14.5692 13.3553 15.4108 12.5137 15.4108 11.4755C15.4108 10.4373 14.5692 9.5957 13.531 9.5957C12.4928 9.5957 11.6512 10.4373 11.6512 11.4755C11.6512 12.5137 12.4928 13.3553 13.531 13.3553Z" fill="#C700FE"/>
<path d="M9.68943 19.2907C10.6225 19.2907 11.3789 18.5343 11.3789 17.6013C11.3789 16.6683 10.6225 15.9119 9.68943 15.9119C8.75639 15.9119 8 16.6683 8 17.6013C8 18.5343 8.75639 19.2907 9.68943 19.2907Z" fill="#F700FC"/>
<path d="M9.52023 26.2706C10.3598 26.2706 11.0405 25.5899 11.0405 24.7503C11.0405 23.9107 10.3598 23.2301 9.52023 23.2301C8.68063 23.2301 8 23.9107 8 24.7503C8 25.5899 8.68063 26.2706 9.52023 26.2706Z" fill="#FF00E2"/>
<path d="M12.8965 32.4202C13.5988 32.4202 14.1682 31.8508 14.1682 31.1485C14.1682 30.4461 13.5988 29.8768 12.8965 29.8768C12.1941 29.8768 11.6248 30.4461 11.6248 31.1485C11.6248 31.8508 12.1941 32.4202 12.8965 32.4202Z" fill="#FF0095"/>
<path d="M18.9351 35.9656C19.506 35.9656 19.9688 35.5028 19.9688 34.9319C19.9688 34.361 19.506 33.8981 18.9351 33.8981C18.3641 33.8981 17.9013 34.361 17.9013 34.9319C17.9013 35.5028 18.3641 35.9656 18.9351 35.9656Z" fill="#FF98DB"/>
<path d="M26.092 36C26.5739 36 26.9645 35.6094 26.9645 35.1275C26.9645 34.6457 26.5739 34.2551 26.092 34.2551C25.6102 34.2551 25.2195 34.6457 25.2195 35.1275C25.2195 35.6094 25.6102 36 26.092 36Z" fill="#FFC6ED"/>
</svg>
