<svg width="42" height="42" viewBox="0 0 42 42" fill="none" xmlns="http://www.w3.org/2000/svg">
<path d="M36 0H6C2.68629 0 0 2.68629 0 6V36C0 39.3137 2.68629 42 6 42H36C39.3137 42 42 39.3137 42 36V6C42 2.68629 39.3137 0 36 0Z" fill="#F1EFEB"/>
<path d="M25.7624 13.1149H16.2416V28.6651H25.7624V13.1149Z" fill="#FF5F00"/>
<path d="M17.2223 20.8911C17.2211 19.3938 17.5605 17.9158 18.2149 16.569C18.8693 15.2222 19.8214 14.0419 20.9993 13.1174C19.5404 11.9709 17.7885 11.258 15.9436 11.0601C14.0987 10.8622 12.2354 11.1873 10.5666 11.9983C8.89773 12.8093 7.49074 14.0734 6.50637 15.6462C5.52201 17.219 5 19.0371 5 20.8925C5 22.748 5.52201 24.566 6.50637 26.1388C7.49074 27.7116 8.89773 28.9757 10.5666 29.7867C12.2354 30.5977 14.0987 30.9229 15.9436 30.725C17.7885 30.5271 19.5404 29.8141 20.9993 28.6676C19.821 27.7429 18.8687 26.5621 18.2143 25.2148C17.5599 23.8675 17.2207 22.389 17.2223 20.8911Z" fill="#EB001B"/>
<path d="M36.055 27.0197V26.7011H36.1924V26.6352H35.8655V26.7011H35.9946V27.0197H36.055ZM36.6896 27.0197V26.6352H36.5907L36.4753 26.9099L36.3599 26.6352H36.261V27.0197H36.3325V26.7286L36.4396 26.9785H36.5137L36.6209 26.7286V27.0197H36.6896Z" fill="#F79E1B"/>
<path d="M37 20.8914C37 22.747 36.4778 24.5651 35.4933 26.138C34.5087 27.7108 33.1015 28.975 31.4325 29.7858C29.7635 30.5967 27.8999 30.9216 26.055 30.7235C24.21 30.5253 22.458 29.812 20.9993 28.6651C22.1767 27.7398 23.1285 26.5592 23.7831 25.2123C24.4376 23.8654 24.7777 22.3875 24.7777 20.89C24.7777 19.3925 24.4376 17.9146 23.7831 16.5677C23.1285 15.2208 22.1767 14.0402 20.9993 13.1149C22.458 11.968 24.21 11.2547 26.055 11.0566C27.8999 10.8584 29.7635 11.1833 31.4325 11.9942C33.1015 12.8051 34.5087 14.0692 35.4933 15.642C36.4778 17.2149 37 19.033 37 20.8886V20.8914Z" fill="#F79E1B"/>
</svg>
