<svg width="42" height="42" viewBox="0 0 42 42" fill="none" xmlns="http://www.w3.org/2000/svg">
<path d="M36 0H6C2.68629 0 0 2.68629 0 6V36C0 39.3137 2.68629 42 6 42H36C39.3137 42 42 39.3137 42 36V6C42 2.68629 39.3137 0 36 0Z" fill="#79BA00"/>
<path d="M17.3694 20.4618C17.086 21.8927 16.8027 23.3236 16.5193 24.7545C16.0164 27.3188 15.5134 29.8832 15.0105 32.4546C14.9113 32.9717 14.8688 33 14.3305 33C12.432 33 10.5336 33 8.62804 33C8.03301 33 7.92675 32.8725 8.04009 32.3129C9.23016 26.3059 10.4273 20.2988 11.6174 14.2918C11.9291 12.7192 12.2408 11.1466 12.5454 9.57404C12.6516 9.02859 12.6729 9.00734 13.2396 9.00734C15.1168 9.00734 16.9939 9.0215 18.8711 9.00025C19.282 8.99317 19.4803 9.13484 19.6291 9.51028C21.1379 13.4205 22.6609 17.3237 24.1769 21.2268C24.2265 21.3472 24.276 21.4606 24.361 21.666C24.5169 20.8939 24.6586 20.2067 24.7932 19.5196C25.459 16.1548 26.1249 12.7971 26.7908 9.43236C26.8545 9.12068 27.0104 9.00025 27.3221 9.00025C29.3055 9.00734 31.289 9.00025 33.2724 9.00734C33.7399 9.00734 33.8462 9.14901 33.747 9.63071C32.4861 16.0061 31.2252 22.3885 29.9643 28.7639C29.7093 30.0319 29.4472 31.2999 29.2063 32.575C29.1497 32.8796 29.0009 32.9929 28.7034 32.9929C26.7058 32.9858 24.7152 32.9858 22.7176 32.9929C22.3847 32.9929 22.2784 32.8017 22.1793 32.5466C20.7483 28.8843 19.3103 25.2291 17.8723 21.5668C17.7236 21.1985 17.5819 20.823 17.4331 20.4547C17.4119 20.4688 17.3906 20.4618 17.3694 20.4618Z" fill="white"/>
</svg>
