<svg width="42" height="42" viewBox="0 0 42 42" fill="none" xmlns="http://www.w3.org/2000/svg">
<rect width="42" height="42" rx="6" fill="#222222"/>
<path d="M30.0224 26.7981C29.0686 27.3798 28.0561 27.8591 27.0017 28.2281C25.8548 28.6838 24.6538 28.9894 23.4285 29.1372C22.9084 29.2255 22.3771 29.2984 21.8344 29.356H21.8169C16.8039 29.8057 12.5295 28.7423 10.0634 26.448C10.0411 26.4296 10.02 26.4099 10 26.3889V26.6614C10.0149 27.6886 10.4012 28.6757 11.0875 29.4403C13.0819 31.7137 16.9089 32.9413 21.353 32.996C24.0112 33.0522 26.6487 32.5186 29.076 31.4337C30.0518 30.9782 30.9281 30.3346 31.6547 29.5398C32.3493 28.7801 32.7454 27.7945 32.7695 26.7653C32.7673 26.1206 32.6097 25.486 32.3101 24.9152C31.6441 25.6519 30.8733 26.2863 30.0224 26.7981V26.7981ZM21.2699 23.679C16.5851 24.0553 12.5447 23.1899 10.0273 21.2053C10.1024 22.1385 10.476 23.0228 11.0929 23.7271C13.0874 26.0027 16.9166 27.2281 21.3585 27.2828C24.0163 27.3404 26.6536 26.806 29.0793 25.7183C30.0582 25.267 30.936 24.6229 31.6602 23.8245C32.3511 23.0628 32.7449 22.078 32.7695 21.0499C32.7667 20.2499 32.5277 19.4685 32.0825 18.8038C31.4425 19.6692 28.6898 23.086 21.2699 23.68V23.679ZM21.3968 21.5674C24.0532 21.6268 26.6894 21.0927 29.1132 20.004C30.0934 19.5521 30.9729 18.9081 31.6996 18.1102C32.4078 17.3612 32.8044 16.3707 32.8089 15.3399C32.8133 14.309 32.4253 13.3152 31.7236 12.56C29.7248 10.2822 25.9021 9.05902 21.4581 9.00432C18.8015 8.94604 16.1651 9.47854 13.7395 10.5634C12.7609 11.018 11.8819 11.6616 11.1531 12.4572C10.4422 13.2047 10.0435 14.1953 10.0385 15.2268C10.0334 16.2583 10.4223 17.2529 11.1258 18.0073C13.1181 20.2874 16.9549 21.5083 21.3935 21.5762L21.3968 21.5674ZM12.7132 12.9769C13.7887 11.6541 17.1398 10.3588 21.062 10.4102C23.328 10.3657 25.575 10.832 27.6363 11.7745C28.3003 12.0789 28.8957 12.5148 29.3867 13.0556C29.541 13.1977 29.6641 13.3703 29.7483 13.5623C29.8325 13.7544 29.8759 13.9619 29.8759 14.1716C29.8759 14.3813 29.8325 14.5887 29.7483 14.7808C29.6641 14.9729 29.541 15.1454 29.3867 15.2875C28.3189 16.6102 24.9634 17.9078 21.0358 17.8564C18.7729 17.8984 16.5295 17.4314 14.4714 16.4899C13.8042 16.1869 13.2031 15.7557 12.7023 15.2208C12.4091 14.9183 12.2354 14.52 12.2132 14.0994C12.2352 13.6762 12.4133 13.2762 12.7132 12.9769V12.9769Z" fill="#ED1C24"/>
</svg>
