<svg width="42" height="42" viewBox="0 0 42 42" fill="none" xmlns="http://www.w3.org/2000/svg">
<rect width="42" height="42" rx="6" fill="#D90182"/>
<path d="M19.6062 34.9677C19.3584 34.9531 19.2831 34.8733 19.2842 34.6177C19.2938 31.685 19.2898 28.7517 19.2909 25.819C19.2909 25.7274 19.2696 25.6285 19.3393 25.5122C19.9681 26.6619 20.7952 27.5795 21.8994 28.2325C23.4925 29.1748 25.217 29.394 27.0107 29.0945C29.6962 28.6461 31.6517 27.2289 32.6806 24.6564C33.2627 23.2004 33.3667 21.6781 33.1874 20.1368C32.9464 18.0616 32.1142 16.2651 30.3744 15.0468C27.7907 13.2368 25.0327 13.039 22.1972 14.4545C21.3819 14.8614 20.6969 15.4548 20.1136 16.1617C19.8304 16.505 19.6141 16.8928 19.3573 17.2709C19.2898 17.1647 19.319 17.0698 19.3185 16.9815C19.3157 15.9914 19.3123 15.0013 19.3196 14.0112C19.3207 13.8274 19.287 13.742 19.0774 13.7516C18.6858 13.7696 18.293 13.7606 17.9007 13.7622C17.7968 13.8387 17.8389 13.9511 17.8389 14.0466C17.8367 20.8999 17.8215 27.8121 17.8215 34.6649C17.8215 34.6649 17.4113 34.5603 17.2079 34.5025C10.1523 32.4998 5.83276 25.438 7.27804 18.2757C9.13353 9.07857 19.3005 4.22576 27.5676 8.66612C31.9568 11.0234 34.3917 14.7889 34.9463 19.7541C34.971 19.9766 35.0486 20.8206 34.9828 21.9046C34.9289 22.3395 34.8923 22.7767 34.8288 23.21C33.9416 29.2215 29.0134 34.0771 22.9834 34.8975C22.6502 34.943 21.0532 35.0543 19.6051 34.9683L19.6062 34.9677Z" fill="white"/>
<path d="M31.7708 21.5219C31.7523 23.0734 31.364 24.6698 30.153 25.9679C29.2314 26.9552 28.0671 27.4879 26.7449 27.6863C24.8546 27.9701 23.1148 27.6239 21.6212 26.377C20.3743 25.3357 19.6905 23.9714 19.4854 22.3738C19.255 20.5779 19.5623 18.8887 20.6457 17.4002C21.7488 15.8852 23.2789 15.1216 25.1277 14.9889C26.1049 14.9187 27.068 15.0367 27.9941 15.3744C29.9457 16.0858 31.1038 17.4912 31.573 19.4922C31.7163 20.1042 31.7652 20.7268 31.7708 21.5225V21.5219Z" fill="white"/>
</svg>
