<svg width="42" height="42" viewBox="0 0 42 42" fill="none" xmlns="http://www.w3.org/2000/svg">
<rect width="42" height="42" rx="6" fill="white"/>
<path d="M36 0H6C2.68629 0 0 2.68629 0 6V12H42V6C42 2.68629 39.3137 0 36 0Z" fill="#1B1F71"/>
<path d="M42 30H0V36C0 39.3137 2.68629 42 6 42H36C39.3137 42 42 39.3137 42 36V30Z" fill="#F6B702"/>
<path fill-rule="evenodd" clip-rule="evenodd" d="M25.5497 20.527C25.2692 20.3595 24.9826 20.2011 24.6965 20.0431L24.6965 20.0431C24.5883 19.9833 24.4802 19.9236 24.3726 19.8634L24.2965 19.8207C24.055 19.6852 23.8099 19.5477 23.6167 19.3441C23.334 19.0441 23.3513 18.6806 23.6571 18.4094C23.8879 18.2016 24.1706 18.1151 24.4707 18.0805C25.2612 17.9881 26.0228 18.1266 26.7498 18.4324C26.9056 18.4959 26.9633 18.4844 26.9979 18.3113C27.1018 17.7631 27.223 17.2208 27.3441 16.6784L27.3441 16.6784L27.3441 16.6784C27.3845 16.4995 27.3442 16.4129 27.1595 16.3495C26.1555 16.0263 25.1342 15.9109 24.0899 16.0725C23.0974 16.2283 22.2031 16.586 21.5222 17.3592C20.6913 18.2997 20.3393 20.0307 21.8569 21.1905C22.2781 21.5136 22.7454 21.7617 23.2128 21.9983C23.5129 22.1541 23.8129 22.3099 24.0552 22.5465C24.4187 22.91 24.3841 23.412 23.9745 23.7178C23.7321 23.9024 23.4494 23.989 23.1493 24.0236C22.2088 24.1275 21.3145 23.9544 20.4663 23.5389C20.2643 23.4408 20.2239 23.4754 20.1836 23.6832L20.178 23.7134L20.178 23.7134C20.0818 24.2401 19.9846 24.772 19.8373 25.2872C19.7623 25.5642 19.872 25.6334 20.0912 25.7027C20.899 25.9681 21.7357 26.0777 22.5954 26.1008C23.6744 26.0777 24.7188 25.8873 25.642 25.2526C27.0441 24.2948 27.6788 21.8021 25.5497 20.527ZM15.8481 16.184C16.0788 16.1831 16.3119 16.1821 16.5484 16.1821C16.3003 16.7822 16.058 17.365 15.7983 17.9478C15.5613 18.5197 15.324 19.0919 15.0866 19.6643L15.0787 19.6835L15.0766 19.6886L15.0762 19.6896L15.0759 19.6902C14.2535 21.6734 13.4299 23.6592 12.6133 25.645C12.521 25.8758 12.4113 25.9566 12.1574 25.9508C11.4824 25.9277 10.8073 25.9219 10.1379 25.9508C9.85521 25.9623 9.79174 25.8296 9.73404 25.6046C9.47663 24.5891 9.21728 23.5746 8.95798 22.5603L8.95798 22.5602C8.58373 21.0963 8.20958 19.6326 7.84147 18.167C7.7203 17.6939 7.47796 17.3881 7.03944 17.1919C6.38165 16.9034 5.69502 16.6899 4.99685 16.5168C4.97837 16.5115 4.95626 16.5096 4.93343 16.5075C4.85648 16.5007 4.77133 16.4932 4.78913 16.3552C4.81221 16.1937 4.90453 16.1764 5.04878 16.1764C6.37586 16.1821 7.70295 16.1821 9.03003 16.1821H9.0301C9.68788 16.1821 10.1379 16.5572 10.2591 17.2092C10.4235 18.0862 10.5865 18.9618 10.7495 19.8373C10.9126 20.713 11.0756 21.5886 11.24 22.4657C11.2529 22.5345 11.269 22.6033 11.2907 22.696L11.2907 22.6961L11.2908 22.6961L11.315 22.8004C11.5364 22.2376 11.7496 21.693 11.9599 21.1558L11.96 21.1554L11.9604 21.1545C12.1445 20.6841 12.3263 20.2196 12.5094 19.7538L12.6468 19.4069L12.6469 19.4067C13.0394 18.4156 13.4305 17.4281 13.8077 16.436C13.8769 16.2456 13.9577 16.1706 14.1712 16.1764C14.7253 16.1887 15.2794 16.1864 15.8481 16.184ZM35.4099 24.2357C35.5127 24.742 35.6155 25.2483 35.728 25.7546C35.7684 25.9277 35.7107 25.945 35.578 25.9508L35.5723 25.9507H35.5722H35.5722C34.9279 25.945 34.2893 25.9393 33.645 25.9508C33.4835 25.9508 33.4373 25.8815 33.4084 25.7373C33.3816 25.5887 33.3497 25.4421 33.3178 25.2958C33.2742 25.0957 33.2307 24.8963 33.2007 24.6929C33.1719 24.5083 33.0911 24.4852 32.9353 24.4852C32.5891 24.4939 32.243 24.4928 31.8968 24.4917H31.8967C31.7813 24.4913 31.6659 24.491 31.5505 24.491C31.4171 24.491 31.2838 24.4925 31.1506 24.4941H31.1506L31.1503 24.4941C30.8398 24.4977 30.5302 24.5013 30.2234 24.4852C29.9926 24.4737 29.906 24.566 29.8426 24.7622C29.7906 24.9266 29.7315 25.0882 29.6724 25.2497C29.6132 25.4113 29.5541 25.5728 29.5021 25.7373C29.4502 25.8873 29.3867 25.9508 29.2194 25.9508C28.4866 25.9392 27.7596 25.9392 27.0268 25.9508C26.8248 25.9566 26.8018 25.9046 26.8768 25.7258C27.4849 24.2644 28.0917 22.8016 28.6984 21.3389L28.7001 21.3348L28.7018 21.3307C29.3085 19.8679 29.9153 18.4051 30.5234 16.9438C30.7369 16.436 31.1235 16.1879 31.6717 16.1879C31.8262 16.1879 31.9804 16.1883 32.1344 16.1886C32.5956 16.1897 33.0552 16.1908 33.5181 16.1821C33.6969 16.1764 33.7662 16.2398 33.8008 16.4072C34.1316 18.0341 34.4675 19.6611 34.8034 21.2881L34.8035 21.2885L34.8036 21.2889C34.9715 22.1023 35.1395 22.9158 35.3068 23.7293C35.3414 23.8981 35.3757 24.0669 35.4099 24.2357ZM30.8467 22.4772C31.4121 22.4772 31.9775 22.4772 32.5429 22.483C32.6987 22.4888 32.7218 22.4253 32.6987 22.2868L32.6985 22.2858C32.462 21.1667 32.2255 20.0477 31.9948 18.9287H31.9371C31.7325 19.4934 31.5294 20.0582 31.3262 20.6229L31.3255 20.6251C31.1221 21.1905 30.9187 21.756 30.7138 22.3214C30.6581 22.4776 30.737 22.4774 30.8362 22.4772L30.8466 22.4772H30.8467ZM19.1436 16.184C19.3766 16.1864 19.6084 16.1887 19.8431 16.1764C20.0566 16.1648 20.1374 16.1937 20.0797 16.4418C19.6952 18.2114 19.3203 19.9859 18.9463 21.7564C18.9106 21.9256 18.8749 22.0947 18.8391 22.2637C18.7816 22.5349 18.7238 22.806 18.6659 23.0772C18.48 23.9488 18.2939 24.8212 18.1179 25.6969C18.0833 25.8815 18.0198 25.9508 17.8236 25.945C17.1504 25.9335 16.483 25.9392 15.8098 25.945L15.8041 25.945C15.6195 25.9508 15.5502 25.9162 15.5964 25.7084C16.2542 22.633 16.9062 19.5576 17.5467 16.4822C17.5986 16.2341 17.6967 16.1591 17.939 16.1764C18.1533 16.1925 18.3704 16.1889 18.5864 16.1852C18.6786 16.1837 18.7707 16.1821 18.8622 16.1821C18.9564 16.1821 19.0501 16.1831 19.1436 16.184Z" fill="#1B1F71"/>
</svg>
