<svg id="Layer_1" enable-background="new 0 0 60 60" height="512" viewBox="0 0 60 60" width="512" xmlns="http://www.w3.org/2000/svg"><path d="m6.012 33.734c.078.492.503.843.986.843.052 0 .105-.004.158-.012 2.648-.42 5.512-.671 8.512-.754l5.541 2.226-1.884 7.88c-.246 1.025.32 2.057 1.315 2.401.22.076.444.112.666.112.804 0 1.563-.479 1.886-1.261l3.583-8.689c.307-.745.386-1.525.276-2.268 1.314.134 2.088.247 2.098.249.049.007.098.011.146.011.278 0 .547-.116.738-.325.014-.015 1.382-1.496 3.618-3.115.628-.09 1.159-.465 1.463-.99 2.693-1.69 5.357-2.716 7.922-3.042.414-.053.753-.361.848-.767.003-.014.197-.808.732-1.687l-.122 1.318c-.029.314.092.624.327.835l6.742 6.065c.263.236.417.56.434.912.017.348-.103.681-.339.938-.339.372-.886.523-1.383.346l-6.413-2.225c-.258-.09-.54-.07-.782.054-.307.157-7.523 3.949-8.594 13.869-.06.549.338 1.042.887 1.102.037.004.073.006.109.006.504 0 .938-.38.993-.893.833-7.72 5.773-11.251 7.161-12.1l5.975 2.073c1.21.431 2.657.069 3.524-.883.597-.652.902-1.498.86-2.383-.043-.889-.431-1.707-1.094-2.303l-6.369-5.729.328-3.548c.035-.372-.142-.732-.457-.934-.315-.201-.716-.21-1.04-.023-1.943 1.124-2.856 3.049-3.223 4.069-2.356.391-4.764 1.293-7.181 2.686-.334-.429-.833-.723-1.419-.774l-5.272-.452c-.003 0-.006-.003-.007-.007l-.432-5.028c.829.58 1.833.926 2.919.926 2.82 0 5.114-2.294 5.114-5.114s-2.294-5.114-5.114-5.114-5.114 2.294-5.114 5.114c0 .386.051.759.133 1.121-.366-.123-.761-.178-1.169-.148-4.163.304-8.156 2.264-11.868 5.825-1.38 1.324-1.987 3.231-1.625 5.103.201 1.041.695 1.972 1.393 2.719-1.961.135-3.859.338-5.656.622-.544.085-.916.597-.83 1.143zm22.917-1.32c-.547-.07-1.528-.184-2.817-.297-.351-.421-.785-.785-1.301-1.057l-4.406-2.316c.792-.893 1.787-1.605 3.009-2.153l.646 2.799c.315 1.366 1.56 2.276 2.955 2.17l3.08-.239c-.508.45-.906.833-1.166 1.093zm1.822-18.181c1.717 0 3.114 1.397 3.114 3.114s-1.397 3.114-3.114 3.114-3.114-1.397-3.114-3.114 1.396-3.114 3.114-3.114zm-16.635 11.356c3.414-3.275 6.891-5 10.629-5.273.024-.002.049-.003.074-.003.502 0 .932.377.975.871l.477 5.551c.083.976.853 1.745 1.828 1.829l5.271.497-6.51.505c-.397.037-.761-.231-.851-.625l-.907-3.928c-.064-.275-.242-.512-.489-.649-.248-.138-.541-.163-.81-.072-2.525.864-4.459 2.289-5.747 4.235-.156.236-.205.526-.135.8s.253.505.503.637l5.454 2.867c1.048.552 1.499 1.793 1.047 2.888l-3.657 8.666 2.085-8.72c.115-.482-.14-.976-.6-1.16l-6.503-2.613c-.026-.011-.05-.022-.076-.031l-.951-.382c-1.137-.457-1.922-1.408-2.155-2.61s.16-2.428 1.048-3.28z"/></svg>