<svg id="Capa_1" enable-background="new 0 0 512 512" height="512" viewBox="0 0 512 512" width="512" xmlns="http://www.w3.org/2000/svg"><g><path d="m437.02 74.98c-48.353-48.351-112.64-74.98-181.02-74.98s-132.667 26.629-181.02 74.98c-48.351 48.353-74.98 112.64-74.98 181.02s26.629 132.667 74.98 181.02c48.353 48.351 112.64 74.98 181.02 74.98s132.667-26.629 181.02-74.98c48.351-48.353 74.98-112.64 74.98-181.02s-26.629-132.667-74.98-181.02zm-75.805 300.317-35.099-48.31 28.334-87.203 56.791-18.453 70.176 50.986c-2.615 36.901-14.091 72.051-33.387 102.98zm-210.43 0h-86.816c-19.296-30.93-30.772-66.079-33.387-102.98l70.176-50.986 56.791 18.453 28.334 87.203zm-119.811-140.347c3.085-33.61 13.533-65.669 30.572-94.283l18.945 58.307zm182.436 79.671-26.323-81.011 68.913-50.069 68.913 50.068-26.323 81.011h-85.18zm218.099-115.648 18.945-58.307c17.039 28.614 27.488 60.673 30.572 94.283zm-2.735-88.664-26.803 82.49-56.791 18.453-74.18-53.895v-59.714l70.274-51.057c27.557 11.219 52.86 27.936 74.532 49.608 4.547 4.546 8.862 9.262 12.968 14.115zm-123.183-74.88-49.591 36.03-49.591-36.03c16.095-3.586 32.701-5.429 49.591-5.429s33.496 1.843 49.591 5.429zm-134.865 11.157 70.274 51.057v59.714l-74.18 53.895-56.791-18.453-26.803-82.49c4.106-4.853 8.421-9.568 12.968-14.115 21.672-21.672 46.976-38.389 74.532-49.608zm-84.384 358.711h61.187l18.954 58.334c-25.912-11.177-49.735-27.271-70.29-47.825-3.411-3.412-6.686-6.923-9.851-10.509zm115.544 70.209-26.831-82.575 35.099-48.31h91.691l35.099 48.31-26.831 82.575c-17.5 4.281-35.635 6.494-54.113 6.494s-36.613-2.213-54.114-6.494zm143.63-11.875 18.954-58.334h61.187c-3.165 3.586-6.44 7.097-9.851 10.509-20.555 20.555-44.378 36.648-70.29 47.825z"/></g></svg>