<svg id="Capa_1" enable-background="new 0 0 512 512" height="512" viewBox="0 0 512 512" width="512" xmlns="http://www.w3.org/2000/svg"><g><path d="m437.019 74.981c-48.352-48.353-112.639-74.981-181.019-74.981s-132.667 26.628-181.019 74.981c-48.353 48.352-74.981 112.639-74.981 181.019s26.628 132.667 74.981 181.019c48.352 48.353 112.639 74.981 181.019 74.981s132.667-26.628 181.019-74.981c48.353-48.352 74.981-112.639 74.981-181.019s-26.628-132.667-74.981-181.019zm-399.801 237.994c31.508-40.797 60.938-85.067 87.528-131.71 6.536-11.464 14.608-22.078 23.993-31.548 28.482-28.738 66.273-44.691 106.412-44.92.294-.002.583-.003.876-.003 39.815 0 77.44 15.505 106.022 43.713 28.853 28.475 44.816 66.472 44.95 106.991.134 40.524-15.573 78.622-44.226 107.275-10.013 10.013-21.302 18.536-33.555 25.333-44.667 24.781-88.497 53.91-130.39 86.624-38.486-9.99-73.778-30.067-102.635-58.925-28.905-28.905-49.003-64.267-58.975-102.83zm378.588 102.831c-42.686 42.686-99.439 66.194-159.806 66.194-5.485 0-10.94-.2-16.357-.585 33.795-24.92 68.698-47.418 104.13-67.075 14.696-8.153 28.226-18.365 40.214-30.354 34.346-34.346 53.173-80.012 53.013-128.587-.16-48.57-19.294-94.115-53.877-128.245-34.239-33.791-79.334-52.36-127.09-52.36-.35 0-.702.001-1.052.003-48.139.274-93.437 19.381-127.549 53.801-11.237 11.338-20.909 24.059-28.748 37.809-21.03 36.888-43.874 72.234-68.128 105.473-.363-5.26-.556-10.555-.556-15.88 0-60.367 23.508-117.12 66.194-159.806s99.439-66.194 159.806-66.194 117.12 23.508 159.806 66.194 66.194 99.439 66.194 159.806-23.508 117.12-66.194 159.806z"/></g></svg>